%TF.GenerationSoftware,KiCad,Pcbnew,9.0.3*%
%TF.CreationDate,2025-08-23T18:14:46+02:00*%
%TF.ProjectId,test,74657374-2e6b-4696-9361-645f70636258,rev?*%
%TF.SameCoordinates,Original*%
%TF.FileFunction,Legend,Bot*%
%TF.FilePolarity,Positive*%
%FSLAX46Y46*%
G04 Gerber Fmt 4.6, Leading zero omitted, Abs format (unit mm)*
G04 Created by KiCad (PCBNEW 9.0.3) date 2025-08-23 18:14:46*
%MOMM*%
%LPD*%
G01*
G04 APERTURE LIST*
G04 Aperture macros list*
%AMRoundRect*
0 Rectangle with rounded corners*
0 $1 Rounding radius*
0 $2 $3 $4 $5 $6 $7 $8 $9 X,Y pos of 4 corners*
0 Add a 4 corners polygon primitive as box body*
4,1,4,$2,$3,$4,$5,$6,$7,$8,$9,$2,$3,0*
0 Add four circle primitives for the rounded corners*
1,1,$1+$1,$2,$3*
1,1,$1+$1,$4,$5*
1,1,$1+$1,$6,$7*
1,1,$1+$1,$8,$9*
0 Add four rect primitives between the rounded corners*
20,1,$1+$1,$2,$3,$4,$5,0*
20,1,$1+$1,$4,$5,$6,$7,0*
20,1,$1+$1,$6,$7,$8,$9,0*
20,1,$1+$1,$8,$9,$2,$3,0*%
G04 Aperture macros list end*
%ADD10C,0.150000*%
%ADD11C,0.120000*%
%ADD12RoundRect,0.100000X-0.637500X-0.100000X0.637500X-0.100000X0.637500X0.100000X-0.637500X0.100000X0*%
%ADD13C,1.700000*%
%ADD14C,4.000000*%
%ADD15C,2.200000*%
%ADD16R,1.800000X0.900000*%
%ADD17RoundRect,0.250000X0.600000X-0.600000X0.600000X0.600000X-0.600000X0.600000X-0.600000X-0.600000X0*%
%ADD18RoundRect,0.250000X-0.600000X-0.600000X0.600000X-0.600000X0.600000X0.600000X-0.600000X0.600000X0*%
%ADD19C,2.540000*%
%ADD20R,1.500000X2.000000*%
%ADD21C,1.800000*%
%ADD22C,1.750000*%
%ADD23RoundRect,0.250000X-0.412500X-0.650000X0.412500X-0.650000X0.412500X0.650000X-0.412500X0.650000X0*%
%ADD24RoundRect,0.250000X-0.337500X-0.475000X0.337500X-0.475000X0.337500X0.475000X-0.337500X0.475000X0*%
%ADD25RoundRect,0.150000X-0.725000X-0.150000X0.725000X-0.150000X0.725000X0.150000X-0.725000X0.150000X0*%
%ADD26RoundRect,0.250000X0.337500X0.475000X-0.337500X0.475000X-0.337500X-0.475000X0.337500X-0.475000X0*%
%ADD27RoundRect,0.137500X-0.137500X0.600000X-0.137500X-0.600000X0.137500X-0.600000X0.137500X0.600000X0*%
%ADD28RoundRect,0.137500X-0.600000X0.137500X-0.600000X-0.137500X0.600000X-0.137500X0.600000X0.137500X0*%
%ADD29RoundRect,0.250000X0.400000X0.300000X-0.400000X0.300000X-0.400000X-0.300000X0.400000X-0.300000X0*%
%ADD30RoundRect,0.250000X-0.650000X0.412500X-0.650000X-0.412500X0.650000X-0.412500X0.650000X0.412500X0*%
G04 APERTURE END LIST*
D10*
X36829904Y-89010819D02*
X36829904Y-89820342D01*
X36829904Y-89820342D02*
X36782285Y-89915580D01*
X36782285Y-89915580D02*
X36734666Y-89963200D01*
X36734666Y-89963200D02*
X36639428Y-90010819D01*
X36639428Y-90010819D02*
X36448952Y-90010819D01*
X36448952Y-90010819D02*
X36353714Y-89963200D01*
X36353714Y-89963200D02*
X36306095Y-89915580D01*
X36306095Y-89915580D02*
X36258476Y-89820342D01*
X36258476Y-89820342D02*
X36258476Y-89010819D01*
X35258476Y-90010819D02*
X35829904Y-90010819D01*
X35544190Y-90010819D02*
X35544190Y-89010819D01*
X35544190Y-89010819D02*
X35639428Y-89153676D01*
X35639428Y-89153676D02*
X35734666Y-89248914D01*
X35734666Y-89248914D02*
X35829904Y-89296533D01*
X34170857Y-140555580D02*
X34218476Y-140603200D01*
X34218476Y-140603200D02*
X34361333Y-140650819D01*
X34361333Y-140650819D02*
X34456571Y-140650819D01*
X34456571Y-140650819D02*
X34599428Y-140603200D01*
X34599428Y-140603200D02*
X34694666Y-140507961D01*
X34694666Y-140507961D02*
X34742285Y-140412723D01*
X34742285Y-140412723D02*
X34789904Y-140222247D01*
X34789904Y-140222247D02*
X34789904Y-140079390D01*
X34789904Y-140079390D02*
X34742285Y-139888914D01*
X34742285Y-139888914D02*
X34694666Y-139793676D01*
X34694666Y-139793676D02*
X34599428Y-139698438D01*
X34599428Y-139698438D02*
X34456571Y-139650819D01*
X34456571Y-139650819D02*
X34361333Y-139650819D01*
X34361333Y-139650819D02*
X34218476Y-139698438D01*
X34218476Y-139698438D02*
X34170857Y-139746057D01*
X33218476Y-140650819D02*
X33789904Y-140650819D01*
X33504190Y-140650819D02*
X33504190Y-139650819D01*
X33504190Y-139650819D02*
X33599428Y-139793676D01*
X33599428Y-139793676D02*
X33694666Y-139888914D01*
X33694666Y-139888914D02*
X33789904Y-139936533D01*
X32361333Y-139650819D02*
X32551809Y-139650819D01*
X32551809Y-139650819D02*
X32647047Y-139698438D01*
X32647047Y-139698438D02*
X32694666Y-139746057D01*
X32694666Y-139746057D02*
X32789904Y-139888914D01*
X32789904Y-139888914D02*
X32837523Y-140079390D01*
X32837523Y-140079390D02*
X32837523Y-140460342D01*
X32837523Y-140460342D02*
X32789904Y-140555580D01*
X32789904Y-140555580D02*
X32742285Y-140603200D01*
X32742285Y-140603200D02*
X32647047Y-140650819D01*
X32647047Y-140650819D02*
X32456571Y-140650819D01*
X32456571Y-140650819D02*
X32361333Y-140603200D01*
X32361333Y-140603200D02*
X32313714Y-140555580D01*
X32313714Y-140555580D02*
X32266095Y-140460342D01*
X32266095Y-140460342D02*
X32266095Y-140222247D01*
X32266095Y-140222247D02*
X32313714Y-140127009D01*
X32313714Y-140127009D02*
X32361333Y-140079390D01*
X32361333Y-140079390D02*
X32456571Y-140031771D01*
X32456571Y-140031771D02*
X32647047Y-140031771D01*
X32647047Y-140031771D02*
X32742285Y-140079390D01*
X32742285Y-140079390D02*
X32789904Y-140127009D01*
X32789904Y-140127009D02*
X32837523Y-140222247D01*
X45937466Y-87586780D02*
X45985085Y-87634400D01*
X45985085Y-87634400D02*
X46127942Y-87682019D01*
X46127942Y-87682019D02*
X46223180Y-87682019D01*
X46223180Y-87682019D02*
X46366037Y-87634400D01*
X46366037Y-87634400D02*
X46461275Y-87539161D01*
X46461275Y-87539161D02*
X46508894Y-87443923D01*
X46508894Y-87443923D02*
X46556513Y-87253447D01*
X46556513Y-87253447D02*
X46556513Y-87110590D01*
X46556513Y-87110590D02*
X46508894Y-86920114D01*
X46508894Y-86920114D02*
X46461275Y-86824876D01*
X46461275Y-86824876D02*
X46366037Y-86729638D01*
X46366037Y-86729638D02*
X46223180Y-86682019D01*
X46223180Y-86682019D02*
X46127942Y-86682019D01*
X46127942Y-86682019D02*
X45985085Y-86729638D01*
X45985085Y-86729638D02*
X45937466Y-86777257D01*
X45366037Y-87110590D02*
X45461275Y-87062971D01*
X45461275Y-87062971D02*
X45508894Y-87015352D01*
X45508894Y-87015352D02*
X45556513Y-86920114D01*
X45556513Y-86920114D02*
X45556513Y-86872495D01*
X45556513Y-86872495D02*
X45508894Y-86777257D01*
X45508894Y-86777257D02*
X45461275Y-86729638D01*
X45461275Y-86729638D02*
X45366037Y-86682019D01*
X45366037Y-86682019D02*
X45175561Y-86682019D01*
X45175561Y-86682019D02*
X45080323Y-86729638D01*
X45080323Y-86729638D02*
X45032704Y-86777257D01*
X45032704Y-86777257D02*
X44985085Y-86872495D01*
X44985085Y-86872495D02*
X44985085Y-86920114D01*
X44985085Y-86920114D02*
X45032704Y-87015352D01*
X45032704Y-87015352D02*
X45080323Y-87062971D01*
X45080323Y-87062971D02*
X45175561Y-87110590D01*
X45175561Y-87110590D02*
X45366037Y-87110590D01*
X45366037Y-87110590D02*
X45461275Y-87158209D01*
X45461275Y-87158209D02*
X45508894Y-87205828D01*
X45508894Y-87205828D02*
X45556513Y-87301066D01*
X45556513Y-87301066D02*
X45556513Y-87491542D01*
X45556513Y-87491542D02*
X45508894Y-87586780D01*
X45508894Y-87586780D02*
X45461275Y-87634400D01*
X45461275Y-87634400D02*
X45366037Y-87682019D01*
X45366037Y-87682019D02*
X45175561Y-87682019D01*
X45175561Y-87682019D02*
X45080323Y-87634400D01*
X45080323Y-87634400D02*
X45032704Y-87586780D01*
X45032704Y-87586780D02*
X44985085Y-87491542D01*
X44985085Y-87491542D02*
X44985085Y-87301066D01*
X44985085Y-87301066D02*
X45032704Y-87205828D01*
X45032704Y-87205828D02*
X45080323Y-87158209D01*
X45080323Y-87158209D02*
X45175561Y-87110590D01*
X92184457Y-140555580D02*
X92232076Y-140603200D01*
X92232076Y-140603200D02*
X92374933Y-140650819D01*
X92374933Y-140650819D02*
X92470171Y-140650819D01*
X92470171Y-140650819D02*
X92613028Y-140603200D01*
X92613028Y-140603200D02*
X92708266Y-140507961D01*
X92708266Y-140507961D02*
X92755885Y-140412723D01*
X92755885Y-140412723D02*
X92803504Y-140222247D01*
X92803504Y-140222247D02*
X92803504Y-140079390D01*
X92803504Y-140079390D02*
X92755885Y-139888914D01*
X92755885Y-139888914D02*
X92708266Y-139793676D01*
X92708266Y-139793676D02*
X92613028Y-139698438D01*
X92613028Y-139698438D02*
X92470171Y-139650819D01*
X92470171Y-139650819D02*
X92374933Y-139650819D01*
X92374933Y-139650819D02*
X92232076Y-139698438D01*
X92232076Y-139698438D02*
X92184457Y-139746057D01*
X91232076Y-140650819D02*
X91803504Y-140650819D01*
X91517790Y-140650819D02*
X91517790Y-139650819D01*
X91517790Y-139650819D02*
X91613028Y-139793676D01*
X91613028Y-139793676D02*
X91708266Y-139888914D01*
X91708266Y-139888914D02*
X91803504Y-139936533D01*
X90327314Y-139650819D02*
X90803504Y-139650819D01*
X90803504Y-139650819D02*
X90851123Y-140127009D01*
X90851123Y-140127009D02*
X90803504Y-140079390D01*
X90803504Y-140079390D02*
X90708266Y-140031771D01*
X90708266Y-140031771D02*
X90470171Y-140031771D01*
X90470171Y-140031771D02*
X90374933Y-140079390D01*
X90374933Y-140079390D02*
X90327314Y-140127009D01*
X90327314Y-140127009D02*
X90279695Y-140222247D01*
X90279695Y-140222247D02*
X90279695Y-140460342D01*
X90279695Y-140460342D02*
X90327314Y-140555580D01*
X90327314Y-140555580D02*
X90374933Y-140603200D01*
X90374933Y-140603200D02*
X90470171Y-140650819D01*
X90470171Y-140650819D02*
X90708266Y-140650819D01*
X90708266Y-140650819D02*
X90803504Y-140603200D01*
X90803504Y-140603200D02*
X90851123Y-140555580D01*
X79501904Y-115895619D02*
X79501904Y-116705142D01*
X79501904Y-116705142D02*
X79454285Y-116800380D01*
X79454285Y-116800380D02*
X79406666Y-116848000D01*
X79406666Y-116848000D02*
X79311428Y-116895619D01*
X79311428Y-116895619D02*
X79120952Y-116895619D01*
X79120952Y-116895619D02*
X79025714Y-116848000D01*
X79025714Y-116848000D02*
X78978095Y-116800380D01*
X78978095Y-116800380D02*
X78930476Y-116705142D01*
X78930476Y-116705142D02*
X78930476Y-115895619D01*
X78549523Y-115895619D02*
X77882857Y-115895619D01*
X77882857Y-115895619D02*
X78311428Y-116895619D01*
X53982857Y-140215580D02*
X54030476Y-140263200D01*
X54030476Y-140263200D02*
X54173333Y-140310819D01*
X54173333Y-140310819D02*
X54268571Y-140310819D01*
X54268571Y-140310819D02*
X54411428Y-140263200D01*
X54411428Y-140263200D02*
X54506666Y-140167961D01*
X54506666Y-140167961D02*
X54554285Y-140072723D01*
X54554285Y-140072723D02*
X54601904Y-139882247D01*
X54601904Y-139882247D02*
X54601904Y-139739390D01*
X54601904Y-139739390D02*
X54554285Y-139548914D01*
X54554285Y-139548914D02*
X54506666Y-139453676D01*
X54506666Y-139453676D02*
X54411428Y-139358438D01*
X54411428Y-139358438D02*
X54268571Y-139310819D01*
X54268571Y-139310819D02*
X54173333Y-139310819D01*
X54173333Y-139310819D02*
X54030476Y-139358438D01*
X54030476Y-139358438D02*
X53982857Y-139406057D01*
X53030476Y-140310819D02*
X53601904Y-140310819D01*
X53316190Y-140310819D02*
X53316190Y-139310819D01*
X53316190Y-139310819D02*
X53411428Y-139453676D01*
X53411428Y-139453676D02*
X53506666Y-139548914D01*
X53506666Y-139548914D02*
X53601904Y-139596533D01*
X52697142Y-139310819D02*
X52030476Y-139310819D01*
X52030476Y-139310819D02*
X52459047Y-140310819D01*
X102833466Y-91694380D02*
X102881085Y-91742000D01*
X102881085Y-91742000D02*
X103023942Y-91789619D01*
X103023942Y-91789619D02*
X103119180Y-91789619D01*
X103119180Y-91789619D02*
X103262037Y-91742000D01*
X103262037Y-91742000D02*
X103357275Y-91646761D01*
X103357275Y-91646761D02*
X103404894Y-91551523D01*
X103404894Y-91551523D02*
X103452513Y-91361047D01*
X103452513Y-91361047D02*
X103452513Y-91218190D01*
X103452513Y-91218190D02*
X103404894Y-91027714D01*
X103404894Y-91027714D02*
X103357275Y-90932476D01*
X103357275Y-90932476D02*
X103262037Y-90837238D01*
X103262037Y-90837238D02*
X103119180Y-90789619D01*
X103119180Y-90789619D02*
X103023942Y-90789619D01*
X103023942Y-90789619D02*
X102881085Y-90837238D01*
X102881085Y-90837238D02*
X102833466Y-90884857D01*
X102500132Y-90789619D02*
X101833466Y-90789619D01*
X101833466Y-90789619D02*
X102262037Y-91789619D01*
X72982057Y-140215580D02*
X73029676Y-140263200D01*
X73029676Y-140263200D02*
X73172533Y-140310819D01*
X73172533Y-140310819D02*
X73267771Y-140310819D01*
X73267771Y-140310819D02*
X73410628Y-140263200D01*
X73410628Y-140263200D02*
X73505866Y-140167961D01*
X73505866Y-140167961D02*
X73553485Y-140072723D01*
X73553485Y-140072723D02*
X73601104Y-139882247D01*
X73601104Y-139882247D02*
X73601104Y-139739390D01*
X73601104Y-139739390D02*
X73553485Y-139548914D01*
X73553485Y-139548914D02*
X73505866Y-139453676D01*
X73505866Y-139453676D02*
X73410628Y-139358438D01*
X73410628Y-139358438D02*
X73267771Y-139310819D01*
X73267771Y-139310819D02*
X73172533Y-139310819D01*
X73172533Y-139310819D02*
X73029676Y-139358438D01*
X73029676Y-139358438D02*
X72982057Y-139406057D01*
X72029676Y-140310819D02*
X72601104Y-140310819D01*
X72315390Y-140310819D02*
X72315390Y-139310819D01*
X72315390Y-139310819D02*
X72410628Y-139453676D01*
X72410628Y-139453676D02*
X72505866Y-139548914D01*
X72505866Y-139548914D02*
X72601104Y-139596533D01*
X71172533Y-139644152D02*
X71172533Y-140310819D01*
X71410628Y-139263200D02*
X71648723Y-139977485D01*
X71648723Y-139977485D02*
X71029676Y-139977485D01*
X67952857Y-119895580D02*
X68000476Y-119943200D01*
X68000476Y-119943200D02*
X68143333Y-119990819D01*
X68143333Y-119990819D02*
X68238571Y-119990819D01*
X68238571Y-119990819D02*
X68381428Y-119943200D01*
X68381428Y-119943200D02*
X68476666Y-119847961D01*
X68476666Y-119847961D02*
X68524285Y-119752723D01*
X68524285Y-119752723D02*
X68571904Y-119562247D01*
X68571904Y-119562247D02*
X68571904Y-119419390D01*
X68571904Y-119419390D02*
X68524285Y-119228914D01*
X68524285Y-119228914D02*
X68476666Y-119133676D01*
X68476666Y-119133676D02*
X68381428Y-119038438D01*
X68381428Y-119038438D02*
X68238571Y-118990819D01*
X68238571Y-118990819D02*
X68143333Y-118990819D01*
X68143333Y-118990819D02*
X68000476Y-119038438D01*
X68000476Y-119038438D02*
X67952857Y-119086057D01*
X67000476Y-119990819D02*
X67571904Y-119990819D01*
X67286190Y-119990819D02*
X67286190Y-118990819D01*
X67286190Y-118990819D02*
X67381428Y-119133676D01*
X67381428Y-119133676D02*
X67476666Y-119228914D01*
X67476666Y-119228914D02*
X67571904Y-119276533D01*
X66381428Y-118990819D02*
X66286190Y-118990819D01*
X66286190Y-118990819D02*
X66190952Y-119038438D01*
X66190952Y-119038438D02*
X66143333Y-119086057D01*
X66143333Y-119086057D02*
X66095714Y-119181295D01*
X66095714Y-119181295D02*
X66048095Y-119371771D01*
X66048095Y-119371771D02*
X66048095Y-119609866D01*
X66048095Y-119609866D02*
X66095714Y-119800342D01*
X66095714Y-119800342D02*
X66143333Y-119895580D01*
X66143333Y-119895580D02*
X66190952Y-119943200D01*
X66190952Y-119943200D02*
X66286190Y-119990819D01*
X66286190Y-119990819D02*
X66381428Y-119990819D01*
X66381428Y-119990819D02*
X66476666Y-119943200D01*
X66476666Y-119943200D02*
X66524285Y-119895580D01*
X66524285Y-119895580D02*
X66571904Y-119800342D01*
X66571904Y-119800342D02*
X66619523Y-119609866D01*
X66619523Y-119609866D02*
X66619523Y-119371771D01*
X66619523Y-119371771D02*
X66571904Y-119181295D01*
X66571904Y-119181295D02*
X66524285Y-119086057D01*
X66524285Y-119086057D02*
X66476666Y-119038438D01*
X66476666Y-119038438D02*
X66381428Y-118990819D01*
X78906666Y-119895580D02*
X78954285Y-119943200D01*
X78954285Y-119943200D02*
X79097142Y-119990819D01*
X79097142Y-119990819D02*
X79192380Y-119990819D01*
X79192380Y-119990819D02*
X79335237Y-119943200D01*
X79335237Y-119943200D02*
X79430475Y-119847961D01*
X79430475Y-119847961D02*
X79478094Y-119752723D01*
X79478094Y-119752723D02*
X79525713Y-119562247D01*
X79525713Y-119562247D02*
X79525713Y-119419390D01*
X79525713Y-119419390D02*
X79478094Y-119228914D01*
X79478094Y-119228914D02*
X79430475Y-119133676D01*
X79430475Y-119133676D02*
X79335237Y-119038438D01*
X79335237Y-119038438D02*
X79192380Y-118990819D01*
X79192380Y-118990819D02*
X79097142Y-118990819D01*
X79097142Y-118990819D02*
X78954285Y-119038438D01*
X78954285Y-119038438D02*
X78906666Y-119086057D01*
X78430475Y-119990819D02*
X78239999Y-119990819D01*
X78239999Y-119990819D02*
X78144761Y-119943200D01*
X78144761Y-119943200D02*
X78097142Y-119895580D01*
X78097142Y-119895580D02*
X78001904Y-119752723D01*
X78001904Y-119752723D02*
X77954285Y-119562247D01*
X77954285Y-119562247D02*
X77954285Y-119181295D01*
X77954285Y-119181295D02*
X78001904Y-119086057D01*
X78001904Y-119086057D02*
X78049523Y-119038438D01*
X78049523Y-119038438D02*
X78144761Y-118990819D01*
X78144761Y-118990819D02*
X78335237Y-118990819D01*
X78335237Y-118990819D02*
X78430475Y-119038438D01*
X78430475Y-119038438D02*
X78478094Y-119086057D01*
X78478094Y-119086057D02*
X78525713Y-119181295D01*
X78525713Y-119181295D02*
X78525713Y-119419390D01*
X78525713Y-119419390D02*
X78478094Y-119514628D01*
X78478094Y-119514628D02*
X78430475Y-119562247D01*
X78430475Y-119562247D02*
X78335237Y-119609866D01*
X78335237Y-119609866D02*
X78144761Y-119609866D01*
X78144761Y-119609866D02*
X78049523Y-119562247D01*
X78049523Y-119562247D02*
X78001904Y-119514628D01*
X78001904Y-119514628D02*
X77954285Y-119419390D01*
X38383619Y-93929295D02*
X39193142Y-93929295D01*
X39193142Y-93929295D02*
X39288380Y-93976914D01*
X39288380Y-93976914D02*
X39336000Y-94024533D01*
X39336000Y-94024533D02*
X39383619Y-94119771D01*
X39383619Y-94119771D02*
X39383619Y-94310247D01*
X39383619Y-94310247D02*
X39336000Y-94405485D01*
X39336000Y-94405485D02*
X39288380Y-94453104D01*
X39288380Y-94453104D02*
X39193142Y-94500723D01*
X39193142Y-94500723D02*
X38383619Y-94500723D01*
X38478857Y-94929295D02*
X38431238Y-94976914D01*
X38431238Y-94976914D02*
X38383619Y-95072152D01*
X38383619Y-95072152D02*
X38383619Y-95310247D01*
X38383619Y-95310247D02*
X38431238Y-95405485D01*
X38431238Y-95405485D02*
X38478857Y-95453104D01*
X38478857Y-95453104D02*
X38574095Y-95500723D01*
X38574095Y-95500723D02*
X38669333Y-95500723D01*
X38669333Y-95500723D02*
X38812190Y-95453104D01*
X38812190Y-95453104D02*
X39383619Y-94881676D01*
X39383619Y-94881676D02*
X39383619Y-95500723D01*
X45346857Y-119641580D02*
X45394476Y-119689200D01*
X45394476Y-119689200D02*
X45537333Y-119736819D01*
X45537333Y-119736819D02*
X45632571Y-119736819D01*
X45632571Y-119736819D02*
X45775428Y-119689200D01*
X45775428Y-119689200D02*
X45870666Y-119593961D01*
X45870666Y-119593961D02*
X45918285Y-119498723D01*
X45918285Y-119498723D02*
X45965904Y-119308247D01*
X45965904Y-119308247D02*
X45965904Y-119165390D01*
X45965904Y-119165390D02*
X45918285Y-118974914D01*
X45918285Y-118974914D02*
X45870666Y-118879676D01*
X45870666Y-118879676D02*
X45775428Y-118784438D01*
X45775428Y-118784438D02*
X45632571Y-118736819D01*
X45632571Y-118736819D02*
X45537333Y-118736819D01*
X45537333Y-118736819D02*
X45394476Y-118784438D01*
X45394476Y-118784438D02*
X45346857Y-118832057D01*
X44394476Y-119736819D02*
X44965904Y-119736819D01*
X44680190Y-119736819D02*
X44680190Y-118736819D01*
X44680190Y-118736819D02*
X44775428Y-118879676D01*
X44775428Y-118879676D02*
X44870666Y-118974914D01*
X44870666Y-118974914D02*
X44965904Y-119022533D01*
X44013523Y-118832057D02*
X43965904Y-118784438D01*
X43965904Y-118784438D02*
X43870666Y-118736819D01*
X43870666Y-118736819D02*
X43632571Y-118736819D01*
X43632571Y-118736819D02*
X43537333Y-118784438D01*
X43537333Y-118784438D02*
X43489714Y-118832057D01*
X43489714Y-118832057D02*
X43442095Y-118927295D01*
X43442095Y-118927295D02*
X43442095Y-119022533D01*
X43442095Y-119022533D02*
X43489714Y-119165390D01*
X43489714Y-119165390D02*
X44061142Y-119736819D01*
X44061142Y-119736819D02*
X43442095Y-119736819D01*
X103295390Y-86339428D02*
X103295390Y-86815619D01*
X103628723Y-85815619D02*
X103295390Y-86339428D01*
X103295390Y-86339428D02*
X102962057Y-85815619D01*
X102104914Y-86815619D02*
X102676342Y-86815619D01*
X102390628Y-86815619D02*
X102390628Y-85815619D01*
X102390628Y-85815619D02*
X102485866Y-85958476D01*
X102485866Y-85958476D02*
X102581104Y-86053714D01*
X102581104Y-86053714D02*
X102676342Y-86101333D01*
X85428057Y-86469180D02*
X85475676Y-86516800D01*
X85475676Y-86516800D02*
X85618533Y-86564419D01*
X85618533Y-86564419D02*
X85713771Y-86564419D01*
X85713771Y-86564419D02*
X85856628Y-86516800D01*
X85856628Y-86516800D02*
X85951866Y-86421561D01*
X85951866Y-86421561D02*
X85999485Y-86326323D01*
X85999485Y-86326323D02*
X86047104Y-86135847D01*
X86047104Y-86135847D02*
X86047104Y-85992990D01*
X86047104Y-85992990D02*
X85999485Y-85802514D01*
X85999485Y-85802514D02*
X85951866Y-85707276D01*
X85951866Y-85707276D02*
X85856628Y-85612038D01*
X85856628Y-85612038D02*
X85713771Y-85564419D01*
X85713771Y-85564419D02*
X85618533Y-85564419D01*
X85618533Y-85564419D02*
X85475676Y-85612038D01*
X85475676Y-85612038D02*
X85428057Y-85659657D01*
X84475676Y-86564419D02*
X85047104Y-86564419D01*
X84761390Y-86564419D02*
X84761390Y-85564419D01*
X84761390Y-85564419D02*
X84856628Y-85707276D01*
X84856628Y-85707276D02*
X84951866Y-85802514D01*
X84951866Y-85802514D02*
X85047104Y-85850133D01*
X84142342Y-85564419D02*
X83523295Y-85564419D01*
X83523295Y-85564419D02*
X83856628Y-85945371D01*
X83856628Y-85945371D02*
X83713771Y-85945371D01*
X83713771Y-85945371D02*
X83618533Y-85992990D01*
X83618533Y-85992990D02*
X83570914Y-86040609D01*
X83570914Y-86040609D02*
X83523295Y-86135847D01*
X83523295Y-86135847D02*
X83523295Y-86373942D01*
X83523295Y-86373942D02*
X83570914Y-86469180D01*
X83570914Y-86469180D02*
X83618533Y-86516800D01*
X83618533Y-86516800D02*
X83713771Y-86564419D01*
X83713771Y-86564419D02*
X83999485Y-86564419D01*
X83999485Y-86564419D02*
X84094723Y-86516800D01*
X84094723Y-86516800D02*
X84142342Y-86469180D01*
X68071904Y-115895619D02*
X68071904Y-116705142D01*
X68071904Y-116705142D02*
X68024285Y-116800380D01*
X68024285Y-116800380D02*
X67976666Y-116848000D01*
X67976666Y-116848000D02*
X67881428Y-116895619D01*
X67881428Y-116895619D02*
X67690952Y-116895619D01*
X67690952Y-116895619D02*
X67595714Y-116848000D01*
X67595714Y-116848000D02*
X67548095Y-116800380D01*
X67548095Y-116800380D02*
X67500476Y-116705142D01*
X67500476Y-116705142D02*
X67500476Y-115895619D01*
X67119523Y-115895619D02*
X66500476Y-115895619D01*
X66500476Y-115895619D02*
X66833809Y-116276571D01*
X66833809Y-116276571D02*
X66690952Y-116276571D01*
X66690952Y-116276571D02*
X66595714Y-116324190D01*
X66595714Y-116324190D02*
X66548095Y-116371809D01*
X66548095Y-116371809D02*
X66500476Y-116467047D01*
X66500476Y-116467047D02*
X66500476Y-116705142D01*
X66500476Y-116705142D02*
X66548095Y-116800380D01*
X66548095Y-116800380D02*
X66595714Y-116848000D01*
X66595714Y-116848000D02*
X66690952Y-116895619D01*
X66690952Y-116895619D02*
X66976666Y-116895619D01*
X66976666Y-116895619D02*
X67071904Y-116848000D01*
X67071904Y-116848000D02*
X67119523Y-116800380D01*
X45465904Y-115844819D02*
X45465904Y-116654342D01*
X45465904Y-116654342D02*
X45418285Y-116749580D01*
X45418285Y-116749580D02*
X45370666Y-116797200D01*
X45370666Y-116797200D02*
X45275428Y-116844819D01*
X45275428Y-116844819D02*
X45084952Y-116844819D01*
X45084952Y-116844819D02*
X44989714Y-116797200D01*
X44989714Y-116797200D02*
X44942095Y-116749580D01*
X44942095Y-116749580D02*
X44894476Y-116654342D01*
X44894476Y-116654342D02*
X44894476Y-115844819D01*
X43989714Y-115844819D02*
X44180190Y-115844819D01*
X44180190Y-115844819D02*
X44275428Y-115892438D01*
X44275428Y-115892438D02*
X44323047Y-115940057D01*
X44323047Y-115940057D02*
X44418285Y-116082914D01*
X44418285Y-116082914D02*
X44465904Y-116273390D01*
X44465904Y-116273390D02*
X44465904Y-116654342D01*
X44465904Y-116654342D02*
X44418285Y-116749580D01*
X44418285Y-116749580D02*
X44370666Y-116797200D01*
X44370666Y-116797200D02*
X44275428Y-116844819D01*
X44275428Y-116844819D02*
X44084952Y-116844819D01*
X44084952Y-116844819D02*
X43989714Y-116797200D01*
X43989714Y-116797200D02*
X43942095Y-116749580D01*
X43942095Y-116749580D02*
X43894476Y-116654342D01*
X43894476Y-116654342D02*
X43894476Y-116416247D01*
X43894476Y-116416247D02*
X43942095Y-116321009D01*
X43942095Y-116321009D02*
X43989714Y-116273390D01*
X43989714Y-116273390D02*
X44084952Y-116225771D01*
X44084952Y-116225771D02*
X44275428Y-116225771D01*
X44275428Y-116225771D02*
X44370666Y-116273390D01*
X44370666Y-116273390D02*
X44418285Y-116321009D01*
X44418285Y-116321009D02*
X44465904Y-116416247D01*
X56489504Y-115844819D02*
X56489504Y-116654342D01*
X56489504Y-116654342D02*
X56441885Y-116749580D01*
X56441885Y-116749580D02*
X56394266Y-116797200D01*
X56394266Y-116797200D02*
X56299028Y-116844819D01*
X56299028Y-116844819D02*
X56108552Y-116844819D01*
X56108552Y-116844819D02*
X56013314Y-116797200D01*
X56013314Y-116797200D02*
X55965695Y-116749580D01*
X55965695Y-116749580D02*
X55918076Y-116654342D01*
X55918076Y-116654342D02*
X55918076Y-115844819D01*
X55013314Y-116178152D02*
X55013314Y-116844819D01*
X55251409Y-115797200D02*
X55489504Y-116511485D01*
X55489504Y-116511485D02*
X54870457Y-116511485D01*
X33053580Y-100957142D02*
X33101200Y-100909523D01*
X33101200Y-100909523D02*
X33148819Y-100766666D01*
X33148819Y-100766666D02*
X33148819Y-100671428D01*
X33148819Y-100671428D02*
X33101200Y-100528571D01*
X33101200Y-100528571D02*
X33005961Y-100433333D01*
X33005961Y-100433333D02*
X32910723Y-100385714D01*
X32910723Y-100385714D02*
X32720247Y-100338095D01*
X32720247Y-100338095D02*
X32577390Y-100338095D01*
X32577390Y-100338095D02*
X32386914Y-100385714D01*
X32386914Y-100385714D02*
X32291676Y-100433333D01*
X32291676Y-100433333D02*
X32196438Y-100528571D01*
X32196438Y-100528571D02*
X32148819Y-100671428D01*
X32148819Y-100671428D02*
X32148819Y-100766666D01*
X32148819Y-100766666D02*
X32196438Y-100909523D01*
X32196438Y-100909523D02*
X32244057Y-100957142D01*
X33148819Y-101909523D02*
X33148819Y-101338095D01*
X33148819Y-101623809D02*
X32148819Y-101623809D01*
X32148819Y-101623809D02*
X32291676Y-101528571D01*
X32291676Y-101528571D02*
X32386914Y-101433333D01*
X32386914Y-101433333D02*
X32434533Y-101338095D01*
X32577390Y-102480952D02*
X32529771Y-102385714D01*
X32529771Y-102385714D02*
X32482152Y-102338095D01*
X32482152Y-102338095D02*
X32386914Y-102290476D01*
X32386914Y-102290476D02*
X32339295Y-102290476D01*
X32339295Y-102290476D02*
X32244057Y-102338095D01*
X32244057Y-102338095D02*
X32196438Y-102385714D01*
X32196438Y-102385714D02*
X32148819Y-102480952D01*
X32148819Y-102480952D02*
X32148819Y-102671428D01*
X32148819Y-102671428D02*
X32196438Y-102766666D01*
X32196438Y-102766666D02*
X32244057Y-102814285D01*
X32244057Y-102814285D02*
X32339295Y-102861904D01*
X32339295Y-102861904D02*
X32386914Y-102861904D01*
X32386914Y-102861904D02*
X32482152Y-102814285D01*
X32482152Y-102814285D02*
X32529771Y-102766666D01*
X32529771Y-102766666D02*
X32577390Y-102671428D01*
X32577390Y-102671428D02*
X32577390Y-102480952D01*
X32577390Y-102480952D02*
X32625009Y-102385714D01*
X32625009Y-102385714D02*
X32672628Y-102338095D01*
X32672628Y-102338095D02*
X32767866Y-102290476D01*
X32767866Y-102290476D02*
X32958342Y-102290476D01*
X32958342Y-102290476D02*
X33053580Y-102338095D01*
X33053580Y-102338095D02*
X33101200Y-102385714D01*
X33101200Y-102385714D02*
X33148819Y-102480952D01*
X33148819Y-102480952D02*
X33148819Y-102671428D01*
X33148819Y-102671428D02*
X33101200Y-102766666D01*
X33101200Y-102766666D02*
X33053580Y-102814285D01*
X33053580Y-102814285D02*
X32958342Y-102861904D01*
X32958342Y-102861904D02*
X32767866Y-102861904D01*
X32767866Y-102861904D02*
X32672628Y-102814285D01*
X32672628Y-102814285D02*
X32625009Y-102766666D01*
X32625009Y-102766666D02*
X32577390Y-102671428D01*
X77398019Y-93218095D02*
X78207542Y-93218095D01*
X78207542Y-93218095D02*
X78302780Y-93265714D01*
X78302780Y-93265714D02*
X78350400Y-93313333D01*
X78350400Y-93313333D02*
X78398019Y-93408571D01*
X78398019Y-93408571D02*
X78398019Y-93599047D01*
X78398019Y-93599047D02*
X78350400Y-93694285D01*
X78350400Y-93694285D02*
X78302780Y-93741904D01*
X78302780Y-93741904D02*
X78207542Y-93789523D01*
X78207542Y-93789523D02*
X77398019Y-93789523D01*
X77826590Y-94408571D02*
X77778971Y-94313333D01*
X77778971Y-94313333D02*
X77731352Y-94265714D01*
X77731352Y-94265714D02*
X77636114Y-94218095D01*
X77636114Y-94218095D02*
X77588495Y-94218095D01*
X77588495Y-94218095D02*
X77493257Y-94265714D01*
X77493257Y-94265714D02*
X77445638Y-94313333D01*
X77445638Y-94313333D02*
X77398019Y-94408571D01*
X77398019Y-94408571D02*
X77398019Y-94599047D01*
X77398019Y-94599047D02*
X77445638Y-94694285D01*
X77445638Y-94694285D02*
X77493257Y-94741904D01*
X77493257Y-94741904D02*
X77588495Y-94789523D01*
X77588495Y-94789523D02*
X77636114Y-94789523D01*
X77636114Y-94789523D02*
X77731352Y-94741904D01*
X77731352Y-94741904D02*
X77778971Y-94694285D01*
X77778971Y-94694285D02*
X77826590Y-94599047D01*
X77826590Y-94599047D02*
X77826590Y-94408571D01*
X77826590Y-94408571D02*
X77874209Y-94313333D01*
X77874209Y-94313333D02*
X77921828Y-94265714D01*
X77921828Y-94265714D02*
X78017066Y-94218095D01*
X78017066Y-94218095D02*
X78207542Y-94218095D01*
X78207542Y-94218095D02*
X78302780Y-94265714D01*
X78302780Y-94265714D02*
X78350400Y-94313333D01*
X78350400Y-94313333D02*
X78398019Y-94408571D01*
X78398019Y-94408571D02*
X78398019Y-94599047D01*
X78398019Y-94599047D02*
X78350400Y-94694285D01*
X78350400Y-94694285D02*
X78302780Y-94741904D01*
X78302780Y-94741904D02*
X78207542Y-94789523D01*
X78207542Y-94789523D02*
X78017066Y-94789523D01*
X78017066Y-94789523D02*
X77921828Y-94741904D01*
X77921828Y-94741904D02*
X77874209Y-94694285D01*
X77874209Y-94694285D02*
X77826590Y-94599047D01*
X56421257Y-119997180D02*
X56468876Y-120044800D01*
X56468876Y-120044800D02*
X56611733Y-120092419D01*
X56611733Y-120092419D02*
X56706971Y-120092419D01*
X56706971Y-120092419D02*
X56849828Y-120044800D01*
X56849828Y-120044800D02*
X56945066Y-119949561D01*
X56945066Y-119949561D02*
X56992685Y-119854323D01*
X56992685Y-119854323D02*
X57040304Y-119663847D01*
X57040304Y-119663847D02*
X57040304Y-119520990D01*
X57040304Y-119520990D02*
X56992685Y-119330514D01*
X56992685Y-119330514D02*
X56945066Y-119235276D01*
X56945066Y-119235276D02*
X56849828Y-119140038D01*
X56849828Y-119140038D02*
X56706971Y-119092419D01*
X56706971Y-119092419D02*
X56611733Y-119092419D01*
X56611733Y-119092419D02*
X56468876Y-119140038D01*
X56468876Y-119140038D02*
X56421257Y-119187657D01*
X55468876Y-120092419D02*
X56040304Y-120092419D01*
X55754590Y-120092419D02*
X55754590Y-119092419D01*
X55754590Y-119092419D02*
X55849828Y-119235276D01*
X55849828Y-119235276D02*
X55945066Y-119330514D01*
X55945066Y-119330514D02*
X56040304Y-119378133D01*
X54516495Y-120092419D02*
X55087923Y-120092419D01*
X54802209Y-120092419D02*
X54802209Y-119092419D01*
X54802209Y-119092419D02*
X54897447Y-119235276D01*
X54897447Y-119235276D02*
X54992685Y-119330514D01*
X54992685Y-119330514D02*
X55087923Y-119378133D01*
D11*
%TO.C,U1*%
X36068000Y-88716000D02*
X33868000Y-88716000D01*
X36068000Y-88716000D02*
X38268000Y-88716000D01*
X36068000Y-83496000D02*
X33868000Y-83496000D01*
X36068000Y-83496000D02*
X38268000Y-83496000D01*
X33408000Y-88846000D02*
X32928000Y-88846000D01*
X33168000Y-88516000D01*
X33408000Y-88846000D01*
G36*
X33408000Y-88846000D02*
G01*
X32928000Y-88846000D01*
X33168000Y-88516000D01*
X33408000Y-88846000D01*
G37*
%TO.C,SW2*%
X99660000Y-141381200D02*
X99660000Y-141681200D01*
X99960000Y-141381200D02*
X99660000Y-141381200D01*
%TO.C,SW7*%
X42510000Y-122305800D02*
X42510000Y-122605800D01*
X42810000Y-122305800D02*
X42510000Y-122305800D01*
%TO.C,SW4*%
X42459200Y-141355800D02*
X42459200Y-141655800D01*
X42759200Y-141355800D02*
X42459200Y-141355800D01*
%TO.C,SW5*%
X61433000Y-141381200D02*
X61433000Y-141681200D01*
X61733000Y-141381200D02*
X61433000Y-141381200D01*
%TO.C,SW3*%
X23460000Y-141355800D02*
X23460000Y-141655800D01*
X23760000Y-141355800D02*
X23460000Y-141355800D01*
%TO.C,SW6*%
X23460000Y-122305800D02*
X23460000Y-122605800D01*
X23760000Y-122305800D02*
X23460000Y-122305800D01*
%TO.C,SW10*%
X99761600Y-122305800D02*
X99761600Y-122605800D01*
X100061600Y-122305800D02*
X99761600Y-122305800D01*
%TO.C,SW1*%
X80473800Y-141384400D02*
X80473800Y-141684400D01*
X80773800Y-141384400D02*
X80473800Y-141384400D01*
%TO.C,SW8*%
X61560000Y-122305800D02*
X61560000Y-122605800D01*
X61860000Y-122305800D02*
X61560000Y-122305800D01*
%TO.C,SW9*%
X80651600Y-122283600D02*
X80651600Y-122583600D01*
X80951600Y-122283600D02*
X80651600Y-122283600D01*
%TO.C,C16*%
X32816748Y-137436000D02*
X34239252Y-137436000D01*
X32816748Y-139256000D02*
X34239252Y-139256000D01*
%TO.C,C8*%
X45509548Y-84812200D02*
X46032052Y-84812200D01*
X45509548Y-86282200D02*
X46032052Y-86282200D01*
%TO.C,C15*%
X90830348Y-137436000D02*
X92252852Y-137436000D01*
X90830348Y-139256000D02*
X92252852Y-139256000D01*
%TO.C,U7*%
X78740000Y-105480800D02*
X76790000Y-105480800D01*
X78740000Y-105480800D02*
X80690000Y-105480800D01*
X78740000Y-115600800D02*
X76790000Y-115600800D01*
X78740000Y-115600800D02*
X80690000Y-115600800D01*
X76280000Y-115875800D02*
X75800000Y-115875800D01*
X76040000Y-115545800D01*
X76280000Y-115875800D01*
G36*
X76280000Y-115875800D02*
G01*
X75800000Y-115875800D01*
X76040000Y-115545800D01*
X76280000Y-115875800D01*
G37*
%TO.C,C17*%
X53078748Y-137441000D02*
X53601252Y-137441000D01*
X53078748Y-138911000D02*
X53601252Y-138911000D01*
%TO.C,C7*%
X102928052Y-92279800D02*
X102405548Y-92279800D01*
X102928052Y-93749800D02*
X102405548Y-93749800D01*
%TO.C,C14*%
X72077948Y-137441000D02*
X72600452Y-137441000D01*
X72077948Y-138911000D02*
X72600452Y-138911000D01*
%TO.C,C10*%
X67048748Y-117121000D02*
X67571252Y-117121000D01*
X67048748Y-118591000D02*
X67571252Y-118591000D01*
%TO.C,C9*%
X78478748Y-117121000D02*
X79001252Y-117121000D01*
X78478748Y-118591000D02*
X79001252Y-118591000D01*
%TO.C,U2*%
X41168800Y-89581200D02*
X41743800Y-89581200D01*
X41168800Y-90156200D02*
X41168800Y-89581200D01*
X41168800Y-99226200D02*
X41168800Y-99801200D01*
X41168800Y-99801200D02*
X41743800Y-99801200D01*
X51388800Y-89581200D02*
X50813800Y-89581200D01*
X51388800Y-90156200D02*
X51388800Y-89581200D01*
X51388800Y-99226200D02*
X51388800Y-99801200D01*
X51388800Y-99801200D02*
X50813800Y-99801200D01*
X41743800Y-88991200D02*
X41273800Y-89331200D01*
X41273800Y-88651200D01*
X41743800Y-88991200D01*
G36*
X41743800Y-88991200D02*
G01*
X41273800Y-89331200D01*
X41273800Y-88651200D01*
X41743800Y-88991200D01*
G37*
%TO.C,C12*%
X44442748Y-116867000D02*
X44965252Y-116867000D01*
X44442748Y-118337000D02*
X44965252Y-118337000D01*
%TO.C,Y1*%
X104779200Y-87175800D02*
X104779200Y-90445800D01*
X104779200Y-90445800D02*
X100859200Y-90445800D01*
%TO.C,C13*%
X84523948Y-83694600D02*
X85046452Y-83694600D01*
X84523948Y-85164600D02*
X85046452Y-85164600D01*
%TO.C,U3*%
X67310000Y-105480800D02*
X65360000Y-105480800D01*
X67310000Y-105480800D02*
X69260000Y-105480800D01*
X67310000Y-115600800D02*
X65360000Y-115600800D01*
X67310000Y-115600800D02*
X69260000Y-115600800D01*
X64850000Y-115875800D02*
X64370000Y-115875800D01*
X64610000Y-115545800D01*
X64850000Y-115875800D01*
G36*
X64850000Y-115875800D02*
G01*
X64370000Y-115875800D01*
X64610000Y-115545800D01*
X64850000Y-115875800D01*
G37*
%TO.C,U6*%
X44704000Y-105430000D02*
X42754000Y-105430000D01*
X44704000Y-105430000D02*
X46654000Y-105430000D01*
X44704000Y-115550000D02*
X42754000Y-115550000D01*
X44704000Y-115550000D02*
X46654000Y-115550000D01*
X42244000Y-115825000D02*
X41764000Y-115825000D01*
X42004000Y-115495000D01*
X42244000Y-115825000D01*
G36*
X42244000Y-115825000D02*
G01*
X41764000Y-115825000D01*
X42004000Y-115495000D01*
X42244000Y-115825000D01*
G37*
%TO.C,U4*%
X55727600Y-105430000D02*
X53777600Y-105430000D01*
X55727600Y-105430000D02*
X57677600Y-105430000D01*
X55727600Y-115550000D02*
X53777600Y-115550000D01*
X55727600Y-115550000D02*
X57677600Y-115550000D01*
X53267600Y-115825000D02*
X52787600Y-115825000D01*
X53027600Y-115495000D01*
X53267600Y-115825000D01*
G36*
X53267600Y-115825000D02*
G01*
X52787600Y-115825000D01*
X53027600Y-115495000D01*
X53267600Y-115825000D01*
G37*
%TO.C,C18*%
X33634000Y-100888748D02*
X33634000Y-102311252D01*
X35454000Y-100888748D02*
X35454000Y-102311252D01*
%TO.C,U8*%
X80183200Y-88870000D02*
X80758200Y-88870000D01*
X80183200Y-89445000D02*
X80183200Y-88870000D01*
X80183200Y-98515000D02*
X80183200Y-99090000D01*
X80183200Y-99090000D02*
X80758200Y-99090000D01*
X90403200Y-88870000D02*
X89828200Y-88870000D01*
X90403200Y-89445000D02*
X90403200Y-88870000D01*
X90403200Y-98515000D02*
X90403200Y-99090000D01*
X90403200Y-99090000D02*
X89828200Y-99090000D01*
X80758200Y-88280000D02*
X80288200Y-88620000D01*
X80288200Y-87940000D01*
X80758200Y-88280000D01*
G36*
X80758200Y-88280000D02*
G01*
X80288200Y-88620000D01*
X80288200Y-87940000D01*
X80758200Y-88280000D01*
G37*
%TO.C,C11*%
X55517148Y-117222600D02*
X56039652Y-117222600D01*
X55517148Y-118692600D02*
X56039652Y-118692600D01*
%TD*%
%LPC*%
D12*
%TO.C,U1*%
X33205500Y-88056000D03*
X33205500Y-87406000D03*
X33205500Y-86756000D03*
X33205500Y-86106000D03*
X33205500Y-85456000D03*
X33205500Y-84806000D03*
X33205500Y-84156000D03*
X38930500Y-84156000D03*
X38930500Y-84806000D03*
X38930500Y-85456000D03*
X38930500Y-86106000D03*
X38930500Y-86756000D03*
X38930500Y-87406000D03*
X38930500Y-88056000D03*
%TD*%
D13*
%TO.C,SW2*%
X106730800Y-148209000D03*
D14*
X101650800Y-148209000D03*
D13*
X96570800Y-148209000D03*
D15*
X99110800Y-153289000D03*
X105460800Y-150749000D03*
D16*
X99060000Y-142431200D03*
X99060000Y-143931200D03*
X104260000Y-142431200D03*
X104260000Y-143931200D03*
%TD*%
D17*
%TO.C,J2*%
X63495000Y-99304500D03*
D13*
X63495000Y-96764500D03*
X66035000Y-99304500D03*
X66035000Y-96764500D03*
X68575000Y-99304500D03*
X68575000Y-96764500D03*
%TD*%
D17*
%TO.C,J1*%
X63495000Y-88839700D03*
D13*
X63495000Y-86299700D03*
X66035000Y-88839700D03*
X66035000Y-86299700D03*
X68575000Y-88839700D03*
X68575000Y-86299700D03*
%TD*%
%TO.C,J6*%
X24638000Y-88646000D03*
X24638000Y-91186000D03*
X24638000Y-93726000D03*
X24638000Y-96266000D03*
X24638000Y-98806000D03*
X24638000Y-101346000D03*
X24638000Y-103886000D03*
X24638000Y-106426000D03*
X24638000Y-108966000D03*
X24638000Y-111506000D03*
X22098000Y-111506000D03*
X22098000Y-108966000D03*
X22098000Y-106426000D03*
X22098000Y-103886000D03*
X22098000Y-101346000D03*
X22098000Y-98806000D03*
X22098000Y-96266000D03*
X22098000Y-93726000D03*
X22098000Y-91186000D03*
D18*
X22098000Y-88646000D03*
%TD*%
D13*
%TO.C,SW7*%
X49580800Y-129133600D03*
D14*
X44500800Y-129133600D03*
D13*
X39420800Y-129133600D03*
D15*
X41960800Y-134213600D03*
X48310800Y-131673600D03*
D16*
X41910000Y-123355800D03*
X41910000Y-124855800D03*
X47110000Y-123355800D03*
X47110000Y-124855800D03*
%TD*%
D13*
%TO.C,SW4*%
X49530000Y-148183600D03*
D14*
X44450000Y-148183600D03*
D13*
X39370000Y-148183600D03*
D15*
X41910000Y-153263600D03*
X48260000Y-150723600D03*
D16*
X41859200Y-142405800D03*
X41859200Y-143905800D03*
X47059200Y-142405800D03*
X47059200Y-143905800D03*
%TD*%
D13*
%TO.C,SW5*%
X68503800Y-148209000D03*
D14*
X63423800Y-148209000D03*
D13*
X58343800Y-148209000D03*
D15*
X60883800Y-153289000D03*
X67233800Y-150749000D03*
D16*
X60833000Y-142431200D03*
X60833000Y-143931200D03*
X66033000Y-142431200D03*
X66033000Y-143931200D03*
%TD*%
D13*
%TO.C,SW3*%
X30530800Y-148183600D03*
D14*
X25450800Y-148183600D03*
D13*
X20370800Y-148183600D03*
D15*
X22910800Y-153263600D03*
X29260800Y-150723600D03*
D16*
X22860000Y-142405800D03*
X22860000Y-143905800D03*
X28060000Y-142405800D03*
X28060000Y-143905800D03*
%TD*%
D13*
%TO.C,SW6*%
X30530800Y-129133600D03*
D14*
X25450800Y-129133600D03*
D13*
X20370800Y-129133600D03*
D15*
X22910800Y-134213600D03*
X29260800Y-131673600D03*
D16*
X22860000Y-123355800D03*
X22860000Y-124855800D03*
X28060000Y-123355800D03*
X28060000Y-124855800D03*
%TD*%
D13*
%TO.C,SW10*%
X106832400Y-129133600D03*
D14*
X101752400Y-129133600D03*
D13*
X96672400Y-129133600D03*
D15*
X99212400Y-134213600D03*
X105562400Y-131673600D03*
D16*
X99161600Y-123355800D03*
X99161600Y-124855800D03*
X104361600Y-123355800D03*
X104361600Y-124855800D03*
%TD*%
D19*
%TO.C,U5*%
X96725200Y-102041000D03*
X106725200Y-102041000D03*
X106725200Y-114691000D03*
X96725200Y-114691000D03*
D20*
X95975200Y-111866000D03*
X95975200Y-104866000D03*
X91475200Y-104866000D03*
X91475200Y-111866000D03*
D21*
X110455200Y-105866000D03*
X110455200Y-108366000D03*
X110455200Y-110866000D03*
X104225200Y-117096000D03*
X101725200Y-117096000D03*
X99225200Y-117096000D03*
%TD*%
D22*
%TO.C,SW1*%
X87553800Y-148234400D03*
D14*
X82473800Y-148234400D03*
D22*
X77393800Y-148234400D03*
D15*
X86283800Y-150774400D03*
X79933800Y-153314400D03*
D16*
X79873800Y-142434400D03*
X79873800Y-143934400D03*
X85073800Y-142434400D03*
X85073800Y-143934400D03*
%TD*%
D13*
%TO.C,SW8*%
X68630800Y-129133600D03*
D14*
X63550800Y-129133600D03*
D13*
X58470800Y-129133600D03*
D15*
X61010800Y-134213600D03*
X67360800Y-131673600D03*
D16*
X60960000Y-123355800D03*
X60960000Y-124855800D03*
X66160000Y-123355800D03*
X66160000Y-124855800D03*
%TD*%
D22*
%TO.C,SW9*%
X87731600Y-129133600D03*
D14*
X82651600Y-129133600D03*
D22*
X77571600Y-129133600D03*
D15*
X86461600Y-131673600D03*
X80111600Y-134213600D03*
D16*
X80051600Y-123333600D03*
X80051600Y-124833600D03*
X85251600Y-123333600D03*
X85251600Y-124833600D03*
%TD*%
D23*
%TO.C,C16*%
X31965500Y-138346000D03*
X35090500Y-138346000D03*
%TD*%
D24*
%TO.C,C8*%
X44733300Y-85547200D03*
X46808300Y-85547200D03*
%TD*%
D23*
%TO.C,C15*%
X89979100Y-138346000D03*
X93104100Y-138346000D03*
%TD*%
D25*
%TO.C,U7*%
X76165000Y-114985800D03*
X76165000Y-113715800D03*
X76165000Y-112445800D03*
X76165000Y-111175800D03*
X76165000Y-109905800D03*
X76165000Y-108635800D03*
X76165000Y-107365800D03*
X76165000Y-106095800D03*
X81315000Y-106095800D03*
X81315000Y-107365800D03*
X81315000Y-108635800D03*
X81315000Y-109905800D03*
X81315000Y-111175800D03*
X81315000Y-112445800D03*
X81315000Y-113715800D03*
X81315000Y-114985800D03*
%TD*%
D24*
%TO.C,C17*%
X52302500Y-138176000D03*
X54377500Y-138176000D03*
%TD*%
D26*
%TO.C,C7*%
X103704300Y-93014800D03*
X101629300Y-93014800D03*
%TD*%
D24*
%TO.C,C14*%
X71301700Y-138176000D03*
X73376700Y-138176000D03*
%TD*%
%TO.C,C10*%
X66272500Y-117856000D03*
X68347500Y-117856000D03*
%TD*%
%TO.C,C9*%
X77702500Y-117856000D03*
X79777500Y-117856000D03*
%TD*%
D27*
%TO.C,U2*%
X42278800Y-89028700D03*
X43078800Y-89028700D03*
X43878800Y-89028700D03*
X44678800Y-89028700D03*
X45478800Y-89028700D03*
X46278800Y-89028700D03*
X47078800Y-89028700D03*
X47878800Y-89028700D03*
X48678800Y-89028700D03*
X49478800Y-89028700D03*
X50278800Y-89028700D03*
D28*
X51941300Y-90691200D03*
X51941300Y-91491200D03*
X51941300Y-92291200D03*
X51941300Y-93091200D03*
X51941300Y-93891200D03*
X51941300Y-94691200D03*
X51941300Y-95491200D03*
X51941300Y-96291200D03*
X51941300Y-97091200D03*
X51941300Y-97891200D03*
X51941300Y-98691200D03*
D27*
X50278800Y-100353700D03*
X49478800Y-100353700D03*
X48678800Y-100353700D03*
X47878800Y-100353700D03*
X47078800Y-100353700D03*
X46278800Y-100353700D03*
X45478800Y-100353700D03*
X44678800Y-100353700D03*
X43878800Y-100353700D03*
X43078800Y-100353700D03*
X42278800Y-100353700D03*
D28*
X40616300Y-98691200D03*
X40616300Y-97891200D03*
X40616300Y-97091200D03*
X40616300Y-96291200D03*
X40616300Y-95491200D03*
X40616300Y-94691200D03*
X40616300Y-93891200D03*
X40616300Y-93091200D03*
X40616300Y-92291200D03*
X40616300Y-91491200D03*
X40616300Y-90691200D03*
%TD*%
D24*
%TO.C,C12*%
X43666500Y-117602000D03*
X45741500Y-117602000D03*
%TD*%
D29*
%TO.C,Y1*%
X103869200Y-89635800D03*
X101769200Y-89635800D03*
X101769200Y-87985800D03*
X103869200Y-87985800D03*
%TD*%
D24*
%TO.C,C13*%
X83747700Y-84429600D03*
X85822700Y-84429600D03*
%TD*%
D25*
%TO.C,U3*%
X64735000Y-114985800D03*
X64735000Y-113715800D03*
X64735000Y-112445800D03*
X64735000Y-111175800D03*
X64735000Y-109905800D03*
X64735000Y-108635800D03*
X64735000Y-107365800D03*
X64735000Y-106095800D03*
X69885000Y-106095800D03*
X69885000Y-107365800D03*
X69885000Y-108635800D03*
X69885000Y-109905800D03*
X69885000Y-111175800D03*
X69885000Y-112445800D03*
X69885000Y-113715800D03*
X69885000Y-114985800D03*
%TD*%
%TO.C,U6*%
X42129000Y-114935000D03*
X42129000Y-113665000D03*
X42129000Y-112395000D03*
X42129000Y-111125000D03*
X42129000Y-109855000D03*
X42129000Y-108585000D03*
X42129000Y-107315000D03*
X42129000Y-106045000D03*
X47279000Y-106045000D03*
X47279000Y-107315000D03*
X47279000Y-108585000D03*
X47279000Y-109855000D03*
X47279000Y-111125000D03*
X47279000Y-112395000D03*
X47279000Y-113665000D03*
X47279000Y-114935000D03*
%TD*%
%TO.C,U4*%
X53152600Y-114935000D03*
X53152600Y-113665000D03*
X53152600Y-112395000D03*
X53152600Y-111125000D03*
X53152600Y-109855000D03*
X53152600Y-108585000D03*
X53152600Y-107315000D03*
X53152600Y-106045000D03*
X58302600Y-106045000D03*
X58302600Y-107315000D03*
X58302600Y-108585000D03*
X58302600Y-109855000D03*
X58302600Y-111125000D03*
X58302600Y-112395000D03*
X58302600Y-113665000D03*
X58302600Y-114935000D03*
%TD*%
D30*
%TO.C,C18*%
X34544000Y-100037500D03*
X34544000Y-103162500D03*
%TD*%
D27*
%TO.C,U8*%
X81293200Y-88317500D03*
X82093200Y-88317500D03*
X82893200Y-88317500D03*
X83693200Y-88317500D03*
X84493200Y-88317500D03*
X85293200Y-88317500D03*
X86093200Y-88317500D03*
X86893200Y-88317500D03*
X87693200Y-88317500D03*
X88493200Y-88317500D03*
X89293200Y-88317500D03*
D28*
X90955700Y-89980000D03*
X90955700Y-90780000D03*
X90955700Y-91580000D03*
X90955700Y-92380000D03*
X90955700Y-93180000D03*
X90955700Y-93980000D03*
X90955700Y-94780000D03*
X90955700Y-95580000D03*
X90955700Y-96380000D03*
X90955700Y-97180000D03*
X90955700Y-97980000D03*
D27*
X89293200Y-99642500D03*
X88493200Y-99642500D03*
X87693200Y-99642500D03*
X86893200Y-99642500D03*
X86093200Y-99642500D03*
X85293200Y-99642500D03*
X84493200Y-99642500D03*
X83693200Y-99642500D03*
X82893200Y-99642500D03*
X82093200Y-99642500D03*
X81293200Y-99642500D03*
D28*
X79630700Y-97980000D03*
X79630700Y-97180000D03*
X79630700Y-96380000D03*
X79630700Y-95580000D03*
X79630700Y-94780000D03*
X79630700Y-93980000D03*
X79630700Y-93180000D03*
X79630700Y-92380000D03*
X79630700Y-91580000D03*
X79630700Y-90780000D03*
X79630700Y-89980000D03*
%TD*%
D24*
%TO.C,C11*%
X54740900Y-117957600D03*
X56815900Y-117957600D03*
%TD*%
%LPD*%
M02*
