%TF.GenerationSoftware,KiCad,Pcbnew,9.0.2*%
%TF.CreationDate,2025-06-15T14:19:34+02:00*%
%TF.ProjectId,test,74657374-2e6b-4696-9361-645f70636258,rev?*%
%TF.SameCoordinates,Original*%
%TF.FileFunction,Copper,L1,Top*%
%TF.FilePolarity,Positive*%
%FSLAX46Y46*%
G04 Gerber Fmt 4.6, Leading zero omitted, Abs format (unit mm)*
G04 Created by KiCad (PCBNEW 9.0.2) date 2025-06-15 14:19:34*
%MOMM*%
%LPD*%
G01*
G04 APERTURE LIST*
G04 Aperture macros list*
%AMRoundRect*
0 Rectangle with rounded corners*
0 $1 Rounding radius*
0 $2 $3 $4 $5 $6 $7 $8 $9 X,Y pos of 4 corners*
0 Add a 4 corners polygon primitive as box body*
4,1,4,$2,$3,$4,$5,$6,$7,$8,$9,$2,$3,0*
0 Add four circle primitives for the rounded corners*
1,1,$1+$1,$2,$3*
1,1,$1+$1,$4,$5*
1,1,$1+$1,$6,$7*
1,1,$1+$1,$8,$9*
0 Add four rect primitives between the rounded corners*
20,1,$1+$1,$2,$3,$4,$5,0*
20,1,$1+$1,$4,$5,$6,$7,0*
20,1,$1+$1,$6,$7,$8,$9,0*
20,1,$1+$1,$8,$9,$2,$3,0*%
G04 Aperture macros list end*
%TA.AperFunction,ComponentPad*%
%ADD10C,2.540000*%
%TD*%
%TA.AperFunction,ComponentPad*%
%ADD11R,1.500000X2.000000*%
%TD*%
%TA.AperFunction,ComponentPad*%
%ADD12C,1.500000*%
%TD*%
%TA.AperFunction,ComponentPad*%
%ADD13R,1.800000X1.800000*%
%TD*%
%TA.AperFunction,ComponentPad*%
%ADD14C,1.800000*%
%TD*%
%TA.AperFunction,ComponentPad*%
%ADD15C,2.200000*%
%TD*%
%TA.AperFunction,ComponentPad*%
%ADD16RoundRect,0.250000X0.550000X-0.550000X0.550000X0.550000X-0.550000X0.550000X-0.550000X-0.550000X0*%
%TD*%
%TA.AperFunction,ComponentPad*%
%ADD17C,1.600000*%
%TD*%
%TA.AperFunction,ComponentPad*%
%ADD18C,1.400000*%
%TD*%
%TA.AperFunction,SMDPad,CuDef*%
%ADD19RoundRect,0.150000X-0.587500X-0.150000X0.587500X-0.150000X0.587500X0.150000X-0.587500X0.150000X0*%
%TD*%
%TA.AperFunction,ComponentPad*%
%ADD20R,1.700000X1.700000*%
%TD*%
%TA.AperFunction,ComponentPad*%
%ADD21C,1.700000*%
%TD*%
%TA.AperFunction,SMDPad,CuDef*%
%ADD22RoundRect,0.100000X-0.637500X-0.100000X0.637500X-0.100000X0.637500X0.100000X-0.637500X0.100000X0*%
%TD*%
%TA.AperFunction,SMDPad,CuDef*%
%ADD23RoundRect,0.218750X-0.218750X-0.256250X0.218750X-0.256250X0.218750X0.256250X-0.218750X0.256250X0*%
%TD*%
%TA.AperFunction,SMDPad,CuDef*%
%ADD24RoundRect,0.218750X-0.256250X0.218750X-0.256250X-0.218750X0.256250X-0.218750X0.256250X0.218750X0*%
%TD*%
%TA.AperFunction,ComponentPad*%
%ADD25R,2.000000X1.500000*%
%TD*%
%TA.AperFunction,SMDPad,CuDef*%
%ADD26RoundRect,0.150000X-0.875000X-0.150000X0.875000X-0.150000X0.875000X0.150000X-0.875000X0.150000X0*%
%TD*%
%TA.AperFunction,ComponentPad*%
%ADD27RoundRect,0.250000X-0.600000X-0.600000X0.600000X-0.600000X0.600000X0.600000X-0.600000X0.600000X0*%
%TD*%
%TA.AperFunction,ViaPad*%
%ADD28C,0.600000*%
%TD*%
%TA.AperFunction,Conductor*%
%ADD29C,0.400000*%
%TD*%
%TA.AperFunction,Conductor*%
%ADD30C,0.200000*%
%TD*%
G04 APERTURE END LIST*
D10*
%TO.P,U2,1*%
%TO.N,N/C*%
X49159800Y-117548000D03*
%TO.P,U2,2*%
X35859800Y-117548000D03*
%TO.P,U2,3*%
X35859800Y-102048000D03*
%TO.P,U2,4*%
X49159800Y-102048000D03*
D11*
%TO.P,U2,5,SW1_A*%
%TO.N,Net-(J4-Pin_9)*%
X50759800Y-106598000D03*
%TO.P,U2,6,SW1_B*%
%TO.N,Net-(J4-Pin_7)*%
X50759800Y-113098000D03*
%TO.P,U2,7,SW2_A*%
%TO.N,Net-(J4-Pin_10)*%
X55259800Y-113098000D03*
%TO.P,U2,8,SW2_B*%
%TO.N,Net-(J4-Pin_8)*%
X55259800Y-106598000D03*
D12*
%TO.P,U2,9,Left*%
%TO.N,Net-(J4-Pin_1)*%
X32759800Y-112298000D03*
%TO.P,U2,10,LRCommon*%
%TO.N,Net-(J4-Pin_3)*%
X32759800Y-109798000D03*
%TO.P,U2,11,Right*%
%TO.N,Net-(J4-Pin_5)*%
X32759800Y-107298000D03*
%TO.P,U2,12,Up*%
%TO.N,Net-(J4-Pin_2)*%
X40009800Y-100048000D03*
%TO.P,U2,13,UDCommon*%
%TO.N,Net-(J4-Pin_4)*%
X42509800Y-100048000D03*
%TO.P,U2,14,Down*%
%TO.N,Net-(J4-Pin_6)*%
X45009800Y-100048000D03*
%TD*%
D13*
%TO.P,D10,1,K*%
%TO.N,Net-(D10-K)*%
X87330200Y-88907400D03*
D14*
%TO.P,D10,2,A*%
%TO.N,Net-(D10-A)*%
X89870200Y-88907400D03*
%TD*%
D15*
%TO.P,SW2,1,1*%
%TO.N,unconnected-(SW2-Pad1)*%
X22952400Y-153220000D03*
%TO.P,SW2,2,2*%
%TO.N,unconnected-(SW2-Pad2)*%
X29302400Y-150680000D03*
%TO.P,SW2,3,3*%
%TO.N,Net-(D12-K)*%
X26762400Y-143060000D03*
%TO.P,SW2,4,4*%
%TO.N,Net-(R17-Pad1)*%
X24222400Y-143060000D03*
%TD*%
D16*
%TO.P,C3,1*%
%TO.N,VCC5*%
X106969975Y-108435800D03*
D17*
%TO.P,C3,2*%
%TO.N,GND*%
X106969975Y-106435800D03*
%TD*%
D18*
%TO.P,R12,1*%
%TO.N,Net-(D12-A)*%
X108366600Y-71827500D03*
%TO.P,R12,2*%
%TO.N,Net-(Q9-C)*%
X110906600Y-71827500D03*
%TD*%
D13*
%TO.P,D6,1,K*%
%TO.N,Net-(D1-K)*%
X87330200Y-66149000D03*
D14*
%TO.P,D6,2,A*%
%TO.N,Net-(D6-A)*%
X89870200Y-66149000D03*
%TD*%
D18*
%TO.P,R29,1*%
%TO.N,PWM4*%
X55423800Y-85047800D03*
%TO.P,R29,2*%
%TO.N,VCC*%
X52883800Y-85047800D03*
%TD*%
%TO.P,R2,1*%
%TO.N,Net-(D2-A)*%
X80424600Y-71750900D03*
%TO.P,R2,2*%
%TO.N,Net-(Q14-C)*%
X82964600Y-71750900D03*
%TD*%
D19*
%TO.P,Q10,1,B*%
%TO.N,Net-(Q10-B)*%
X100218300Y-100169000D03*
%TO.P,Q10,2,E*%
%TO.N,GND*%
X100218300Y-102069000D03*
%TO.P,Q10,3,C*%
%TO.N,Net-(Q10-C)*%
X102093300Y-101119000D03*
%TD*%
D18*
%TO.P,R43,1*%
%TO.N,{slash}RES*%
X23813600Y-132422800D03*
%TO.P,R43,2*%
%TO.N,VCC*%
X21273600Y-132422800D03*
%TD*%
D13*
%TO.P,D9,1,K*%
%TO.N,Net-(D14-K)*%
X87330200Y-83217800D03*
D14*
%TO.P,D9,2,A*%
%TO.N,Net-(D9-A)*%
X89870200Y-83217800D03*
%TD*%
D13*
%TO.P,D7,1,K*%
%TO.N,Net-(D12-K)*%
X87330200Y-71838600D03*
D14*
%TO.P,D7,2,A*%
%TO.N,Net-(D7-A)*%
X89870200Y-71838600D03*
%TD*%
D18*
%TO.P,R19,1*%
%TO.N,Net-(R19-Pad1)*%
X23965400Y-126909000D03*
%TO.P,R19,2*%
%TO.N,Net-(Q11-C)*%
X21425400Y-126909000D03*
%TD*%
D19*
%TO.P,Q17,1,B*%
%TO.N,Net-(Q17-B)*%
X91185500Y-132699000D03*
%TO.P,Q17,2,E*%
%TO.N,Net-(J5-Pin_8)*%
X91185500Y-134599000D03*
%TO.P,Q17,3,C*%
%TO.N,Net-(J5-Pin_7)*%
X93060500Y-133649000D03*
%TD*%
D13*
%TO.P,D2,1,K*%
%TO.N,Net-(D12-K)*%
X72905800Y-71728000D03*
D14*
%TO.P,D2,2,A*%
%TO.N,Net-(D2-A)*%
X75445800Y-71728000D03*
%TD*%
D18*
%TO.P,R17,1*%
%TO.N,Net-(R17-Pad1)*%
X32603400Y-127973000D03*
%TO.P,R17,2*%
%TO.N,Net-(Q11-C)*%
X30063400Y-127973000D03*
%TD*%
%TO.P,R42,1*%
%TO.N,Net-(Q12-C)*%
X95672600Y-107503000D03*
%TO.P,R42,2*%
%TO.N,Net-(Q11-B)*%
X98212600Y-107503000D03*
%TD*%
%TO.P,R47,1*%
%TO.N,GND*%
X102163000Y-118983000D03*
%TO.P,R47,2*%
%TO.N,Net-(J3-Pin_5)*%
X104703000Y-118983000D03*
%TD*%
D20*
%TO.P,J2,1,Pin_1*%
%TO.N,VCC5*%
X24185800Y-90057000D03*
D21*
%TO.P,J2,2,Pin_2*%
%TO.N,GND*%
X26725800Y-90057000D03*
%TD*%
D18*
%TO.P,R8,1*%
%TO.N,Net-(D8-A)*%
X94396600Y-77530000D03*
%TO.P,R8,2*%
%TO.N,Net-(Q7-C)*%
X96936600Y-77530000D03*
%TD*%
%TO.P,R49,1*%
%TO.N,GND*%
X108767000Y-121981000D03*
%TO.P,R49,2*%
%TO.N,Net-(J3-Pin_4)*%
X108767000Y-119441000D03*
%TD*%
%TO.P,R51,1*%
%TO.N,Net-(Q17-B)*%
X96829000Y-132853000D03*
%TO.P,R51,2*%
%TO.N,Net-(J3-Pin_6)*%
X99369000Y-132853000D03*
%TD*%
D19*
%TO.P,Q2,1,B*%
%TO.N,Net-(Q2-B)*%
X65844300Y-75697200D03*
%TO.P,Q2,2,E*%
%TO.N,Net-(D13-K)*%
X65844300Y-77597200D03*
%TO.P,Q2,3,C*%
%TO.N,GND*%
X67719300Y-76647200D03*
%TD*%
D18*
%TO.P,R18,1*%
%TO.N,Net-(R18-Pad1)*%
X32603400Y-124823000D03*
%TO.P,R18,2*%
%TO.N,Net-(Q11-C)*%
X30063400Y-124823000D03*
%TD*%
D19*
%TO.P,Q11,1,B*%
%TO.N,Net-(Q11-B)*%
X98778300Y-110424000D03*
%TO.P,Q11,2,E*%
%TO.N,VCC5*%
X98778300Y-112324000D03*
%TO.P,Q11,3,C*%
%TO.N,Net-(Q11-C)*%
X100653300Y-111374000D03*
%TD*%
D18*
%TO.P,R1,1*%
%TO.N,Net-(D1-A)*%
X80424600Y-66048200D03*
%TO.P,R1,2*%
%TO.N,Net-(Q14-C)*%
X82964600Y-66048200D03*
%TD*%
%TO.P,R44,1*%
%TO.N,Net-(Q13-B)*%
X96829000Y-118931000D03*
%TO.P,R44,2*%
%TO.N,Net-(J3-Pin_1)*%
X99369000Y-118931000D03*
%TD*%
%TO.P,R48,1*%
%TO.N,Net-(Q15-B)*%
X102163000Y-122133000D03*
%TO.P,R48,2*%
%TO.N,Net-(J3-Pin_5)*%
X104703000Y-122133000D03*
%TD*%
D13*
%TO.P,D12,1,K*%
%TO.N,Net-(D12-K)*%
X101195800Y-71755000D03*
D14*
%TO.P,D12,2,A*%
%TO.N,Net-(D12-A)*%
X103735800Y-71755000D03*
%TD*%
D18*
%TO.P,R5,1*%
%TO.N,Net-(D5-A)*%
X80424600Y-88859000D03*
%TO.P,R5,2*%
%TO.N,Net-(Q14-C)*%
X82964600Y-88859000D03*
%TD*%
D15*
%TO.P,SW4,1,1*%
%TO.N,unconnected-(SW4-Pad1)*%
X61052400Y-153240600D03*
%TO.P,SW4,2,2*%
%TO.N,unconnected-(SW4-Pad2)*%
X67402400Y-150700600D03*
%TO.P,SW4,3,3*%
%TO.N,Net-(D14-K)*%
X64862400Y-143080600D03*
%TO.P,SW4,4,4*%
%TO.N,Net-(R19-Pad1)*%
X62322400Y-143080600D03*
%TD*%
D18*
%TO.P,R13,1*%
%TO.N,Net-(D13-A)*%
X108366600Y-77454000D03*
%TO.P,R13,2*%
%TO.N,Net-(Q9-C)*%
X110906600Y-77454000D03*
%TD*%
%TO.P,R35,1*%
%TO.N,ON1*%
X77245200Y-98713000D03*
%TO.P,R35,2*%
%TO.N,Net-(Q8-B)*%
X79785200Y-98713000D03*
%TD*%
D19*
%TO.P,Q1,1,B*%
%TO.N,Net-(Q1-B)*%
X65844300Y-69658900D03*
%TO.P,Q1,2,E*%
%TO.N,Net-(D12-K)*%
X65844300Y-71558900D03*
%TO.P,Q1,3,C*%
%TO.N,GND*%
X67719300Y-70608900D03*
%TD*%
D22*
%TO.P,U6,1,REXT*%
%TO.N,unconnected-(U6-REXT-Pad1)*%
X39868500Y-63261800D03*
%TO.P,U6,2,A0*%
%TO.N,GND*%
X39868500Y-63911800D03*
%TO.P,U6,3,A1*%
X39868500Y-64561800D03*
%TO.P,U6,4,A2*%
X39868500Y-65211800D03*
%TO.P,U6,5,A3*%
X39868500Y-65861800D03*
%TO.P,U6,6,~{OUT0}*%
%TO.N,PWM0*%
X39868500Y-66511800D03*
%TO.P,U6,7,~{OUT1}*%
%TO.N,PWM1*%
X39868500Y-67161800D03*
%TO.P,U6,8,GND*%
%TO.N,GND*%
X39868500Y-67811800D03*
%TO.P,U6,9,~{OUT2}*%
%TO.N,PWM2*%
X39868500Y-68461800D03*
%TO.P,U6,10,~{OUT3}*%
%TO.N,PWM3*%
X39868500Y-69111800D03*
%TO.P,U6,11,~{OUT4}*%
%TO.N,PWM4*%
X45593500Y-69111800D03*
%TO.P,U6,12,~{OUT5}*%
%TO.N,IO5*%
X45593500Y-68461800D03*
%TO.P,U6,13,GND*%
%TO.N,GND*%
X45593500Y-67811800D03*
%TO.P,U6,14,~{OUT6}*%
%TO.N,IO6*%
X45593500Y-67161800D03*
%TO.P,U6,15,~{OUT7}*%
%TO.N,IO7*%
X45593500Y-66511800D03*
%TO.P,U6,16,GND*%
%TO.N,GND*%
X45593500Y-65861800D03*
%TO.P,U6,17,~{RESET}*%
%TO.N,{slash}RES*%
X45593500Y-65211800D03*
%TO.P,U6,18,SCL*%
%TO.N,SCL*%
X45593500Y-64561800D03*
%TO.P,U6,19,SDA*%
%TO.N,SDA*%
X45593500Y-63911800D03*
%TO.P,U6,20,VCC*%
%TO.N,VCC*%
X45593500Y-63261800D03*
%TD*%
D18*
%TO.P,R40,1*%
%TO.N,GND*%
X87290600Y-112379000D03*
%TO.P,R40,2*%
%TO.N,ON3*%
X89830600Y-112379000D03*
%TD*%
D15*
%TO.P,SW5,1,1*%
%TO.N,unconnected-(SW5-Pad1)*%
X80102400Y-153263600D03*
%TO.P,SW5,2,2*%
%TO.N,unconnected-(SW5-Pad2)*%
X86452400Y-150723600D03*
%TO.P,SW5,3,3*%
%TO.N,Net-(D10-K)*%
X83912400Y-143103600D03*
%TO.P,SW5,4,4*%
%TO.N,Net-(R20-Pad1)*%
X81372400Y-143103600D03*
%TD*%
D23*
%TO.P,C1,1*%
%TO.N,VCC*%
X49464900Y-63330800D03*
%TO.P,C1,2*%
%TO.N,GND*%
X51039900Y-63330800D03*
%TD*%
D18*
%TO.P,R9,1*%
%TO.N,Net-(D9-A)*%
X94396600Y-83244500D03*
%TO.P,R9,2*%
%TO.N,Net-(Q7-C)*%
X96936600Y-83244500D03*
%TD*%
D19*
%TO.P,Q4,1,B*%
%TO.N,Net-(Q4-B)*%
X65844300Y-87773800D03*
%TO.P,Q4,2,E*%
%TO.N,Net-(D10-K)*%
X65844300Y-89673800D03*
%TO.P,Q4,3,C*%
%TO.N,GND*%
X67719300Y-88723800D03*
%TD*%
D15*
%TO.P,SW3,1,1*%
%TO.N,unconnected-(SW3-Pad1)*%
X42002400Y-134167600D03*
%TO.P,SW3,2,2*%
%TO.N,unconnected-(SW3-Pad2)*%
X48352400Y-131627600D03*
%TO.P,SW3,3,3*%
%TO.N,Net-(D13-K)*%
X45812400Y-124007600D03*
%TO.P,SW3,4,4*%
%TO.N,Net-(R18-Pad1)*%
X43272400Y-124007600D03*
%TD*%
D19*
%TO.P,Q15,1,B*%
%TO.N,Net-(Q15-B)*%
X91185500Y-123449000D03*
%TO.P,Q15,2,E*%
%TO.N,Net-(J5-Pin_3)*%
X91185500Y-125349000D03*
%TO.P,Q15,3,C*%
%TO.N,Net-(J5-Pin_4)*%
X93060500Y-124399000D03*
%TD*%
D16*
%TO.P,C4,1*%
%TO.N,VCC5*%
X17917575Y-91871800D03*
D17*
%TO.P,C4,2*%
%TO.N,GND*%
X17917575Y-89871800D03*
%TD*%
D19*
%TO.P,Q6,1,B*%
%TO.N,Net-(Q6-B)*%
X65420300Y-100169000D03*
%TO.P,Q6,2,E*%
%TO.N,GND*%
X65420300Y-102069000D03*
%TO.P,Q6,3,C*%
%TO.N,Net-(Q6-C)*%
X67295300Y-101119000D03*
%TD*%
%TO.P,Q14,1,B*%
%TO.N,Net-(Q14-B)*%
X71346300Y-100169000D03*
%TO.P,Q14,2,E*%
%TO.N,VCC5*%
X71346300Y-102069000D03*
%TO.P,Q14,3,C*%
%TO.N,Net-(Q14-C)*%
X73221300Y-101119000D03*
%TD*%
%TO.P,Q8,1,B*%
%TO.N,Net-(Q8-B)*%
X83200300Y-100169000D03*
%TO.P,Q8,2,E*%
%TO.N,GND*%
X83200300Y-102069000D03*
%TO.P,Q8,3,C*%
%TO.N,Net-(Q8-C)*%
X85075300Y-101119000D03*
%TD*%
D18*
%TO.P,R7,1*%
%TO.N,Net-(D7-A)*%
X94396600Y-71815500D03*
%TO.P,R7,2*%
%TO.N,Net-(Q7-C)*%
X96936600Y-71815500D03*
%TD*%
D24*
%TO.P,C5,1*%
%TO.N,VCC*%
X50328000Y-85860500D03*
%TO.P,C5,2*%
%TO.N,GND*%
X50328000Y-87435500D03*
%TD*%
D18*
%TO.P,R27,1*%
%TO.N,PWM2*%
X55423800Y-76894600D03*
%TO.P,R27,2*%
%TO.N,VCC*%
X52883800Y-76894600D03*
%TD*%
D19*
%TO.P,Q5,1,B*%
%TO.N,Net-(Q5-B)*%
X65844300Y-63620600D03*
%TO.P,Q5,2,E*%
%TO.N,Net-(D1-K)*%
X65844300Y-65520600D03*
%TO.P,Q5,3,C*%
%TO.N,GND*%
X67719300Y-64570600D03*
%TD*%
D13*
%TO.P,D15,1,K*%
%TO.N,Net-(D10-K)*%
X101243800Y-88637000D03*
D14*
%TO.P,D15,2,A*%
%TO.N,Net-(D15-A)*%
X103783800Y-88637000D03*
%TD*%
D20*
%TO.P,J3,1,Pin_1*%
%TO.N,Net-(J3-Pin_1)*%
X72000600Y-131690600D03*
D21*
%TO.P,J3,2,Pin_2*%
%TO.N,Net-(J3-Pin_2)*%
X72000600Y-134230600D03*
%TO.P,J3,3,Pin_3*%
%TO.N,Net-(J3-Pin_3)*%
X69460600Y-131690600D03*
%TO.P,J3,4,Pin_4*%
%TO.N,Net-(J3-Pin_4)*%
X69460600Y-134230600D03*
%TO.P,J3,5,Pin_5*%
%TO.N,Net-(J3-Pin_5)*%
X66920600Y-131690600D03*
%TO.P,J3,6,Pin_6*%
%TO.N,Net-(J3-Pin_6)*%
X66920600Y-134230600D03*
%TO.P,J3,7,Pin_7*%
%TO.N,Net-(J3-Pin_7)*%
X64380600Y-131690600D03*
%TO.P,J3,8,Pin_8*%
%TO.N,Net-(J3-Pin_8)*%
X64380600Y-134230600D03*
%TO.P,J3,9,Pin_9*%
%TO.N,Net-(J3-Pin_9)*%
X61840600Y-131690600D03*
%TO.P,J3,10,Pin_10*%
%TO.N,Net-(J3-Pin_10)*%
X61840600Y-134230600D03*
%TO.P,J3,11,Pin_11*%
%TO.N,unconnected-(J3-Pin_11-Pad11)*%
X59300600Y-131690600D03*
%TO.P,J3,12,Pin_12*%
%TO.N,unconnected-(J3-Pin_12-Pad12)*%
X59300600Y-134230600D03*
%TD*%
D18*
%TO.P,R14,1*%
%TO.N,Net-(D14-A)*%
X108366600Y-83080500D03*
%TO.P,R14,2*%
%TO.N,Net-(Q9-C)*%
X110906600Y-83080500D03*
%TD*%
D19*
%TO.P,Q7,1,B*%
%TO.N,Net-(Q7-B)*%
X88534300Y-100169000D03*
%TO.P,Q7,2,E*%
%TO.N,VCC5*%
X88534300Y-102069000D03*
%TO.P,Q7,3,C*%
%TO.N,Net-(Q7-C)*%
X90409300Y-101119000D03*
%TD*%
D10*
%TO.P,U5,1*%
%TO.N,N/C*%
X62423000Y-120668000D03*
%TO.P,U5,2*%
X62423000Y-110668000D03*
%TO.P,U5,3*%
X75073000Y-110668000D03*
%TO.P,U5,4*%
X75073000Y-120668000D03*
D25*
%TO.P,U5,5,SW1_A*%
%TO.N,Net-(J4-Pin_9)*%
X72248000Y-121418000D03*
%TO.P,U5,6,SW1_B*%
%TO.N,Net-(J4-Pin_7)*%
X65248000Y-121418000D03*
%TO.P,U5,7,SW2_A*%
%TO.N,Net-(J4-Pin_10)*%
X65248000Y-125918000D03*
%TO.P,U5,8,SW2_B*%
%TO.N,Net-(J4-Pin_8)*%
X72248000Y-125918000D03*
D14*
%TO.P,U5,9,Left*%
%TO.N,Net-(J4-Pin_2)*%
X66248000Y-106938000D03*
%TO.P,U5,10,LRCommon*%
%TO.N,Net-(J4-Pin_4)*%
X68748000Y-106938000D03*
%TO.P,U5,11,Right*%
%TO.N,Net-(J4-Pin_6)*%
X71248000Y-106938000D03*
%TO.P,U5,12,Up*%
%TO.N,Net-(J4-Pin_1)*%
X77478000Y-113168000D03*
%TO.P,U5,13,UDCommon*%
%TO.N,Net-(J4-Pin_3)*%
X77478000Y-115668000D03*
%TO.P,U5,14,Down*%
X77478000Y-118168000D03*
%TD*%
D18*
%TO.P,R22,1*%
%TO.N,PWM1*%
X59270400Y-72577200D03*
%TO.P,R22,2*%
%TO.N,Net-(Q1-B)*%
X61810400Y-72577200D03*
%TD*%
%TO.P,R33,1*%
%TO.N,GND*%
X59856600Y-102289000D03*
%TO.P,R33,2*%
%TO.N,ON0*%
X62396600Y-102289000D03*
%TD*%
%TO.P,R21,1*%
%TO.N,PWM0*%
X59270400Y-69427200D03*
%TO.P,R21,2*%
%TO.N,Net-(Q5-B)*%
X61810400Y-69427200D03*
%TD*%
D13*
%TO.P,D8,1,K*%
%TO.N,Net-(D13-K)*%
X87330200Y-77528200D03*
D14*
%TO.P,D8,2,A*%
%TO.N,Net-(D8-A)*%
X89870200Y-77528200D03*
%TD*%
D18*
%TO.P,R6,1*%
%TO.N,Net-(D6-A)*%
X94396600Y-66101000D03*
%TO.P,R6,2*%
%TO.N,Net-(Q7-C)*%
X96936600Y-66101000D03*
%TD*%
D23*
%TO.P,C6,1*%
%TO.N,VCC*%
X47508500Y-73746000D03*
%TO.P,C6,2*%
%TO.N,GND*%
X49083500Y-73746000D03*
%TD*%
D15*
%TO.P,SW1,1,1*%
%TO.N,{slash}RES*%
X99152400Y-153273200D03*
%TO.P,SW1,2,2*%
%TO.N,GND*%
X105502400Y-150733200D03*
%TO.P,SW1,3,3*%
%TO.N,Net-(D1-K)*%
X102962400Y-143113200D03*
%TO.P,SW1,4,4*%
%TO.N,Net-(R16-Pad1)*%
X100422400Y-143113200D03*
%TD*%
D10*
%TO.P,U1,1*%
%TO.N,N/C*%
X37616800Y-153587000D03*
%TO.P,U1,2*%
X37616800Y-143587000D03*
%TO.P,U1,3*%
X50266800Y-143587000D03*
%TO.P,U1,4*%
X50266800Y-153587000D03*
D25*
%TO.P,U1,5,SW1_A*%
%TO.N,Net-(J3-Pin_9)*%
X47441800Y-154337000D03*
%TO.P,U1,6,SW1_B*%
%TO.N,Net-(J3-Pin_7)*%
X40441800Y-154337000D03*
%TO.P,U1,7,SW2_A*%
%TO.N,Net-(J3-Pin_10)*%
X40441800Y-158837000D03*
%TO.P,U1,8,SW2_B*%
%TO.N,Net-(J3-Pin_8)*%
X47441800Y-158837000D03*
D14*
%TO.P,U1,9,Left*%
%TO.N,Net-(J3-Pin_2)*%
X41441800Y-139857000D03*
%TO.P,U1,10,LRCommon*%
%TO.N,Net-(J3-Pin_4)*%
X43941800Y-139857000D03*
%TO.P,U1,11,Right*%
%TO.N,Net-(J3-Pin_6)*%
X46441800Y-139857000D03*
%TO.P,U1,12,Up*%
%TO.N,Net-(J3-Pin_1)*%
X52671800Y-146087000D03*
%TO.P,U1,13,UDCommon*%
%TO.N,Net-(J3-Pin_3)*%
X52671800Y-148587000D03*
%TO.P,U1,14,Down*%
%TO.N,Net-(J3-Pin_5)*%
X52671800Y-151087000D03*
%TD*%
D18*
%TO.P,R41,1*%
%TO.N,ON3*%
X87290600Y-109433000D03*
%TO.P,R41,2*%
%TO.N,Net-(Q12-B)*%
X89830600Y-109433000D03*
%TD*%
D19*
%TO.P,Q16,1,B*%
%TO.N,Net-(Q16-B)*%
X91185500Y-128074000D03*
%TO.P,Q16,2,E*%
%TO.N,Net-(J5-Pin_6)*%
X91185500Y-129974000D03*
%TO.P,Q16,3,C*%
%TO.N,Net-(J5-Pin_5)*%
X93060500Y-129024000D03*
%TD*%
D18*
%TO.P,R32,1*%
%TO.N,ON0*%
X59856600Y-98713000D03*
%TO.P,R32,2*%
%TO.N,Net-(Q6-B)*%
X62396600Y-98713000D03*
%TD*%
%TO.P,R38,1*%
%TO.N,ON2*%
X94910600Y-98713000D03*
%TO.P,R38,2*%
%TO.N,Net-(Q10-B)*%
X97450600Y-98713000D03*
%TD*%
%TO.P,R3,1*%
%TO.N,Net-(D3-A)*%
X80424600Y-77453600D03*
%TO.P,R3,2*%
%TO.N,Net-(Q14-C)*%
X82964600Y-77453600D03*
%TD*%
%TO.P,R52,1*%
%TO.N,VCC*%
X102417000Y-129653000D03*
%TO.P,R52,2*%
%TO.N,Net-(J3-Pin_2)*%
X104957000Y-129653000D03*
%TD*%
D20*
%TO.P,J5,1,Pin_1*%
%TO.N,Net-(J5-Pin_1)*%
X83835000Y-121175000D03*
D21*
%TO.P,J5,2,Pin_2*%
%TO.N,Net-(J5-Pin_2)*%
X86375000Y-121175000D03*
%TO.P,J5,3,Pin_3*%
%TO.N,Net-(J5-Pin_3)*%
X83835000Y-123715000D03*
%TO.P,J5,4,Pin_4*%
%TO.N,Net-(J5-Pin_4)*%
X86375000Y-123715000D03*
%TO.P,J5,5,Pin_5*%
%TO.N,Net-(J5-Pin_5)*%
X83835000Y-126255000D03*
%TO.P,J5,6,Pin_6*%
%TO.N,Net-(J5-Pin_6)*%
X86375000Y-126255000D03*
%TO.P,J5,7,Pin_7*%
%TO.N,Net-(J5-Pin_7)*%
X83835000Y-128795000D03*
%TO.P,J5,8,Pin_8*%
%TO.N,Net-(J5-Pin_8)*%
X86375000Y-128795000D03*
%TO.P,J5,9,Pin_9*%
%TO.N,unconnected-(J5-Pin_9-Pad9)*%
X83835000Y-131335000D03*
%TO.P,J5,10,Pin_10*%
%TO.N,unconnected-(J5-Pin_10-Pad10)*%
X86375000Y-131335000D03*
%TO.P,J5,11,Pin_11*%
%TO.N,unconnected-(J5-Pin_11-Pad11)*%
X83835000Y-133875000D03*
%TO.P,J5,12,Pin_12*%
%TO.N,unconnected-(J5-Pin_12-Pad12)*%
X86375000Y-133875000D03*
%TD*%
D18*
%TO.P,R31,1*%
%TO.N,Net-(Q6-C)*%
X67476600Y-95617000D03*
%TO.P,R31,2*%
%TO.N,Net-(Q14-B)*%
X70016600Y-95617000D03*
%TD*%
D13*
%TO.P,D13,1,K*%
%TO.N,Net-(D13-K)*%
X101243800Y-77697000D03*
D14*
%TO.P,D13,2,A*%
%TO.N,Net-(D13-A)*%
X103783800Y-77697000D03*
%TD*%
D19*
%TO.P,Q9,1,B*%
%TO.N,Net-(Q9-B)*%
X105552300Y-100169000D03*
%TO.P,Q9,2,E*%
%TO.N,VCC5*%
X105552300Y-102069000D03*
%TO.P,Q9,3,C*%
%TO.N,Net-(Q9-C)*%
X107427300Y-101119000D03*
%TD*%
D18*
%TO.P,R20,1*%
%TO.N,Net-(R20-Pad1)*%
X23965400Y-123759000D03*
%TO.P,R20,2*%
%TO.N,Net-(Q11-C)*%
X21425400Y-123759000D03*
%TD*%
D13*
%TO.P,D11,1,K*%
%TO.N,Net-(D1-K)*%
X101195800Y-66285000D03*
D14*
%TO.P,D11,2,A*%
%TO.N,Net-(D11-A)*%
X103735800Y-66285000D03*
%TD*%
D19*
%TO.P,Q13,1,B*%
%TO.N,Net-(Q13-B)*%
X91185500Y-118824000D03*
%TO.P,Q13,2,E*%
%TO.N,Net-(J5-Pin_1)*%
X91185500Y-120724000D03*
%TO.P,Q13,3,C*%
%TO.N,Net-(J5-Pin_2)*%
X93060500Y-119774000D03*
%TD*%
D18*
%TO.P,R23,1*%
%TO.N,PWM2*%
X59270400Y-75727200D03*
%TO.P,R23,2*%
%TO.N,Net-(Q2-B)*%
X61810400Y-75727200D03*
%TD*%
D13*
%TO.P,D5,1,K*%
%TO.N,Net-(D10-K)*%
X72905800Y-88873000D03*
D14*
%TO.P,D5,2,A*%
%TO.N,Net-(D5-A)*%
X75445800Y-88873000D03*
%TD*%
D13*
%TO.P,D3,1,K*%
%TO.N,Net-(D13-K)*%
X72905800Y-77443000D03*
D14*
%TO.P,D3,2,A*%
%TO.N,Net-(D3-A)*%
X75445800Y-77443000D03*
%TD*%
D18*
%TO.P,R16,1*%
%TO.N,Net-(R16-Pad1)*%
X32603400Y-131123000D03*
%TO.P,R16,2*%
%TO.N,Net-(Q11-C)*%
X30063400Y-131123000D03*
%TD*%
%TO.P,R10,1*%
%TO.N,Net-(D10-A)*%
X94396600Y-88959000D03*
%TO.P,R10,2*%
%TO.N,Net-(Q7-C)*%
X96936600Y-88959000D03*
%TD*%
%TO.P,R36,1*%
%TO.N,Net-(Q8-C)*%
X85002600Y-95617000D03*
%TO.P,R36,2*%
%TO.N,Net-(Q7-B)*%
X87542600Y-95617000D03*
%TD*%
%TO.P,R30,1*%
%TO.N,PWM0*%
X55423800Y-68741400D03*
%TO.P,R30,2*%
%TO.N,VCC*%
X52883800Y-68741400D03*
%TD*%
%TO.P,R37,1*%
%TO.N,GND*%
X94910600Y-102289000D03*
%TO.P,R37,2*%
%TO.N,ON2*%
X97450600Y-102289000D03*
%TD*%
D19*
%TO.P,Q3,1,B*%
%TO.N,Net-(Q3-B)*%
X65844300Y-81735500D03*
%TO.P,Q3,2,E*%
%TO.N,Net-(D14-K)*%
X65844300Y-83635500D03*
%TO.P,Q3,3,C*%
%TO.N,GND*%
X67719300Y-82685500D03*
%TD*%
D18*
%TO.P,R46,1*%
%TO.N,Net-(J3-Pin_3)*%
X108767000Y-132354000D03*
%TO.P,R46,2*%
%TO.N,VCC*%
X108767000Y-129814000D03*
%TD*%
D13*
%TO.P,D14,1,K*%
%TO.N,Net-(D14-K)*%
X101243800Y-83167000D03*
D14*
%TO.P,D14,2,A*%
%TO.N,Net-(D14-A)*%
X103783800Y-83167000D03*
%TD*%
D18*
%TO.P,R50,1*%
%TO.N,Net-(Q16-B)*%
X96829000Y-129703000D03*
%TO.P,R50,2*%
%TO.N,Net-(J3-Pin_2)*%
X99369000Y-129703000D03*
%TD*%
D22*
%TO.P,U3,1,A0*%
%TO.N,GND*%
X39615100Y-73630400D03*
%TO.P,U3,2,A1*%
X39615100Y-74280400D03*
%TO.P,U3,3,A2*%
X39615100Y-74930400D03*
%TO.P,U3,4,LED0*%
%TO.N,PWM0*%
X39615100Y-75580400D03*
%TO.P,U3,5,LED1*%
%TO.N,PWM1*%
X39615100Y-76230400D03*
%TO.P,U3,6,LED2*%
%TO.N,PWM2*%
X39615100Y-76880400D03*
%TO.P,U3,7,LED3*%
%TO.N,PWM3*%
X39615100Y-77530400D03*
%TO.P,U3,8,V_{SS}*%
%TO.N,GND*%
X39615100Y-78180400D03*
%TO.P,U3,9,LED4*%
%TO.N,PWM4*%
X45340100Y-78180400D03*
%TO.P,U3,10,LED5*%
%TO.N,unconnected-(U3-LED5-Pad10)*%
X45340100Y-77530400D03*
%TO.P,U3,11,LED6*%
%TO.N,unconnected-(U3-LED6-Pad11)*%
X45340100Y-76880400D03*
%TO.P,U3,12,LED7*%
%TO.N,unconnected-(U3-LED7-Pad12)*%
X45340100Y-76230400D03*
%TO.P,U3,13,~{RESET}*%
%TO.N,{slash}RES*%
X45340100Y-75580400D03*
%TO.P,U3,14,SCL*%
%TO.N,SCL*%
X45340100Y-74930400D03*
%TO.P,U3,15,SDA*%
%TO.N,SDA*%
X45340100Y-74280400D03*
%TO.P,U3,16,V_{DD}*%
%TO.N,VCC*%
X45340100Y-73630400D03*
%TD*%
D18*
%TO.P,R45,1*%
%TO.N,GND*%
X96829000Y-122081000D03*
%TO.P,R45,2*%
%TO.N,Net-(J3-Pin_1)*%
X99369000Y-122081000D03*
%TD*%
D19*
%TO.P,Q12,1,B*%
%TO.N,Net-(Q12-B)*%
X93190300Y-110477000D03*
%TO.P,Q12,2,E*%
%TO.N,GND*%
X93190300Y-112377000D03*
%TO.P,Q12,3,C*%
%TO.N,Net-(Q12-C)*%
X95065300Y-111427000D03*
%TD*%
D18*
%TO.P,R15,1*%
%TO.N,Net-(D15-A)*%
X108366600Y-88707000D03*
%TO.P,R15,2*%
%TO.N,Net-(Q9-C)*%
X110906600Y-88707000D03*
%TD*%
D20*
%TO.P,J4,1,Pin_1*%
%TO.N,Net-(J4-Pin_1)*%
X24419600Y-110301000D03*
D21*
%TO.P,J4,2,Pin_2*%
%TO.N,Net-(J4-Pin_2)*%
X21879600Y-110301000D03*
%TO.P,J4,3,Pin_3*%
%TO.N,Net-(J4-Pin_3)*%
X24419600Y-107761000D03*
%TO.P,J4,4,Pin_4*%
%TO.N,Net-(J4-Pin_4)*%
X21879600Y-107761000D03*
%TO.P,J4,5,Pin_5*%
%TO.N,Net-(J4-Pin_5)*%
X24419600Y-105221000D03*
%TO.P,J4,6,Pin_6*%
%TO.N,Net-(J4-Pin_6)*%
X21879600Y-105221000D03*
%TO.P,J4,7,Pin_7*%
%TO.N,Net-(J4-Pin_7)*%
X24419600Y-102681000D03*
%TO.P,J4,8,Pin_8*%
%TO.N,Net-(J4-Pin_8)*%
X21879600Y-102681000D03*
%TO.P,J4,9,Pin_9*%
%TO.N,Net-(J4-Pin_9)*%
X24419600Y-100141000D03*
%TO.P,J4,10,Pin_10*%
%TO.N,Net-(J4-Pin_10)*%
X21879600Y-100141000D03*
%TO.P,J4,11,Pin_11*%
%TO.N,unconnected-(J4-Pin_11-Pad11)*%
X24419600Y-97601000D03*
%TO.P,J4,12,Pin_12*%
%TO.N,unconnected-(J4-Pin_12-Pad12)*%
X21879600Y-97601000D03*
%TD*%
D18*
%TO.P,R4,1*%
%TO.N,Net-(D4-A)*%
X80424600Y-83156300D03*
%TO.P,R4,2*%
%TO.N,Net-(Q14-C)*%
X82964600Y-83156300D03*
%TD*%
%TO.P,R53,1*%
%TO.N,VCC*%
X102417000Y-132803000D03*
%TO.P,R53,2*%
%TO.N,Net-(J3-Pin_6)*%
X104957000Y-132803000D03*
%TD*%
D26*
%TO.P,U4,1,A0*%
%TO.N,GND*%
X38212400Y-84665200D03*
%TO.P,U4,2,A1*%
X38212400Y-85935200D03*
%TO.P,U4,3,A2*%
X38212400Y-87205200D03*
%TO.P,U4,4,P0*%
%TO.N,ON0*%
X38212400Y-88475200D03*
%TO.P,U4,5,P1*%
%TO.N,ON1*%
X38212400Y-89745200D03*
%TO.P,U4,6,P2*%
%TO.N,ON2*%
X38212400Y-91015200D03*
%TO.P,U4,7,P3*%
%TO.N,ON3*%
X38212400Y-92285200D03*
%TO.P,U4,8,GND*%
%TO.N,GND*%
X38212400Y-93555200D03*
%TO.P,U4,9,P4*%
%TO.N,unconnected-(U4-P4-Pad9)*%
X47512400Y-93555200D03*
%TO.P,U4,10,P5*%
%TO.N,unconnected-(U4-P5-Pad10)*%
X47512400Y-92285200D03*
%TO.P,U4,11,P6*%
%TO.N,unconnected-(U4-P6-Pad11)*%
X47512400Y-91015200D03*
%TO.P,U4,12,P7*%
%TO.N,unconnected-(U4-P7-Pad12)*%
X47512400Y-89745200D03*
%TO.P,U4,13,~{INT}*%
%TO.N,unconnected-(U4-~{INT}-Pad13)*%
X47512400Y-88475200D03*
%TO.P,U4,14,SCL*%
%TO.N,SCL*%
X47512400Y-87205200D03*
%TO.P,U4,15,SDA*%
%TO.N,SDA*%
X47512400Y-85935200D03*
%TO.P,U4,16,VDD*%
%TO.N,VCC*%
X47512400Y-84665200D03*
%TD*%
D18*
%TO.P,R24,1*%
%TO.N,PWM3*%
X59270400Y-78877200D03*
%TO.P,R24,2*%
%TO.N,Net-(Q3-B)*%
X61810400Y-78877200D03*
%TD*%
D27*
%TO.P,J1,1,3V3*%
%TO.N,VCC*%
X24638200Y-69784000D03*
D21*
%TO.P,J1,2,GND*%
%TO.N,GND*%
X27178200Y-69784000D03*
%TO.P,J1,3,TXD*%
%TO.N,unconnected-(J1-TXD-Pad3)*%
X24638200Y-72324000D03*
%TO.P,J1,4,RXD*%
%TO.N,unconnected-(J1-RXD-Pad4)*%
X27178200Y-72324000D03*
%TO.P,J1,5,SCL*%
%TO.N,SCL*%
X24638200Y-74864000D03*
%TO.P,J1,6,SDA*%
%TO.N,SDA*%
X27178200Y-74864000D03*
%TO.P,J1,7,MISO*%
%TO.N,unconnected-(J1-MISO-Pad7)*%
X24638200Y-77404000D03*
%TO.P,J1,8,MOSI*%
%TO.N,unconnected-(J1-MOSI-Pad8)*%
X27178200Y-77404000D03*
%TO.P,J1,9,SCK*%
%TO.N,unconnected-(J1-SCK-Pad9)*%
X24638200Y-79944000D03*
%TO.P,J1,10,~{SSEL}*%
%TO.N,unconnected-(J1-~{SSEL}-Pad10)*%
X27178200Y-79944000D03*
%TD*%
D18*
%TO.P,R25,1*%
%TO.N,PWM4*%
X59270400Y-82027200D03*
%TO.P,R25,2*%
%TO.N,Net-(Q4-B)*%
X61810400Y-82027200D03*
%TD*%
D16*
%TO.P,C2,1*%
%TO.N,VCC*%
X34071975Y-82531000D03*
D17*
%TO.P,C2,2*%
%TO.N,GND*%
X34071975Y-80531000D03*
%TD*%
D13*
%TO.P,D4,1,K*%
%TO.N,Net-(D14-K)*%
X72905800Y-83158000D03*
D14*
%TO.P,D4,2,A*%
%TO.N,Net-(D4-A)*%
X75445800Y-83158000D03*
%TD*%
D18*
%TO.P,R26,1*%
%TO.N,PWM1*%
X55423800Y-72818000D03*
%TO.P,R26,2*%
%TO.N,VCC*%
X52883800Y-72818000D03*
%TD*%
%TO.P,R39,1*%
%TO.N,Net-(Q10-C)*%
X102784600Y-95617000D03*
%TO.P,R39,2*%
%TO.N,Net-(Q9-B)*%
X105324600Y-95617000D03*
%TD*%
%TO.P,R11,1*%
%TO.N,Net-(D11-A)*%
X108366600Y-66201000D03*
%TO.P,R11,2*%
%TO.N,Net-(Q9-C)*%
X110906600Y-66201000D03*
%TD*%
%TO.P,R28,1*%
%TO.N,PWM3*%
X55423800Y-80971200D03*
%TO.P,R28,2*%
%TO.N,VCC*%
X52883800Y-80971200D03*
%TD*%
D13*
%TO.P,D1,1,K*%
%TO.N,Net-(D1-K)*%
X72905800Y-66013000D03*
D14*
%TO.P,D1,2,A*%
%TO.N,Net-(D1-A)*%
X75445800Y-66013000D03*
%TD*%
D18*
%TO.P,R34,1*%
%TO.N,GND*%
X77245200Y-102289000D03*
%TO.P,R34,2*%
%TO.N,ON1*%
X79785200Y-102289000D03*
%TD*%
D28*
%TO.N,Net-(D12-K)*%
X47514200Y-76759900D03*
%TO.N,Net-(D13-K)*%
X47791700Y-83218700D03*
%TO.N,GND*%
X69176200Y-70683900D03*
X91491400Y-112472800D03*
X98806000Y-115824000D03*
X63548700Y-101731000D03*
X66375400Y-82685500D03*
X36606700Y-86769800D03*
X98758300Y-101873500D03*
X50546000Y-64516000D03*
X47648600Y-65579400D03*
X39831000Y-85099100D03*
X38100000Y-64770000D03*
X47798300Y-68266300D03*
X38303700Y-67852100D03*
X40844500Y-73240000D03*
X36068000Y-93472000D03*
X69176200Y-88496500D03*
X50292000Y-88392000D03*
X69176200Y-76246800D03*
X83010300Y-101119000D03*
X69176200Y-64314300D03*
X48006000Y-74930000D03*
X38199100Y-78002000D03*
X35858300Y-85948900D03*
%TO.N,SDA*%
X38100000Y-63246000D03*
X36576000Y-65024000D03*
X41685700Y-80266500D03*
X42645800Y-74910500D03*
%TO.N,VCC*%
X99822000Y-86614000D03*
%TO.N,SCL*%
X44074900Y-74951200D03*
X41966100Y-81206500D03*
X44113300Y-64561800D03*
%TO.N,PWM4*%
X50550800Y-69126400D03*
X54071600Y-74943100D03*
%TO.N,ON0*%
X53685900Y-90959800D03*
%TO.N,ON3*%
X40386000Y-95504000D03*
X40132000Y-92202000D03*
%TO.N,{slash}RES*%
X43247600Y-75468800D03*
X42039200Y-65278900D03*
X22126900Y-148497900D03*
%TO.N,Net-(J3-Pin_2)*%
X72132100Y-136595600D03*
X98099000Y-132386000D03*
%TO.N,Net-(J3-Pin_10)*%
X62032100Y-136502700D03*
X47209300Y-136583800D03*
%TO.N,Net-(J3-Pin_1)*%
X80530200Y-118687500D03*
X68421400Y-144889300D03*
%TO.N,Net-(J3-Pin_6)*%
X67592900Y-139206900D03*
%TO.N,Net-(J3-Pin_8)*%
X48268700Y-135476200D03*
%TO.N,Net-(J3-Pin_7)*%
X59066700Y-142552800D03*
%TO.N,Net-(J4-Pin_9)*%
X53685900Y-121314100D03*
%TO.N,Net-(J4-Pin_7)*%
X52899100Y-116330700D03*
%TO.N,Net-(J4-Pin_2)*%
X29844600Y-99994300D03*
%TO.N,Net-(J4-Pin_8)*%
X68746500Y-109488900D03*
%TO.N,Net-(J4-Pin_6)*%
X27162000Y-97570800D03*
%TO.N,Net-(R20-Pad1)*%
X81025100Y-120532100D03*
%TO.N,Net-(R16-Pad1)*%
X65650700Y-133057800D03*
X66151600Y-140691700D03*
%TO.N,Net-(J5-Pin_8)*%
X89650100Y-132265000D03*
%TO.N,Net-(J5-Pin_7)*%
X82334200Y-133640500D03*
%TO.N,Net-(J5-Pin_6)*%
X87880600Y-128958200D03*
%TD*%
D29*
%TO.N,Net-(D12-K)*%
X101195800Y-71755000D02*
X99994100Y-71755000D01*
X99994100Y-71755000D02*
X98343100Y-70104000D01*
X98343100Y-70104000D02*
X87863100Y-70104000D01*
X87863100Y-70104000D02*
X86128500Y-71838600D01*
%TO.N,Net-(D14-K)*%
X71226600Y-83728300D02*
X72334300Y-84836000D01*
X72334300Y-84836000D02*
X84510300Y-84836000D01*
X84510300Y-84836000D02*
X86128500Y-83217800D01*
X86128500Y-83217800D02*
X87330200Y-83217800D01*
X101243800Y-83167000D02*
X100042100Y-83167000D01*
X100042100Y-83167000D02*
X98663100Y-81788000D01*
X98663100Y-81788000D02*
X88760000Y-81788000D01*
X88531900Y-82016100D02*
X88531900Y-83217800D01*
X88760000Y-81788000D02*
X88531900Y-82016100D01*
X88531900Y-83217800D02*
X87330200Y-83217800D01*
%TO.N,Net-(D13-K)*%
X87893200Y-77528200D02*
X87893200Y-78091200D01*
X89050000Y-79248000D02*
X98491100Y-79248000D01*
X87893200Y-78091200D02*
X89050000Y-79248000D01*
X98491100Y-79248000D02*
X100042100Y-77697000D01*
X100042100Y-77697000D02*
X101243800Y-77697000D01*
%TO.N,Net-(D1-K)*%
X86128500Y-64894900D02*
X86761400Y-64262000D01*
X86761400Y-64262000D02*
X97971100Y-64262000D01*
X97971100Y-64262000D02*
X99994100Y-66285000D01*
X99994100Y-66285000D02*
X101195800Y-66285000D01*
%TO.N,Net-(D12-K)*%
X86128500Y-71838600D02*
X84393900Y-70104000D01*
X84393900Y-70104000D02*
X74529800Y-70104000D01*
X74529800Y-70104000D02*
X73017600Y-71616200D01*
X73017600Y-71616200D02*
X73017600Y-71728000D01*
%TO.N,Net-(D13-K)*%
X87330200Y-77528200D02*
X86128500Y-77528200D01*
X86128500Y-77528200D02*
X84408700Y-79248000D01*
X84408700Y-79248000D02*
X74710800Y-79248000D01*
X74710800Y-79248000D02*
X72905800Y-77443000D01*
%TO.N,Net-(D10-K)*%
X66010600Y-89840100D02*
X66340500Y-90170000D01*
X66340500Y-90170000D02*
X68629400Y-90170000D01*
X68629400Y-90170000D02*
X68959300Y-89840100D01*
D30*
%TO.N,VCC*%
X66608500Y-89025600D02*
X56861600Y-89025600D01*
X56861600Y-89025600D02*
X52883800Y-85047800D01*
X68932900Y-89098300D02*
X68657600Y-89373600D01*
X68657600Y-89373600D02*
X66956500Y-89373600D01*
X70360500Y-89098300D02*
X68932900Y-89098300D01*
X66956500Y-89373600D02*
X66608500Y-89025600D01*
X72844800Y-86614000D02*
X70360500Y-89098300D01*
X99822000Y-86614000D02*
X72844800Y-86614000D01*
D29*
%TO.N,Net-(D10-K)*%
X87330200Y-88907400D02*
X88531900Y-88907400D01*
X88531900Y-88907400D02*
X88531900Y-87705700D01*
X88531900Y-87705700D02*
X89115600Y-87122000D01*
X89115600Y-87122000D02*
X98195600Y-87122000D01*
X98195600Y-87122000D02*
X99710600Y-88637000D01*
X99710600Y-88637000D02*
X101243800Y-88637000D01*
X72905800Y-88873000D02*
X74107500Y-88873000D01*
X74107500Y-88873000D02*
X74107500Y-87671300D01*
X74656800Y-87122000D02*
X84343100Y-87122000D01*
X74107500Y-87671300D02*
X74656800Y-87122000D01*
X84343100Y-87122000D02*
X86128500Y-88907400D01*
X86128500Y-88907400D02*
X87330200Y-88907400D01*
%TO.N,Net-(D1-K)*%
X72905800Y-66013000D02*
X73281400Y-65637400D01*
X73281400Y-65637400D02*
X73281400Y-65402600D01*
X73281400Y-65402600D02*
X74168000Y-64516000D01*
X74168000Y-64516000D02*
X85749600Y-64516000D01*
X85749600Y-64516000D02*
X86044900Y-64811300D01*
%TO.N,Net-(Q14-C)*%
X73221300Y-101119000D02*
X77189000Y-101119000D01*
X78515200Y-99792800D02*
X78515200Y-93308400D01*
X77189000Y-101119000D02*
X78515200Y-99792800D01*
X78515200Y-93308400D02*
X82964600Y-88859000D01*
D30*
%TO.N,Net-(D1-A)*%
X75481000Y-66048200D02*
X75445800Y-66013000D01*
X80424600Y-66048200D02*
X75481000Y-66048200D01*
D29*
%TO.N,Net-(D1-K)*%
X87330200Y-66149000D02*
X86128500Y-66149000D01*
X66336700Y-66013000D02*
X72905800Y-66013000D01*
X86128500Y-66149000D02*
X86128500Y-64894900D01*
D30*
X86044900Y-64811300D02*
X86128500Y-64894900D01*
D29*
X65844300Y-65520600D02*
X66336700Y-66013000D01*
D30*
%TO.N,Net-(D2-A)*%
X80424600Y-71750900D02*
X75468700Y-71750900D01*
X75468700Y-71750900D02*
X75445800Y-71728000D01*
%TO.N,Net-(D12-K)*%
X50121900Y-74152200D02*
X47514200Y-76759900D01*
D29*
X72905800Y-71728000D02*
X66013400Y-71728000D01*
D30*
X63251000Y-74152200D02*
X50121900Y-74152200D01*
X65844300Y-71558900D02*
X63251000Y-74152200D01*
D29*
X87330200Y-71838600D02*
X86128500Y-71838600D01*
D30*
X73017600Y-71728000D02*
X72905800Y-71728000D01*
X66013400Y-71728000D02*
X65844300Y-71558900D01*
%TO.N,Net-(D13-K)*%
X87893200Y-77528200D02*
X87330200Y-77528200D01*
X61647100Y-77597200D02*
X60540400Y-78703900D01*
D29*
X71549900Y-77597200D02*
X65844300Y-77597200D01*
D30*
X60540400Y-79103200D02*
X56424900Y-83218700D01*
X65844300Y-77597200D02*
X61647100Y-77597200D01*
D29*
X71704100Y-77443000D02*
X71549900Y-77597200D01*
D30*
X56424900Y-83218700D02*
X47791700Y-83218700D01*
D29*
X72905800Y-77443000D02*
X71704100Y-77443000D01*
D30*
X60540400Y-78703900D02*
X60540400Y-79103200D01*
%TO.N,Net-(D3-A)*%
X80424600Y-77453600D02*
X75456400Y-77453600D01*
X75456400Y-77453600D02*
X75445800Y-77443000D01*
%TO.N,Net-(D4-A)*%
X80422900Y-83158000D02*
X80424600Y-83156300D01*
X75445800Y-83158000D02*
X80422900Y-83158000D01*
D29*
%TO.N,Net-(D14-K)*%
X71704100Y-83158000D02*
X71226600Y-83635500D01*
X72905800Y-83158000D02*
X71704100Y-83158000D01*
D30*
X71226600Y-83635500D02*
X71226600Y-83728300D01*
D29*
X71226600Y-83635500D02*
X65844300Y-83635500D01*
D30*
%TO.N,Net-(D5-A)*%
X75459800Y-88859000D02*
X75445800Y-88873000D01*
X80424600Y-88859000D02*
X75459800Y-88859000D01*
D29*
%TO.N,Net-(D10-K)*%
X72905800Y-88873000D02*
X71704100Y-88873000D01*
D30*
X65844300Y-89673800D02*
X66010600Y-89840100D01*
D29*
X68959300Y-89840100D02*
X69124100Y-89675300D01*
X69124100Y-89675300D02*
X70901800Y-89675300D01*
X70901800Y-89675300D02*
X71704100Y-88873000D01*
D30*
X68959300Y-89840100D02*
X69124100Y-89675300D01*
%TO.N,Net-(D6-A)*%
X94396600Y-66101000D02*
X89918200Y-66101000D01*
X89918200Y-66101000D02*
X89870200Y-66149000D01*
%TO.N,Net-(D7-A)*%
X94373500Y-71838600D02*
X94396600Y-71815500D01*
X89870200Y-71838600D02*
X94373500Y-71838600D01*
%TO.N,Net-(D8-A)*%
X89872000Y-77530000D02*
X89870200Y-77528200D01*
X94396600Y-77530000D02*
X89872000Y-77530000D01*
%TO.N,Net-(D9-A)*%
X89896900Y-83244500D02*
X89870200Y-83217800D01*
X94396600Y-83244500D02*
X89896900Y-83244500D01*
%TO.N,Net-(D10-A)*%
X89870200Y-88907400D02*
X94345000Y-88907400D01*
X94345000Y-88907400D02*
X94396600Y-88959000D01*
%TO.N,Net-(D11-A)*%
X103819800Y-66201000D02*
X103735800Y-66285000D01*
X108366600Y-66201000D02*
X103819800Y-66201000D01*
%TO.N,Net-(D12-A)*%
X108294100Y-71755000D02*
X108366600Y-71827500D01*
X103735800Y-71755000D02*
X108294100Y-71755000D01*
%TO.N,Net-(D13-A)*%
X104026800Y-77454000D02*
X103783800Y-77697000D01*
X108366600Y-77454000D02*
X104026800Y-77454000D01*
%TO.N,Net-(D14-A)*%
X108366600Y-83080500D02*
X103870300Y-83080500D01*
X103870300Y-83080500D02*
X103783800Y-83167000D01*
%TO.N,Net-(D15-A)*%
X103783800Y-88637000D02*
X108296600Y-88637000D01*
X108296600Y-88637000D02*
X108366600Y-88707000D01*
%TO.N,GND*%
X36606700Y-86769800D02*
X37777000Y-86769800D01*
X39868500Y-64561800D02*
X38308200Y-64561800D01*
X65082300Y-101731000D02*
X65420300Y-102069000D01*
X38377500Y-78180400D02*
X39615100Y-78180400D01*
X38198700Y-85948900D02*
X38212400Y-85935200D01*
X67946600Y-88496500D02*
X67719300Y-88723800D01*
D29*
X51039900Y-63330800D02*
X51039900Y-64022100D01*
X66375400Y-82685500D02*
X67719300Y-82685500D01*
D30*
X47648600Y-65579400D02*
X47366200Y-65861800D01*
X83010300Y-101119000D02*
X83200300Y-101309000D01*
X39615100Y-73630400D02*
X40005500Y-73240000D01*
X69176200Y-88496500D02*
X67946600Y-88496500D01*
X38958200Y-63911800D02*
X38100000Y-64770000D01*
X102163000Y-118983000D02*
X102163000Y-117149000D01*
X68119700Y-76246800D02*
X67719300Y-76647200D01*
X38199100Y-78002000D02*
X38377500Y-78180400D01*
X39868500Y-65861800D02*
X38683800Y-65861800D01*
X39868500Y-65211800D02*
X38541800Y-65211800D01*
D29*
X69176200Y-64314300D02*
X67975600Y-64314300D01*
D30*
X100022800Y-101873500D02*
X100218300Y-102069000D01*
X91491400Y-112472800D02*
X93094500Y-112472800D01*
D29*
X38212400Y-93555200D02*
X36151200Y-93555200D01*
D30*
X100838000Y-115824000D02*
X98806000Y-115824000D01*
X63548700Y-101731000D02*
X65082300Y-101731000D01*
X38303700Y-67852100D02*
X39828200Y-67852100D01*
X39615100Y-74930400D02*
X39615100Y-74280400D01*
X102163000Y-117149000D02*
X100838000Y-115824000D01*
X39868500Y-63911800D02*
X38958200Y-63911800D01*
X39828200Y-67852100D02*
X39868500Y-67811800D01*
X47798300Y-68266300D02*
X47343800Y-67811800D01*
X35858300Y-85948900D02*
X38198700Y-85948900D01*
X69176200Y-76246800D02*
X68119700Y-76246800D01*
X38541800Y-65719800D02*
X38541800Y-65211800D01*
X38646300Y-85099100D02*
X38212400Y-84665200D01*
D29*
X51039900Y-64022100D02*
X50546000Y-64516000D01*
D30*
X40005500Y-73240000D02*
X40844500Y-73240000D01*
X39831000Y-85099100D02*
X38646300Y-85099100D01*
X38541800Y-65211800D02*
X38100000Y-64770000D01*
X83200300Y-101309000D02*
X83200300Y-102069000D01*
D29*
X50328000Y-88356000D02*
X50292000Y-88392000D01*
D30*
X67975600Y-64314300D02*
X67719300Y-64570600D01*
X47366200Y-65861800D02*
X45593500Y-65861800D01*
X38308200Y-64561800D02*
X38100000Y-64770000D01*
X38683800Y-65861800D02*
X38541800Y-65719800D01*
X93094500Y-112472800D02*
X93190300Y-112377000D01*
D29*
X49083500Y-73852500D02*
X48006000Y-74930000D01*
D30*
X67794300Y-70683900D02*
X67719300Y-70608900D01*
X37777000Y-86769800D02*
X38212400Y-87205200D01*
D29*
X36151200Y-93555200D02*
X36068000Y-93472000D01*
D30*
X98758300Y-101873500D02*
X100022800Y-101873500D01*
D29*
X50328000Y-87435500D02*
X50328000Y-88356000D01*
X49083500Y-73746000D02*
X49083500Y-73852500D01*
D30*
X47343800Y-67811800D02*
X45593500Y-67811800D01*
X39615100Y-73630400D02*
X39615100Y-74280400D01*
D29*
X69176200Y-70683900D02*
X67794300Y-70683900D01*
D30*
%TO.N,SDA*%
X36576000Y-65233000D02*
X33606000Y-68203000D01*
X47512400Y-85935200D02*
X47050600Y-85935200D01*
X39008500Y-80266500D02*
X33606000Y-74864000D01*
X42645800Y-74910500D02*
X43275900Y-74280400D01*
X43275900Y-74280400D02*
X45340100Y-74280400D01*
X41685700Y-80266500D02*
X39008500Y-80266500D01*
X39060100Y-62748900D02*
X38597100Y-62748900D01*
X38597100Y-62748900D02*
X38100000Y-63246000D01*
X39060100Y-62748900D02*
X41002300Y-62748900D01*
X41877000Y-80266500D02*
X41685700Y-80266500D01*
X42567800Y-81452400D02*
X42567800Y-80957300D01*
X47050600Y-85935200D02*
X42567800Y-81452400D01*
X33606000Y-74864000D02*
X27178200Y-74864000D01*
X41002300Y-62748900D02*
X42165200Y-63911800D01*
X36576000Y-65024000D02*
X36576000Y-65233000D01*
X33606000Y-74864000D02*
X33606000Y-68203000D01*
X42165200Y-63911800D02*
X45593500Y-63911800D01*
X42567800Y-80957300D02*
X41877000Y-80266500D01*
D29*
%TO.N,VCC*%
X34071975Y-82531000D02*
X23603000Y-82531000D01*
D30*
X47404200Y-63261800D02*
X52883800Y-68741400D01*
D29*
X22098000Y-72324200D02*
X24638200Y-69784000D01*
X50328000Y-85860500D02*
X50328000Y-84701200D01*
X47508500Y-73746000D02*
X47508500Y-73590500D01*
D30*
X32075000Y-62347200D02*
X24638200Y-69784000D01*
X108767000Y-129814000D02*
X107595500Y-128642500D01*
X45340100Y-73630400D02*
X46152500Y-72818000D01*
X45593500Y-63261800D02*
X47404200Y-63261800D01*
D29*
X47473200Y-63330800D02*
X47404200Y-63261800D01*
D30*
X46152500Y-72818000D02*
X46736000Y-72818000D01*
D29*
X23603000Y-82531000D02*
X22098000Y-81026000D01*
D30*
X38696314Y-62338000D02*
X38687114Y-62347200D01*
X52501200Y-84665200D02*
X52883800Y-85047800D01*
D29*
X47512400Y-84665200D02*
X50292000Y-84665200D01*
X22098000Y-81026000D02*
X22098000Y-72324200D01*
D30*
X46736000Y-72818000D02*
X52883800Y-72818000D01*
X34036000Y-62347200D02*
X32075000Y-62347200D01*
X38687114Y-62347200D02*
X34036000Y-62347200D01*
X44669700Y-62338000D02*
X38696314Y-62338000D01*
X103427500Y-128642500D02*
X102417000Y-129653000D01*
X45593500Y-63261800D02*
X44669700Y-62338000D01*
D29*
X50292000Y-84665200D02*
X52501200Y-84665200D01*
X50328000Y-84701200D02*
X50292000Y-84665200D01*
X49464900Y-63330800D02*
X47473200Y-63330800D01*
X47508500Y-73590500D02*
X46736000Y-72818000D01*
D30*
X107595500Y-128642500D02*
X103427500Y-128642500D01*
%TO.N,SCL*%
X44113300Y-64561800D02*
X45593500Y-64561800D01*
X33940200Y-76134000D02*
X39012700Y-81206500D01*
X41966100Y-81206500D02*
X41966100Y-82127800D01*
X24638200Y-74864000D02*
X25908200Y-76134000D01*
X44074900Y-74951200D02*
X45319300Y-74951200D01*
X41966100Y-82127800D02*
X47043500Y-87205200D01*
X47043500Y-87205200D02*
X47512400Y-87205200D01*
X45319300Y-74951200D02*
X45340100Y-74930400D01*
X25908200Y-76134000D02*
X33940200Y-76134000D01*
X39012700Y-81206500D02*
X41966100Y-81206500D01*
%TO.N,Net-(Q1-B)*%
X61810400Y-72577200D02*
X64728700Y-69658900D01*
X64728700Y-69658900D02*
X65844300Y-69658900D01*
%TO.N,Net-(Q2-B)*%
X61840400Y-75697200D02*
X61810400Y-75727200D01*
X65844300Y-75697200D02*
X61840400Y-75697200D01*
%TO.N,Net-(Q3-B)*%
X62986000Y-78877200D02*
X61810400Y-78877200D01*
X65844300Y-81735500D02*
X62986000Y-78877200D01*
%TO.N,Net-(Q4-B)*%
X65844300Y-87773800D02*
X61810400Y-83739900D01*
X61810400Y-83739900D02*
X61810400Y-82027200D01*
%TO.N,Net-(Q5-B)*%
X65844300Y-63620600D02*
X61810400Y-67654500D01*
X61810400Y-67654500D02*
X61810400Y-69427200D01*
%TO.N,Net-(Q6-C)*%
X67476600Y-95617000D02*
X67476600Y-100937700D01*
X67476600Y-100937700D02*
X67295300Y-101119000D01*
%TO.N,Net-(Q6-B)*%
X62396600Y-98713000D02*
X63964300Y-98713000D01*
X63964300Y-98713000D02*
X65420300Y-100169000D01*
D29*
%TO.N,Net-(Q7-C)*%
X90409300Y-101119000D02*
X96936600Y-94591700D01*
X96936600Y-94591700D02*
X96936600Y-88959000D01*
D30*
%TO.N,Net-(Q7-B)*%
X88534300Y-100169000D02*
X87542600Y-99177300D01*
X87542600Y-99177300D02*
X87542600Y-95617000D01*
%TO.N,Net-(Q8-B)*%
X81241200Y-100169000D02*
X79785200Y-98713000D01*
X83200300Y-100169000D02*
X81241200Y-100169000D01*
%TO.N,Net-(Q8-C)*%
X85002600Y-101046300D02*
X85075300Y-101119000D01*
X85002600Y-95617000D02*
X85002600Y-101046300D01*
D29*
%TO.N,Net-(Q9-C)*%
X107427300Y-92186300D02*
X110906600Y-88707000D01*
X107427300Y-101119000D02*
X107427300Y-92186300D01*
D30*
%TO.N,Net-(Q9-B)*%
X105552300Y-100169000D02*
X105324600Y-99941300D01*
X105324600Y-99941300D02*
X105324600Y-95617000D01*
%TO.N,Net-(Q10-C)*%
X102093300Y-96308300D02*
X102093300Y-101119000D01*
X102784600Y-95617000D02*
X102093300Y-96308300D01*
%TO.N,Net-(Q10-B)*%
X97450600Y-98713000D02*
X98762300Y-98713000D01*
X98762300Y-98713000D02*
X100218300Y-100169000D01*
%TO.N,Net-(Q11-B)*%
X98778300Y-108068700D02*
X98778300Y-110424000D01*
X98212600Y-107503000D02*
X98778300Y-108068700D01*
%TO.N,Net-(Q11-C)*%
X22440900Y-122743500D02*
X27983900Y-122743500D01*
X63348600Y-124183000D02*
X61651300Y-125880300D01*
X73866900Y-124183000D02*
X63348600Y-124183000D01*
X31120700Y-125880300D02*
X30063400Y-124823000D01*
X100653300Y-111873900D02*
X98868300Y-113658900D01*
X21425400Y-123759000D02*
X22440900Y-122743500D01*
X61651300Y-125880300D02*
X31120700Y-125880300D01*
X100653300Y-111374000D02*
X100653300Y-111873900D01*
X27983900Y-122743500D02*
X30063400Y-124823000D01*
X98868300Y-113658900D02*
X84391000Y-113658900D01*
X84391000Y-113658900D02*
X73866900Y-124183000D01*
%TO.N,Net-(Q12-C)*%
X95672600Y-107503000D02*
X95672600Y-110819700D01*
X95672600Y-110819700D02*
X95065300Y-111427000D01*
%TO.N,Net-(Q12-B)*%
X92146300Y-109433000D02*
X93190300Y-110477000D01*
X89830600Y-109433000D02*
X92146300Y-109433000D01*
%TO.N,Net-(Q14-B)*%
X71346300Y-96946700D02*
X71346300Y-100169000D01*
X70016600Y-95617000D02*
X71346300Y-96946700D01*
%TO.N,PWM0*%
X42762600Y-73154100D02*
X40336300Y-75580400D01*
X42762600Y-68745500D02*
X40528900Y-66511800D01*
X59270400Y-69427200D02*
X56109600Y-69427200D01*
X56109600Y-69427200D02*
X55423800Y-68741400D01*
X42762600Y-69768800D02*
X54396400Y-69768800D01*
X54396400Y-69768800D02*
X55423800Y-68741400D01*
X40336300Y-75580400D02*
X39615100Y-75580400D01*
X40528900Y-66511800D02*
X39868500Y-66511800D01*
X42762600Y-69768800D02*
X42762600Y-68745500D01*
X42762600Y-69768800D02*
X42762600Y-73154100D01*
%TO.N,PWM1*%
X41346200Y-70575200D02*
X41346200Y-67941300D01*
X38910800Y-76230400D02*
X38536400Y-75856000D01*
X38536400Y-73385000D02*
X41346200Y-70575200D01*
X38536400Y-75856000D02*
X38536400Y-73385000D01*
X55423800Y-72818000D02*
X54392300Y-71786500D01*
X44919000Y-71786500D02*
X40475100Y-76230400D01*
X39615100Y-76230400D02*
X38910800Y-76230400D01*
X55664600Y-72577200D02*
X55423800Y-72818000D01*
X59270400Y-72577200D02*
X55664600Y-72577200D01*
X40566700Y-67161800D02*
X39868500Y-67161800D01*
X54392300Y-71786500D02*
X44919000Y-71786500D01*
X41346200Y-67941300D02*
X40566700Y-67161800D01*
X40475100Y-76230400D02*
X39615100Y-76230400D01*
%TO.N,PWM2*%
X38134700Y-76058300D02*
X38956800Y-76880400D01*
X40524700Y-68461800D02*
X40908100Y-68845200D01*
X55423800Y-76894600D02*
X58103000Y-76894600D01*
X42699500Y-76880400D02*
X44531600Y-78712500D01*
X44531600Y-78712500D02*
X53605900Y-78712500D01*
X40908100Y-68845200D02*
X40908100Y-69900100D01*
X58103000Y-76894600D02*
X59270400Y-75727200D01*
X38134700Y-72673500D02*
X38134700Y-76058300D01*
X39615100Y-76880400D02*
X42699500Y-76880400D01*
X38956800Y-76880400D02*
X39615100Y-76880400D01*
X39868500Y-68461800D02*
X40524700Y-68461800D01*
X40908100Y-69900100D02*
X38134700Y-72673500D01*
X53605900Y-78712500D02*
X55423800Y-76894600D01*
%TO.N,PWM3*%
X37733000Y-76340100D02*
X38923300Y-77530400D01*
X54422100Y-81972900D02*
X45210200Y-81972900D01*
X40767700Y-77530400D02*
X39615100Y-77530400D01*
X45210200Y-81972900D02*
X40767700Y-77530400D01*
X39868500Y-69111800D02*
X37733000Y-71247300D01*
X38923300Y-77530400D02*
X39615100Y-77530400D01*
X55423800Y-80971200D02*
X54422100Y-81972900D01*
X37733000Y-71247300D02*
X37733000Y-76340100D01*
%TO.N,PWM4*%
X48360300Y-78180400D02*
X51597600Y-74943100D01*
X50550800Y-69126400D02*
X50536200Y-69111800D01*
X58444400Y-82027200D02*
X55423800Y-85047800D01*
X50536200Y-69111800D02*
X45593500Y-69111800D01*
X59270400Y-82027200D02*
X58444400Y-82027200D01*
X45340100Y-78180400D02*
X48360300Y-78180400D01*
X51597600Y-74943100D02*
X54071600Y-74943100D01*
%TO.N,ON0*%
X44346100Y-88475200D02*
X38212400Y-88475200D01*
X46251100Y-90380200D02*
X44346100Y-88475200D01*
X53685900Y-90959800D02*
X53106300Y-90380200D01*
X53106300Y-90380200D02*
X46251100Y-90380200D01*
%TO.N,ON1*%
X43560900Y-89745200D02*
X45465700Y-91650000D01*
X38212400Y-89745200D02*
X43560900Y-89745200D01*
X45465700Y-91650000D02*
X70182200Y-91650000D01*
X70182200Y-91650000D02*
X77245200Y-98713000D01*
%TO.N,ON2*%
X86902600Y-101406800D02*
X89259700Y-101406800D01*
X68791100Y-92920200D02*
X72398300Y-96527400D01*
X72398300Y-100554500D02*
X72140200Y-100812600D01*
X72140200Y-100812600D02*
X72140200Y-101475300D01*
X72140200Y-101475300D02*
X74005300Y-103340400D01*
X72398300Y-96527400D02*
X72398300Y-100554500D01*
X96399200Y-103340400D02*
X97450600Y-102289000D01*
X91193300Y-103340400D02*
X96399200Y-103340400D01*
X74005300Y-103340400D02*
X84969000Y-103340400D01*
X43971700Y-91015200D02*
X45876700Y-92920200D01*
X89259700Y-101406800D02*
X91193300Y-103340400D01*
X84969000Y-103340400D02*
X86902600Y-101406800D01*
X45876700Y-92920200D02*
X68791100Y-92920200D01*
X38212400Y-91015200D02*
X43971700Y-91015200D01*
%TO.N,ON3*%
X59770000Y-101129300D02*
X54587600Y-95946900D01*
X87290600Y-109433000D02*
X83593900Y-105736300D01*
X70697800Y-105736300D02*
X68176000Y-103214500D01*
X45931600Y-95946900D02*
X45488700Y-95504000D01*
X83593900Y-105736300D02*
X70697800Y-105736300D01*
X65918100Y-101129300D02*
X59770000Y-101129300D01*
X45488700Y-95504000D02*
X40386000Y-95504000D01*
X68003300Y-103214500D02*
X65918100Y-101129300D01*
X68176000Y-103214500D02*
X68003300Y-103214500D01*
X38295600Y-92202000D02*
X38212400Y-92285200D01*
X40132000Y-92202000D02*
X38295600Y-92202000D01*
X54587600Y-95946900D02*
X45931600Y-95946900D01*
%TO.N,{slash}RES*%
X45593500Y-65211800D02*
X42106300Y-65211800D01*
X42106300Y-65211800D02*
X42039200Y-65278900D01*
X43359200Y-75580400D02*
X43247600Y-75468800D01*
X99152400Y-153273200D02*
X96969500Y-155456100D01*
X29085100Y-155456100D02*
X22126900Y-148497900D01*
X96969500Y-155456100D02*
X29085100Y-155456100D01*
X45340100Y-75580400D02*
X43359200Y-75580400D01*
%TO.N,Net-(J3-Pin_2)*%
X72000600Y-134230600D02*
X71150400Y-134230600D01*
X63882100Y-141498900D02*
X43083700Y-141498900D01*
X71150400Y-134230600D02*
X63882100Y-141498900D01*
X103953900Y-130656100D02*
X100322100Y-130656100D01*
X98099000Y-133009500D02*
X94512900Y-136595600D01*
X98099000Y-132386000D02*
X98099000Y-133009500D01*
X104957000Y-129653000D02*
X103953900Y-130656100D01*
X100322100Y-130656100D02*
X99369000Y-129703000D01*
X94512900Y-136595600D02*
X72132100Y-136595600D01*
X43083700Y-141498900D02*
X41441800Y-139857000D01*
%TO.N,Net-(J3-Pin_10)*%
X61951000Y-136583800D02*
X62032100Y-136502700D01*
X47209300Y-136583800D02*
X61951000Y-136583800D01*
%TO.N,Net-(J3-Pin_3)*%
X75115000Y-132761900D02*
X69916300Y-137960600D01*
X69042700Y-145172800D02*
X68606600Y-145608900D01*
X73115800Y-130524100D02*
X75115000Y-132523300D01*
X88540800Y-132523300D02*
X89765700Y-131298400D01*
X68606600Y-145608900D02*
X55649900Y-145608900D01*
X70627100Y-130524100D02*
X73115800Y-130524100D01*
X75115000Y-132523300D02*
X75115000Y-132761900D01*
X69460600Y-131690600D02*
X70627100Y-130524100D01*
X69916300Y-137960600D02*
X69916300Y-137960700D01*
X107711400Y-131298400D02*
X108767000Y-132354000D01*
X55649900Y-145608900D02*
X52671800Y-148587000D01*
X65420300Y-140528700D02*
X65420300Y-140816900D01*
X69042700Y-144439300D02*
X69042700Y-145172800D01*
X69916300Y-137960700D02*
X67988300Y-137960700D01*
X65420300Y-140816900D02*
X69042700Y-144439300D01*
X75115000Y-132523300D02*
X88540800Y-132523300D01*
X67988300Y-137960700D02*
X65420300Y-140528700D01*
X89765700Y-131298400D02*
X107711400Y-131298400D01*
%TO.N,Net-(J3-Pin_1)*%
X52671800Y-146087000D02*
X53869500Y-144889300D01*
X81704400Y-117513300D02*
X80530200Y-118687500D01*
X97951300Y-117513300D02*
X81704400Y-117513300D01*
X99369000Y-118931000D02*
X97951300Y-117513300D01*
X53869500Y-144889300D02*
X68421400Y-144889300D01*
%TO.N,Net-(J3-Pin_5)*%
X84493100Y-117915000D02*
X97289000Y-117915000D01*
X98099000Y-119144700D02*
X98982300Y-120028000D01*
X73052400Y-129355700D02*
X84493100Y-117915000D01*
X98982300Y-120028000D02*
X103658000Y-120028000D01*
X97289000Y-117915000D02*
X98099000Y-118725000D01*
X103658000Y-120028000D02*
X104703000Y-118983000D01*
X98099000Y-118725000D02*
X98099000Y-119144700D01*
X66920600Y-131690600D02*
X69255500Y-129355700D01*
X69255500Y-129355700D02*
X73052400Y-129355700D01*
%TO.N,Net-(J3-Pin_6)*%
X93015100Y-139206900D02*
X67592900Y-139206900D01*
X66920600Y-134230600D02*
X61294200Y-139857000D01*
X100460600Y-131761400D02*
X99369000Y-132853000D01*
X103915400Y-131761400D02*
X100460600Y-131761400D01*
X99369000Y-132853000D02*
X93015100Y-139206900D01*
X61294200Y-139857000D02*
X46441800Y-139857000D01*
X104957000Y-132803000D02*
X103915400Y-131761400D01*
%TO.N,Net-(J3-Pin_8)*%
X64380600Y-134230600D02*
X63135000Y-135476200D01*
X63135000Y-135476200D02*
X48268700Y-135476200D01*
%TO.N,Net-(J3-Pin_7)*%
X53774900Y-142552800D02*
X59066700Y-142552800D01*
X40441800Y-154337000D02*
X41990700Y-154337000D01*
X41990700Y-154337000D02*
X53774900Y-142552800D01*
%TO.N,Net-(J3-Pin_4)*%
X68272300Y-131177800D02*
X68272300Y-133042300D01*
X89880200Y-130107600D02*
X69342500Y-130107600D01*
X69342500Y-130107600D02*
X68272300Y-131177800D01*
X90487100Y-130714500D02*
X89880200Y-130107600D01*
X45182000Y-141097200D02*
X62594000Y-141097200D01*
X108767000Y-119441000D02*
X105949700Y-119441000D01*
X105949700Y-119441000D02*
X103433000Y-121957700D01*
X98099000Y-129916400D02*
X97300900Y-130714500D01*
X62594000Y-141097200D02*
X69460600Y-134230600D01*
X97300900Y-130714500D02*
X90487100Y-130714500D01*
X68272300Y-133042300D02*
X69460600Y-134230600D01*
X43941800Y-139857000D02*
X45182000Y-141097200D01*
X103433000Y-124182400D02*
X98099000Y-129516400D01*
X103433000Y-121957700D02*
X103433000Y-124182400D01*
X98099000Y-129516400D02*
X98099000Y-129916400D01*
%TO.N,Net-(J4-Pin_9)*%
X54841500Y-122469700D02*
X53685900Y-121314100D01*
X29140500Y-100141000D02*
X24419600Y-100141000D01*
X35597500Y-106598000D02*
X29140500Y-100141000D01*
X72248000Y-122469700D02*
X54841500Y-122469700D01*
X50759800Y-106598000D02*
X35597500Y-106598000D01*
X72248000Y-121418000D02*
X72248000Y-122469700D01*
%TO.N,Net-(J4-Pin_3)*%
X23220600Y-111302000D02*
X23220600Y-109300600D01*
X27586600Y-115668000D02*
X23220600Y-111302000D01*
X31197800Y-108236000D02*
X32759800Y-109798000D01*
X24285200Y-108236000D02*
X24419600Y-108236000D01*
X24419600Y-108236000D02*
X31197800Y-108236000D01*
X77478000Y-115668000D02*
X27586600Y-115668000D01*
X23220600Y-109300600D02*
X24285200Y-108236000D01*
X24419600Y-107761000D02*
X24419600Y-108236000D01*
%TO.N,Net-(J4-Pin_4)*%
X42509800Y-100048000D02*
X47288100Y-104826300D01*
X66636300Y-104826300D02*
X68748000Y-106938000D01*
X20259200Y-106140600D02*
X21879600Y-107761000D01*
X20259200Y-100055100D02*
X20259200Y-106140600D01*
X21336500Y-98977800D02*
X20259200Y-100055100D01*
X47288100Y-104826300D02*
X66636300Y-104826300D01*
X42509800Y-100048000D02*
X41439600Y-98977800D01*
X41439600Y-98977800D02*
X21336500Y-98977800D01*
%TO.N,Net-(J4-Pin_7)*%
X50759800Y-113098000D02*
X49708100Y-113098000D01*
X32089100Y-105139900D02*
X29630200Y-102681000D01*
X32657100Y-105139900D02*
X32089100Y-105139900D01*
X29630200Y-102681000D02*
X24419600Y-102681000D01*
X65248000Y-121418000D02*
X65248000Y-120366300D01*
X49708100Y-113098000D02*
X49306400Y-112696300D01*
X40213500Y-112696300D02*
X32657100Y-105139900D01*
X49306400Y-112696300D02*
X40213500Y-112696300D01*
X52899100Y-116330700D02*
X61212400Y-116330700D01*
X61212400Y-116330700D02*
X65248000Y-120366300D01*
%TO.N,Net-(J4-Pin_2)*%
X66248000Y-106938000D02*
X64606300Y-105296300D01*
X45258100Y-105296300D02*
X40009800Y-100048000D01*
X29844600Y-99994300D02*
X39956100Y-99994300D01*
X39956100Y-99994300D02*
X40009800Y-100048000D01*
X64606300Y-105296300D02*
X45258100Y-105296300D01*
%TO.N,Net-(J4-Pin_5)*%
X24419600Y-105221000D02*
X26496600Y-107298000D01*
X26496600Y-107298000D02*
X32759800Y-107298000D01*
%TO.N,Net-(J4-Pin_1)*%
X75776500Y-114869500D02*
X35331300Y-114869500D01*
X35331300Y-114869500D02*
X32759800Y-112298000D01*
X24419600Y-110301000D02*
X25571300Y-110301000D01*
X77478000Y-113168000D02*
X75776500Y-114869500D01*
X27568300Y-112298000D02*
X32759800Y-112298000D01*
X25571300Y-110301000D02*
X27568300Y-112298000D01*
%TO.N,Net-(J4-Pin_8)*%
X64297600Y-109488900D02*
X61406700Y-106598000D01*
X52906400Y-107899700D02*
X35984900Y-107899700D01*
X54208100Y-106598000D02*
X52906400Y-107899700D01*
X55259800Y-106598000D02*
X54208100Y-106598000D01*
X35984900Y-107899700D02*
X29596200Y-101511000D01*
X29596200Y-101511000D02*
X23049600Y-101511000D01*
X68746500Y-109488900D02*
X64297600Y-109488900D01*
X61406700Y-106598000D02*
X55259800Y-106598000D01*
X23049600Y-101511000D02*
X21879600Y-102681000D01*
%TO.N,Net-(J4-Pin_6)*%
X58737900Y-104424600D02*
X54361300Y-100048000D01*
X71248000Y-106938000D02*
X68734600Y-104424600D01*
X54361300Y-100048000D02*
X45009800Y-100048000D01*
X27162000Y-97570800D02*
X42532600Y-97570800D01*
X68734600Y-104424600D02*
X58737900Y-104424600D01*
X42532600Y-97570800D02*
X45009800Y-100048000D01*
%TO.N,Net-(J4-Pin_10)*%
X52888300Y-114417800D02*
X49902900Y-114417800D01*
X54208100Y-113098000D02*
X52888300Y-114417800D01*
X20710900Y-101309700D02*
X21879600Y-100141000D01*
X20710900Y-103175900D02*
X20710900Y-101309700D01*
X41016800Y-114067600D02*
X32490800Y-105541600D01*
X21394600Y-103859600D02*
X20710900Y-103175900D01*
X26233100Y-103859600D02*
X21394600Y-103859600D01*
X32490800Y-105541600D02*
X27915100Y-105541600D01*
X55259800Y-113098000D02*
X54208100Y-113098000D01*
X49902900Y-114417800D02*
X49552800Y-114067700D01*
X49552800Y-114067700D02*
X49552800Y-114067600D01*
X27915100Y-105541600D02*
X26233100Y-103859600D01*
X49552800Y-114067600D02*
X41016800Y-114067600D01*
%TO.N,Net-(R20-Pad1)*%
X26536000Y-126329600D02*
X61969800Y-126329600D01*
X23965400Y-123759000D02*
X26536000Y-126329600D01*
X61969800Y-126329600D02*
X63514800Y-124784600D01*
X63514800Y-124784600D02*
X76772600Y-124784600D01*
X76772600Y-124784600D02*
X81025100Y-120532100D01*
%TO.N,Net-(R16-Pad1)*%
X66151600Y-140691800D02*
X66151600Y-140691700D01*
X44906000Y-133057800D02*
X65650700Y-133057800D01*
X32603400Y-131123000D02*
X33503000Y-132022600D01*
X43870800Y-132022600D02*
X44906000Y-133057800D01*
X100422400Y-143113200D02*
X98001000Y-140691800D01*
X33503000Y-132022600D02*
X43870800Y-132022600D01*
X98001000Y-140691800D02*
X66151600Y-140691800D01*
%TO.N,Net-(R18-Pad1)*%
X33418800Y-124007600D02*
X32603400Y-124823000D01*
X43272400Y-124007600D02*
X33418800Y-124007600D01*
%TO.N,Net-(R19-Pad1)*%
X62322400Y-143080600D02*
X61192900Y-141951100D01*
X39007500Y-141951100D02*
X23965400Y-126909000D01*
X61192900Y-141951100D02*
X39007500Y-141951100D01*
%TO.N,Net-(J5-Pin_4)*%
X87059000Y-124399000D02*
X93060500Y-124399000D01*
X86375000Y-123715000D02*
X87059000Y-124399000D01*
%TO.N,Net-(J5-Pin_1)*%
X84986700Y-121462900D02*
X85858800Y-122335000D01*
X89574500Y-122335000D02*
X91185500Y-120724000D01*
X85858800Y-122335000D02*
X89574500Y-122335000D01*
X83835000Y-121175000D02*
X84986700Y-121175000D01*
X84986700Y-121175000D02*
X84986700Y-121462900D01*
%TO.N,Net-(J5-Pin_5)*%
X93060500Y-129024000D02*
X88797300Y-129024000D01*
X87398500Y-127625200D02*
X85205200Y-127625200D01*
X88797300Y-129024000D02*
X87398500Y-127625200D01*
X85205200Y-127625200D02*
X83835000Y-126255000D01*
%TO.N,Net-(J5-Pin_2)*%
X93060500Y-119774000D02*
X87776000Y-119774000D01*
X87776000Y-119774000D02*
X86375000Y-121175000D01*
%TO.N,Net-(J5-Pin_8)*%
X89650100Y-132265000D02*
X89650100Y-133063700D01*
X89650200Y-133063700D02*
X91185500Y-134599000D01*
X89650100Y-133063700D02*
X89650200Y-133063700D01*
%TO.N,Net-(J5-Pin_3)*%
X90918200Y-125081700D02*
X91185500Y-125349000D01*
X85201700Y-125081700D02*
X90918200Y-125081700D01*
X83835000Y-123715000D02*
X85201700Y-125081700D01*
%TO.N,Net-(J5-Pin_7)*%
X82334200Y-134121500D02*
X82334200Y-133640500D01*
X93060500Y-134162500D02*
X92009400Y-135213600D01*
X83426300Y-135213600D02*
X82334200Y-134121500D01*
X93060500Y-133649000D02*
X93060500Y-134162500D01*
X92009400Y-135213600D02*
X83426300Y-135213600D01*
%TO.N,Net-(J5-Pin_6)*%
X90661500Y-129450000D02*
X91185500Y-129974000D01*
X87880600Y-128958200D02*
X88372400Y-129450000D01*
X88372400Y-129450000D02*
X90661500Y-129450000D01*
%TO.N,Net-(Q13-B)*%
X96722000Y-118824000D02*
X96829000Y-118931000D01*
X91185500Y-118824000D02*
X96722000Y-118824000D01*
%TO.N,Net-(Q15-B)*%
X100847000Y-123449000D02*
X102163000Y-122133000D01*
X91185500Y-123449000D02*
X100847000Y-123449000D01*
%TO.N,Net-(Q16-B)*%
X95200000Y-128074000D02*
X91185500Y-128074000D01*
X96829000Y-129703000D02*
X95200000Y-128074000D01*
%TO.N,Net-(Q17-B)*%
X96829000Y-132853000D02*
X91339500Y-132853000D01*
X91339500Y-132853000D02*
X91185500Y-132699000D01*
D29*
%TO.N,VCC5*%
X97172100Y-103742100D02*
X103124000Y-103742100D01*
X96977200Y-110522900D02*
X96977200Y-103937000D01*
X96977200Y-103937000D02*
X97172100Y-103742100D01*
X103378000Y-106172000D02*
X103378000Y-103996100D01*
X25757400Y-91628600D02*
X31430600Y-91628600D01*
X71346300Y-102069000D02*
X73417300Y-104140000D01*
X34086800Y-94284800D02*
X68275200Y-94284800D01*
X103378000Y-103996100D02*
X103124000Y-103742100D01*
X68986400Y-99709100D02*
X71346300Y-102069000D01*
X31430600Y-91628600D02*
X34086800Y-94284800D01*
X21957000Y-90057000D02*
X24185800Y-90057000D01*
X68986400Y-96143850D02*
X68986400Y-99709100D01*
X103124000Y-103742100D02*
X103879200Y-103742100D01*
X88534300Y-103340400D02*
X89333900Y-104140000D01*
X98778300Y-112324000D02*
X96977200Y-110522900D01*
X88534300Y-103340400D02*
X88534300Y-102069000D01*
X87734700Y-104140000D02*
X88534300Y-103340400D01*
X103879200Y-103742100D02*
X105552300Y-102069000D01*
X17917575Y-91871800D02*
X20142200Y-91871800D01*
X24185800Y-90057000D02*
X25757400Y-91628600D01*
X105641800Y-108435800D02*
X103378000Y-106172000D01*
X68275200Y-94284800D02*
X68915600Y-94925200D01*
X68915600Y-94925200D02*
X68915600Y-96073050D01*
X20142200Y-91871800D02*
X21957000Y-90057000D01*
X73417300Y-104140000D02*
X87734700Y-104140000D01*
X96774200Y-104140000D02*
X97172100Y-103742100D01*
X89333900Y-104140000D02*
X96774200Y-104140000D01*
X106969975Y-108435800D02*
X105641800Y-108435800D01*
X68915600Y-96073050D02*
X68986400Y-96143850D01*
%TD*%
M02*
