M48
; DRILL file {KiCad 9.0.3} date 2025-08-24T22:33:59+0200
; FORMAT={-:-/ absolute / inch / decimal}
; #@! TF.CreationDate,2025-08-24T22:33:59+02:00
; #@! TF.GenerationSoftware,Kicad,Pcbnew,9.0.3
; #@! TF.FileFunction,Plated,1,2,PTH
FMAT,2
INCH
; #@! TA.AperFunction,Plated,PTH,ViaDrill
T1C0.0118
; #@! TA.AperFunction,Plated,PTH,ComponentDrill
T2C0.0394
; #@! TA.AperFunction,Plated,PTH,ComponentDrill
T3C0.0433
; #@! TA.AperFunction,Plated,PTH,ComponentDrill
T4C0.0591
; #@! TA.AperFunction,Plated,PTH,ComponentDrill
T5C0.0630
%
G90
G05
T1
X0.83Y-5.42
X0.83Y-5.66
X0.87Y-4.8265
X1.16Y-3.34
X1.16Y-4.63
X1.16Y-4.92
X1.2Y-5.45
X1.2Y-5.73
X1.2144Y-4.04
X1.22Y-3.47
X1.22Y-3.6
X1.24Y-3.64
X1.24Y-4.14
X1.26Y-3.7144
X1.27Y-4.34
X1.29Y-4.4
X1.3Y-3.2
X1.3Y-3.77
X1.3Y-4.98
X1.3298Y-4.2921
X1.33Y-3.83
X1.3405Y-3.8864
X1.3426Y-4.2411
X1.35Y-3.76
X1.37Y-3.9
X1.39Y-4.22
X1.3918Y-3.7216
X1.3995Y-3.8033
X1.42Y-3.9025
X1.4225Y-3.8513
X1.47Y-4.7994
X1.4735Y-4.175
X1.4735Y-4.48
X1.53Y-3.5
X1.6Y-3.28
X1.66Y-3.71
X1.69Y-3.84
X1.71Y-3.57
X1.71Y-3.79
X1.7118Y-3.7416
X1.74Y-4.1
X1.74Y-4.36
X1.77Y-4.18
X1.773Y-3.6609
X1.8Y-4.57
X1.82Y-3.89
X1.82Y-4.02
X1.8205Y-3.6248
X1.83Y-5.31
X1.8321Y-3.5777
X1.85Y-3.75
X1.85Y-4.05
X1.87Y-5.27
X1.88Y-3.58
X1.8998Y-3.5521
X1.91Y-4.175
X1.9227Y-3.789
X1.9256Y-4.03
X1.94Y-3.82
X1.95Y-4.23
X1.95Y-4.37
X1.97Y-3.86
X1.9744Y-4.4243
X1.98Y-4.2
X1.98Y-5.44
X1.98Y-5.73
X2.0Y-4.02
X2.0Y-4.28
X2.0Y-4.5
X2.01Y-5.28
X2.0155Y-3.2315
X2.0359Y-3.2629
X2.15Y-4.28
X2.16Y-4.33
X2.19Y-4.48
X2.2Y-3.96
X2.2Y-4.28
X2.204Y-3.4656
X2.35Y-4.08
X2.37Y-4.47
X2.38Y-4.14
X2.38Y-4.21
X2.41Y-4.25
X2.41Y-4.45
X2.4182Y-3.728
X2.45Y-4.23
X2.45Y-4.36
X2.45Y-4.57
X2.4514Y-4.4251
X2.4544Y-4.1686
X2.47Y-4.33
X2.48Y-4.07
X2.5269Y-3.6831
X2.56Y-3.33
X2.6Y-4.28
X2.62Y-4.4
X2.64Y-4.18
X2.65Y-3.44
X2.66Y-4.42
X2.6604Y-4.3072
X2.68Y-4.1
X2.68Y-4.28
X2.74Y-5.44
X2.74Y-5.73
X2.78Y-3.32
X2.81Y-3.4
X2.81Y-3.7
X2.81Y-3.8
X2.81Y-4.33
X2.83Y-4.0
X2.83Y-4.07
X2.84Y-4.5
X2.84Y-4.59
X2.84Y-4.98
X2.88Y-4.18
X2.89Y-4.25
X2.92Y-4.33
X2.92Y-5.02
X2.9532Y-3.7387
X3.02Y-3.78
X3.03Y-4.08
X3.06Y-4.32
X3.09Y-4.53
X3.1Y-4.42
X3.11Y-4.02
X3.1414Y-4.3251
X3.27Y-5.43
X3.29Y-4.01
X3.29Y-4.38
X3.3Y-3.6
X3.3Y-4.05
X3.32Y-4.56
X3.33Y-3.54
X3.33Y-3.67
X3.3488Y-3.8704
X3.36Y-3.7
X3.3635Y-3.54
X3.37Y-5.39
X3.3705Y-4.1056
X3.4Y-3.6
X3.4Y-3.86
X3.4Y-4.0
X3.415Y-3.685
X3.415Y-3.76
X3.45Y-3.58
X3.48Y-5.45
X3.48Y-5.73
X3.4835Y-3.58
X3.4885Y-5.0095
X3.6Y-3.47
X3.68Y-3.76
X3.684Y-3.2856
X3.7Y-3.8
X3.72Y-3.26
X3.8025Y-5.51
X3.82Y-4.85
X3.88Y-4.33
X4.02Y-4.25
X4.08Y-4.35
X4.09Y-3.3
X4.17Y-5.37
T2
X0.87Y-3.49
X0.87Y-3.59
X0.87Y-3.69
X0.87Y-3.79
X0.87Y-3.89
X0.87Y-3.99
X0.87Y-4.09
X0.87Y-4.19
X0.87Y-4.29
X0.87Y-4.39
X0.97Y-3.49
X0.97Y-3.59
X0.97Y-3.69
X0.97Y-3.79
X0.97Y-3.89
X0.97Y-3.99
X0.97Y-4.09
X0.97Y-4.19
X0.97Y-4.29
X0.97Y-4.39
X2.4998Y-3.3976
X2.4998Y-3.4976
X2.4998Y-3.8096
X2.4998Y-3.9096
X2.5998Y-3.3976
X2.5998Y-3.4976
X2.5998Y-3.8096
X2.5998Y-3.9096
X2.6998Y-3.3976
X2.6998Y-3.4976
X2.6998Y-3.8096
X2.6998Y-3.9096
T3
X3.9065Y-4.6101
X4.0049Y-4.6101
X4.1034Y-4.6101
X4.3486Y-4.168
X4.3486Y-4.2664
X4.3486Y-4.3648
T4
X0.902Y-5.284
X0.902Y-6.034
X1.152Y-5.184
X1.152Y-5.934
X1.65Y-6.034
X1.652Y-5.284
X1.9Y-5.934
X1.902Y-5.184
X2.397Y-6.035
X2.402Y-5.284
X2.647Y-5.935
X2.652Y-5.184
X3.147Y-6.036
X3.154Y-5.284
X3.397Y-5.936
X3.404Y-5.184
X3.902Y-6.035
X3.906Y-5.284
X4.152Y-5.935
X4.156Y-5.184
T5
X3.8081Y-4.0174
X3.8081Y-4.5154
X4.2018Y-4.0174
X4.2018Y-4.5154
T3
G00X3.6014Y-4.1187
M15
G01X3.6014Y-4.1384
M16
G05
G00X3.6014Y-4.3943
M15
G01X3.6014Y-4.414
M16
G05
G00X3.7786Y-4.1187
M15
G01X3.7786Y-4.1384
M16
G05
G00X3.7786Y-4.3943
M15
G01X3.7786Y-4.414
M16
G05
M30
