M48
; DRILL file {KiCad 9.0.3} date 2025-08-23T18:14:46+0200
; FORMAT={-:-/ absolute / inch / decimal}
; #@! TF.CreationDate,2025-08-23T18:14:46+02:00
; #@! TF.GenerationSoftware,Kicad,Pcbnew,9.0.3
; #@! TF.FileFunction,NonPlated,1,2,NPTH
FMAT,2
INCH
; #@! TA.AperFunction,NonPlated,NPTH,ComponentDrill
T1C0.0669
; #@! TA.AperFunction,NonPlated,NPTH,ComponentDrill
T2C0.0689
; #@! TA.AperFunction,NonPlated,NPTH,ComponentDrill
T3C0.1575
%
G90
G05
T1
X0.802Y-5.084
X0.802Y-5.834
X1.202Y-5.084
X1.202Y-5.834
X1.55Y-5.834
X1.552Y-5.084
X1.95Y-5.834
X1.952Y-5.084
X2.297Y-5.835
X2.302Y-5.084
X2.697Y-5.835
X2.702Y-5.084
X3.802Y-5.835
X3.806Y-5.084
X4.202Y-5.835
X4.206Y-5.084
T2
X3.047Y-5.836
X3.054Y-5.084
X3.447Y-5.836
X3.454Y-5.084
T3
X1.002Y-5.084
X1.002Y-5.834
X1.75Y-5.834
X1.752Y-5.084
X2.497Y-5.835
X2.502Y-5.084
X3.247Y-5.836
X3.254Y-5.084
X4.002Y-5.835
X4.006Y-5.084
M30
