M48
; DRILL file {KiCad 9.0.2} date 2025-06-15T14:19:34+0200
; FORMAT={-:-/ absolute / inch / decimal}
; #@! TF.CreationDate,2025-06-15T14:19:34+02:00
; #@! TF.GenerationSoftware,Kicad,Pcbnew,9.0.2
; #@! TF.FileFunction,Plated,1,2,PTH
FMAT,2
INCH
; #@! TA.AperFunction,Plated,PTH,ViaDrill
T1C0.0118
; #@! TA.AperFunction,Plated,PTH,ComponentDrill
T2C0.0276
; #@! TA.AperFunction,Plated,PTH,ComponentDrill
T3C0.0315
; #@! TA.AperFunction,Plated,PTH,ComponentDrill
T4C0.0354
; #@! TA.AperFunction,Plated,PTH,ComponentDrill
T5C0.0394
; #@! TA.AperFunction,Plated,PTH,ComponentDrill
T6C0.0433
; #@! TA.AperFunction,Plated,PTH,ComponentDrill
T7C0.0472
; #@! TA.AperFunction,Plated,PTH,ComponentDrill
T8C0.0591
; #@! TA.AperFunction,Plated,PTH,ComponentDrill
T9C0.0630
%
G90
G05
T1
X0.8711Y-5.8464
X1.0694Y-3.8414
X1.175Y-3.9368
X1.4117Y-3.3838
X1.42Y-3.68
X1.44Y-2.56
X1.4412Y-3.4161
X1.5Y-2.49
X1.5Y-2.55
X1.5039Y-3.0709
X1.508Y-2.6713
X1.5681Y-3.3504
X1.58Y-3.63
X1.59Y-3.76
X1.6081Y-2.8835
X1.6412Y-3.1601
X1.6522Y-3.1971
X1.6551Y-2.57
X1.679Y-2.9492
X1.7027Y-2.9712
X1.7352Y-2.9508
X1.7367Y-2.5418
X1.8586Y-5.3773
X1.8706Y-3.022
X1.8759Y-2.5819
X1.8816Y-3.2763
X1.8818Y-2.6876
X1.89Y-2.95
X1.9003Y-5.3337
X1.98Y-3.48
X1.99Y-2.54
X1.9902Y-2.7215
X2.0826Y-4.5799
X2.1136Y-3.5811
X2.1136Y-4.7761
X2.1288Y-2.9505
X2.3255Y-5.6123
X2.4422Y-5.3741
X2.5019Y-4.0052
X2.5847Y-5.2385
X2.6044Y-5.539
X2.6132Y-3.2553
X2.6611Y-5.4806
X2.6938Y-5.7043
X2.7066Y-4.3106
X2.7235Y-2.5321
X2.7235Y-2.7828
X2.7235Y-3.0018
X2.7235Y-3.4841
X2.8398Y-5.3778
X3.1705Y-4.6727
X3.19Y-4.7454
X3.2415Y-5.2614
X3.2681Y-3.9811
X3.4599Y-5.0771
X3.5295Y-5.2073
X3.602Y-4.4281
X3.8622Y-5.212
X3.8881Y-4.0108
X3.89Y-4.56
X3.93Y-3.41
T2
X0.8375Y-5.2135
X0.8435Y-4.8724
X0.8435Y-4.9964
X0.9375Y-5.2135
X0.9435Y-4.8724
X0.9435Y-4.9964
X1.1836Y-4.9143
X1.1836Y-5.0383
X1.1836Y-5.1623
X1.2836Y-4.9143
X1.2836Y-5.0383
X1.2836Y-5.1623
X2.082Y-2.7064
X2.082Y-2.8669
X2.082Y-3.0273
X2.082Y-3.1878
X2.082Y-3.3483
X2.182Y-2.7064
X2.182Y-2.8669
X2.182Y-3.0273
X2.182Y-3.1878
X2.182Y-3.3483
X2.3335Y-2.7334
X2.3335Y-2.8574
X2.3335Y-2.9814
X2.3335Y-3.1054
X2.3335Y-3.2294
X2.3566Y-3.8863
X2.3566Y-4.0271
X2.4335Y-2.7334
X2.4335Y-2.8574
X2.4335Y-2.9814
X2.4335Y-3.1054
X2.4335Y-3.2294
X2.4566Y-3.8863
X2.4566Y-4.0271
X2.6566Y-3.7644
X2.7566Y-3.7644
X3.0411Y-3.8863
X3.0411Y-4.0271
X3.1411Y-3.8863
X3.1411Y-4.0271
X3.1663Y-2.6003
X3.1663Y-2.8248
X3.1663Y-3.0494
X3.1663Y-3.2739
X3.1663Y-3.4984
X3.2663Y-2.6003
X3.2663Y-2.8248
X3.2663Y-3.0494
X3.2663Y-3.2739
X3.2663Y-3.4984
X3.3466Y-3.7644
X3.4366Y-4.3084
X3.4366Y-4.4244
X3.4466Y-3.7644
X3.5366Y-4.3084
X3.5366Y-4.4244
X3.7164Y-2.6024
X3.7164Y-2.8274
X3.7164Y-3.0524
X3.7164Y-3.2773
X3.7164Y-3.5023
X3.7366Y-3.8863
X3.7366Y-4.0271
X3.7666Y-4.2324
X3.8122Y-4.6823
X3.8122Y-4.8063
X3.8122Y-5.1064
X3.8122Y-5.2304
X3.8164Y-2.6024
X3.8164Y-2.8274
X3.8164Y-3.0524
X3.8164Y-3.2773
X3.8164Y-3.5023
X3.8366Y-3.8863
X3.8366Y-4.0271
X3.8666Y-4.2324
X3.9122Y-4.6823
X3.9122Y-4.8063
X3.9122Y-5.1064
X3.9122Y-5.2304
X4.0222Y-4.6844
X4.0222Y-4.8084
X4.0322Y-5.1044
X4.0322Y-5.2285
X4.0466Y-3.7644
X4.1222Y-4.6844
X4.1222Y-4.8084
X4.1322Y-5.1044
X4.1322Y-5.2285
X4.1466Y-3.7644
X4.2664Y-2.6063
X4.2664Y-2.8279
X4.2664Y-3.0494
X4.2664Y-3.2709
X4.2664Y-3.4924
X4.2822Y-4.7024
X4.2822Y-4.8024
X4.2822Y-5.1108
X4.2822Y-5.2108
X4.3664Y-2.6063
X4.3664Y-2.8279
X4.3664Y-3.0494
X4.3664Y-3.2709
X4.3664Y-3.4924
T3
X0.7054Y-3.5383
X0.7054Y-3.617
X1.3414Y-3.1705
X1.3414Y-3.2493
X4.2114Y-4.1904
X4.2114Y-4.2691
T4
X2.8703Y-2.5989
X2.8703Y-2.8239
X2.8703Y-3.0489
X2.8703Y-3.2739
X2.8703Y-3.4989
X2.9703Y-2.5989
X2.9703Y-2.8239
X2.9703Y-3.0489
X2.9703Y-3.2739
X2.9703Y-3.4989
X3.4382Y-2.6043
X3.4382Y-2.8283
X3.4382Y-3.0523
X3.4382Y-3.2763
X3.4382Y-3.5003
X3.5382Y-2.6043
X3.5382Y-2.8283
X3.5382Y-3.0523
X3.5382Y-3.2763
X3.5382Y-3.5003
X3.9841Y-2.6096
X3.9841Y-2.825
X3.986Y-3.0589
X3.986Y-3.2743
X3.986Y-3.4896
X4.0841Y-2.6096
X4.0841Y-2.825
X4.086Y-3.0589
X4.086Y-3.2743
X4.086Y-3.4896
T5
X0.8614Y-3.8426
X0.8614Y-3.9426
X0.8614Y-4.0426
X0.8614Y-4.1426
X0.8614Y-4.2426
X0.8614Y-4.3426
X0.9522Y-3.5456
X0.9614Y-3.8426
X0.9614Y-3.9426
X0.9614Y-4.0426
X0.9614Y-4.1426
X0.9614Y-4.2426
X0.9614Y-4.3426
X0.97Y-2.7474
X0.97Y-2.8474
X0.97Y-2.9474
X0.97Y-3.0474
X0.97Y-3.1474
X1.0522Y-3.5456
X1.07Y-2.7474
X1.07Y-2.8474
X1.07Y-2.9474
X1.07Y-3.0474
X1.07Y-3.1474
X1.2898Y-4.2243
X1.2898Y-4.3228
X1.2898Y-4.4212
X1.5752Y-3.9389
X1.6736Y-3.9389
X1.772Y-3.9389
X2.3347Y-5.1847
X2.3347Y-5.2847
X2.4347Y-5.1847
X2.4347Y-5.2847
X2.5347Y-5.1847
X2.5347Y-5.2847
X2.6347Y-5.1847
X2.6347Y-5.2847
X2.7347Y-5.1847
X2.7347Y-5.2847
X2.8347Y-5.1847
X2.8347Y-5.2847
X3.3006Y-4.7707
X3.3006Y-4.8707
X3.3006Y-4.9707
X3.3006Y-5.0707
X3.3006Y-5.1707
X3.3006Y-5.2707
X3.4006Y-4.7707
X3.4006Y-4.8707
X3.4006Y-4.9707
X3.4006Y-5.0707
X3.4006Y-5.1707
X3.4006Y-5.2707
T6
X1.6316Y-5.5062
X1.73Y-5.5062
X1.8284Y-5.5062
X2.0737Y-5.7515
X2.0737Y-5.8499
X2.0737Y-5.9483
X2.6082Y-4.2102
X2.7066Y-4.2102
X2.805Y-4.2102
X3.0503Y-4.4554
X3.0503Y-4.5539
X3.0503Y-4.6523
T7
X0.9536Y-5.6323
X1.0536Y-5.6323
X1.7036Y-4.8822
X1.8036Y-4.8822
X2.4536Y-5.6331
X2.5536Y-5.6331
X3.2036Y-5.634
X3.3036Y-5.634
X3.9536Y-5.6344
X4.0536Y-5.6344
T8
X0.9036Y-6.0323
X1.1536Y-5.9323
X1.4118Y-4.0176
X1.4118Y-4.6279
X1.6536Y-5.2822
X1.9036Y-5.1822
X1.9354Y-4.0176
X1.9354Y-4.6279
X2.4036Y-6.0331
X2.6536Y-5.9331
X3.1536Y-6.034
X3.4036Y-5.934
X3.9036Y-6.0344
X4.1536Y-5.9344
T9
X1.481Y-5.653
X1.481Y-6.0467
X1.979Y-5.653
X1.979Y-6.0467
X2.4576Y-4.357
X2.4576Y-4.7507
X2.9556Y-4.357
X2.9556Y-4.7507
T6
G00X1.5824Y-6.0763
M15
G01X1.602Y-6.0763
M16
G05
G00X1.5824Y-6.2534
M15
G01X1.602Y-6.2534
M16
G05
G00X1.8579Y-6.0763
M15
G01X1.8776Y-6.0763
M16
G05
G00X1.8579Y-6.2534
M15
G01X1.8776Y-6.2534
M16
G05
G00X1.9984Y-4.2066
M15
G01X1.9984Y-4.1869
M16
G05
G00X1.9984Y-4.4625
M15
G01X1.9984Y-4.4428
M16
G05
G00X2.1756Y-4.2066
M15
G01X2.1756Y-4.1869
M16
G05
G00X2.1756Y-4.4625
M15
G01X2.1756Y-4.4428
M16
G05
G00X2.559Y-4.7802
M15
G01X2.5787Y-4.7802
M16
G05
G00X2.559Y-4.9574
M15
G01X2.5787Y-4.9574
M16
G05
G00X2.8346Y-4.7802
M15
G01X2.8543Y-4.7802
M16
G05
G00X2.8346Y-4.9574
M15
G01X2.8543Y-4.9574
M16
G05
M30
