%TF.GenerationSoftware,KiCad,Pcbnew,9.0.3*%
%TF.CreationDate,2025-08-23T18:14:46+02:00*%
%TF.ProjectId,test,74657374-2e6b-4696-9361-645f70636258,rev?*%
%TF.SameCoordinates,Original*%
%TF.FileFunction,Soldermask,Top*%
%TF.FilePolarity,Negative*%
%FSLAX46Y46*%
G04 Gerber Fmt 4.6, Leading zero omitted, Abs format (unit mm)*
G04 Created by KiCad (PCBNEW 9.0.3) date 2025-08-23 18:14:46*
%MOMM*%
%LPD*%
G01*
G04 APERTURE LIST*
G04 Aperture macros list*
%AMRoundRect*
0 Rectangle with rounded corners*
0 $1 Rounding radius*
0 $2 $3 $4 $5 $6 $7 $8 $9 X,Y pos of 4 corners*
0 Add a 4 corners polygon primitive as box body*
4,1,4,$2,$3,$4,$5,$6,$7,$8,$9,$2,$3,0*
0 Add four circle primitives for the rounded corners*
1,1,$1+$1,$2,$3*
1,1,$1+$1,$4,$5*
1,1,$1+$1,$6,$7*
1,1,$1+$1,$8,$9*
0 Add four rect primitives between the rounded corners*
20,1,$1+$1,$2,$3,$4,$5,0*
20,1,$1+$1,$4,$5,$6,$7,0*
20,1,$1+$1,$6,$7,$8,$9,0*
20,1,$1+$1,$8,$9,$2,$3,0*%
G04 Aperture macros list end*
%ADD10C,2.200000*%
%ADD11RoundRect,0.250000X0.600000X-0.600000X0.600000X0.600000X-0.600000X0.600000X-0.600000X-0.600000X0*%
%ADD12C,1.700000*%
%ADD13RoundRect,0.250000X-0.600000X-0.600000X0.600000X-0.600000X0.600000X0.600000X-0.600000X0.600000X0*%
%ADD14C,2.540000*%
%ADD15R,1.500000X2.000000*%
%ADD16C,1.800000*%
G04 APERTURE END LIST*
D10*
%TO.C,SW2*%
X99110800Y-153289000D03*
X105460800Y-150749000D03*
%TD*%
D11*
%TO.C,J2*%
X63495000Y-99304500D03*
D12*
X63495000Y-96764500D03*
X66035000Y-99304500D03*
X66035000Y-96764500D03*
X68575000Y-99304500D03*
X68575000Y-96764500D03*
%TD*%
D11*
%TO.C,J1*%
X63495000Y-88839700D03*
D12*
X63495000Y-86299700D03*
X66035000Y-88839700D03*
X66035000Y-86299700D03*
X68575000Y-88839700D03*
X68575000Y-86299700D03*
%TD*%
%TO.C,J6*%
X24638000Y-88646000D03*
X24638000Y-91186000D03*
X24638000Y-93726000D03*
X24638000Y-96266000D03*
X24638000Y-98806000D03*
X24638000Y-101346000D03*
X24638000Y-103886000D03*
X24638000Y-106426000D03*
X24638000Y-108966000D03*
X24638000Y-111506000D03*
X22098000Y-111506000D03*
X22098000Y-108966000D03*
X22098000Y-106426000D03*
X22098000Y-103886000D03*
X22098000Y-101346000D03*
X22098000Y-98806000D03*
X22098000Y-96266000D03*
X22098000Y-93726000D03*
X22098000Y-91186000D03*
D13*
X22098000Y-88646000D03*
%TD*%
D10*
%TO.C,SW7*%
X41960800Y-134213600D03*
X48310800Y-131673600D03*
%TD*%
%TO.C,SW4*%
X41910000Y-153263600D03*
X48260000Y-150723600D03*
%TD*%
%TO.C,SW5*%
X60883800Y-153289000D03*
X67233800Y-150749000D03*
%TD*%
%TO.C,SW3*%
X22910800Y-153263600D03*
X29260800Y-150723600D03*
%TD*%
%TO.C,SW6*%
X22910800Y-134213600D03*
X29260800Y-131673600D03*
%TD*%
%TO.C,SW10*%
X99212400Y-134213600D03*
X105562400Y-131673600D03*
%TD*%
D14*
%TO.C,U5*%
X96725200Y-102041000D03*
X106725200Y-102041000D03*
X106725200Y-114691000D03*
X96725200Y-114691000D03*
D15*
X95975200Y-111866000D03*
X95975200Y-104866000D03*
X91475200Y-104866000D03*
X91475200Y-111866000D03*
D16*
X110455200Y-105866000D03*
X110455200Y-108366000D03*
X110455200Y-110866000D03*
X104225200Y-117096000D03*
X101725200Y-117096000D03*
X99225200Y-117096000D03*
%TD*%
D10*
%TO.C,SW1*%
X86283800Y-150774400D03*
X79933800Y-153314400D03*
%TD*%
%TO.C,SW8*%
X61010800Y-134213600D03*
X67360800Y-131673600D03*
%TD*%
%TO.C,SW9*%
X86461600Y-131673600D03*
X80111600Y-134213600D03*
%TD*%
M02*
