%TF.GenerationSoftware,KiCad,Pcbnew,9.0.3*%
%TF.CreationDate,2025-08-12T15:40:08+02:00*%
%TF.ProjectId,petkn,7065746b-6e2e-46b6-9963-61645f706362,rev?*%
%TF.SameCoordinates,Original*%
%TF.FileFunction,Profile,NP*%
%FSLAX46Y46*%
G04 Gerber Fmt 4.6, Leading zero omitted, Abs format (unit mm)*
G04 Created by KiCad (PCBNEW 9.0.3) date 2025-08-12 15:40:08*
%MOMM*%
%LPD*%
G01*
G04 APERTURE LIST*
%TA.AperFunction,Profile*%
%ADD10C,0.050000*%
%TD*%
G04 APERTURE END LIST*
D10*
X253515500Y-143000000D02*
G75*
G02*
X248515500Y-143000000I-2500000J0D01*
G01*
X248515500Y-143000000D02*
G75*
G02*
X253515500Y-143000000I2500000J0D01*
G01*
X24217000Y-143000000D02*
G75*
G02*
X19217000Y-143000000I-2500000J0D01*
G01*
X19217000Y-143000000D02*
G75*
G02*
X24217000Y-143000000I2500000J0D01*
G01*
X400772000Y-54000000D02*
G75*
G02*
X395772000Y-54000000I-2500000J0D01*
G01*
X395772000Y-54000000D02*
G75*
G02*
X400772000Y-54000000I2500000J0D01*
G01*
X23114000Y-148209000D02*
G75*
G02*
X17272000Y-142367000I0J5842000D01*
G01*
X397510000Y-48577500D02*
G75*
G02*
X403352000Y-54419500I0J-5842000D01*
G01*
X308824000Y-54000000D02*
G75*
G02*
X303824000Y-54000000I-2500000J0D01*
G01*
X303824000Y-54000000D02*
G75*
G02*
X308824000Y-54000000I2500000J0D01*
G01*
X403352000Y-142367000D02*
G75*
G02*
X397510000Y-148209000I-5842000J0D01*
G01*
X53871500Y-143000000D02*
G75*
G02*
X48871500Y-143000000I-2500000J0D01*
G01*
X48871500Y-143000000D02*
G75*
G02*
X53871500Y-143000000I2500000J0D01*
G01*
X17272000Y-54419500D02*
G75*
G02*
X23114000Y-48577500I5842000J0D01*
G01*
X181189000Y-143000000D02*
G75*
G02*
X176189000Y-143000000I-2500000J0D01*
G01*
X176189000Y-143000000D02*
G75*
G02*
X181189000Y-143000000I2500000J0D01*
G01*
X308824000Y-143000000D02*
G75*
G02*
X303824000Y-143000000I-2500000J0D01*
G01*
X303824000Y-143000000D02*
G75*
G02*
X308824000Y-143000000I2500000J0D01*
G01*
X400835500Y-143000000D02*
G75*
G02*
X395835500Y-143000000I-2500000J0D01*
G01*
X395835500Y-143000000D02*
G75*
G02*
X400835500Y-143000000I2500000J0D01*
G01*
X23114000Y-148209000D02*
X397510000Y-148209000D01*
X400772000Y-98000000D02*
G75*
G02*
X395772000Y-98000000I-2500000J0D01*
G01*
X395772000Y-98000000D02*
G75*
G02*
X400772000Y-98000000I2500000J0D01*
G01*
X24217000Y-53000000D02*
G75*
G02*
X19217000Y-53000000I-2500000J0D01*
G01*
X19217000Y-53000000D02*
G75*
G02*
X24217000Y-53000000I2500000J0D01*
G01*
X24217000Y-98000000D02*
G75*
G02*
X19217000Y-98000000I-2500000J0D01*
G01*
X19217000Y-98000000D02*
G75*
G02*
X24217000Y-98000000I2500000J0D01*
G01*
X23114000Y-48577500D02*
X182880000Y-48564800D01*
X403352000Y-54419500D02*
X403352000Y-142367000D01*
X17272000Y-54419500D02*
X17272000Y-142367000D01*
X300500000Y-97726500D02*
G75*
G02*
X295500000Y-97726500I-2500000J0D01*
G01*
X295500000Y-97726500D02*
G75*
G02*
X300500000Y-97726500I2500000J0D01*
G01*
X300500000Y-54000000D02*
G75*
G02*
X295500000Y-54000000I-2500000J0D01*
G01*
X295500000Y-54000000D02*
G75*
G02*
X300500000Y-54000000I2500000J0D01*
G01*
X300500000Y-143002000D02*
G75*
G02*
X295500000Y-143002000I-2500000J0D01*
G01*
X295500000Y-143002000D02*
G75*
G02*
X300500000Y-143002000I2500000J0D01*
G01*
X177482853Y-52666500D02*
G75*
G02*
X173280147Y-52666500I-2101353J0D01*
G01*
X173280147Y-52666500D02*
G75*
G02*
X177482853Y-52666500I2101353J0D01*
G01*
X101351853Y-52705000D02*
G75*
G02*
X97149147Y-52705000I-2101353J0D01*
G01*
X97149147Y-52705000D02*
G75*
G02*
X101351853Y-52705000I2101353J0D01*
G01*
X182880000Y-48577500D02*
X182880000Y-46228000D01*
X237236000Y-48564800D02*
X397510000Y-48577500D01*
X182880000Y-46228000D02*
X237236000Y-46228000D01*
X253688353Y-52641500D02*
G75*
G02*
X249485647Y-52641500I-2101353J0D01*
G01*
X249485647Y-52641500D02*
G75*
G02*
X253688353Y-52641500I2101353J0D01*
G01*
X237236000Y-46228000D02*
X237236000Y-48577500D01*
M02*
