%TF.GenerationSoftware,KiCad,Pcbnew,9.0.4*%
%TF.CreationDate,2025-11-02T12:35:49+01:00*%
%TF.ProjectId,petkn,7065746b-6e2e-46b6-9963-61645f706362,rev?*%
%TF.SameCoordinates,Original*%
%TF.FileFunction,Profile,NP*%
%FSLAX46Y46*%
G04 Gerber Fmt 4.6, Leading zero omitted, Abs format (unit mm)*
G04 Created by KiCad (PCBNEW 9.0.4) date 2025-11-02 12:35:49*
%MOMM*%
%LPD*%
G01*
G04 APERTURE LIST*
%TA.AperFunction,Profile*%
%ADD10C,0.050000*%
%TD*%
G04 APERTURE END LIST*
D10*
X253515500Y-143000000D02*
G75*
G02*
X248515500Y-143000000I-2500000J0D01*
G01*
X248515500Y-143000000D02*
G75*
G02*
X253515500Y-143000000I2500000J0D01*
G01*
X24217000Y-143000000D02*
G75*
G02*
X19217000Y-143000000I-2500000J0D01*
G01*
X19217000Y-143000000D02*
G75*
G02*
X24217000Y-143000000I2500000J0D01*
G01*
X400772000Y-54000000D02*
G75*
G02*
X395772000Y-54000000I-2500000J0D01*
G01*
X395772000Y-54000000D02*
G75*
G02*
X400772000Y-54000000I2500000J0D01*
G01*
X23114000Y-148209000D02*
G75*
G02*
X17272000Y-142367000I0J5842000D01*
G01*
X397510000Y-48577500D02*
G75*
G02*
X403352000Y-54419500I0J-5842000D01*
G01*
X308824000Y-54000000D02*
G75*
G02*
X303824000Y-54000000I-2500000J0D01*
G01*
X303824000Y-54000000D02*
G75*
G02*
X308824000Y-54000000I2500000J0D01*
G01*
X403352000Y-142367000D02*
G75*
G02*
X397510000Y-148209000I-5842000J0D01*
G01*
X53871500Y-143000000D02*
G75*
G02*
X48871500Y-143000000I-2500000J0D01*
G01*
X48871500Y-143000000D02*
G75*
G02*
X53871500Y-143000000I2500000J0D01*
G01*
X17272000Y-54419500D02*
G75*
G02*
X23114000Y-48577500I5842000J0D01*
G01*
X181189000Y-143000000D02*
G75*
G02*
X176189000Y-143000000I-2500000J0D01*
G01*
X176189000Y-143000000D02*
G75*
G02*
X181189000Y-143000000I2500000J0D01*
G01*
X400835500Y-143000000D02*
G75*
G02*
X395835500Y-143000000I-2500000J0D01*
G01*
X395835500Y-143000000D02*
G75*
G02*
X400835500Y-143000000I2500000J0D01*
G01*
X23114000Y-148209000D02*
X397510000Y-148209000D01*
X400772000Y-98000000D02*
G75*
G02*
X395772000Y-98000000I-2500000J0D01*
G01*
X395772000Y-98000000D02*
G75*
G02*
X400772000Y-98000000I2500000J0D01*
G01*
X24217000Y-53000000D02*
G75*
G02*
X19217000Y-53000000I-2500000J0D01*
G01*
X19217000Y-53000000D02*
G75*
G02*
X24217000Y-53000000I2500000J0D01*
G01*
X24217000Y-98000000D02*
G75*
G02*
X19217000Y-98000000I-2500000J0D01*
G01*
X19217000Y-98000000D02*
G75*
G02*
X24217000Y-98000000I2500000J0D01*
G01*
X23114000Y-48577500D02*
X182880000Y-48577500D01*
X403352000Y-54419500D02*
X403352000Y-142367000D01*
X17272000Y-54419500D02*
X17272000Y-142367000D01*
X300500000Y-97726500D02*
G75*
G02*
X295500000Y-97726500I-2500000J0D01*
G01*
X295500000Y-97726500D02*
G75*
G02*
X300500000Y-97726500I2500000J0D01*
G01*
X300500000Y-54000000D02*
G75*
G02*
X295500000Y-54000000I-2500000J0D01*
G01*
X295500000Y-54000000D02*
G75*
G02*
X300500000Y-54000000I2500000J0D01*
G01*
X177482853Y-52666500D02*
G75*
G02*
X173280147Y-52666500I-2101353J0D01*
G01*
X173280147Y-52666500D02*
G75*
G02*
X177482853Y-52666500I2101353J0D01*
G01*
X101351853Y-52705000D02*
G75*
G02*
X97149147Y-52705000I-2101353J0D01*
G01*
X97149147Y-52705000D02*
G75*
G02*
X101351853Y-52705000I2101353J0D01*
G01*
X182880000Y-48577500D02*
X182880000Y-46228000D01*
X237236000Y-48564800D02*
X397510000Y-48577500D01*
X182880000Y-46228000D02*
X237236000Y-46228000D01*
X253688353Y-52641500D02*
G75*
G02*
X249485647Y-52641500I-2101353J0D01*
G01*
X249485647Y-52641500D02*
G75*
G02*
X253688353Y-52641500I2101353J0D01*
G01*
X237236000Y-46228000D02*
X237236000Y-48564800D01*
%TO.C,SW5*%
X268793800Y-81990500D02*
X272193800Y-81990500D01*
X268793800Y-84990500D02*
X268793800Y-81990500D01*
X272193800Y-81990500D02*
X272193800Y-84990500D01*
X272193800Y-84990500D02*
X268793800Y-84990500D01*
%TO.C,SW11*%
X273657800Y-120105500D02*
X277057800Y-120105500D01*
X273657800Y-123105500D02*
X273657800Y-120105500D01*
X277057800Y-120105500D02*
X277057800Y-123105500D01*
X277057800Y-123105500D02*
X273657800Y-123105500D01*
%TO.C,SW12*%
X287843800Y-81990500D02*
X291243800Y-81990500D01*
X287843800Y-84990500D02*
X287843800Y-81990500D01*
X291243800Y-81990500D02*
X291243800Y-84990500D01*
X291243800Y-84990500D02*
X287843800Y-84990500D01*
%TO.C,SW14*%
X278318800Y-62940500D02*
X281718800Y-62940500D01*
X278318800Y-65940500D02*
X278318800Y-62940500D01*
X281718800Y-62940500D02*
X281718800Y-65940500D01*
X281718800Y-65940500D02*
X278318800Y-65940500D01*
%TO.C,SW15*%
X30668800Y-62940500D02*
X34068800Y-62940500D01*
X30668800Y-65940500D02*
X30668800Y-62940500D01*
X34068800Y-62940500D02*
X34068800Y-65940500D01*
X34068800Y-65940500D02*
X30668800Y-65940500D01*
%TO.C,SW20*%
X245044800Y-120090500D02*
X248444800Y-120090500D01*
X245044800Y-123090500D02*
X245044800Y-120090500D01*
X248444800Y-120090500D02*
X248444800Y-123090500D01*
X248444800Y-123090500D02*
X245044800Y-123090500D01*
%TO.C,SW21*%
X206944800Y-120090500D02*
X210344800Y-120090500D01*
X206944800Y-123090500D02*
X206944800Y-120090500D01*
X210344800Y-120090500D02*
X210344800Y-123090500D01*
X210344800Y-123090500D02*
X206944800Y-123090500D01*
%TO.C,SW22*%
X168844800Y-120090500D02*
X172244800Y-120090500D01*
X168844800Y-123090500D02*
X168844800Y-120090500D01*
X172244800Y-120090500D02*
X172244800Y-123090500D01*
X172244800Y-123090500D02*
X168844800Y-123090500D01*
%TO.C,SW23*%
X130744800Y-120090500D02*
X134144800Y-120090500D01*
X130744800Y-123090500D02*
X130744800Y-120090500D01*
X134144800Y-120090500D02*
X134144800Y-123090500D01*
X134144800Y-123090500D02*
X130744800Y-123090500D01*
%TO.C,SW24*%
X92644800Y-120090500D02*
X96044800Y-120090500D01*
X92644800Y-123090500D02*
X92644800Y-120090500D01*
X96044800Y-120090500D02*
X96044800Y-123090500D01*
X96044800Y-123090500D02*
X92644800Y-123090500D01*
%TO.C,SW27*%
X278572800Y-101040500D02*
X281972800Y-101040500D01*
X278572800Y-104040500D02*
X278572800Y-101040500D01*
X281972800Y-101040500D02*
X281972800Y-104040500D01*
X281972800Y-104040500D02*
X278572800Y-104040500D01*
%TO.C,SW28*%
X225994800Y-120090500D02*
X229394800Y-120090500D01*
X225994800Y-123090500D02*
X225994800Y-120090500D01*
X229394800Y-120090500D02*
X229394800Y-123090500D01*
X229394800Y-123090500D02*
X225994800Y-123090500D01*
%TO.C,SW29*%
X187894800Y-120090500D02*
X191294800Y-120090500D01*
X187894800Y-123090500D02*
X187894800Y-120090500D01*
X191294800Y-120090500D02*
X191294800Y-123090500D01*
X191294800Y-123090500D02*
X187894800Y-123090500D01*
%TO.C,SW30*%
X149794800Y-120090500D02*
X153194800Y-120090500D01*
X149794800Y-123090500D02*
X149794800Y-120090500D01*
X153194800Y-120090500D02*
X153194800Y-123090500D01*
X153194800Y-123090500D02*
X149794800Y-123090500D01*
%TO.C,SW32*%
X73594800Y-120090500D02*
X76994800Y-120090500D01*
X73594800Y-123090500D02*
X73594800Y-120090500D01*
X76994800Y-120090500D02*
X76994800Y-123090500D01*
X76994800Y-123090500D02*
X73594800Y-123090500D01*
%TO.C,SW36*%
X235646800Y-101040500D02*
X239046800Y-101040500D01*
X235646800Y-104040500D02*
X235646800Y-101040500D01*
X239046800Y-101040500D02*
X239046800Y-104040500D01*
X239046800Y-104040500D02*
X235646800Y-104040500D01*
%TO.C,SW40*%
X83246800Y-101040500D02*
X86646800Y-101040500D01*
X83246800Y-104040500D02*
X83246800Y-101040500D01*
X86646800Y-101040500D02*
X86646800Y-104040500D01*
X86646800Y-104040500D02*
X83246800Y-104040500D01*
%TO.C,SW44*%
X216596800Y-101040500D02*
X219996800Y-101040500D01*
X216596800Y-104040500D02*
X216596800Y-101040500D01*
X219996800Y-101040500D02*
X219996800Y-104040500D01*
X219996800Y-104040500D02*
X216596800Y-104040500D01*
%TO.C,SW47*%
X102296800Y-101040500D02*
X105696800Y-101040500D01*
X102296800Y-104040500D02*
X102296800Y-101040500D01*
X105696800Y-101040500D02*
X105696800Y-104040500D01*
X105696800Y-104040500D02*
X102296800Y-104040500D01*
%TO.C,SW52*%
X230693800Y-81990500D02*
X234093800Y-81990500D01*
X230693800Y-84990500D02*
X230693800Y-81990500D01*
X234093800Y-81990500D02*
X234093800Y-84990500D01*
X234093800Y-84990500D02*
X230693800Y-84990500D01*
%TO.C,SW53*%
X192593800Y-81990500D02*
X195993800Y-81990500D01*
X192593800Y-84990500D02*
X192593800Y-81990500D01*
X195993800Y-81990500D02*
X195993800Y-84990500D01*
X195993800Y-84990500D02*
X192593800Y-84990500D01*
%TO.C,SW55*%
X116393800Y-81990500D02*
X119793800Y-81990500D01*
X116393800Y-84990500D02*
X116393800Y-81990500D01*
X119793800Y-81990500D02*
X119793800Y-84990500D01*
X119793800Y-84990500D02*
X116393800Y-84990500D01*
%TO.C,SW56*%
X78293800Y-81990500D02*
X81693800Y-81990500D01*
X78293800Y-84990500D02*
X78293800Y-81990500D01*
X81693800Y-81990500D02*
X81693800Y-84990500D01*
X81693800Y-84990500D02*
X78293800Y-84990500D01*
%TO.C,SW59*%
X249743800Y-81990500D02*
X253143800Y-81990500D01*
X249743800Y-84990500D02*
X249743800Y-81990500D01*
X253143800Y-81990500D02*
X253143800Y-84990500D01*
X253143800Y-84990500D02*
X249743800Y-84990500D01*
%TO.C,SW60*%
X211643800Y-81990500D02*
X215043800Y-81990500D01*
X211643800Y-84990500D02*
X211643800Y-81990500D01*
X215043800Y-81990500D02*
X215043800Y-84990500D01*
X215043800Y-84990500D02*
X211643800Y-84990500D01*
%TO.C,SW61*%
X173543800Y-81990500D02*
X176943800Y-81990500D01*
X173543800Y-84990500D02*
X173543800Y-81990500D01*
X176943800Y-81990500D02*
X176943800Y-84990500D01*
X176943800Y-84990500D02*
X173543800Y-84990500D01*
%TO.C,SW62*%
X135443800Y-81990500D02*
X138843800Y-81990500D01*
X135443800Y-84990500D02*
X135443800Y-81990500D01*
X138843800Y-81990500D02*
X138843800Y-84990500D01*
X138843800Y-84990500D02*
X135443800Y-84990500D01*
%TO.C,SW63*%
X97343800Y-81990500D02*
X100743800Y-81990500D01*
X97343800Y-84990500D02*
X97343800Y-81990500D01*
X100743800Y-81990500D02*
X100743800Y-84990500D01*
X100743800Y-84990500D02*
X97343800Y-84990500D01*
%TO.C,SW70*%
X144968800Y-62940500D02*
X148368800Y-62940500D01*
X144968800Y-65940500D02*
X144968800Y-62940500D01*
X148368800Y-62940500D02*
X148368800Y-65940500D01*
X148368800Y-65940500D02*
X144968800Y-65940500D01*
%TO.C,SW75*%
X240218800Y-62940500D02*
X243618800Y-62940500D01*
X240218800Y-65940500D02*
X240218800Y-62940500D01*
X243618800Y-62940500D02*
X243618800Y-65940500D01*
X243618800Y-65940500D02*
X240218800Y-65940500D01*
%TO.C,SW77*%
X164018800Y-62940500D02*
X167418800Y-62940500D01*
X164018800Y-65940500D02*
X164018800Y-62940500D01*
X167418800Y-62940500D02*
X167418800Y-65940500D01*
X167418800Y-65940500D02*
X164018800Y-65940500D01*
%TO.C,SW78*%
X125918800Y-62940500D02*
X129318800Y-62940500D01*
X125918800Y-65940500D02*
X125918800Y-62940500D01*
X129318800Y-62940500D02*
X129318800Y-65940500D01*
X129318800Y-65940500D02*
X125918800Y-65940500D01*
%TO.C,SW64*%
X59243800Y-81990500D02*
X62643800Y-81990500D01*
X59243800Y-84990500D02*
X59243800Y-81990500D01*
X62643800Y-81990500D02*
X62643800Y-84990500D01*
X62643800Y-84990500D02*
X59243800Y-84990500D01*
%TO.C,SW16*%
X45019800Y-120090500D02*
X48419800Y-120090500D01*
X45019800Y-123090500D02*
X45019800Y-120090500D01*
X48419800Y-120090500D02*
X48419800Y-123090500D01*
X48419800Y-123090500D02*
X45019800Y-123090500D01*
%TO.C,SW68*%
X221168800Y-62940500D02*
X224568800Y-62940500D01*
X221168800Y-65940500D02*
X221168800Y-62940500D01*
X224568800Y-62940500D02*
X224568800Y-65940500D01*
X224568800Y-65940500D02*
X221168800Y-65940500D01*
%TO.C,SW4*%
X254696800Y-101040500D02*
X258096800Y-101040500D01*
X254696800Y-104040500D02*
X254696800Y-101040500D01*
X258096800Y-101040500D02*
X258096800Y-104040500D01*
X258096800Y-104040500D02*
X254696800Y-104040500D01*
%TO.C,SW79*%
X87818800Y-62940500D02*
X91218800Y-62940500D01*
X87818800Y-65940500D02*
X87818800Y-62940500D01*
X91218800Y-62940500D02*
X91218800Y-65940500D01*
X91218800Y-65940500D02*
X87818800Y-65940500D01*
%TO.C,SW71*%
X106868800Y-62940500D02*
X110268800Y-62940500D01*
X106868800Y-65940500D02*
X106868800Y-62940500D01*
X110268800Y-62940500D02*
X110268800Y-65940500D01*
X110268800Y-65940500D02*
X106868800Y-65940500D01*
%TO.C,SW72*%
X68768800Y-62940500D02*
X72168800Y-62940500D01*
X68768800Y-65940500D02*
X68768800Y-62940500D01*
X72168800Y-62940500D02*
X72168800Y-65940500D01*
X72168800Y-65940500D02*
X68768800Y-65940500D01*
%TO.C,SW80*%
X49718800Y-62940500D02*
X53118800Y-62940500D01*
X49718800Y-65940500D02*
X49718800Y-62940500D01*
X53118800Y-62940500D02*
X53118800Y-65940500D01*
X53118800Y-65940500D02*
X49718800Y-65940500D01*
%TO.C,SW8*%
X35431300Y-81990500D02*
X38831300Y-81990500D01*
X35431300Y-84990500D02*
X35431300Y-81990500D01*
X38831300Y-81990500D02*
X38831300Y-84990500D01*
X38831300Y-84990500D02*
X35431300Y-84990500D01*
%TO.C,SW7*%
X259268800Y-62940500D02*
X262668800Y-62940500D01*
X259268800Y-65940500D02*
X259268800Y-62940500D01*
X262668800Y-62940500D02*
X262668800Y-65940500D01*
X262668800Y-65940500D02*
X259268800Y-65940500D01*
%TO.C,SW39*%
X121346800Y-101040500D02*
X124746800Y-101040500D01*
X121346800Y-104040500D02*
X121346800Y-101040500D01*
X124746800Y-101040500D02*
X124746800Y-104040500D01*
X124746800Y-104040500D02*
X121346800Y-104040500D01*
%TO.C,SW37*%
X197546800Y-101040500D02*
X200946800Y-101040500D01*
X197546800Y-104040500D02*
X197546800Y-101040500D01*
X200946800Y-101040500D02*
X200946800Y-104040500D01*
X200946800Y-104040500D02*
X197546800Y-104040500D01*
%TO.C,SW38*%
X159446800Y-101040500D02*
X162846800Y-101040500D01*
X159446800Y-104040500D02*
X159446800Y-101040500D01*
X162846800Y-101040500D02*
X162846800Y-104040500D01*
X162846800Y-104040500D02*
X159446800Y-104040500D01*
%TO.C,SW46*%
X140396800Y-101040500D02*
X143796800Y-101040500D01*
X140396800Y-104040500D02*
X140396800Y-101040500D01*
X143796800Y-101040500D02*
X143796800Y-104040500D01*
X143796800Y-104040500D02*
X140396800Y-104040500D01*
%TO.C,SW45*%
X178496800Y-101040500D02*
X181896800Y-101040500D01*
X178496800Y-104040500D02*
X178496800Y-101040500D01*
X181896800Y-101040500D02*
X181896800Y-104040500D01*
X181896800Y-104040500D02*
X178496800Y-104040500D01*
%TO.C,SW31*%
X111694800Y-120090500D02*
X115094800Y-120090500D01*
X111694800Y-123090500D02*
X111694800Y-120090500D01*
X115094800Y-120090500D02*
X115094800Y-123090500D01*
X115094800Y-123090500D02*
X111694800Y-123090500D01*
%TO.C,SW67*%
X87882300Y-139140500D02*
X91282300Y-139140500D01*
X87882300Y-142140500D02*
X87882300Y-139140500D01*
X91282300Y-139140500D02*
X91282300Y-142140500D01*
X91282300Y-142140500D02*
X87882300Y-142140500D01*
%TO.C,SW48*%
X64196800Y-101040500D02*
X67596800Y-101040500D01*
X64196800Y-104040500D02*
X64196800Y-101040500D01*
X67596800Y-101040500D02*
X67596800Y-104040500D01*
X67596800Y-104040500D02*
X64196800Y-104040500D01*
%TO.C,SW54*%
X154493800Y-81990500D02*
X157893800Y-81990500D01*
X154493800Y-84990500D02*
X154493800Y-81990500D01*
X157893800Y-81990500D02*
X157893800Y-84990500D01*
X157893800Y-84990500D02*
X154493800Y-84990500D01*
%TO.C,SW320*%
X40320800Y-100977000D02*
X43720800Y-100977000D01*
X40320800Y-103977000D02*
X40320800Y-100977000D01*
X43720800Y-100977000D02*
X43720800Y-103977000D01*
X43720800Y-103977000D02*
X40320800Y-103977000D01*
%TO.C,SW76*%
X202118800Y-62940500D02*
X205518800Y-62940500D01*
X202118800Y-65940500D02*
X202118800Y-62940500D01*
X205518800Y-62940500D02*
X205518800Y-65940500D01*
X205518800Y-65940500D02*
X202118800Y-65940500D01*
%TO.C,SW69*%
X183068800Y-62940500D02*
X186468800Y-62940500D01*
X183068800Y-65940500D02*
X183068800Y-62940500D01*
X186468800Y-62940500D02*
X186468800Y-65940500D01*
X186468800Y-65940500D02*
X183068800Y-65940500D01*
%TO.C,SW3*%
X233106800Y-139140500D02*
X236506800Y-139140500D01*
X233106800Y-142140500D02*
X233106800Y-139140500D01*
X236506800Y-139140500D02*
X236506800Y-142140500D01*
X236506800Y-142140500D02*
X233106800Y-142140500D01*
%TO.C,SW6*%
X161694800Y-139140500D02*
X165094800Y-139140500D01*
X161694800Y-142140500D02*
X161694800Y-139140500D01*
X165094800Y-139140500D02*
X165094800Y-142140500D01*
X165094800Y-142140500D02*
X161694800Y-142140500D01*
%TO.C,SW66*%
X341437800Y-62953200D02*
X344837800Y-62953200D01*
X341437800Y-65953200D02*
X341437800Y-62953200D01*
X344837800Y-62953200D02*
X344837800Y-65953200D01*
X344837800Y-65953200D02*
X341437800Y-65953200D01*
%TO.C,SW74*%
X322387800Y-62953200D02*
X325787800Y-62953200D01*
X322387800Y-65953200D02*
X322387800Y-62953200D01*
X325787800Y-62953200D02*
X325787800Y-65953200D01*
X325787800Y-65953200D02*
X322387800Y-65953200D01*
%TO.C,SW58*%
X322387800Y-82003200D02*
X325787800Y-82003200D01*
X322387800Y-85003200D02*
X322387800Y-82003200D01*
X325787800Y-82003200D02*
X325787800Y-85003200D01*
X325787800Y-85003200D02*
X322387800Y-85003200D01*
%TO.C,SW65*%
X379537800Y-62953200D02*
X382937800Y-62953200D01*
X379537800Y-65953200D02*
X379537800Y-62953200D01*
X382937800Y-62953200D02*
X382937800Y-65953200D01*
X382937800Y-65953200D02*
X379537800Y-65953200D01*
%TO.C,SW73*%
X360487800Y-62953200D02*
X363887800Y-62953200D01*
X360487800Y-65953200D02*
X360487800Y-62953200D01*
X363887800Y-62953200D02*
X363887800Y-65953200D01*
X363887800Y-65953200D02*
X360487800Y-65953200D01*
%TO.C,SW50*%
X341437800Y-82003200D02*
X344837800Y-82003200D01*
X341437800Y-85003200D02*
X341437800Y-82003200D01*
X344837800Y-82003200D02*
X344837800Y-85003200D01*
X344837800Y-85003200D02*
X341437800Y-85003200D01*
%TO.C,SW10*%
X322387800Y-139153200D02*
X325787800Y-139153200D01*
X322387800Y-142153200D02*
X322387800Y-139153200D01*
X325787800Y-139153200D02*
X325787800Y-142153200D01*
X325787800Y-142153200D02*
X322387800Y-142153200D01*
%TO.C,SW41*%
X360487800Y-101053200D02*
X363887800Y-101053200D01*
X360487800Y-104053200D02*
X360487800Y-101053200D01*
X363887800Y-101053200D02*
X363887800Y-104053200D01*
X363887800Y-104053200D02*
X360487800Y-104053200D01*
%TO.C,SW33*%
X379537800Y-101053200D02*
X382937800Y-101053200D01*
X379537800Y-104053200D02*
X379537800Y-101053200D01*
X382937800Y-101053200D02*
X382937800Y-104053200D01*
X382937800Y-104053200D02*
X379537800Y-104053200D01*
%TO.C,SW25*%
X360487800Y-120103200D02*
X363887800Y-120103200D01*
X360487800Y-123103200D02*
X360487800Y-120103200D01*
X363887800Y-120103200D02*
X363887800Y-123103200D01*
X363887800Y-123103200D02*
X360487800Y-123103200D01*
%TO.C,SW17*%
X379537800Y-120103200D02*
X382937800Y-120103200D01*
X379537800Y-123103200D02*
X379537800Y-120103200D01*
X382937800Y-120103200D02*
X382937800Y-123103200D01*
X382937800Y-123103200D02*
X379537800Y-123103200D01*
%TO.C,SW26*%
X322387800Y-120103200D02*
X325787800Y-120103200D01*
X322387800Y-123103200D02*
X322387800Y-120103200D01*
X325787800Y-120103200D02*
X325787800Y-123103200D01*
X325787800Y-123103200D02*
X322387800Y-123103200D01*
%TO.C,SW57*%
X360487800Y-82003200D02*
X363887800Y-82003200D01*
X360487800Y-85003200D02*
X360487800Y-82003200D01*
X363887800Y-82003200D02*
X363887800Y-85003200D01*
X363887800Y-85003200D02*
X360487800Y-85003200D01*
%TO.C,SW42*%
X322387800Y-101053200D02*
X325787800Y-101053200D01*
X322387800Y-104053200D02*
X322387800Y-101053200D01*
X325787800Y-101053200D02*
X325787800Y-104053200D01*
X325787800Y-104053200D02*
X322387800Y-104053200D01*
%TO.C,SW34*%
X341437800Y-101053200D02*
X344837800Y-101053200D01*
X341437800Y-104053200D02*
X341437800Y-101053200D01*
X344837800Y-101053200D02*
X344837800Y-104053200D01*
X344837800Y-104053200D02*
X341437800Y-104053200D01*
%TO.C,SW9*%
X360487800Y-139153200D02*
X363887800Y-139153200D01*
X360487800Y-142153200D02*
X360487800Y-139153200D01*
X363887800Y-139153200D02*
X363887800Y-142153200D01*
X363887800Y-142153200D02*
X360487800Y-142153200D01*
%TO.C,SW18*%
X341437800Y-120103200D02*
X344837800Y-120103200D01*
X341437800Y-123103200D02*
X341437800Y-120103200D01*
X344837800Y-120103200D02*
X344837800Y-123103200D01*
X344837800Y-123103200D02*
X341437800Y-123103200D01*
%TO.C,SW49*%
X379537800Y-82003200D02*
X382937800Y-82003200D01*
X379537800Y-85003200D02*
X379537800Y-82003200D01*
X382937800Y-82003200D02*
X382937800Y-85003200D01*
X382937800Y-85003200D02*
X379537800Y-85003200D01*
%TO.C,SW1*%
X379537800Y-139153200D02*
X382937800Y-139153200D01*
X379537800Y-142153200D02*
X379537800Y-139153200D01*
X382937800Y-139153200D02*
X382937800Y-142153200D01*
X382937800Y-142153200D02*
X379537800Y-142153200D01*
%TO.C,SW2*%
X341437800Y-139153200D02*
X344837800Y-139153200D01*
X341437800Y-142153200D02*
X341437800Y-139153200D01*
X344837800Y-139153200D02*
X344837800Y-142153200D01*
X344837800Y-142153200D02*
X341437800Y-142153200D01*
%TD*%
M02*
