%TF.GenerationSoftware,KiCad,Pcbnew,9.0.3*%
%TF.CreationDate,2025-08-12T15:40:08+02:00*%
%TF.ProjectId,petkn,7065746b-6e2e-46b6-9963-61645f706362,rev?*%
%TF.SameCoordinates,Original*%
%TF.FileFunction,Soldermask,Top*%
%TF.FilePolarity,Negative*%
%FSLAX46Y46*%
G04 Gerber Fmt 4.6, Leading zero omitted, Abs format (unit mm)*
G04 Created by KiCad (PCBNEW 9.0.3) date 2025-08-12 15:40:08*
%MOMM*%
%LPD*%
G01*
G04 APERTURE LIST*
G04 Aperture macros list*
%AMRoundRect*
0 Rectangle with rounded corners*
0 $1 Rounding radius*
0 $2 $3 $4 $5 $6 $7 $8 $9 X,Y pos of 4 corners*
0 Add a 4 corners polygon primitive as box body*
4,1,4,$2,$3,$4,$5,$6,$7,$8,$9,$2,$3,0*
0 Add four circle primitives for the rounded corners*
1,1,$1+$1,$2,$3*
1,1,$1+$1,$4,$5*
1,1,$1+$1,$6,$7*
1,1,$1+$1,$8,$9*
0 Add four rect primitives between the rounded corners*
20,1,$1+$1,$2,$3,$4,$5,0*
20,1,$1+$1,$4,$5,$6,$7,0*
20,1,$1+$1,$6,$7,$8,$9,0*
20,1,$1+$1,$8,$9,$2,$3,0*%
G04 Aperture macros list end*
%ADD10C,2.200000*%
%ADD11R,1.700000X1.700000*%
%ADD12C,1.700000*%
%ADD13RoundRect,0.250000X0.262500X0.450000X-0.262500X0.450000X-0.262500X-0.450000X0.262500X-0.450000X0*%
%ADD14RoundRect,0.250000X-0.450000X0.262500X-0.450000X-0.262500X0.450000X-0.262500X0.450000X0.262500X0*%
%ADD15RoundRect,0.237500X-0.300000X-0.237500X0.300000X-0.237500X0.300000X0.237500X-0.300000X0.237500X0*%
%ADD16RoundRect,0.150000X0.587500X0.150000X-0.587500X0.150000X-0.587500X-0.150000X0.587500X-0.150000X0*%
%ADD17RoundRect,0.250000X0.450000X-0.262500X0.450000X0.262500X-0.450000X0.262500X-0.450000X-0.262500X0*%
%ADD18RoundRect,0.250000X-0.650000X0.412500X-0.650000X-0.412500X0.650000X-0.412500X0.650000X0.412500X0*%
%ADD19RoundRect,0.150000X-0.587500X-0.150000X0.587500X-0.150000X0.587500X0.150000X-0.587500X0.150000X0*%
%ADD20RoundRect,0.250000X-0.262500X-0.450000X0.262500X-0.450000X0.262500X0.450000X-0.262500X0.450000X0*%
%ADD21RoundRect,0.100000X-0.637500X-0.100000X0.637500X-0.100000X0.637500X0.100000X-0.637500X0.100000X0*%
%ADD22RoundRect,0.250000X-0.550000X-0.550000X0.550000X-0.550000X0.550000X0.550000X-0.550000X0.550000X0*%
%ADD23C,1.600000*%
%ADD24C,2.540000*%
%ADD25R,2.000000X1.500000*%
%ADD26C,1.800000*%
G04 APERTURE END LIST*
D10*
%TO.C,SW5*%
X273177000Y-73596500D03*
X266827000Y-76136500D03*
X269367000Y-83756500D03*
X271907000Y-83756500D03*
%TD*%
%TO.C,SW11*%
X278041000Y-111711500D03*
X271691000Y-114251500D03*
X274231000Y-121871500D03*
X276771000Y-121871500D03*
%TD*%
%TO.C,SW12*%
X292227000Y-73596500D03*
X285877000Y-76136500D03*
X288417000Y-83756500D03*
X290957000Y-83756500D03*
%TD*%
%TO.C,SW14*%
X282702000Y-54546500D03*
X276352000Y-57086500D03*
X278892000Y-64706500D03*
X281432000Y-64706500D03*
%TD*%
%TO.C,SW15*%
X35052000Y-54546500D03*
X28702000Y-57086500D03*
X31242000Y-64706500D03*
X33782000Y-64706500D03*
%TD*%
%TO.C,SW20*%
X249428000Y-111696500D03*
X243078000Y-114236500D03*
X245618000Y-121856500D03*
X248158000Y-121856500D03*
%TD*%
%TO.C,SW21*%
X211328000Y-111696500D03*
X204978000Y-114236500D03*
X207518000Y-121856500D03*
X210058000Y-121856500D03*
%TD*%
%TO.C,SW22*%
X173228000Y-111696500D03*
X166878000Y-114236500D03*
X169418000Y-121856500D03*
X171958000Y-121856500D03*
%TD*%
%TO.C,SW23*%
X135128000Y-111696500D03*
X128778000Y-114236500D03*
X131318000Y-121856500D03*
X133858000Y-121856500D03*
%TD*%
%TO.C,SW24*%
X97028000Y-111696500D03*
X90678000Y-114236500D03*
X93218000Y-121856500D03*
X95758000Y-121856500D03*
%TD*%
%TO.C,SW27*%
X282956000Y-92646500D03*
X276606000Y-95186500D03*
X279146000Y-102806500D03*
X281686000Y-102806500D03*
%TD*%
%TO.C,SW28*%
X230378000Y-111696500D03*
X224028000Y-114236500D03*
X226568000Y-121856500D03*
X229108000Y-121856500D03*
%TD*%
%TO.C,SW29*%
X192278000Y-111696500D03*
X185928000Y-114236500D03*
X188468000Y-121856500D03*
X191008000Y-121856500D03*
%TD*%
%TO.C,SW30*%
X154178000Y-111696500D03*
X147828000Y-114236500D03*
X150368000Y-121856500D03*
X152908000Y-121856500D03*
%TD*%
%TO.C,SW32*%
X77978000Y-111696500D03*
X71628000Y-114236500D03*
X74168000Y-121856500D03*
X76708000Y-121856500D03*
%TD*%
%TO.C,SW36*%
X240030000Y-92646500D03*
X233680000Y-95186500D03*
X236220000Y-102806500D03*
X238760000Y-102806500D03*
%TD*%
%TO.C,SW40*%
X87630000Y-92646500D03*
X81280000Y-95186500D03*
X83820000Y-102806500D03*
X86360000Y-102806500D03*
%TD*%
%TO.C,SW44*%
X220980000Y-92646500D03*
X214630000Y-95186500D03*
X217170000Y-102806500D03*
X219710000Y-102806500D03*
%TD*%
%TO.C,SW47*%
X106680000Y-92646500D03*
X100330000Y-95186500D03*
X102870000Y-102806500D03*
X105410000Y-102806500D03*
%TD*%
%TO.C,SW52*%
X235077000Y-73596500D03*
X228727000Y-76136500D03*
X231267000Y-83756500D03*
X233807000Y-83756500D03*
%TD*%
%TO.C,SW53*%
X196977000Y-73596500D03*
X190627000Y-76136500D03*
X193167000Y-83756500D03*
X195707000Y-83756500D03*
%TD*%
%TO.C,SW55*%
X120777000Y-73596500D03*
X114427000Y-76136500D03*
X116967000Y-83756500D03*
X119507000Y-83756500D03*
%TD*%
%TO.C,SW56*%
X82677000Y-73596500D03*
X76327000Y-76136500D03*
X78867000Y-83756500D03*
X81407000Y-83756500D03*
%TD*%
%TO.C,SW59*%
X254127000Y-73596500D03*
X247777000Y-76136500D03*
X250317000Y-83756500D03*
X252857000Y-83756500D03*
%TD*%
%TO.C,SW60*%
X216027000Y-73596500D03*
X209677000Y-76136500D03*
X212217000Y-83756500D03*
X214757000Y-83756500D03*
%TD*%
%TO.C,SW61*%
X177927000Y-73596500D03*
X171577000Y-76136500D03*
X174117000Y-83756500D03*
X176657000Y-83756500D03*
%TD*%
%TO.C,SW62*%
X139827000Y-73596500D03*
X133477000Y-76136500D03*
X136017000Y-83756500D03*
X138557000Y-83756500D03*
%TD*%
%TO.C,SW63*%
X101727000Y-73596500D03*
X95377000Y-76136500D03*
X97917000Y-83756500D03*
X100457000Y-83756500D03*
%TD*%
%TO.C,SW70*%
X149352000Y-54546500D03*
X143002000Y-57086500D03*
X145542000Y-64706500D03*
X148082000Y-64706500D03*
%TD*%
%TO.C,SW75*%
X244602000Y-54546500D03*
X238252000Y-57086500D03*
X240792000Y-64706500D03*
X243332000Y-64706500D03*
%TD*%
%TO.C,SW77*%
X168402000Y-54546500D03*
X162052000Y-57086500D03*
X164592000Y-64706500D03*
X167132000Y-64706500D03*
%TD*%
%TO.C,SW78*%
X130302000Y-54546500D03*
X123952000Y-57086500D03*
X126492000Y-64706500D03*
X129032000Y-64706500D03*
%TD*%
%TO.C,SW64*%
X63627000Y-73596500D03*
X57277000Y-76136500D03*
X59817000Y-83756500D03*
X62357000Y-83756500D03*
%TD*%
%TO.C,SW16*%
X49403000Y-111696500D03*
X43053000Y-114236500D03*
X45593000Y-121856500D03*
X48133000Y-121856500D03*
%TD*%
%TO.C,SW68*%
X225552000Y-54546500D03*
X219202000Y-57086500D03*
X221742000Y-64706500D03*
X224282000Y-64706500D03*
%TD*%
%TO.C,SW4*%
X259080000Y-92646500D03*
X252730000Y-95186500D03*
X255270000Y-102806500D03*
X257810000Y-102806500D03*
%TD*%
%TO.C,SW79*%
X92202000Y-54546500D03*
X85852000Y-57086500D03*
X88392000Y-64706500D03*
X90932000Y-64706500D03*
%TD*%
%TO.C,SW71*%
X111252000Y-54546500D03*
X104902000Y-57086500D03*
X107442000Y-64706500D03*
X109982000Y-64706500D03*
%TD*%
%TO.C,SW72*%
X73152000Y-54546500D03*
X66802000Y-57086500D03*
X69342000Y-64706500D03*
X71882000Y-64706500D03*
%TD*%
%TO.C,SW80*%
X54102000Y-54546500D03*
X47752000Y-57086500D03*
X50292000Y-64706500D03*
X52832000Y-64706500D03*
%TD*%
%TO.C,SW8*%
X39814500Y-73596500D03*
X33464500Y-76136500D03*
X36004500Y-83756500D03*
X38544500Y-83756500D03*
%TD*%
%TO.C,SW7*%
X263652000Y-54546500D03*
X257302000Y-57086500D03*
X259842000Y-64706500D03*
X262382000Y-64706500D03*
%TD*%
%TO.C,SW39*%
X125730000Y-92646500D03*
X119380000Y-95186500D03*
X121920000Y-102806500D03*
X124460000Y-102806500D03*
%TD*%
%TO.C,SW37*%
X201930000Y-92646500D03*
X195580000Y-95186500D03*
X198120000Y-102806500D03*
X200660000Y-102806500D03*
%TD*%
%TO.C,SW38*%
X163830000Y-92646500D03*
X157480000Y-95186500D03*
X160020000Y-102806500D03*
X162560000Y-102806500D03*
%TD*%
%TO.C,SW46*%
X144780000Y-92646500D03*
X138430000Y-95186500D03*
X140970000Y-102806500D03*
X143510000Y-102806500D03*
%TD*%
%TO.C,SW45*%
X182880000Y-92646500D03*
X176530000Y-95186500D03*
X179070000Y-102806500D03*
X181610000Y-102806500D03*
%TD*%
%TO.C,SW31*%
X116078000Y-111696500D03*
X109728000Y-114236500D03*
X112268000Y-121856500D03*
X114808000Y-121856500D03*
%TD*%
%TO.C,SW67*%
X92265500Y-130746500D03*
X85915500Y-133286500D03*
X88455500Y-140906500D03*
X90995500Y-140906500D03*
%TD*%
%TO.C,SW48*%
X68580000Y-92646500D03*
X62230000Y-95186500D03*
X64770000Y-102806500D03*
X67310000Y-102806500D03*
%TD*%
%TO.C,SW54*%
X158877000Y-73596500D03*
X152527000Y-76136500D03*
X155067000Y-83756500D03*
X157607000Y-83756500D03*
%TD*%
%TO.C,SW320*%
X44704000Y-92583000D03*
X38354000Y-95123000D03*
X40894000Y-102743000D03*
X43434000Y-102743000D03*
%TD*%
%TO.C,SW76*%
X206502000Y-54546500D03*
X200152000Y-57086500D03*
X202692000Y-64706500D03*
X205232000Y-64706500D03*
%TD*%
%TO.C,SW69*%
X187452000Y-54546500D03*
X181102000Y-57086500D03*
X183642000Y-64706500D03*
X186182000Y-64706500D03*
%TD*%
D11*
%TO.C,J2*%
X41148000Y-132270500D03*
D12*
X43688000Y-132270500D03*
X41148000Y-134810500D03*
X43688000Y-134810500D03*
X41148000Y-137350500D03*
X43688000Y-137350500D03*
%TD*%
D10*
%TO.C,SW3*%
X237490000Y-130746500D03*
X231140000Y-133286500D03*
X233680000Y-140906500D03*
X236220000Y-140906500D03*
%TD*%
D11*
%TO.C,J3*%
X253276100Y-134150100D03*
D12*
X255816100Y-134150100D03*
X253276100Y-136690100D03*
X255816100Y-136690100D03*
%TD*%
D11*
%TO.C,J5*%
X194500500Y-134683500D03*
D12*
X197040500Y-134683500D03*
X194500500Y-137223500D03*
X197040500Y-137223500D03*
%TD*%
D11*
%TO.C,J6*%
X127825500Y-134112000D03*
D12*
X130365500Y-134112000D03*
X127825500Y-136652000D03*
X130365500Y-136652000D03*
%TD*%
D11*
%TO.C,J67*%
X68008500Y-134302500D03*
D12*
X70548500Y-134302500D03*
X68008500Y-136842500D03*
X70548500Y-136842500D03*
%TD*%
D10*
%TO.C,SW6*%
X166078000Y-130746500D03*
X159728000Y-133286500D03*
X162268000Y-140906500D03*
X164808000Y-140906500D03*
%TD*%
%TO.C,SW66*%
X345821000Y-54559200D03*
X339471000Y-57099200D03*
X342011000Y-64719200D03*
X344551000Y-64719200D03*
%TD*%
%TO.C,SW74*%
X326771000Y-54559200D03*
X320421000Y-57099200D03*
X322961000Y-64719200D03*
X325501000Y-64719200D03*
%TD*%
%TO.C,SW58*%
X326771000Y-73609200D03*
X320421000Y-76149200D03*
X322961000Y-83769200D03*
X325501000Y-83769200D03*
%TD*%
%TO.C,SW65*%
X383921000Y-54559200D03*
X377571000Y-57099200D03*
X380111000Y-64719200D03*
X382651000Y-64719200D03*
%TD*%
%TO.C,SW73*%
X364871000Y-54559200D03*
X358521000Y-57099200D03*
X361061000Y-64719200D03*
X363601000Y-64719200D03*
%TD*%
%TO.C,SW50*%
X345821000Y-73609200D03*
X339471000Y-76149200D03*
X342011000Y-83769200D03*
X344551000Y-83769200D03*
%TD*%
%TO.C,SW10*%
X326771000Y-130759200D03*
X320421000Y-133299200D03*
X322961000Y-140919200D03*
X325501000Y-140919200D03*
%TD*%
%TO.C,SW41*%
X364871000Y-92659200D03*
X358521000Y-95199200D03*
X361061000Y-102819200D03*
X363601000Y-102819200D03*
%TD*%
%TO.C,SW33*%
X383921000Y-92659200D03*
X377571000Y-95199200D03*
X380111000Y-102819200D03*
X382651000Y-102819200D03*
%TD*%
%TO.C,SW25*%
X364871000Y-111709200D03*
X358521000Y-114249200D03*
X361061000Y-121869200D03*
X363601000Y-121869200D03*
%TD*%
%TO.C,SW17*%
X383921000Y-111709200D03*
X377571000Y-114249200D03*
X380111000Y-121869200D03*
X382651000Y-121869200D03*
%TD*%
%TO.C,SW26*%
X326771000Y-111709200D03*
X320421000Y-114249200D03*
X322961000Y-121869200D03*
X325501000Y-121869200D03*
%TD*%
%TO.C,SW57*%
X364871000Y-73609200D03*
X358521000Y-76149200D03*
X361061000Y-83769200D03*
X363601000Y-83769200D03*
%TD*%
%TO.C,SW42*%
X326771000Y-92659200D03*
X320421000Y-95199200D03*
X322961000Y-102819200D03*
X325501000Y-102819200D03*
%TD*%
%TO.C,SW34*%
X345821000Y-92659200D03*
X339471000Y-95199200D03*
X342011000Y-102819200D03*
X344551000Y-102819200D03*
%TD*%
%TO.C,SW9*%
X364871000Y-130759200D03*
X358521000Y-133299200D03*
X361061000Y-140919200D03*
X363601000Y-140919200D03*
%TD*%
%TO.C,SW18*%
X345821000Y-111709200D03*
X339471000Y-114249200D03*
X342011000Y-121869200D03*
X344551000Y-121869200D03*
%TD*%
%TO.C,SW49*%
X383921000Y-73609200D03*
X377571000Y-76149200D03*
X380111000Y-83769200D03*
X382651000Y-83769200D03*
%TD*%
%TO.C,SW1*%
X383921000Y-130759200D03*
X377571000Y-133299200D03*
X380111000Y-140919200D03*
X382651000Y-140919200D03*
%TD*%
%TO.C,SW2*%
X345821000Y-130759200D03*
X339471000Y-133299200D03*
X342011000Y-140919200D03*
X344551000Y-140919200D03*
%TD*%
D13*
%TO.C,R30*%
X324508339Y-68085399D03*
X322683339Y-68085399D03*
%TD*%
D14*
%TO.C,R105*%
X66854800Y-120547600D03*
X66854800Y-122372600D03*
%TD*%
%TO.C,R76*%
X186017200Y-82628800D03*
X186017200Y-84453800D03*
%TD*%
D15*
%TO.C,C2*%
X308000100Y-87175400D03*
X309725100Y-87175400D03*
%TD*%
D16*
%TO.C,Q20*%
X262151100Y-132635500D03*
X262151100Y-130735500D03*
X260276100Y-131685500D03*
%TD*%
D14*
%TO.C,R72*%
X109628400Y-82628800D03*
X109628400Y-84453800D03*
%TD*%
%TO.C,R94*%
X191010000Y-101507200D03*
X191010000Y-103332200D03*
%TD*%
D17*
%TO.C,R31*%
X220256400Y-108275000D03*
X220256400Y-106450000D03*
%TD*%
D13*
%TO.C,R130*%
X292770300Y-129810900D03*
X290945300Y-129810900D03*
%TD*%
D18*
%TO.C,C6*%
X312263800Y-52352100D03*
X312263800Y-55477100D03*
%TD*%
D14*
%TO.C,R110*%
X162086800Y-120700000D03*
X162086800Y-122525000D03*
%TD*%
%TO.C,R120*%
X353860400Y-120741200D03*
X353860400Y-122566200D03*
%TD*%
D19*
%TO.C,Q15*%
X291518100Y-68225500D03*
X291518100Y-70125500D03*
X293393100Y-69175500D03*
%TD*%
D14*
%TO.C,R53*%
X81068000Y-63394800D03*
X81068000Y-65219800D03*
%TD*%
D13*
%TO.C,R45*%
X103000000Y-125525200D03*
X101175000Y-125525200D03*
%TD*%
D14*
%TO.C,R92*%
X152623600Y-101567600D03*
X152623600Y-103392600D03*
%TD*%
%TO.C,R68*%
X23903600Y-82689200D03*
X23903600Y-84514200D03*
%TD*%
D15*
%TO.C,C1*%
X302838500Y-60102200D03*
X304563500Y-60102200D03*
%TD*%
D20*
%TO.C,R43*%
X264395200Y-89210000D03*
X266220200Y-89210000D03*
%TD*%
D14*
%TO.C,R116*%
X153926000Y-139842000D03*
X153926000Y-141667000D03*
%TD*%
D20*
%TO.C,R18*%
X269833500Y-142646300D03*
X271658500Y-142646300D03*
%TD*%
%TO.C,R48*%
X264376000Y-87174400D03*
X266201000Y-87174400D03*
%TD*%
D16*
%TO.C,Q32*%
X288973500Y-136193700D03*
X288973500Y-134293700D03*
X287098500Y-135243700D03*
%TD*%
%TO.C,Q8*%
X195572939Y-108140999D03*
X195572939Y-106240999D03*
X193697939Y-107190999D03*
%TD*%
%TO.C,Q30*%
X288754800Y-140735400D03*
X288754800Y-138835400D03*
X286879800Y-139785400D03*
%TD*%
D14*
%TO.C,R90*%
X114530800Y-101516800D03*
X114530800Y-103341800D03*
%TD*%
%TO.C,R51*%
X42975200Y-63598000D03*
X42975200Y-65423000D03*
%TD*%
%TO.C,R78*%
X223856000Y-82679600D03*
X223856000Y-84504600D03*
%TD*%
%TO.C,R17*%
X263906000Y-137259800D03*
X263906000Y-139084800D03*
%TD*%
D13*
%TO.C,R6*%
X184861139Y-70168199D03*
X183036139Y-70168199D03*
%TD*%
D20*
%TO.C,R10*%
X275033100Y-87130600D03*
X276858100Y-87130600D03*
%TD*%
D13*
%TO.C,R47*%
X261087500Y-70104000D03*
X259262500Y-70104000D03*
%TD*%
D16*
%TO.C,Q28*%
X233722239Y-108157299D03*
X233722239Y-106257299D03*
X231847239Y-107207299D03*
%TD*%
D14*
%TO.C,R81*%
X281096800Y-82679600D03*
X281096800Y-84504600D03*
%TD*%
D13*
%TO.C,R16*%
X271892100Y-139220300D03*
X270067100Y-139220300D03*
%TD*%
D20*
%TO.C,R126*%
X290947100Y-145358300D03*
X292772100Y-145358300D03*
%TD*%
D16*
%TO.C,Q3*%
X320441339Y-127246399D03*
X320441339Y-125346399D03*
X318566339Y-126296399D03*
%TD*%
D13*
%TO.C,R33*%
X214056900Y-108328500D03*
X212231900Y-108328500D03*
%TD*%
D14*
%TO.C,R96*%
X228899600Y-101558000D03*
X228899600Y-103383000D03*
%TD*%
%TO.C,R54*%
X100216000Y-63445600D03*
X100216000Y-65270600D03*
%TD*%
D16*
%TO.C,Q23*%
X267942300Y-144612400D03*
X267942300Y-142712400D03*
X266067300Y-143662400D03*
%TD*%
D13*
%TO.C,R21*%
X324510339Y-70168599D03*
X322685339Y-70168599D03*
%TD*%
D14*
%TO.C,R107*%
X105100000Y-120649200D03*
X105100000Y-122474200D03*
%TD*%
D20*
%TO.C,R5*%
X337010300Y-125250300D03*
X338835300Y-125250300D03*
%TD*%
D14*
%TO.C,R62*%
X252576000Y-63436000D03*
X252576000Y-65261000D03*
%TD*%
D19*
%TO.C,Q18*%
X284801900Y-87213000D03*
X284801900Y-89113000D03*
X286676900Y-88163000D03*
%TD*%
D20*
%TO.C,R129*%
X290982400Y-140766800D03*
X292807400Y-140766800D03*
%TD*%
D13*
%TO.C,R8*%
X199319539Y-108165799D03*
X197494539Y-108165799D03*
%TD*%
D14*
%TO.C,R123*%
X334799600Y-139791200D03*
X334799600Y-141616200D03*
%TD*%
D16*
%TO.C,Q7*%
X190645339Y-89143999D03*
X190645339Y-87243999D03*
X188770339Y-88193999D03*
%TD*%
D14*
%TO.C,R59*%
X195498800Y-63394800D03*
X195498800Y-65219800D03*
%TD*%
D19*
%TO.C,Q10*%
X222226900Y-106378500D03*
X222226900Y-108278500D03*
X224101900Y-107328500D03*
%TD*%
D13*
%TO.C,R1*%
X199321539Y-106184999D03*
X197496539Y-106184999D03*
%TD*%
D14*
%TO.C,R109*%
X143142000Y-120649200D03*
X143142000Y-122474200D03*
%TD*%
%TO.C,R58*%
X176452400Y-63394800D03*
X176452400Y-65219800D03*
%TD*%
D20*
%TO.C,R41*%
X287740300Y-68091300D03*
X289565300Y-68091300D03*
%TD*%
%TO.C,R12*%
X269950700Y-130708300D03*
X271775700Y-130708300D03*
%TD*%
D14*
%TO.C,R122*%
X315753200Y-139892800D03*
X315753200Y-141717800D03*
%TD*%
%TO.C,R95*%
X209802400Y-101659600D03*
X209802400Y-103484600D03*
%TD*%
%TO.C,R88*%
X76590400Y-101669200D03*
X76590400Y-103494200D03*
%TD*%
D13*
%TO.C,R7*%
X194442739Y-89357200D03*
X192617739Y-89357200D03*
%TD*%
%TO.C,R49*%
X237902739Y-108203999D03*
X236077739Y-108203999D03*
%TD*%
%TO.C,R46*%
X103000000Y-127553600D03*
X101175000Y-127553600D03*
%TD*%
D20*
%TO.C,R32*%
X212231900Y-106194500D03*
X214056900Y-106194500D03*
%TD*%
D13*
%TO.C,R29*%
X237883539Y-106175599D03*
X236058539Y-106175599D03*
%TD*%
D14*
%TO.C,R108*%
X124095600Y-120700000D03*
X124095600Y-122525000D03*
%TD*%
%TO.C,R60*%
X214443600Y-63445600D03*
X214443600Y-65270600D03*
%TD*%
D16*
%TO.C,Q2*%
X320096100Y-108193400D03*
X320096100Y-106293400D03*
X318221100Y-107243400D03*
%TD*%
D14*
%TO.C,R121*%
X372805200Y-120741200D03*
X372805200Y-122566200D03*
%TD*%
D13*
%TO.C,R28*%
X324356100Y-125222000D03*
X322531100Y-125222000D03*
%TD*%
D16*
%TO.C,Q31*%
X288795700Y-131774100D03*
X288795700Y-129874100D03*
X286920700Y-130824100D03*
%TD*%
D18*
%TO.C,C5*%
X293058600Y-93500100D03*
X293058600Y-96625100D03*
%TD*%
D16*
%TO.C,Q6*%
X181094939Y-70144999D03*
X181094939Y-68244999D03*
X179219939Y-69194999D03*
%TD*%
D13*
%TO.C,R2*%
X194444739Y-87286999D03*
X192619739Y-87286999D03*
%TD*%
D14*
%TO.C,R111*%
X181285600Y-120750800D03*
X181285600Y-122575800D03*
%TD*%
%TO.C,R115*%
X257522000Y-120547600D03*
X257522000Y-122372600D03*
%TD*%
D18*
%TO.C,C7*%
X292659800Y-52269700D03*
X292659800Y-55394700D03*
%TD*%
D20*
%TO.C,R38*%
X273864700Y-68029800D03*
X275689700Y-68029800D03*
%TD*%
D13*
%TO.C,R19*%
X271638100Y-144709900D03*
X269813100Y-144709900D03*
%TD*%
D14*
%TO.C,R67*%
X372801600Y-63385200D03*
X372801600Y-65210200D03*
%TD*%
%TO.C,R73*%
X128776400Y-82628800D03*
X128776400Y-84453800D03*
%TD*%
D21*
%TO.C,U4*%
X304055400Y-98715400D03*
X304055400Y-99365400D03*
X304055400Y-100015400D03*
X304055400Y-100665400D03*
X304055400Y-101315400D03*
X304055400Y-101965400D03*
X304055400Y-102615400D03*
X304055400Y-103265400D03*
X309780400Y-103265400D03*
X309780400Y-102615400D03*
X309780400Y-101965400D03*
X309780400Y-101315400D03*
X309780400Y-100665400D03*
X309780400Y-100015400D03*
X309780400Y-99365400D03*
X309780400Y-98715400D03*
%TD*%
D16*
%TO.C,Q1*%
X320146300Y-89110300D03*
X320146300Y-87210300D03*
X318271300Y-88160300D03*
%TD*%
D14*
%TO.C,R87*%
X57442400Y-101618400D03*
X57442400Y-103443400D03*
%TD*%
D15*
%TO.C,C3*%
X308203300Y-96970200D03*
X309928300Y-96970200D03*
%TD*%
D14*
%TO.C,R55*%
X119211600Y-63496400D03*
X119211600Y-65321400D03*
%TD*%
%TO.C,R89*%
X95586000Y-101618400D03*
X95586000Y-103443400D03*
%TD*%
D20*
%TO.C,R133*%
X290997900Y-136239500D03*
X292822900Y-136239500D03*
%TD*%
D14*
%TO.C,R80*%
X262050400Y-82628800D03*
X262050400Y-84453800D03*
%TD*%
D16*
%TO.C,Q19*%
X268094700Y-132637700D03*
X268094700Y-130737700D03*
X266219700Y-131687700D03*
%TD*%
D14*
%TO.C,R100*%
X315702400Y-101507200D03*
X315702400Y-103332200D03*
%TD*%
D20*
%TO.C,R15*%
X270067100Y-136731500D03*
X271892100Y-136731500D03*
%TD*%
D14*
%TO.C,R50*%
X23979600Y-63496400D03*
X23979600Y-65321400D03*
%TD*%
%TO.C,R86*%
X28998000Y-101516800D03*
X28998000Y-103341800D03*
%TD*%
D13*
%TO.C,R26*%
X324299300Y-87172800D03*
X322474300Y-87172800D03*
%TD*%
D14*
%TO.C,R104*%
X28820400Y-120506400D03*
X28820400Y-122331400D03*
%TD*%
D13*
%TO.C,R27*%
X324045900Y-106287800D03*
X322220900Y-106287800D03*
%TD*%
%TO.C,R24*%
X324375539Y-127267399D03*
X322550539Y-127267399D03*
%TD*%
D14*
%TO.C,R79*%
X243054800Y-82527200D03*
X243054800Y-84352200D03*
%TD*%
%TO.C,R112*%
X200281200Y-120649200D03*
X200281200Y-122474200D03*
%TD*%
D16*
%TO.C,Q29*%
X288770300Y-145439300D03*
X288770300Y-143539300D03*
X286895300Y-144489300D03*
%TD*%
D14*
%TO.C,R65*%
X334759600Y-63436000D03*
X334759600Y-65261000D03*
%TD*%
%TO.C,R117*%
X225347200Y-139689600D03*
X225347200Y-141514600D03*
%TD*%
%TO.C,R91*%
X133628000Y-101567600D03*
X133628000Y-103392600D03*
%TD*%
%TO.C,R74*%
X147772000Y-82730400D03*
X147772000Y-84555400D03*
%TD*%
D13*
%TO.C,R22*%
X324301300Y-89182900D03*
X322476300Y-89182900D03*
%TD*%
D19*
%TO.C,Q12*%
X236373900Y-87319000D03*
X236373900Y-89219000D03*
X238248900Y-88269000D03*
%TD*%
D20*
%TO.C,R35*%
X226378900Y-87081000D03*
X228203900Y-87081000D03*
%TD*%
D14*
%TO.C,R113*%
X219226000Y-120649200D03*
X219226000Y-122474200D03*
%TD*%
%TO.C,R63*%
X271622400Y-63436000D03*
X271622400Y-65261000D03*
%TD*%
%TO.C,R69*%
X52602000Y-82638400D03*
X52602000Y-84463400D03*
%TD*%
%TO.C,R83*%
X334875600Y-82720800D03*
X334875600Y-84545800D03*
%TD*%
D19*
%TO.C,Q16*%
X297512500Y-68176900D03*
X297512500Y-70076900D03*
X299387500Y-69126900D03*
%TD*%
D14*
%TO.C,R20*%
X264007600Y-142750600D03*
X264007600Y-144575600D03*
%TD*%
D19*
%TO.C,Q14*%
X283447900Y-68112200D03*
X283447900Y-70012200D03*
X285322900Y-69062200D03*
%TD*%
D20*
%TO.C,R132*%
X290921700Y-131765500D03*
X292746700Y-131765500D03*
%TD*%
D14*
%TO.C,R75*%
X166818400Y-82628800D03*
X166818400Y-84453800D03*
%TD*%
%TO.C,R85*%
X372816000Y-82619200D03*
X372816000Y-84444200D03*
%TD*%
%TO.C,R97*%
X247895200Y-101507200D03*
X247895200Y-103332200D03*
%TD*%
%TO.C,R57*%
X157355200Y-63394800D03*
X157355200Y-65219800D03*
%TD*%
%TO.C,R99*%
X80603600Y-139658000D03*
X80603600Y-141483000D03*
%TD*%
D13*
%TO.C,R44*%
X261077900Y-68072000D03*
X259252900Y-68072000D03*
%TD*%
D14*
%TO.C,R101*%
X334850400Y-101710400D03*
X334850400Y-103535400D03*
%TD*%
D13*
%TO.C,R127*%
X292795700Y-143385300D03*
X290970700Y-143385300D03*
%TD*%
D14*
%TO.C,R56*%
X138308800Y-63394800D03*
X138308800Y-65219800D03*
%TD*%
%TO.C,R64*%
X315713200Y-63486800D03*
X315713200Y-65311800D03*
%TD*%
D22*
%TO.C,U1*%
X302532200Y-64333800D03*
D23*
X302532200Y-66873800D03*
X302532200Y-69413800D03*
X302532200Y-71953800D03*
X302532200Y-74493800D03*
X302532200Y-77033800D03*
X302532200Y-79573800D03*
X302532200Y-82113800D03*
X310152200Y-82113800D03*
X310152200Y-79573800D03*
X310152200Y-77033800D03*
X310152200Y-74493800D03*
X310152200Y-71953800D03*
X310152200Y-69413800D03*
X310152200Y-66873800D03*
X310152200Y-64333800D03*
%TD*%
D13*
%TO.C,R3*%
X184861139Y-68188199D03*
X183036139Y-68188199D03*
%TD*%
D14*
%TO.C,R61*%
X233478800Y-63436000D03*
X233478800Y-65261000D03*
%TD*%
%TO.C,R103*%
X372740000Y-101710400D03*
X372740000Y-103535400D03*
%TD*%
%TO.C,R93*%
X171873200Y-101466000D03*
X171873200Y-103291000D03*
%TD*%
D16*
%TO.C,Q5*%
X320441339Y-70044799D03*
X320441339Y-68144799D03*
X318566339Y-69094799D03*
%TD*%
D17*
%TO.C,R39*%
X281432000Y-70037100D03*
X281432000Y-68212100D03*
%TD*%
D16*
%TO.C,Q24*%
X261846300Y-144624300D03*
X261846300Y-142724300D03*
X259971300Y-143674300D03*
%TD*%
D14*
%TO.C,R118*%
X315869200Y-120538000D03*
X315869200Y-122363000D03*
%TD*%
%TO.C,R77*%
X204962000Y-82628800D03*
X204962000Y-84453800D03*
%TD*%
D16*
%TO.C,Q26*%
X256907000Y-70050100D03*
X256907000Y-68150100D03*
X255032000Y-69100100D03*
%TD*%
D14*
%TO.C,R84*%
X353718800Y-82517600D03*
X353718800Y-84342600D03*
%TD*%
D17*
%TO.C,R11*%
X282711000Y-89042300D03*
X282711000Y-87217300D03*
%TD*%
D14*
%TO.C,R106*%
X86002800Y-120649200D03*
X86002800Y-122474200D03*
%TD*%
D13*
%TO.C,R131*%
X292795700Y-134226900D03*
X290970700Y-134226900D03*
%TD*%
D14*
%TO.C,R114*%
X238272400Y-120547600D03*
X238272400Y-122372600D03*
%TD*%
D17*
%TO.C,R36*%
X234401400Y-89241500D03*
X234401400Y-87416500D03*
%TD*%
D16*
%TO.C,Q21*%
X267789900Y-139038500D03*
X267789900Y-137138500D03*
X265914900Y-138088500D03*
%TD*%
D14*
%TO.C,R71*%
X90644000Y-82587600D03*
X90644000Y-84412600D03*
%TD*%
D21*
%TO.C,U2*%
X304106200Y-88911000D03*
X304106200Y-89561000D03*
X304106200Y-90211000D03*
X304106200Y-90861000D03*
X304106200Y-91511000D03*
X304106200Y-92161000D03*
X304106200Y-92811000D03*
X304106200Y-93461000D03*
X309831200Y-93461000D03*
X309831200Y-92811000D03*
X309831200Y-92161000D03*
X309831200Y-91511000D03*
X309831200Y-90861000D03*
X309831200Y-90211000D03*
X309831200Y-89561000D03*
X309831200Y-88911000D03*
%TD*%
D14*
%TO.C,R124*%
X353846000Y-139588000D03*
X353846000Y-141413000D03*
%TD*%
D13*
%TO.C,R128*%
X292831000Y-138779400D03*
X291006000Y-138779400D03*
%TD*%
D14*
%TO.C,R66*%
X353704400Y-63436000D03*
X353704400Y-65261000D03*
%TD*%
D13*
%TO.C,R13*%
X271810100Y-132822700D03*
X269985100Y-132822700D03*
%TD*%
D20*
%TO.C,R4*%
X337010300Y-127180300D03*
X338835300Y-127180300D03*
%TD*%
D15*
%TO.C,C4*%
X308304900Y-106744600D03*
X310029900Y-106744600D03*
%TD*%
D11*
%TO.C,J4*%
X293060200Y-59481800D03*
D12*
X295600200Y-59481800D03*
X293060200Y-62021800D03*
X295600200Y-62021800D03*
%TD*%
D13*
%TO.C,R23*%
X324047900Y-108217000D03*
X322222900Y-108217000D03*
%TD*%
%TO.C,R34*%
X228331900Y-89297000D03*
X226506900Y-89297000D03*
%TD*%
D19*
%TO.C,Q4*%
X340895700Y-125223100D03*
X340895700Y-127123100D03*
X342770700Y-126173100D03*
%TD*%
D13*
%TO.C,R37*%
X275689700Y-70154800D03*
X273864700Y-70154800D03*
%TD*%
D14*
%TO.C,R98*%
X267297200Y-101659600D03*
X267297200Y-103484600D03*
%TD*%
%TO.C,R14*%
X264160000Y-130759800D03*
X264160000Y-132584800D03*
%TD*%
D17*
%TO.C,R42*%
X295452800Y-70046600D03*
X295452800Y-68221600D03*
%TD*%
D13*
%TO.C,R9*%
X276858100Y-89255600D03*
X275033100Y-89255600D03*
%TD*%
D17*
%TO.C,R25*%
X313078400Y-108883200D03*
X313078400Y-107058200D03*
%TD*%
D19*
%TO.C,Q9*%
X216384900Y-106325500D03*
X216384900Y-108225500D03*
X218259900Y-107275500D03*
%TD*%
%TO.C,Q13*%
X277548100Y-68188800D03*
X277548100Y-70088800D03*
X279423100Y-69138800D03*
%TD*%
D14*
%TO.C,R52*%
X62174000Y-63445600D03*
X62174000Y-65270600D03*
%TD*%
D16*
%TO.C,Q25*%
X98727500Y-127506900D03*
X98727500Y-125606900D03*
X96852500Y-126556900D03*
%TD*%
D19*
%TO.C,Q27*%
X268607300Y-87123100D03*
X268607300Y-89023100D03*
X270482300Y-88073100D03*
%TD*%
D16*
%TO.C,Q22*%
X261897100Y-139075200D03*
X261897100Y-137175200D03*
X260022100Y-138125200D03*
%TD*%
D14*
%TO.C,R119*%
X334814000Y-120741200D03*
X334814000Y-122566200D03*
%TD*%
D19*
%TO.C,Q11*%
X230531900Y-87266000D03*
X230531900Y-89166000D03*
X232406900Y-88216000D03*
%TD*%
D14*
%TO.C,R82*%
X315586400Y-82578000D03*
X315586400Y-84403000D03*
%TD*%
D24*
%TO.C,U5*%
X310963000Y-125224000D03*
X310963000Y-135224000D03*
X298313000Y-135224000D03*
X298313000Y-125224000D03*
D25*
X301138000Y-124474000D03*
X308138000Y-124474000D03*
X308138000Y-119974000D03*
X301138000Y-119974000D03*
D26*
X307138000Y-138954000D03*
X304638000Y-138954000D03*
X302138000Y-138954000D03*
X295908000Y-132724000D03*
X295908000Y-130224000D03*
X295908000Y-127724000D03*
%TD*%
D21*
%TO.C,U3*%
X304106200Y-108367400D03*
X304106200Y-109017400D03*
X304106200Y-109667400D03*
X304106200Y-110317400D03*
X304106200Y-110967400D03*
X304106200Y-111617400D03*
X304106200Y-112267400D03*
X304106200Y-112917400D03*
X309831200Y-112917400D03*
X309831200Y-112267400D03*
X309831200Y-111617400D03*
X309831200Y-110967400D03*
X309831200Y-110317400D03*
X309831200Y-109667400D03*
X309831200Y-109017400D03*
X309831200Y-108367400D03*
%TD*%
D14*
%TO.C,R102*%
X353846000Y-101812000D03*
X353846000Y-103637000D03*
%TD*%
%TO.C,R70*%
X71496000Y-82638400D03*
X71496000Y-84463400D03*
%TD*%
D13*
%TO.C,R40*%
X289616100Y-70224500D03*
X287791100Y-70224500D03*
%TD*%
D19*
%TO.C,Q17*%
X278716500Y-87188000D03*
X278716500Y-89088000D03*
X280591500Y-88138000D03*
%TD*%
D14*
%TO.C,R125*%
X372841600Y-139791200D03*
X372841600Y-141616200D03*
%TD*%
D11*
%TO.C,J1*%
X234099100Y-48615600D03*
D12*
X231559100Y-48615600D03*
X229019100Y-48615600D03*
X226479100Y-48615600D03*
X223939100Y-48615600D03*
X221399100Y-48615600D03*
X218859100Y-48615600D03*
X216319100Y-48615600D03*
X213779100Y-48615600D03*
X211239100Y-48615600D03*
X208699100Y-48615600D03*
X206159100Y-48615600D03*
X203619100Y-48615600D03*
X201079100Y-48615600D03*
X198539100Y-48615600D03*
X195999100Y-48615600D03*
X193459100Y-48615600D03*
X190919100Y-48615600D03*
X188379100Y-48615600D03*
X185839100Y-48615600D03*
X185839100Y-51155600D03*
X188379100Y-51155600D03*
X190919100Y-51155600D03*
X193459100Y-51155600D03*
X195999100Y-51155600D03*
X198539100Y-51155600D03*
X201079100Y-51155600D03*
X203619100Y-51155600D03*
X206159100Y-51155600D03*
X208699100Y-51155600D03*
%TD*%
M02*
