%TF.GenerationSoftware,KiCad,Pcbnew,9.0.3+dfsg-1*%
%TF.CreationDate,2026-03-08T21:26:10+01:00*%
%TF.ProjectId,petkn,7065746b-6e2e-46b6-9963-61645f706362,rev?*%
%TF.SameCoordinates,Original*%
%TF.FileFunction,Soldermask,Bot*%
%TF.FilePolarity,Negative*%
%FSLAX46Y46*%
G04 Gerber Fmt 4.6, Leading zero omitted, Abs format (unit mm)*
G04 Created by KiCad (PCBNEW 9.0.3+dfsg-1) date 2026-03-08 21:26:10*
%MOMM*%
%LPD*%
G01*
G04 APERTURE LIST*
G04 Aperture macros list*
%AMRoundRect*
0 Rectangle with rounded corners*
0 $1 Rounding radius*
0 $2 $3 $4 $5 $6 $7 $8 $9 X,Y pos of 4 corners*
0 Add a 4 corners polygon primitive as box body*
4,1,4,$2,$3,$4,$5,$6,$7,$8,$9,$2,$3,0*
0 Add four circle primitives for the rounded corners*
1,1,$1+$1,$2,$3*
1,1,$1+$1,$4,$5*
1,1,$1+$1,$6,$7*
1,1,$1+$1,$8,$9*
0 Add four rect primitives between the rounded corners*
20,1,$1+$1,$2,$3,$4,$5,0*
20,1,$1+$1,$4,$5,$6,$7,0*
20,1,$1+$1,$6,$7,$8,$9,0*
20,1,$1+$1,$8,$9,$2,$3,0*%
%AMFreePoly0*
4,1,23,0.500000,-0.750000,0.000000,-0.750000,0.000000,-0.745722,-0.065263,-0.745722,-0.191342,-0.711940,-0.304381,-0.646677,-0.396677,-0.554381,-0.461940,-0.441342,-0.495722,-0.315263,-0.495722,-0.250000,-0.500000,-0.250000,-0.500000,0.250000,-0.495722,0.250000,-0.495722,0.315263,-0.461940,0.441342,-0.396677,0.554381,-0.304381,0.646677,-0.191342,0.711940,-0.065263,0.745722,0.000000,0.745722,
0.000000,0.750000,0.500000,0.750000,0.500000,-0.750000,0.500000,-0.750000,$1*%
%AMFreePoly1*
4,1,23,0.000000,0.745722,0.065263,0.745722,0.191342,0.711940,0.304381,0.646677,0.396677,0.554381,0.461940,0.441342,0.495722,0.315263,0.495722,0.250000,0.500000,0.250000,0.500000,-0.250000,0.495722,-0.250000,0.495722,-0.315263,0.461940,-0.441342,0.396677,-0.554381,0.304381,-0.646677,0.191342,-0.711940,0.065263,-0.745722,0.000000,-0.745722,0.000000,-0.750000,-0.500000,-0.750000,
-0.500000,0.750000,0.000000,0.750000,0.000000,0.745722,0.000000,0.745722,$1*%
G04 Aperture macros list end*
%ADD10C,1.700000*%
%ADD11C,4.000000*%
%ADD12C,2.200000*%
%ADD13R,1.800000X0.900000*%
%ADD14C,3.050000*%
%ADD15C,2.540000*%
%ADD16R,2.000000X1.500000*%
%ADD17C,1.800000*%
%ADD18RoundRect,0.250000X-0.600000X-0.600000X0.600000X-0.600000X0.600000X0.600000X-0.600000X0.600000X0*%
%ADD19RoundRect,0.250000X0.600000X-0.600000X0.600000X0.600000X-0.600000X0.600000X-0.600000X-0.600000X0*%
%ADD20R,1.700000X1.700000*%
%ADD21RoundRect,0.200000X0.275000X-0.200000X0.275000X0.200000X-0.275000X0.200000X-0.275000X-0.200000X0*%
%ADD22RoundRect,0.250000X-0.475000X0.337500X-0.475000X-0.337500X0.475000X-0.337500X0.475000X0.337500X0*%
%ADD23RoundRect,0.250000X0.250000X0.250000X-0.250000X0.250000X-0.250000X-0.250000X0.250000X-0.250000X0*%
%ADD24RoundRect,0.250000X0.412500X0.650000X-0.412500X0.650000X-0.412500X-0.650000X0.412500X-0.650000X0*%
%ADD25RoundRect,0.250000X-0.337500X-0.475000X0.337500X-0.475000X0.337500X0.475000X-0.337500X0.475000X0*%
%ADD26RoundRect,0.250000X0.250000X-0.250000X0.250000X0.250000X-0.250000X0.250000X-0.250000X-0.250000X0*%
%ADD27RoundRect,0.250000X0.475000X-0.337500X0.475000X0.337500X-0.475000X0.337500X-0.475000X-0.337500X0*%
%ADD28FreePoly0,90.000000*%
%ADD29FreePoly1,90.000000*%
%ADD30RoundRect,0.100000X-0.637500X-0.100000X0.637500X-0.100000X0.637500X0.100000X-0.637500X0.100000X0*%
%ADD31RoundRect,0.250000X-0.250000X0.250000X-0.250000X-0.250000X0.250000X-0.250000X0.250000X0.250000X0*%
%ADD32FreePoly0,270.000000*%
%ADD33FreePoly1,270.000000*%
%ADD34RoundRect,0.150000X-0.725000X-0.150000X0.725000X-0.150000X0.725000X0.150000X-0.725000X0.150000X0*%
%ADD35RoundRect,0.200000X-0.275000X0.200000X-0.275000X-0.200000X0.275000X-0.200000X0.275000X0.200000X0*%
%ADD36RoundRect,0.250000X0.400000X0.300000X-0.400000X0.300000X-0.400000X-0.300000X0.400000X-0.300000X0*%
%ADD37RoundRect,0.250000X0.337500X0.475000X-0.337500X0.475000X-0.337500X-0.475000X0.337500X-0.475000X0*%
%ADD38RoundRect,0.150000X-0.150000X0.825000X-0.150000X-0.825000X0.150000X-0.825000X0.150000X0.825000X0*%
%ADD39RoundRect,0.250000X0.650000X-0.412500X0.650000X0.412500X-0.650000X0.412500X-0.650000X-0.412500X0*%
%ADD40FreePoly0,0.000000*%
%ADD41FreePoly1,0.000000*%
%ADD42RoundRect,0.250000X-0.650000X0.412500X-0.650000X-0.412500X0.650000X-0.412500X0.650000X0.412500X0*%
%ADD43RoundRect,0.200000X-0.200000X-0.275000X0.200000X-0.275000X0.200000X0.275000X-0.200000X0.275000X0*%
%ADD44RoundRect,0.250000X-0.412500X-0.650000X0.412500X-0.650000X0.412500X0.650000X-0.412500X0.650000X0*%
%ADD45RoundRect,0.137500X-0.137500X0.600000X-0.137500X-0.600000X0.137500X-0.600000X0.137500X0.600000X0*%
%ADD46RoundRect,0.137500X-0.600000X0.137500X-0.600000X-0.137500X0.600000X-0.137500X0.600000X0.137500X0*%
%ADD47FreePoly0,180.000000*%
%ADD48FreePoly1,180.000000*%
G04 APERTURE END LIST*
%TO.C,JC7*%
G36*
X222839282Y-69074681D02*
G01*
X221339282Y-69074681D01*
X221339282Y-68774681D01*
X222839282Y-68774681D01*
X222839282Y-69074681D01*
G37*
%TO.C,JC4*%
G36*
X198750000Y-69700000D02*
G01*
X200250000Y-69700000D01*
X200250000Y-70000000D01*
X198750000Y-70000000D01*
X198750000Y-69700000D01*
G37*
%TO.C,JP1*%
G36*
X79888307Y-61960188D02*
G01*
X80188307Y-61960188D01*
X80188307Y-60460188D01*
X79888307Y-60460188D01*
X79888307Y-61960188D01*
G37*
%TO.C,JC6*%
G36*
X203071896Y-73650159D02*
G01*
X201571896Y-73650159D01*
X201571896Y-73350159D01*
X203071896Y-73350159D01*
X203071896Y-73650159D01*
G37*
%TO.C,JC2*%
G36*
X194708735Y-70181992D02*
G01*
X193208735Y-70181992D01*
X193208735Y-69881992D01*
X194708735Y-69881992D01*
X194708735Y-70181992D01*
G37*
%TO.C,JC1*%
G36*
X191902337Y-70092890D02*
G01*
X190402337Y-70092890D01*
X190402337Y-69792890D01*
X191902337Y-69792890D01*
X191902337Y-70092890D01*
G37*
%TO.C,JC5*%
G36*
X255583686Y-122259784D02*
G01*
X254083686Y-122259784D01*
X254083686Y-121959784D01*
X255583686Y-121959784D01*
X255583686Y-122259784D01*
G37*
%TO.C,JC3*%
G36*
X197578864Y-70071126D02*
G01*
X196078864Y-70071126D01*
X196078864Y-69771126D01*
X197578864Y-69771126D01*
X197578864Y-70071126D01*
G37*
%TO.C,JP2*%
G36*
X79888307Y-58410188D02*
G01*
X80188307Y-58410188D01*
X80188307Y-56910188D01*
X79888307Y-56910188D01*
X79888307Y-58410188D01*
G37*
%TO.C,JP5*%
G36*
X290325000Y-113775000D02*
G01*
X290025000Y-113775000D01*
X290025000Y-115275000D01*
X290325000Y-115275000D01*
X290325000Y-113775000D01*
G37*
%TO.C,JC8*%
G36*
X226649289Y-69066651D02*
G01*
X225149289Y-69066651D01*
X225149289Y-68766651D01*
X226649289Y-68766651D01*
X226649289Y-69066651D01*
G37*
%TD*%
D10*
%TO.C,SW5*%
X265557000Y-78676500D03*
D11*
X270637000Y-78676500D03*
D10*
X275717000Y-78676500D03*
D12*
X273177000Y-73596500D03*
X266827000Y-76136500D03*
D13*
X273093800Y-84240500D03*
X273093800Y-82740500D03*
X267893800Y-84240500D03*
X267893800Y-82740500D03*
%TD*%
D14*
%TO.C,SW11*%
X263601000Y-109791500D03*
D11*
X263601000Y-125031500D03*
D10*
X270421000Y-116791500D03*
D11*
X275501000Y-116791500D03*
D10*
X280581000Y-116791500D03*
D14*
X287401000Y-109791500D03*
D11*
X287401000Y-125031500D03*
D12*
X278041000Y-111711500D03*
X271691000Y-114251500D03*
D13*
X277957800Y-122355500D03*
X277957800Y-120855500D03*
X272757800Y-122355500D03*
X272757800Y-120855500D03*
%TD*%
D10*
%TO.C,SW12*%
X284607000Y-78676500D03*
D11*
X289687000Y-78676500D03*
D10*
X294767000Y-78676500D03*
D12*
X292227000Y-73596500D03*
X285877000Y-76136500D03*
D13*
X292143800Y-84240500D03*
X292143800Y-82740500D03*
X286943800Y-84240500D03*
X286943800Y-82740500D03*
%TD*%
D10*
%TO.C,SW14*%
X275082000Y-59626500D03*
D11*
X280162000Y-59626500D03*
D10*
X285242000Y-59626500D03*
D12*
X282702000Y-54546500D03*
X276352000Y-57086500D03*
D13*
X282618800Y-65190500D03*
X282618800Y-63690500D03*
X277418800Y-65190500D03*
X277418800Y-63690500D03*
%TD*%
D10*
%TO.C,SW15*%
X27432000Y-59626500D03*
D11*
X32512000Y-59626500D03*
D10*
X37592000Y-59626500D03*
D12*
X35052000Y-54546500D03*
X28702000Y-57086500D03*
D13*
X34968800Y-65190500D03*
X34968800Y-63690500D03*
X29768800Y-65190500D03*
X29768800Y-63690500D03*
%TD*%
D10*
%TO.C,SW20*%
X241808000Y-116776500D03*
D11*
X246888000Y-116776500D03*
D10*
X251968000Y-116776500D03*
D12*
X249428000Y-111696500D03*
X243078000Y-114236500D03*
D13*
X249344800Y-122340500D03*
X249344800Y-120840500D03*
X244144800Y-122340500D03*
X244144800Y-120840500D03*
%TD*%
D10*
%TO.C,SW21*%
X203708000Y-116776500D03*
D11*
X208788000Y-116776500D03*
D10*
X213868000Y-116776500D03*
D12*
X211328000Y-111696500D03*
X204978000Y-114236500D03*
D13*
X211244800Y-122340500D03*
X211244800Y-120840500D03*
X206044800Y-122340500D03*
X206044800Y-120840500D03*
%TD*%
D10*
%TO.C,SW22*%
X165608000Y-116776500D03*
D11*
X170688000Y-116776500D03*
D10*
X175768000Y-116776500D03*
D12*
X173228000Y-111696500D03*
X166878000Y-114236500D03*
D13*
X173144800Y-122340500D03*
X173144800Y-120840500D03*
X167944800Y-122340500D03*
X167944800Y-120840500D03*
%TD*%
D10*
%TO.C,SW23*%
X127508000Y-116776500D03*
D11*
X132588000Y-116776500D03*
D10*
X137668000Y-116776500D03*
D12*
X135128000Y-111696500D03*
X128778000Y-114236500D03*
D13*
X135044800Y-122340500D03*
X135044800Y-120840500D03*
X129844800Y-122340500D03*
X129844800Y-120840500D03*
%TD*%
D10*
%TO.C,SW24*%
X89408000Y-116776500D03*
D11*
X94488000Y-116776500D03*
D10*
X99568000Y-116776500D03*
D12*
X97028000Y-111696500D03*
X90678000Y-114236500D03*
D13*
X96944800Y-122340500D03*
X96944800Y-120840500D03*
X91744800Y-122340500D03*
X91744800Y-120840500D03*
%TD*%
D10*
%TO.C,SW27*%
X275336000Y-97726500D03*
D11*
X280416000Y-97726500D03*
D10*
X285496000Y-97726500D03*
D12*
X282956000Y-92646500D03*
X276606000Y-95186500D03*
D13*
X282872800Y-103290500D03*
X282872800Y-101790500D03*
X277672800Y-103290500D03*
X277672800Y-101790500D03*
%TD*%
D10*
%TO.C,SW28*%
X222758000Y-116776500D03*
D11*
X227838000Y-116776500D03*
D10*
X232918000Y-116776500D03*
D12*
X230378000Y-111696500D03*
X224028000Y-114236500D03*
D13*
X230294800Y-122340500D03*
X230294800Y-120840500D03*
X225094800Y-122340500D03*
X225094800Y-120840500D03*
%TD*%
D10*
%TO.C,SW29*%
X184658000Y-116776500D03*
D11*
X189738000Y-116776500D03*
D10*
X194818000Y-116776500D03*
D12*
X192278000Y-111696500D03*
X185928000Y-114236500D03*
D13*
X192194800Y-122340500D03*
X192194800Y-120840500D03*
X186994800Y-122340500D03*
X186994800Y-120840500D03*
%TD*%
D10*
%TO.C,SW30*%
X146558000Y-116776500D03*
D11*
X151638000Y-116776500D03*
D10*
X156718000Y-116776500D03*
D12*
X154178000Y-111696500D03*
X147828000Y-114236500D03*
D13*
X154094800Y-122340500D03*
X154094800Y-120840500D03*
X148894800Y-122340500D03*
X148894800Y-120840500D03*
%TD*%
D10*
%TO.C,SW32*%
X70358000Y-116776500D03*
D11*
X75438000Y-116776500D03*
D10*
X80518000Y-116776500D03*
D12*
X77978000Y-111696500D03*
X71628000Y-114236500D03*
D13*
X77894800Y-122340500D03*
X77894800Y-120840500D03*
X72694800Y-122340500D03*
X72694800Y-120840500D03*
%TD*%
D10*
%TO.C,SW36*%
X232410000Y-97726500D03*
D11*
X237490000Y-97726500D03*
D10*
X242570000Y-97726500D03*
D12*
X240030000Y-92646500D03*
X233680000Y-95186500D03*
D13*
X239946800Y-103290500D03*
X239946800Y-101790500D03*
X234746800Y-103290500D03*
X234746800Y-101790500D03*
%TD*%
D10*
%TO.C,SW40*%
X80010000Y-97726500D03*
D11*
X85090000Y-97726500D03*
D10*
X90170000Y-97726500D03*
D12*
X87630000Y-92646500D03*
X81280000Y-95186500D03*
D13*
X87546800Y-103290500D03*
X87546800Y-101790500D03*
X82346800Y-103290500D03*
X82346800Y-101790500D03*
%TD*%
D10*
%TO.C,SW44*%
X213360000Y-97726500D03*
D11*
X218440000Y-97726500D03*
D10*
X223520000Y-97726500D03*
D12*
X220980000Y-92646500D03*
X214630000Y-95186500D03*
D13*
X220896800Y-103290500D03*
X220896800Y-101790500D03*
X215696800Y-103290500D03*
X215696800Y-101790500D03*
%TD*%
D10*
%TO.C,SW47*%
X99060000Y-97726500D03*
D11*
X104140000Y-97726500D03*
D10*
X109220000Y-97726500D03*
D12*
X106680000Y-92646500D03*
X100330000Y-95186500D03*
D13*
X106596800Y-103290500D03*
X106596800Y-101790500D03*
X101396800Y-103290500D03*
X101396800Y-101790500D03*
%TD*%
D10*
%TO.C,SW52*%
X227457000Y-78676500D03*
D11*
X232537000Y-78676500D03*
D10*
X237617000Y-78676500D03*
D12*
X235077000Y-73596500D03*
X228727000Y-76136500D03*
D13*
X234993800Y-84240500D03*
X234993800Y-82740500D03*
X229793800Y-84240500D03*
X229793800Y-82740500D03*
%TD*%
D10*
%TO.C,SW53*%
X189357000Y-78676500D03*
D11*
X194437000Y-78676500D03*
D10*
X199517000Y-78676500D03*
D12*
X196977000Y-73596500D03*
X190627000Y-76136500D03*
D13*
X196893800Y-84240500D03*
X196893800Y-82740500D03*
X191693800Y-84240500D03*
X191693800Y-82740500D03*
%TD*%
D10*
%TO.C,SW55*%
X113157000Y-78676500D03*
D11*
X118237000Y-78676500D03*
D10*
X123317000Y-78676500D03*
D12*
X120777000Y-73596500D03*
X114427000Y-76136500D03*
D13*
X120693800Y-84240500D03*
X120693800Y-82740500D03*
X115493800Y-84240500D03*
X115493800Y-82740500D03*
%TD*%
D10*
%TO.C,SW56*%
X75057000Y-78676500D03*
D11*
X80137000Y-78676500D03*
D10*
X85217000Y-78676500D03*
D12*
X82677000Y-73596500D03*
X76327000Y-76136500D03*
D13*
X82593800Y-84240500D03*
X82593800Y-82740500D03*
X77393800Y-84240500D03*
X77393800Y-82740500D03*
%TD*%
D10*
%TO.C,SW59*%
X246507000Y-78676500D03*
D11*
X251587000Y-78676500D03*
D10*
X256667000Y-78676500D03*
D12*
X254127000Y-73596500D03*
X247777000Y-76136500D03*
D13*
X254043800Y-84240500D03*
X254043800Y-82740500D03*
X248843800Y-84240500D03*
X248843800Y-82740500D03*
%TD*%
D10*
%TO.C,SW60*%
X208407000Y-78676500D03*
D11*
X213487000Y-78676500D03*
D10*
X218567000Y-78676500D03*
D12*
X216027000Y-73596500D03*
X209677000Y-76136500D03*
D13*
X215943800Y-84240500D03*
X215943800Y-82740500D03*
X210743800Y-84240500D03*
X210743800Y-82740500D03*
%TD*%
D10*
%TO.C,SW61*%
X170307000Y-78676500D03*
D11*
X175387000Y-78676500D03*
D10*
X180467000Y-78676500D03*
D12*
X177927000Y-73596500D03*
X171577000Y-76136500D03*
D13*
X177843800Y-84240500D03*
X177843800Y-82740500D03*
X172643800Y-84240500D03*
X172643800Y-82740500D03*
%TD*%
D10*
%TO.C,SW62*%
X132207000Y-78676500D03*
D11*
X137287000Y-78676500D03*
D10*
X142367000Y-78676500D03*
D12*
X139827000Y-73596500D03*
X133477000Y-76136500D03*
D13*
X139743800Y-84240500D03*
X139743800Y-82740500D03*
X134543800Y-84240500D03*
X134543800Y-82740500D03*
%TD*%
D10*
%TO.C,SW63*%
X94107000Y-78676500D03*
D11*
X99187000Y-78676500D03*
D10*
X104267000Y-78676500D03*
D12*
X101727000Y-73596500D03*
X95377000Y-76136500D03*
D13*
X101643800Y-84240500D03*
X101643800Y-82740500D03*
X96443800Y-84240500D03*
X96443800Y-82740500D03*
%TD*%
D10*
%TO.C,SW70*%
X141732000Y-59626500D03*
D11*
X146812000Y-59626500D03*
D10*
X151892000Y-59626500D03*
D12*
X149352000Y-54546500D03*
X143002000Y-57086500D03*
D13*
X149268800Y-65190500D03*
X149268800Y-63690500D03*
X144068800Y-65190500D03*
X144068800Y-63690500D03*
%TD*%
D10*
%TO.C,SW75*%
X236982000Y-59626500D03*
D11*
X242062000Y-59626500D03*
D10*
X247142000Y-59626500D03*
D12*
X244602000Y-54546500D03*
X238252000Y-57086500D03*
D13*
X244518800Y-65190500D03*
X244518800Y-63690500D03*
X239318800Y-65190500D03*
X239318800Y-63690500D03*
%TD*%
D10*
%TO.C,SW77*%
X160782000Y-59626500D03*
D11*
X165862000Y-59626500D03*
D10*
X170942000Y-59626500D03*
D12*
X168402000Y-54546500D03*
X162052000Y-57086500D03*
D13*
X168318800Y-65190500D03*
X168318800Y-63690500D03*
X163118800Y-65190500D03*
X163118800Y-63690500D03*
%TD*%
D10*
%TO.C,SW78*%
X122682000Y-59626500D03*
D11*
X127762000Y-59626500D03*
D10*
X132842000Y-59626500D03*
D12*
X130302000Y-54546500D03*
X123952000Y-57086500D03*
D13*
X130218800Y-65190500D03*
X130218800Y-63690500D03*
X125018800Y-65190500D03*
X125018800Y-63690500D03*
%TD*%
D10*
%TO.C,SW64*%
X56007000Y-78676500D03*
D11*
X61087000Y-78676500D03*
D10*
X66167000Y-78676500D03*
D12*
X63627000Y-73596500D03*
X57277000Y-76136500D03*
D13*
X63543800Y-84240500D03*
X63543800Y-82740500D03*
X58343800Y-84240500D03*
X58343800Y-82740500D03*
%TD*%
D14*
%TO.C,SW16*%
X34963000Y-109776500D03*
D11*
X34963000Y-125016500D03*
D10*
X41783000Y-116776500D03*
D11*
X46863000Y-116776500D03*
D10*
X51943000Y-116776500D03*
D14*
X58763000Y-109776500D03*
D11*
X58763000Y-125016500D03*
D12*
X49403000Y-111696500D03*
X43053000Y-114236500D03*
D13*
X49319800Y-122340500D03*
X49319800Y-120840500D03*
X44119800Y-122340500D03*
X44119800Y-120840500D03*
%TD*%
D10*
%TO.C,SW68*%
X217932000Y-59626500D03*
D11*
X223012000Y-59626500D03*
D10*
X228092000Y-59626500D03*
D12*
X225552000Y-54546500D03*
X219202000Y-57086500D03*
D13*
X225468800Y-65190500D03*
X225468800Y-63690500D03*
X220268800Y-65190500D03*
X220268800Y-63690500D03*
%TD*%
D10*
%TO.C,SW4*%
X251460000Y-97726500D03*
D11*
X256540000Y-97726500D03*
D10*
X261620000Y-97726500D03*
D12*
X259080000Y-92646500D03*
X252730000Y-95186500D03*
D13*
X258996800Y-103290500D03*
X258996800Y-101790500D03*
X253796800Y-103290500D03*
X253796800Y-101790500D03*
%TD*%
D10*
%TO.C,SW79*%
X84582000Y-59626500D03*
D11*
X89662000Y-59626500D03*
D10*
X94742000Y-59626500D03*
D12*
X92202000Y-54546500D03*
X85852000Y-57086500D03*
D13*
X92118800Y-65190500D03*
X92118800Y-63690500D03*
X86918800Y-65190500D03*
X86918800Y-63690500D03*
%TD*%
D10*
%TO.C,SW71*%
X103632000Y-59626500D03*
D11*
X108712000Y-59626500D03*
D10*
X113792000Y-59626500D03*
D12*
X111252000Y-54546500D03*
X104902000Y-57086500D03*
D13*
X111168800Y-65190500D03*
X111168800Y-63690500D03*
X105968800Y-65190500D03*
X105968800Y-63690500D03*
%TD*%
D10*
%TO.C,SW72*%
X65532000Y-59626500D03*
D11*
X70612000Y-59626500D03*
D10*
X75692000Y-59626500D03*
D12*
X73152000Y-54546500D03*
X66802000Y-57086500D03*
D13*
X73068800Y-65190500D03*
X73068800Y-63690500D03*
X67868800Y-65190500D03*
X67868800Y-63690500D03*
%TD*%
D10*
%TO.C,SW80*%
X46482000Y-59626500D03*
D11*
X51562000Y-59626500D03*
D10*
X56642000Y-59626500D03*
D12*
X54102000Y-54546500D03*
X47752000Y-57086500D03*
D13*
X54018800Y-65190500D03*
X54018800Y-63690500D03*
X48818800Y-65190500D03*
X48818800Y-63690500D03*
%TD*%
D10*
%TO.C,SW8*%
X32194500Y-78676500D03*
D11*
X37274500Y-78676500D03*
D10*
X42354500Y-78676500D03*
D12*
X39814500Y-73596500D03*
X33464500Y-76136500D03*
D13*
X39731300Y-84240500D03*
X39731300Y-82740500D03*
X34531300Y-84240500D03*
X34531300Y-82740500D03*
%TD*%
D10*
%TO.C,SW7*%
X256032000Y-59626500D03*
D11*
X261112000Y-59626500D03*
D10*
X266192000Y-59626500D03*
D12*
X263652000Y-54546500D03*
X257302000Y-57086500D03*
D13*
X263568800Y-65190500D03*
X263568800Y-63690500D03*
X258368800Y-65190500D03*
X258368800Y-63690500D03*
%TD*%
D10*
%TO.C,SW39*%
X118110000Y-97726500D03*
D11*
X123190000Y-97726500D03*
D10*
X128270000Y-97726500D03*
D12*
X125730000Y-92646500D03*
X119380000Y-95186500D03*
D13*
X125646800Y-103290500D03*
X125646800Y-101790500D03*
X120446800Y-103290500D03*
X120446800Y-101790500D03*
%TD*%
D10*
%TO.C,SW37*%
X194310000Y-97726500D03*
D11*
X199390000Y-97726500D03*
D10*
X204470000Y-97726500D03*
D12*
X201930000Y-92646500D03*
X195580000Y-95186500D03*
D13*
X201846800Y-103290500D03*
X201846800Y-101790500D03*
X196646800Y-103290500D03*
X196646800Y-101790500D03*
%TD*%
D10*
%TO.C,SW38*%
X156210000Y-97726500D03*
D11*
X161290000Y-97726500D03*
D10*
X166370000Y-97726500D03*
D12*
X163830000Y-92646500D03*
X157480000Y-95186500D03*
D13*
X163746800Y-103290500D03*
X163746800Y-101790500D03*
X158546800Y-103290500D03*
X158546800Y-101790500D03*
%TD*%
D10*
%TO.C,SW46*%
X137160000Y-97726500D03*
D11*
X142240000Y-97726500D03*
D10*
X147320000Y-97726500D03*
D12*
X144780000Y-92646500D03*
X138430000Y-95186500D03*
D13*
X144696800Y-103290500D03*
X144696800Y-101790500D03*
X139496800Y-103290500D03*
X139496800Y-101790500D03*
%TD*%
D10*
%TO.C,SW45*%
X175260000Y-97726500D03*
D11*
X180340000Y-97726500D03*
D10*
X185420000Y-97726500D03*
D12*
X182880000Y-92646500D03*
X176530000Y-95186500D03*
D13*
X182796800Y-103290500D03*
X182796800Y-101790500D03*
X177596800Y-103290500D03*
X177596800Y-101790500D03*
%TD*%
D10*
%TO.C,SW31*%
X108458000Y-116776500D03*
D11*
X113538000Y-116776500D03*
D10*
X118618000Y-116776500D03*
D12*
X116078000Y-111696500D03*
X109728000Y-114236500D03*
D13*
X115994800Y-122340500D03*
X115994800Y-120840500D03*
X110794800Y-122340500D03*
X110794800Y-120840500D03*
%TD*%
D10*
%TO.C,SW67*%
X84645500Y-135826500D03*
D11*
X89725500Y-135826500D03*
D10*
X94805500Y-135826500D03*
D12*
X92265500Y-130746500D03*
X85915500Y-133286500D03*
D13*
X92182300Y-141390500D03*
X92182300Y-139890500D03*
X86982300Y-141390500D03*
X86982300Y-139890500D03*
%TD*%
D10*
%TO.C,SW48*%
X60960000Y-97726500D03*
D11*
X66040000Y-97726500D03*
D10*
X71120000Y-97726500D03*
D12*
X68580000Y-92646500D03*
X62230000Y-95186500D03*
D13*
X68496800Y-103290500D03*
X68496800Y-101790500D03*
X63296800Y-103290500D03*
X63296800Y-101790500D03*
%TD*%
D10*
%TO.C,SW54*%
X151257000Y-78676500D03*
D11*
X156337000Y-78676500D03*
D10*
X161417000Y-78676500D03*
D12*
X158877000Y-73596500D03*
X152527000Y-76136500D03*
D13*
X158793800Y-84240500D03*
X158793800Y-82740500D03*
X153593800Y-84240500D03*
X153593800Y-82740500D03*
%TD*%
D10*
%TO.C,SW320*%
X37084000Y-97663000D03*
D11*
X42164000Y-97663000D03*
D10*
X47244000Y-97663000D03*
D12*
X44704000Y-92583000D03*
X38354000Y-95123000D03*
D13*
X44620800Y-103227000D03*
X44620800Y-101727000D03*
X39420800Y-103227000D03*
X39420800Y-101727000D03*
%TD*%
D10*
%TO.C,SW76*%
X198882000Y-59626500D03*
D11*
X203962000Y-59626500D03*
D10*
X209042000Y-59626500D03*
D12*
X206502000Y-54546500D03*
X200152000Y-57086500D03*
D13*
X206418800Y-65190500D03*
X206418800Y-63690500D03*
X201218800Y-65190500D03*
X201218800Y-63690500D03*
%TD*%
D10*
%TO.C,SW69*%
X179832000Y-59626500D03*
D11*
X184912000Y-59626500D03*
D10*
X189992000Y-59626500D03*
D12*
X187452000Y-54546500D03*
X181102000Y-57086500D03*
D13*
X187368800Y-65190500D03*
X187368800Y-63690500D03*
X182168800Y-65190500D03*
X182168800Y-63690500D03*
%TD*%
D10*
%TO.C,SW3*%
X229870000Y-135826500D03*
D11*
X234950000Y-135826500D03*
D10*
X240030000Y-135826500D03*
D12*
X237490000Y-130746500D03*
X231140000Y-133286500D03*
D13*
X237406800Y-141390500D03*
X237406800Y-139890500D03*
X232206800Y-141390500D03*
X232206800Y-139890500D03*
%TD*%
D14*
%TO.C,SW6*%
X113538000Y-128826500D03*
D11*
X113538000Y-144066500D03*
D10*
X158458000Y-135826500D03*
D11*
X163538000Y-135826500D03*
D10*
X168618000Y-135826500D03*
D14*
X213538000Y-128826500D03*
D11*
X213538000Y-144066500D03*
D12*
X166078000Y-130746500D03*
X159728000Y-133286500D03*
D13*
X165994800Y-141390500D03*
X165994800Y-139890500D03*
X160794800Y-141390500D03*
X160794800Y-139890500D03*
%TD*%
D10*
%TO.C,SW66*%
X338201000Y-59639200D03*
D11*
X343281000Y-59639200D03*
D10*
X348361000Y-59639200D03*
D12*
X345821000Y-54559200D03*
X339471000Y-57099200D03*
D13*
X345737800Y-65203200D03*
X345737800Y-63703200D03*
X340537800Y-65203200D03*
X340537800Y-63703200D03*
%TD*%
D10*
%TO.C,SW74*%
X319151000Y-59639200D03*
D11*
X324231000Y-59639200D03*
D10*
X329311000Y-59639200D03*
D12*
X326771000Y-54559200D03*
X320421000Y-57099200D03*
D13*
X326687800Y-65203200D03*
X326687800Y-63703200D03*
X321487800Y-65203200D03*
X321487800Y-63703200D03*
%TD*%
D10*
%TO.C,SW58*%
X319151000Y-78689200D03*
D11*
X324231000Y-78689200D03*
D10*
X329311000Y-78689200D03*
D12*
X326771000Y-73609200D03*
X320421000Y-76149200D03*
D13*
X326687800Y-84253200D03*
X326687800Y-82753200D03*
X321487800Y-84253200D03*
X321487800Y-82753200D03*
%TD*%
D10*
%TO.C,SW65*%
X376301000Y-59639200D03*
D11*
X381381000Y-59639200D03*
D10*
X386461000Y-59639200D03*
D12*
X383921000Y-54559200D03*
X377571000Y-57099200D03*
D13*
X383837800Y-65203200D03*
X383837800Y-63703200D03*
X378637800Y-65203200D03*
X378637800Y-63703200D03*
%TD*%
D10*
%TO.C,SW73*%
X357251000Y-59639200D03*
D11*
X362331000Y-59639200D03*
D10*
X367411000Y-59639200D03*
D12*
X364871000Y-54559200D03*
X358521000Y-57099200D03*
D13*
X364787800Y-65203200D03*
X364787800Y-63703200D03*
X359587800Y-65203200D03*
X359587800Y-63703200D03*
%TD*%
D10*
%TO.C,SW50*%
X338201000Y-78689200D03*
D11*
X343281000Y-78689200D03*
D10*
X348361000Y-78689200D03*
D12*
X345821000Y-73609200D03*
X339471000Y-76149200D03*
D13*
X345737800Y-84253200D03*
X345737800Y-82753200D03*
X340537800Y-84253200D03*
X340537800Y-82753200D03*
%TD*%
D10*
%TO.C,SW10*%
X319151000Y-135839200D03*
D11*
X324231000Y-135839200D03*
D10*
X329311000Y-135839200D03*
D12*
X326771000Y-130759200D03*
X320421000Y-133299200D03*
D13*
X326687800Y-141403200D03*
X326687800Y-139903200D03*
X321487800Y-141403200D03*
X321487800Y-139903200D03*
%TD*%
D10*
%TO.C,SW41*%
X357251000Y-97739200D03*
D11*
X362331000Y-97739200D03*
D10*
X367411000Y-97739200D03*
D12*
X364871000Y-92659200D03*
X358521000Y-95199200D03*
D13*
X364787800Y-103303200D03*
X364787800Y-101803200D03*
X359587800Y-103303200D03*
X359587800Y-101803200D03*
%TD*%
D10*
%TO.C,SW33*%
X376301000Y-97739200D03*
D11*
X381381000Y-97739200D03*
D10*
X386461000Y-97739200D03*
D12*
X383921000Y-92659200D03*
X377571000Y-95199200D03*
D13*
X383837800Y-103303200D03*
X383837800Y-101803200D03*
X378637800Y-103303200D03*
X378637800Y-101803200D03*
%TD*%
D10*
%TO.C,SW25*%
X357251000Y-116789200D03*
D11*
X362331000Y-116789200D03*
D10*
X367411000Y-116789200D03*
D12*
X364871000Y-111709200D03*
X358521000Y-114249200D03*
D13*
X364787800Y-122353200D03*
X364787800Y-120853200D03*
X359587800Y-122353200D03*
X359587800Y-120853200D03*
%TD*%
D10*
%TO.C,SW17*%
X376301000Y-116789200D03*
D11*
X381381000Y-116789200D03*
D10*
X386461000Y-116789200D03*
D12*
X383921000Y-111709200D03*
X377571000Y-114249200D03*
D13*
X383837800Y-122353200D03*
X383837800Y-120853200D03*
X378637800Y-122353200D03*
X378637800Y-120853200D03*
%TD*%
D10*
%TO.C,SW26*%
X319151000Y-116789200D03*
D11*
X324231000Y-116789200D03*
D10*
X329311000Y-116789200D03*
D12*
X326771000Y-111709200D03*
X320421000Y-114249200D03*
D13*
X326687800Y-122353200D03*
X326687800Y-120853200D03*
X321487800Y-122353200D03*
X321487800Y-120853200D03*
%TD*%
D10*
%TO.C,SW57*%
X357251000Y-78689200D03*
D11*
X362331000Y-78689200D03*
D10*
X367411000Y-78689200D03*
D12*
X364871000Y-73609200D03*
X358521000Y-76149200D03*
D13*
X364787800Y-84253200D03*
X364787800Y-82753200D03*
X359587800Y-84253200D03*
X359587800Y-82753200D03*
%TD*%
D10*
%TO.C,SW42*%
X319151000Y-97739200D03*
D11*
X324231000Y-97739200D03*
D10*
X329311000Y-97739200D03*
D12*
X326771000Y-92659200D03*
X320421000Y-95199200D03*
D13*
X326687800Y-103303200D03*
X326687800Y-101803200D03*
X321487800Y-103303200D03*
X321487800Y-101803200D03*
%TD*%
D10*
%TO.C,SW34*%
X338201000Y-97739200D03*
D11*
X343281000Y-97739200D03*
D10*
X348361000Y-97739200D03*
D12*
X345821000Y-92659200D03*
X339471000Y-95199200D03*
D13*
X345737800Y-103303200D03*
X345737800Y-101803200D03*
X340537800Y-103303200D03*
X340537800Y-101803200D03*
%TD*%
D10*
%TO.C,SW9*%
X357251000Y-135839200D03*
D11*
X362331000Y-135839200D03*
D10*
X367411000Y-135839200D03*
D12*
X364871000Y-130759200D03*
X358521000Y-133299200D03*
D13*
X364787800Y-141403200D03*
X364787800Y-139903200D03*
X359587800Y-141403200D03*
X359587800Y-139903200D03*
%TD*%
D10*
%TO.C,SW18*%
X338201000Y-116789200D03*
D11*
X343281000Y-116789200D03*
D10*
X348361000Y-116789200D03*
D12*
X345821000Y-111709200D03*
X339471000Y-114249200D03*
D13*
X345737800Y-122353200D03*
X345737800Y-120853200D03*
X340537800Y-122353200D03*
X340537800Y-120853200D03*
%TD*%
D10*
%TO.C,SW49*%
X376301000Y-78689200D03*
D11*
X381381000Y-78689200D03*
D10*
X386461000Y-78689200D03*
D12*
X383921000Y-73609200D03*
X377571000Y-76149200D03*
D13*
X383837800Y-84253200D03*
X383837800Y-82753200D03*
X378637800Y-84253200D03*
X378637800Y-82753200D03*
%TD*%
D10*
%TO.C,SW1*%
X376301000Y-135839200D03*
D11*
X381381000Y-135839200D03*
D10*
X386461000Y-135839200D03*
D12*
X383921000Y-130759200D03*
X377571000Y-133299200D03*
D13*
X383837800Y-141403200D03*
X383837800Y-139903200D03*
X378637800Y-141403200D03*
X378637800Y-139903200D03*
%TD*%
D10*
%TO.C,SW2*%
X338201000Y-135839200D03*
D11*
X343281000Y-135839200D03*
D10*
X348361000Y-135839200D03*
D12*
X345821000Y-130759200D03*
X339471000Y-133299200D03*
D13*
X345737800Y-141403200D03*
X345737800Y-139903200D03*
X340537800Y-141403200D03*
X340537800Y-139903200D03*
%TD*%
D15*
%TO.C,U5*%
X310709000Y-128018000D03*
X310709000Y-138018000D03*
X298059000Y-138018000D03*
X298059000Y-128018000D03*
D16*
X300884000Y-127268000D03*
X307884000Y-127268000D03*
X307884000Y-122768000D03*
X300884000Y-122768000D03*
D17*
X306884000Y-141748000D03*
X304384000Y-141748000D03*
X301884000Y-141748000D03*
X295654000Y-135518000D03*
X295654000Y-133018000D03*
X295654000Y-130518000D03*
%TD*%
D18*
%TO.C,J7*%
X306587500Y-77211000D03*
D10*
X309127500Y-77211000D03*
X306587500Y-79751000D03*
X309127500Y-79751000D03*
X306587500Y-82291000D03*
X309127500Y-82291000D03*
%TD*%
D19*
%TO.C,J4*%
X301239000Y-64760500D03*
D10*
X301239000Y-62220500D03*
X303779000Y-64760500D03*
X303779000Y-62220500D03*
X306319000Y-64760500D03*
X306319000Y-62220500D03*
%TD*%
D20*
%TO.C,J1*%
X234099100Y-48615600D03*
D10*
X231559100Y-48615600D03*
X229019100Y-48615600D03*
X226479100Y-48615600D03*
X223939100Y-48615600D03*
X221399100Y-48615600D03*
X218859100Y-48615600D03*
X216319100Y-48615600D03*
X213779100Y-48615600D03*
X211239100Y-48615600D03*
X208699100Y-48615600D03*
X206159100Y-48615600D03*
X203619100Y-48615600D03*
X201079100Y-48615600D03*
X198539100Y-48615600D03*
X195999100Y-48615600D03*
X193459100Y-48615600D03*
X190919100Y-48615600D03*
X188379100Y-48615600D03*
X185839100Y-48615600D03*
X185839100Y-51155600D03*
X188379100Y-51155600D03*
X190919100Y-51155600D03*
X193459100Y-51155600D03*
X195999100Y-51155600D03*
X198539100Y-51155600D03*
X201079100Y-51155600D03*
X203619100Y-51155600D03*
X206159100Y-51155600D03*
X208699100Y-51155600D03*
%TD*%
D21*
%TO.C,R1*%
X133245000Y-137580000D03*
X133245000Y-135930000D03*
%TD*%
D22*
%TO.C,C31*%
X317706172Y-100036668D03*
X317706172Y-102111668D03*
%TD*%
D23*
%TO.C,D69*%
X380035000Y-92625000D03*
X377535000Y-92625000D03*
%TD*%
%TO.C,D54*%
X278880000Y-92725000D03*
X276380000Y-92725000D03*
%TD*%
D24*
%TO.C,C22*%
X109677957Y-82974115D03*
X106552957Y-82974115D03*
%TD*%
D23*
%TO.C,D46*%
X216975000Y-92725000D03*
X214475000Y-92725000D03*
%TD*%
D25*
%TO.C,C17*%
X278905714Y-138684000D03*
X280980714Y-138684000D03*
%TD*%
D26*
%TO.C,D78*%
X297665000Y-116730000D03*
X297665000Y-114230000D03*
%TD*%
D23*
%TO.C,D31*%
X126570000Y-54575000D03*
X124070000Y-54575000D03*
%TD*%
%TO.C,D27*%
X141000000Y-92750000D03*
X138500000Y-92750000D03*
%TD*%
D24*
%TO.C,C23*%
X115305624Y-101990909D03*
X112180624Y-101990909D03*
%TD*%
D23*
%TO.C,D60*%
X240880000Y-54425000D03*
X238380000Y-54425000D03*
%TD*%
D24*
%TO.C,C28*%
X334014916Y-121144482D03*
X330889916Y-121144482D03*
%TD*%
D23*
%TO.C,D11*%
X50260000Y-54525000D03*
X47760000Y-54525000D03*
%TD*%
%TO.C,D75*%
X40775000Y-92475000D03*
X38275000Y-92475000D03*
%TD*%
D26*
%TO.C,D1*%
X294856962Y-116679365D03*
X294856962Y-114179365D03*
%TD*%
D25*
%TO.C,C30*%
X251561560Y-136369929D03*
X253636560Y-136369929D03*
%TD*%
D23*
%TO.C,D76*%
X233525000Y-130675000D03*
X231025000Y-130675000D03*
%TD*%
D27*
%TO.C,C14*%
X135955247Y-137636262D03*
X135955247Y-135561262D03*
%TD*%
D23*
%TO.C,D2*%
X36010000Y-73475000D03*
X33510000Y-73475000D03*
%TD*%
%TO.C,D36*%
X198070000Y-92575000D03*
X195570000Y-92575000D03*
%TD*%
%TO.C,D44*%
X226475000Y-111575000D03*
X223975000Y-111575000D03*
%TD*%
%TO.C,D18*%
X116915000Y-73575000D03*
X114415000Y-73575000D03*
%TD*%
%TO.C,D23*%
X278915000Y-54575000D03*
X276415000Y-54575000D03*
%TD*%
%TO.C,D50*%
X202725000Y-54775000D03*
X200225000Y-54775000D03*
%TD*%
%TO.C,D37*%
X179070000Y-92775000D03*
X176570000Y-92775000D03*
%TD*%
D26*
%TO.C,D81*%
X312725000Y-113475000D03*
X312725000Y-110975000D03*
%TD*%
D28*
%TO.C,JC7*%
X222089282Y-69574681D03*
D29*
X222089282Y-68274681D03*
%TD*%
D23*
%TO.C,D3*%
X93010000Y-111675000D03*
X90510000Y-111675000D03*
%TD*%
%TO.C,D19*%
X97915000Y-73525000D03*
X95415000Y-73525000D03*
%TD*%
%TO.C,D58*%
X250380000Y-73525000D03*
X247880000Y-73525000D03*
%TD*%
%TO.C,D48*%
X212225000Y-73625000D03*
X209725000Y-73625000D03*
%TD*%
%TO.C,D33*%
X255070000Y-92725000D03*
X252570000Y-92725000D03*
%TD*%
D30*
%TO.C,U1*%
X122355825Y-138939526D03*
X122355825Y-138289526D03*
X122355825Y-137639526D03*
X122355825Y-136989526D03*
X122355825Y-136339526D03*
X122355825Y-135689526D03*
X122355825Y-135039526D03*
X128080825Y-135039526D03*
X128080825Y-135689526D03*
X128080825Y-136339526D03*
X128080825Y-136989526D03*
X128080825Y-137639526D03*
X128080825Y-138289526D03*
X128080825Y-138939526D03*
%TD*%
D31*
%TO.C,D79*%
X300835000Y-77860000D03*
X300835000Y-80360000D03*
%TD*%
D27*
%TO.C,C10*%
X197678198Y-137706372D03*
X197678198Y-135631372D03*
%TD*%
D32*
%TO.C,JC4*%
X199500000Y-69200000D03*
D33*
X199500000Y-70500000D03*
%TD*%
D23*
%TO.C,D52*%
X274250000Y-111750000D03*
X271750000Y-111750000D03*
%TD*%
%TO.C,D42*%
X288475000Y-73425000D03*
X285975000Y-73425000D03*
%TD*%
D34*
%TO.C,U7*%
X217523129Y-140949477D03*
X217523129Y-139679477D03*
X217523129Y-138409477D03*
X217523129Y-137139477D03*
X217523129Y-135869477D03*
X217523129Y-134599477D03*
X217523129Y-133329477D03*
X217523129Y-132059477D03*
X222673129Y-132059477D03*
X222673129Y-133329477D03*
X222673129Y-134599477D03*
X222673129Y-135869477D03*
X222673129Y-137139477D03*
X222673129Y-138409477D03*
X222673129Y-139679477D03*
X222673129Y-140949477D03*
%TD*%
D24*
%TO.C,C24*%
X104582142Y-121761046D03*
X101457142Y-121761046D03*
%TD*%
D23*
%TO.C,D40*%
X183750000Y-54500000D03*
X181250000Y-54500000D03*
%TD*%
%TO.C,D14*%
X131260000Y-111750000D03*
X128760000Y-111750000D03*
%TD*%
%TO.C,D45*%
X236225000Y-92775000D03*
X233725000Y-92775000D03*
%TD*%
D24*
%TO.C,C27*%
X335169092Y-102329506D03*
X332044092Y-102329506D03*
%TD*%
D23*
%TO.C,D70*%
X361035000Y-92575000D03*
X358535000Y-92575000D03*
%TD*%
D24*
%TO.C,C20*%
X157885330Y-64574979D03*
X154760330Y-64574979D03*
%TD*%
D23*
%TO.C,D6*%
X69260000Y-54525000D03*
X66760000Y-54525000D03*
%TD*%
%TO.C,D61*%
X342130000Y-73625000D03*
X339630000Y-73625000D03*
%TD*%
D26*
%TO.C,D80*%
X312615000Y-117725000D03*
X312615000Y-115225000D03*
%TD*%
D23*
%TO.C,D41*%
X164475000Y-54475000D03*
X161975000Y-54475000D03*
%TD*%
D35*
%TO.C,R5*%
X314705000Y-111335000D03*
X314705000Y-112985000D03*
%TD*%
D24*
%TO.C,C6*%
X248643259Y-102756777D03*
X245518259Y-102756777D03*
%TD*%
%TO.C,C4*%
X252838174Y-64131161D03*
X249713174Y-64131161D03*
%TD*%
D23*
%TO.C,D43*%
X245725000Y-111625000D03*
X243225000Y-111625000D03*
%TD*%
%TO.C,D74*%
X361035000Y-54625000D03*
X358535000Y-54625000D03*
%TD*%
D36*
%TO.C,Y1*%
X281050000Y-133048954D03*
X278950000Y-133048954D03*
X278950000Y-131398954D03*
X281050000Y-131398954D03*
%TD*%
D27*
%TO.C,C13*%
X118078225Y-138152308D03*
X118078225Y-136077308D03*
%TD*%
D23*
%TO.C,D66*%
X361000000Y-130750000D03*
X358500000Y-130750000D03*
%TD*%
%TO.C,D47*%
X231225000Y-73425000D03*
X228725000Y-73425000D03*
%TD*%
D37*
%TO.C,C7*%
X281134018Y-135260214D03*
X279059018Y-135260214D03*
%TD*%
D38*
%TO.C,U9*%
X301200000Y-112050000D03*
X302470000Y-112050000D03*
X303740000Y-112050000D03*
X305010000Y-112050000D03*
X306280000Y-112050000D03*
X307550000Y-112050000D03*
X308820000Y-112050000D03*
X308820000Y-117000000D03*
X307550000Y-117000000D03*
X306280000Y-117000000D03*
X305010000Y-117000000D03*
X303740000Y-117000000D03*
X302470000Y-117000000D03*
X301200000Y-117000000D03*
%TD*%
D23*
%TO.C,D65*%
X380000000Y-130750000D03*
X377500000Y-130750000D03*
%TD*%
D34*
%TO.C,U4*%
X140315729Y-140835708D03*
X140315729Y-139565708D03*
X140315729Y-138295708D03*
X140315729Y-137025708D03*
X140315729Y-135755708D03*
X140315729Y-134485708D03*
X140315729Y-133215708D03*
X140315729Y-131945708D03*
X145465729Y-131945708D03*
X145465729Y-133215708D03*
X145465729Y-134485708D03*
X145465729Y-135755708D03*
X145465729Y-137025708D03*
X145465729Y-138295708D03*
X145465729Y-139565708D03*
X145465729Y-140835708D03*
%TD*%
D39*
%TO.C,C18*%
X98417093Y-137759834D03*
X98417093Y-134634834D03*
%TD*%
D40*
%TO.C,JP1*%
X79388307Y-61210188D03*
D41*
X80688307Y-61210188D03*
%TD*%
D24*
%TO.C,C1*%
X167056299Y-83849627D03*
X163931299Y-83849627D03*
%TD*%
D23*
%TO.C,D15*%
X112165000Y-111725000D03*
X109665000Y-111725000D03*
%TD*%
%TO.C,D29*%
X135820000Y-73425000D03*
X133320000Y-73425000D03*
%TD*%
%TO.C,D17*%
X102915000Y-92625000D03*
X100415000Y-92625000D03*
%TD*%
%TO.C,D4*%
X83760000Y-92625000D03*
X81260000Y-92625000D03*
%TD*%
D28*
%TO.C,JC6*%
X202321896Y-74150159D03*
D29*
X202321896Y-72850159D03*
%TD*%
D24*
%TO.C,C2*%
X172117749Y-102766452D03*
X168992749Y-102766452D03*
%TD*%
D23*
%TO.C,D71*%
X379785000Y-73775000D03*
X377285000Y-73775000D03*
%TD*%
D24*
%TO.C,C21*%
X100090789Y-63976720D03*
X96965789Y-63976720D03*
%TD*%
D42*
%TO.C,C16*%
X291436268Y-56962127D03*
X291436268Y-60087127D03*
%TD*%
D24*
%TO.C,C5*%
X243565887Y-83714527D03*
X240440887Y-83714527D03*
%TD*%
D23*
%TO.C,D10*%
X59760000Y-73575000D03*
X57260000Y-73575000D03*
%TD*%
D43*
%TO.C,R3*%
X289520000Y-117555000D03*
X291170000Y-117555000D03*
%TD*%
D23*
%TO.C,D38*%
X193070000Y-73475000D03*
X190570000Y-73475000D03*
%TD*%
%TO.C,D16*%
X121915000Y-92675000D03*
X119415000Y-92675000D03*
%TD*%
%TO.C,D72*%
X361035000Y-73725000D03*
X358535000Y-73725000D03*
%TD*%
%TO.C,D7*%
X45510000Y-111725000D03*
X43010000Y-111725000D03*
%TD*%
D24*
%TO.C,C3*%
X162556218Y-121277797D03*
X159431218Y-121277797D03*
%TD*%
D23*
%TO.C,D56*%
X322880000Y-111625000D03*
X320380000Y-111625000D03*
%TD*%
%TO.C,D8*%
X74010000Y-111675000D03*
X71510000Y-111675000D03*
%TD*%
%TO.C,D13*%
X31260000Y-54425000D03*
X28760000Y-54425000D03*
%TD*%
%TO.C,D63*%
X341880000Y-54525000D03*
X339380000Y-54525000D03*
%TD*%
%TO.C,D53*%
X323000000Y-130750000D03*
X320500000Y-130750000D03*
%TD*%
D27*
%TO.C,C9*%
X213453699Y-137721553D03*
X213453699Y-135646553D03*
%TD*%
D23*
%TO.C,D28*%
X155070000Y-73475000D03*
X152570000Y-73475000D03*
%TD*%
D28*
%TO.C,JC2*%
X193958735Y-70681992D03*
D29*
X193958735Y-69381992D03*
%TD*%
D25*
%TO.C,C12*%
X298594101Y-92896089D03*
X300669101Y-92896089D03*
%TD*%
D23*
%TO.C,D51*%
X341975000Y-130725000D03*
X339475000Y-130725000D03*
%TD*%
D24*
%TO.C,C26*%
X335049012Y-83023698D03*
X331924012Y-83023698D03*
%TD*%
D44*
%TO.C,C15*%
X278336284Y-141348200D03*
X281461284Y-141348200D03*
%TD*%
D23*
%TO.C,D35*%
X188570000Y-111875000D03*
X186070000Y-111875000D03*
%TD*%
%TO.C,D5*%
X78760000Y-73575000D03*
X76260000Y-73575000D03*
%TD*%
%TO.C,D32*%
X269320000Y-73525000D03*
X266820000Y-73525000D03*
%TD*%
D24*
%TO.C,C29*%
X334566961Y-140631915D03*
X331441961Y-140631915D03*
%TD*%
D35*
%TO.C,R4*%
X314705000Y-115495000D03*
X314705000Y-117145000D03*
%TD*%
D21*
%TO.C,R2*%
X131235000Y-137580000D03*
X131235000Y-135930000D03*
%TD*%
D23*
%TO.C,D62*%
X322880000Y-73575000D03*
X320380000Y-73575000D03*
%TD*%
%TO.C,D49*%
X221475000Y-54575000D03*
X218975000Y-54575000D03*
%TD*%
D28*
%TO.C,JC1*%
X191152337Y-70592890D03*
D29*
X191152337Y-69292890D03*
%TD*%
D23*
%TO.C,D39*%
X174000000Y-73500000D03*
X171500000Y-73500000D03*
%TD*%
%TO.C,D34*%
X207570000Y-111675000D03*
X205070000Y-111675000D03*
%TD*%
%TO.C,D68*%
X361035000Y-111675000D03*
X358535000Y-111675000D03*
%TD*%
%TO.C,D67*%
X380035000Y-111725000D03*
X377535000Y-111725000D03*
%TD*%
%TO.C,D26*%
X159915000Y-92675000D03*
X157415000Y-92675000D03*
%TD*%
%TO.C,D64*%
X322880000Y-54475000D03*
X320380000Y-54475000D03*
%TD*%
%TO.C,D12*%
X259760000Y-54475000D03*
X257260000Y-54475000D03*
%TD*%
D24*
%TO.C,C25*%
X335186978Y-63821334D03*
X332061978Y-63821334D03*
%TD*%
D28*
%TO.C,JC5*%
X254833686Y-122759784D03*
D29*
X254833686Y-121459784D03*
%TD*%
D23*
%TO.C,D25*%
X150415000Y-111725000D03*
X147915000Y-111725000D03*
%TD*%
D34*
%TO.C,U6*%
X185719127Y-141138029D03*
X185719127Y-139868029D03*
X185719127Y-138598029D03*
X185719127Y-137328029D03*
X185719127Y-136058029D03*
X185719127Y-134788029D03*
X185719127Y-133518029D03*
X185719127Y-132248029D03*
X190869127Y-132248029D03*
X190869127Y-133518029D03*
X190869127Y-134788029D03*
X190869127Y-136058029D03*
X190869127Y-137328029D03*
X190869127Y-138598029D03*
X190869127Y-139868029D03*
X190869127Y-141138029D03*
%TD*%
D45*
%TO.C,U2*%
X264960718Y-131564213D03*
X265760718Y-131564213D03*
X266560718Y-131564213D03*
X267360718Y-131564213D03*
X268160718Y-131564213D03*
X268960718Y-131564213D03*
X269760718Y-131564213D03*
X270560718Y-131564213D03*
X271360718Y-131564213D03*
X272160718Y-131564213D03*
X272960718Y-131564213D03*
D46*
X274623218Y-133226713D03*
X274623218Y-134026713D03*
X274623218Y-134826713D03*
X274623218Y-135626713D03*
X274623218Y-136426713D03*
X274623218Y-137226713D03*
X274623218Y-138026713D03*
X274623218Y-138826713D03*
X274623218Y-139626713D03*
X274623218Y-140426713D03*
X274623218Y-141226713D03*
D45*
X272960718Y-142889213D03*
X272160718Y-142889213D03*
X271360718Y-142889213D03*
X270560718Y-142889213D03*
X269760718Y-142889213D03*
X268960718Y-142889213D03*
X268160718Y-142889213D03*
X267360718Y-142889213D03*
X266560718Y-142889213D03*
X265760718Y-142889213D03*
X264960718Y-142889213D03*
D46*
X263298218Y-141226713D03*
X263298218Y-140426713D03*
X263298218Y-139626713D03*
X263298218Y-138826713D03*
X263298218Y-138026713D03*
X263298218Y-137226713D03*
X263298218Y-136426713D03*
X263298218Y-135626713D03*
X263298218Y-134826713D03*
X263298218Y-134026713D03*
X263298218Y-133226713D03*
%TD*%
D24*
%TO.C,C32*%
X296762197Y-92944369D03*
X293637197Y-92944369D03*
%TD*%
D23*
%TO.C,D59*%
X322880000Y-92725000D03*
X320380000Y-92725000D03*
%TD*%
%TO.C,D22*%
X162165000Y-130875000D03*
X159665000Y-130875000D03*
%TD*%
D45*
%TO.C,U8*%
X305621671Y-91891216D03*
X306421671Y-91891216D03*
X307221671Y-91891216D03*
X308021671Y-91891216D03*
X308821671Y-91891216D03*
X309621671Y-91891216D03*
X310421671Y-91891216D03*
X311221671Y-91891216D03*
X312021671Y-91891216D03*
X312821671Y-91891216D03*
X313621671Y-91891216D03*
D46*
X315284171Y-93553716D03*
X315284171Y-94353716D03*
X315284171Y-95153716D03*
X315284171Y-95953716D03*
X315284171Y-96753716D03*
X315284171Y-97553716D03*
X315284171Y-98353716D03*
X315284171Y-99153716D03*
X315284171Y-99953716D03*
X315284171Y-100753716D03*
X315284171Y-101553716D03*
D45*
X313621671Y-103216216D03*
X312821671Y-103216216D03*
X312021671Y-103216216D03*
X311221671Y-103216216D03*
X310421671Y-103216216D03*
X309621671Y-103216216D03*
X308821671Y-103216216D03*
X308021671Y-103216216D03*
X307221671Y-103216216D03*
X306421671Y-103216216D03*
X305621671Y-103216216D03*
D46*
X303959171Y-101553716D03*
X303959171Y-100753716D03*
X303959171Y-99953716D03*
X303959171Y-99153716D03*
X303959171Y-98353716D03*
X303959171Y-97553716D03*
X303959171Y-96753716D03*
X303959171Y-95953716D03*
X303959171Y-95153716D03*
X303959171Y-94353716D03*
X303959171Y-93553716D03*
%TD*%
D23*
%TO.C,D55*%
X342130000Y-111675000D03*
X339630000Y-111675000D03*
%TD*%
D39*
%TO.C,C33*%
X211030112Y-137783424D03*
X211030112Y-134658424D03*
%TD*%
D28*
%TO.C,JC3*%
X196828864Y-70571126D03*
D29*
X196828864Y-69271126D03*
%TD*%
D23*
%TO.C,D20*%
X107415000Y-54475000D03*
X104915000Y-54475000D03*
%TD*%
%TO.C,D21*%
X88415000Y-54425000D03*
X85915000Y-54425000D03*
%TD*%
%TO.C,D77*%
X88525000Y-130875000D03*
X86025000Y-130875000D03*
%TD*%
%TO.C,D24*%
X169415000Y-111775000D03*
X166915000Y-111775000D03*
%TD*%
%TO.C,D30*%
X145570000Y-54625000D03*
X143070000Y-54625000D03*
%TD*%
D40*
%TO.C,JP2*%
X79388307Y-57660188D03*
D41*
X80688307Y-57660188D03*
%TD*%
D23*
%TO.C,D73*%
X380285000Y-54675000D03*
X377785000Y-54675000D03*
%TD*%
D24*
%TO.C,C19*%
X239529973Y-121299077D03*
X236404973Y-121299077D03*
%TD*%
D23*
%TO.C,D57*%
X342130000Y-92575000D03*
X339630000Y-92575000D03*
%TD*%
D34*
%TO.C,U3*%
X202365509Y-141096060D03*
X202365509Y-139826060D03*
X202365509Y-138556060D03*
X202365509Y-137286060D03*
X202365509Y-136016060D03*
X202365509Y-134746060D03*
X202365509Y-133476060D03*
X202365509Y-132206060D03*
X207515509Y-132206060D03*
X207515509Y-133476060D03*
X207515509Y-134746060D03*
X207515509Y-136016060D03*
X207515509Y-137286060D03*
X207515509Y-138556060D03*
X207515509Y-139826060D03*
X207515509Y-141096060D03*
%TD*%
D27*
%TO.C,C8*%
X102775585Y-137392071D03*
X102775585Y-135317071D03*
%TD*%
%TO.C,C11*%
X181473041Y-137855522D03*
X181473041Y-135780522D03*
%TD*%
D47*
%TO.C,JP5*%
X290825000Y-114525000D03*
D48*
X289525000Y-114525000D03*
%TD*%
D28*
%TO.C,JC8*%
X225899289Y-69566651D03*
D29*
X225899289Y-68266651D03*
%TD*%
D23*
%TO.C,D9*%
X64760000Y-92625000D03*
X62260000Y-92625000D03*
%TD*%
M02*
