M48
; DRILL file {KiCad 9.0.4} date 2025-10-14T21:42:09+0200
; FORMAT={-:-/ absolute / inch / decimal}
; #@! TF.CreationDate,2025-10-14T21:42:09+02:00
; #@! TF.GenerationSoftware,Kicad,Pcbnew,9.0.4
; #@! TF.FileFunction,NonPlated,1,2,NPTH
FMAT,2
INCH
; #@! TA.AperFunction,NonPlated,NPTH,ComponentDrill
T1C0.0669
; #@! TA.AperFunction,NonPlated,NPTH,ComponentDrill
T2C0.1201
; #@! TA.AperFunction,NonPlated,NPTH,ComponentDrill
T3C0.1575
%
G90
G05
T1
X1.08Y-2.3475
X1.2675Y-3.0975
X1.46Y-3.845
X1.48Y-2.3475
X1.645Y-4.5975
X1.6675Y-3.0975
X1.83Y-2.3475
X1.86Y-3.845
X2.045Y-4.5975
X2.205Y-3.0975
X2.23Y-2.3475
X2.4Y-3.8475
X2.58Y-2.3475
X2.605Y-3.0975
X2.77Y-4.5975
X2.8Y-3.8475
X2.955Y-3.0975
X2.98Y-2.3475
X3.15Y-3.8475
X3.17Y-4.5975
X3.33Y-2.3475
X3.3325Y-5.3475
X3.355Y-3.0975
X3.52Y-4.5975
X3.55Y-3.8475
X3.705Y-3.0975
X3.73Y-2.3475
X3.7325Y-5.3475
X3.9Y-3.8475
X3.92Y-4.5975
X4.08Y-2.3475
X4.105Y-3.0975
X4.27Y-4.5975
X4.3Y-3.8475
X4.455Y-3.0975
X4.48Y-2.3475
X4.65Y-3.8475
X4.67Y-4.5975
X4.83Y-2.3475
X4.855Y-3.0975
X5.02Y-4.5975
X5.05Y-3.8475
X5.205Y-3.0975
X5.23Y-2.3475
X5.4Y-3.8475
X5.42Y-4.5975
X5.58Y-2.3475
X5.605Y-3.0975
X5.77Y-4.5975
X5.8Y-3.8475
X5.955Y-3.0975
X5.98Y-2.3475
X6.15Y-3.8475
X6.17Y-4.5975
X6.2385Y-5.3475
X6.33Y-2.3475
X6.355Y-3.0975
X6.52Y-4.5975
X6.55Y-3.8475
X6.6385Y-5.3475
X6.705Y-3.0975
X6.73Y-2.3475
X6.9Y-3.8475
X6.92Y-4.5975
X7.08Y-2.3475
X7.105Y-3.0975
X7.27Y-4.5975
X7.3Y-3.8475
X7.455Y-3.0975
X7.48Y-2.3475
X7.65Y-3.8475
X7.67Y-4.5975
X7.83Y-2.3475
X7.855Y-3.0975
X8.02Y-4.5975
X8.05Y-3.8475
X8.205Y-3.0975
X8.23Y-2.3475
X8.4Y-3.8475
X8.42Y-4.5975
X8.58Y-2.3475
X8.605Y-3.0975
X8.77Y-4.5975
X8.8Y-3.8475
X8.955Y-3.0975
X8.98Y-2.3475
X9.05Y-5.3475
X9.15Y-3.8475
X9.17Y-4.5975
X9.33Y-2.3475
X9.355Y-3.0975
X9.45Y-5.3475
X9.52Y-4.5975
X9.55Y-3.8475
X9.705Y-3.0975
X9.73Y-2.3475
X9.9Y-3.8475
X9.92Y-4.5975
X10.08Y-2.3475
X10.105Y-3.0975
X10.3Y-3.8475
X10.455Y-3.0975
X10.48Y-2.3475
X10.6465Y-4.5981
X10.83Y-2.3475
X10.84Y-3.8475
X10.855Y-3.0975
X11.0465Y-4.5981
X11.205Y-3.0975
X11.23Y-2.3475
X11.24Y-3.8475
X11.605Y-3.0975
X12.565Y-2.348
X12.565Y-3.098
X12.565Y-3.848
X12.565Y-4.598
X12.565Y-5.348
X12.965Y-2.348
X12.965Y-3.098
X12.965Y-3.848
X12.965Y-4.598
X12.965Y-5.348
X13.315Y-2.348
X13.315Y-3.098
X13.315Y-3.848
X13.315Y-4.598
X13.315Y-5.348
X13.715Y-2.348
X13.715Y-3.098
X13.715Y-3.848
X13.715Y-4.598
X13.715Y-5.348
X14.065Y-2.348
X14.065Y-3.098
X14.065Y-3.848
X14.065Y-4.598
X14.065Y-5.348
X14.465Y-2.348
X14.465Y-3.098
X14.465Y-3.848
X14.465Y-4.598
X14.465Y-5.348
X14.815Y-2.348
X14.815Y-3.098
X14.815Y-3.848
X14.815Y-4.598
X14.815Y-5.348
X15.215Y-2.348
X15.215Y-3.098
X15.215Y-3.848
X15.215Y-4.598
X15.215Y-5.348
T2
X1.3765Y-4.3219
X2.3135Y-4.3219
X4.47Y-5.0719
X8.407Y-5.0719
X10.378Y-4.3225
X11.315Y-4.3225
T3
X1.28Y-2.3475
X1.3765Y-4.9219
X1.4675Y-3.0975
X1.66Y-3.845
X1.845Y-4.5975
X2.03Y-2.3475
X2.3135Y-4.9219
X2.405Y-3.0975
X2.6Y-3.8475
X2.78Y-2.3475
X2.97Y-4.5975
X3.155Y-3.0975
X3.35Y-3.8475
X3.53Y-2.3475
X3.5325Y-5.3475
X3.72Y-4.5975
X3.905Y-3.0975
X4.1Y-3.8475
X4.28Y-2.3475
X4.47Y-4.5975
X4.47Y-5.6719
X4.655Y-3.0975
X4.85Y-3.8475
X5.03Y-2.3475
X5.22Y-4.5975
X5.405Y-3.0975
X5.6Y-3.8475
X5.78Y-2.3475
X5.97Y-4.5975
X6.155Y-3.0975
X6.35Y-3.8475
X6.4385Y-5.3475
X6.53Y-2.3475
X6.72Y-4.5975
X6.905Y-3.0975
X7.1Y-3.8475
X7.28Y-2.3475
X7.47Y-4.5975
X7.655Y-3.0975
X7.85Y-3.8475
X8.03Y-2.3475
X8.22Y-4.5975
X8.405Y-3.0975
X8.407Y-5.6719
X8.6Y-3.8475
X8.78Y-2.3475
X8.97Y-4.5975
X9.155Y-3.0975
X9.25Y-5.3475
X9.35Y-3.8475
X9.53Y-2.3475
X9.72Y-4.5975
X9.905Y-3.0975
X10.1Y-3.8475
X10.28Y-2.3475
X10.378Y-4.9225
X10.655Y-3.0975
X10.8465Y-4.5981
X11.03Y-2.3475
X11.04Y-3.8475
X11.315Y-4.9225
X11.405Y-3.0975
X12.765Y-2.348
X12.765Y-3.098
X12.765Y-3.848
X12.765Y-4.598
X12.765Y-5.348
X13.515Y-2.348
X13.515Y-3.098
X13.515Y-3.848
X13.515Y-4.598
X13.515Y-5.348
X14.265Y-2.348
X14.265Y-3.098
X14.265Y-3.848
X14.265Y-4.598
X14.265Y-5.348
X15.015Y-2.348
X15.015Y-3.098
X15.015Y-3.848
X15.015Y-4.598
X15.015Y-5.348
M30
