%TF.GenerationSoftware,KiCad,Pcbnew,9.0.4*%
%TF.CreationDate,2025-10-14T21:42:09+02:00*%
%TF.ProjectId,petkn,7065746b-6e2e-46b6-9963-61645f706362,rev?*%
%TF.SameCoordinates,Original*%
%TF.FileFunction,Soldermask,Top*%
%TF.FilePolarity,Negative*%
%FSLAX46Y46*%
G04 Gerber Fmt 4.6, Leading zero omitted, Abs format (unit mm)*
G04 Created by KiCad (PCBNEW 9.0.4) date 2025-10-14 21:42:09*
%MOMM*%
%LPD*%
G01*
G04 APERTURE LIST*
G04 Aperture macros list*
%AMRoundRect*
0 Rectangle with rounded corners*
0 $1 Rounding radius*
0 $2 $3 $4 $5 $6 $7 $8 $9 X,Y pos of 4 corners*
0 Add a 4 corners polygon primitive as box body*
4,1,4,$2,$3,$4,$5,$6,$7,$8,$9,$2,$3,0*
0 Add four circle primitives for the rounded corners*
1,1,$1+$1,$2,$3*
1,1,$1+$1,$4,$5*
1,1,$1+$1,$6,$7*
1,1,$1+$1,$8,$9*
0 Add four rect primitives between the rounded corners*
20,1,$1+$1,$2,$3,$4,$5,0*
20,1,$1+$1,$4,$5,$6,$7,0*
20,1,$1+$1,$6,$7,$8,$9,0*
20,1,$1+$1,$8,$9,$2,$3,0*%
%AMFreePoly0*
4,1,23,0.500000,-0.750000,0.000000,-0.750000,0.000000,-0.745722,-0.065263,-0.745722,-0.191342,-0.711940,-0.304381,-0.646677,-0.396677,-0.554381,-0.461940,-0.441342,-0.495722,-0.315263,-0.495722,-0.250000,-0.500000,-0.250000,-0.500000,0.250000,-0.495722,0.250000,-0.495722,0.315263,-0.461940,0.441342,-0.396677,0.554381,-0.304381,0.646677,-0.191342,0.711940,-0.065263,0.745722,0.000000,0.745722,
0.000000,0.750000,0.500000,0.750000,0.500000,-0.750000,0.500000,-0.750000,$1*%
%AMFreePoly1*
4,1,23,0.000000,0.745722,0.065263,0.745722,0.191342,0.711940,0.304381,0.646677,0.396677,0.554381,0.461940,0.441342,0.495722,0.315263,0.495722,0.250000,0.500000,0.250000,0.500000,-0.250000,0.495722,-0.250000,0.495722,-0.315263,0.461940,-0.441342,0.396677,-0.554381,0.304381,-0.646677,0.191342,-0.711940,0.065263,-0.745722,0.000000,-0.745722,0.000000,-0.750000,-0.500000,-0.750000,
-0.500000,0.750000,0.000000,0.750000,0.000000,0.745722,0.000000,0.745722,$1*%
%AMFreePoly2*
4,1,23,0.550000,-0.750000,0.000000,-0.750000,0.000000,-0.745722,-0.065263,-0.745722,-0.191342,-0.711940,-0.304381,-0.646677,-0.396677,-0.554381,-0.461940,-0.441342,-0.495722,-0.315263,-0.495722,-0.250000,-0.500000,-0.250000,-0.500000,0.250000,-0.495722,0.250000,-0.495722,0.315263,-0.461940,0.441342,-0.396677,0.554381,-0.304381,0.646677,-0.191342,0.711940,-0.065263,0.745722,0.000000,0.745722,
0.000000,0.750000,0.550000,0.750000,0.550000,-0.750000,0.550000,-0.750000,$1*%
%AMFreePoly3*
4,1,23,0.000000,0.745722,0.065263,0.745722,0.191342,0.711940,0.304381,0.646677,0.396677,0.554381,0.461940,0.441342,0.495722,0.315263,0.495722,0.250000,0.500000,0.250000,0.500000,-0.250000,0.495722,-0.250000,0.495722,-0.315263,0.461940,-0.441342,0.396677,-0.554381,0.304381,-0.646677,0.191342,-0.711940,0.065263,-0.745722,0.000000,-0.745722,0.000000,-0.750000,-0.550000,-0.750000,
-0.550000,0.750000,0.000000,0.750000,0.000000,0.745722,0.000000,0.745722,$1*%
G04 Aperture macros list end*
%ADD10C,2.200000*%
%ADD11FreePoly0,0.000000*%
%ADD12FreePoly1,0.000000*%
%ADD13FreePoly2,90.000000*%
%ADD14R,1.500000X1.000000*%
%ADD15FreePoly3,90.000000*%
%ADD16C,2.540000*%
%ADD17R,2.000000X1.500000*%
%ADD18C,1.800000*%
%ADD19RoundRect,0.250000X-0.600000X-0.600000X0.600000X-0.600000X0.600000X0.600000X-0.600000X0.600000X0*%
%ADD20C,1.700000*%
%ADD21RoundRect,0.250000X0.600000X-0.600000X0.600000X0.600000X-0.600000X0.600000X-0.600000X-0.600000X0*%
%ADD22R,1.700000X1.700000*%
G04 APERTURE END LIST*
%TO.C,JP8*%
G36*
X46641780Y-135440146D02*
G01*
X46941780Y-135440146D01*
X46941780Y-136940146D01*
X46641780Y-136940146D01*
X46641780Y-135440146D01*
G37*
%TO.C,JP4*%
G36*
X63258000Y-142482000D02*
G01*
X64758000Y-142482000D01*
X64758000Y-140982000D01*
X63258000Y-140982000D01*
X63258000Y-142482000D01*
G37*
%TO.C,JP3*%
G36*
X46641780Y-129875782D02*
G01*
X46941780Y-129875782D01*
X46941780Y-131375782D01*
X46641780Y-131375782D01*
X46641780Y-129875782D01*
G37*
%TO.C,JP10*%
G36*
X50782167Y-131164352D02*
G01*
X51082167Y-131164352D01*
X51082167Y-132664352D01*
X50782167Y-132664352D01*
X50782167Y-131164352D01*
G37*
%TO.C,JP11*%
G36*
X50782167Y-135508901D02*
G01*
X51082167Y-135508901D01*
X51082167Y-137008901D01*
X50782167Y-137008901D01*
X50782167Y-135508901D01*
G37*
%TO.C,JP9*%
G36*
X46641780Y-132650044D02*
G01*
X46941780Y-132650044D01*
X46941780Y-134150044D01*
X46641780Y-134150044D01*
X46641780Y-132650044D01*
G37*
%TO.C,JP6*%
G36*
X60922717Y-134464146D02*
G01*
X62422717Y-134464146D01*
X62422717Y-132964146D01*
X60922717Y-132964146D01*
X60922717Y-134464146D01*
G37*
%TO.C,JP7*%
G36*
X65090647Y-134464146D02*
G01*
X66590647Y-134464146D01*
X66590647Y-132964146D01*
X65090647Y-132964146D01*
X65090647Y-134464146D01*
G37*
%TD*%
D10*
%TO.C,SW5*%
X273177000Y-73596500D03*
X266827000Y-76136500D03*
%TD*%
%TO.C,SW11*%
X278041000Y-111711500D03*
X271691000Y-114251500D03*
%TD*%
%TO.C,SW12*%
X292227000Y-73596500D03*
X285877000Y-76136500D03*
%TD*%
%TO.C,SW14*%
X282702000Y-54546500D03*
X276352000Y-57086500D03*
%TD*%
%TO.C,SW15*%
X35052000Y-54546500D03*
X28702000Y-57086500D03*
%TD*%
%TO.C,SW20*%
X249428000Y-111696500D03*
X243078000Y-114236500D03*
%TD*%
%TO.C,SW21*%
X211328000Y-111696500D03*
X204978000Y-114236500D03*
%TD*%
%TO.C,SW22*%
X173228000Y-111696500D03*
X166878000Y-114236500D03*
%TD*%
%TO.C,SW23*%
X135128000Y-111696500D03*
X128778000Y-114236500D03*
%TD*%
%TO.C,SW24*%
X97028000Y-111696500D03*
X90678000Y-114236500D03*
%TD*%
%TO.C,SW27*%
X282956000Y-92646500D03*
X276606000Y-95186500D03*
%TD*%
%TO.C,SW28*%
X230378000Y-111696500D03*
X224028000Y-114236500D03*
%TD*%
%TO.C,SW29*%
X192278000Y-111696500D03*
X185928000Y-114236500D03*
%TD*%
%TO.C,SW30*%
X154178000Y-111696500D03*
X147828000Y-114236500D03*
%TD*%
%TO.C,SW32*%
X77978000Y-111696500D03*
X71628000Y-114236500D03*
%TD*%
%TO.C,SW36*%
X240030000Y-92646500D03*
X233680000Y-95186500D03*
%TD*%
%TO.C,SW40*%
X87630000Y-92646500D03*
X81280000Y-95186500D03*
%TD*%
%TO.C,SW44*%
X220980000Y-92646500D03*
X214630000Y-95186500D03*
%TD*%
%TO.C,SW47*%
X106680000Y-92646500D03*
X100330000Y-95186500D03*
%TD*%
%TO.C,SW52*%
X235077000Y-73596500D03*
X228727000Y-76136500D03*
%TD*%
%TO.C,SW53*%
X196977000Y-73596500D03*
X190627000Y-76136500D03*
%TD*%
%TO.C,SW55*%
X120777000Y-73596500D03*
X114427000Y-76136500D03*
%TD*%
%TO.C,SW56*%
X82677000Y-73596500D03*
X76327000Y-76136500D03*
%TD*%
%TO.C,SW59*%
X254127000Y-73596500D03*
X247777000Y-76136500D03*
%TD*%
%TO.C,SW60*%
X216027000Y-73596500D03*
X209677000Y-76136500D03*
%TD*%
%TO.C,SW61*%
X177927000Y-73596500D03*
X171577000Y-76136500D03*
%TD*%
%TO.C,SW62*%
X139827000Y-73596500D03*
X133477000Y-76136500D03*
%TD*%
%TO.C,SW63*%
X101727000Y-73596500D03*
X95377000Y-76136500D03*
%TD*%
%TO.C,SW70*%
X149352000Y-54546500D03*
X143002000Y-57086500D03*
%TD*%
%TO.C,SW75*%
X244602000Y-54546500D03*
X238252000Y-57086500D03*
%TD*%
%TO.C,SW77*%
X168402000Y-54546500D03*
X162052000Y-57086500D03*
%TD*%
%TO.C,SW78*%
X130302000Y-54546500D03*
X123952000Y-57086500D03*
%TD*%
%TO.C,SW64*%
X63627000Y-73596500D03*
X57277000Y-76136500D03*
%TD*%
%TO.C,SW16*%
X49403000Y-111696500D03*
X43053000Y-114236500D03*
%TD*%
%TO.C,SW68*%
X225552000Y-54546500D03*
X219202000Y-57086500D03*
%TD*%
%TO.C,SW4*%
X259080000Y-92646500D03*
X252730000Y-95186500D03*
%TD*%
%TO.C,SW79*%
X92202000Y-54546500D03*
X85852000Y-57086500D03*
%TD*%
%TO.C,SW71*%
X111252000Y-54546500D03*
X104902000Y-57086500D03*
%TD*%
%TO.C,SW72*%
X73152000Y-54546500D03*
X66802000Y-57086500D03*
%TD*%
%TO.C,SW80*%
X54102000Y-54546500D03*
X47752000Y-57086500D03*
%TD*%
%TO.C,SW8*%
X39814500Y-73596500D03*
X33464500Y-76136500D03*
%TD*%
%TO.C,SW7*%
X263652000Y-54546500D03*
X257302000Y-57086500D03*
%TD*%
%TO.C,SW39*%
X125730000Y-92646500D03*
X119380000Y-95186500D03*
%TD*%
%TO.C,SW37*%
X201930000Y-92646500D03*
X195580000Y-95186500D03*
%TD*%
%TO.C,SW38*%
X163830000Y-92646500D03*
X157480000Y-95186500D03*
%TD*%
%TO.C,SW46*%
X144780000Y-92646500D03*
X138430000Y-95186500D03*
%TD*%
%TO.C,SW45*%
X182880000Y-92646500D03*
X176530000Y-95186500D03*
%TD*%
%TO.C,SW31*%
X116078000Y-111696500D03*
X109728000Y-114236500D03*
%TD*%
%TO.C,SW67*%
X92265500Y-130746500D03*
X85915500Y-133286500D03*
%TD*%
%TO.C,SW48*%
X68580000Y-92646500D03*
X62230000Y-95186500D03*
%TD*%
%TO.C,SW54*%
X158877000Y-73596500D03*
X152527000Y-76136500D03*
%TD*%
%TO.C,SW320*%
X44704000Y-92583000D03*
X38354000Y-95123000D03*
%TD*%
%TO.C,SW76*%
X206502000Y-54546500D03*
X200152000Y-57086500D03*
%TD*%
%TO.C,SW69*%
X187452000Y-54546500D03*
X181102000Y-57086500D03*
%TD*%
%TO.C,SW3*%
X237490000Y-130746500D03*
X231140000Y-133286500D03*
%TD*%
%TO.C,SW6*%
X166078000Y-130746500D03*
X159728000Y-133286500D03*
%TD*%
%TO.C,SW66*%
X345821000Y-54559200D03*
X339471000Y-57099200D03*
%TD*%
%TO.C,SW74*%
X326771000Y-54559200D03*
X320421000Y-57099200D03*
%TD*%
%TO.C,SW58*%
X326771000Y-73609200D03*
X320421000Y-76149200D03*
%TD*%
%TO.C,SW65*%
X383921000Y-54559200D03*
X377571000Y-57099200D03*
%TD*%
%TO.C,SW73*%
X364871000Y-54559200D03*
X358521000Y-57099200D03*
%TD*%
%TO.C,SW50*%
X345821000Y-73609200D03*
X339471000Y-76149200D03*
%TD*%
%TO.C,SW10*%
X326771000Y-130759200D03*
X320421000Y-133299200D03*
%TD*%
%TO.C,SW41*%
X364871000Y-92659200D03*
X358521000Y-95199200D03*
%TD*%
%TO.C,SW33*%
X383921000Y-92659200D03*
X377571000Y-95199200D03*
%TD*%
%TO.C,SW25*%
X364871000Y-111709200D03*
X358521000Y-114249200D03*
%TD*%
%TO.C,SW17*%
X383921000Y-111709200D03*
X377571000Y-114249200D03*
%TD*%
%TO.C,SW26*%
X326771000Y-111709200D03*
X320421000Y-114249200D03*
%TD*%
%TO.C,SW57*%
X364871000Y-73609200D03*
X358521000Y-76149200D03*
%TD*%
%TO.C,SW42*%
X326771000Y-92659200D03*
X320421000Y-95199200D03*
%TD*%
%TO.C,SW34*%
X345821000Y-92659200D03*
X339471000Y-95199200D03*
%TD*%
%TO.C,SW9*%
X364871000Y-130759200D03*
X358521000Y-133299200D03*
%TD*%
%TO.C,SW18*%
X345821000Y-111709200D03*
X339471000Y-114249200D03*
%TD*%
%TO.C,SW49*%
X383921000Y-73609200D03*
X377571000Y-76149200D03*
%TD*%
%TO.C,SW1*%
X383921000Y-130759200D03*
X377571000Y-133299200D03*
%TD*%
%TO.C,SW2*%
X345821000Y-130759200D03*
X339471000Y-133299200D03*
%TD*%
D11*
%TO.C,JP8*%
X46141780Y-136190146D03*
D12*
X47441780Y-136190146D03*
%TD*%
D13*
%TO.C,JP4*%
X64008000Y-143032000D03*
D14*
X64008000Y-141732000D03*
D15*
X64008000Y-140432000D03*
%TD*%
D11*
%TO.C,JP3*%
X46141780Y-130625782D03*
D12*
X47441780Y-130625782D03*
%TD*%
D11*
%TO.C,JP10*%
X50282167Y-131914352D03*
D12*
X51582167Y-131914352D03*
%TD*%
D11*
%TO.C,JP11*%
X50282167Y-136258901D03*
D12*
X51582167Y-136258901D03*
%TD*%
D16*
%TO.C,U5*%
X310709000Y-128018000D03*
X310709000Y-138018000D03*
X298059000Y-138018000D03*
X298059000Y-128018000D03*
D17*
X300884000Y-127268000D03*
X307884000Y-127268000D03*
X307884000Y-122768000D03*
X300884000Y-122768000D03*
D18*
X306884000Y-141748000D03*
X304384000Y-141748000D03*
X301884000Y-141748000D03*
X295654000Y-135518000D03*
X295654000Y-133018000D03*
X295654000Y-130518000D03*
%TD*%
D11*
%TO.C,JP9*%
X46141780Y-133400044D03*
D12*
X47441780Y-133400044D03*
%TD*%
D13*
%TO.C,JP6*%
X61672717Y-135014146D03*
D14*
X61672717Y-133714146D03*
D15*
X61672717Y-132414146D03*
%TD*%
D19*
%TO.C,J7*%
X306587500Y-77211000D03*
D20*
X309127500Y-77211000D03*
X306587500Y-79751000D03*
X309127500Y-79751000D03*
X306587500Y-82291000D03*
X309127500Y-82291000D03*
%TD*%
D13*
%TO.C,JP7*%
X65840647Y-135014146D03*
D14*
X65840647Y-133714146D03*
D15*
X65840647Y-132414146D03*
%TD*%
D21*
%TO.C,J4*%
X301239000Y-64760500D03*
D20*
X301239000Y-62220500D03*
X303779000Y-64760500D03*
X303779000Y-62220500D03*
X306319000Y-64760500D03*
X306319000Y-62220500D03*
%TD*%
D22*
%TO.C,J1*%
X234099100Y-48615600D03*
D20*
X231559100Y-48615600D03*
X229019100Y-48615600D03*
X226479100Y-48615600D03*
X223939100Y-48615600D03*
X221399100Y-48615600D03*
X218859100Y-48615600D03*
X216319100Y-48615600D03*
X213779100Y-48615600D03*
X211239100Y-48615600D03*
X208699100Y-48615600D03*
X206159100Y-48615600D03*
X203619100Y-48615600D03*
X201079100Y-48615600D03*
X198539100Y-48615600D03*
X195999100Y-48615600D03*
X193459100Y-48615600D03*
X190919100Y-48615600D03*
X188379100Y-48615600D03*
X185839100Y-48615600D03*
X185839100Y-51155600D03*
X188379100Y-51155600D03*
X190919100Y-51155600D03*
X193459100Y-51155600D03*
X195999100Y-51155600D03*
X198539100Y-51155600D03*
X201079100Y-51155600D03*
X203619100Y-51155600D03*
X206159100Y-51155600D03*
X208699100Y-51155600D03*
%TD*%
M02*
