M48
; DRILL file {KiCad 9.0.3+dfsg-1} date 2026-03-08T21:26:10+0100
; FORMAT={-:-/ absolute / inch / decimal}
; #@! TF.CreationDate,2026-03-08T21:26:10+01:00
; #@! TF.GenerationSoftware,Kicad,Pcbnew,9.0.3+dfsg-1
; #@! TF.FileFunction,Plated,1,2,PTH
FMAT,2
INCH
; #@! TA.AperFunction,Plated,PTH,ViaDrill
T1C0.0157
; #@! TA.AperFunction,Plated,PTH,ComponentDrill
T2C0.0394
; #@! TA.AperFunction,Plated,PTH,ComponentDrill
T3C0.0433
; #@! TA.AperFunction,Plated,PTH,ComponentDrill
T4C0.0591
; #@! TA.AperFunction,Plated,PTH,ComponentDrill
T5C0.0630
%
G90
G05
T1
X1.1024Y-2.4606
X1.1319Y-3.2776
X1.2008Y-5.0492
X1.2126Y-4.122
X1.2283Y-3.3622
X1.2697Y-3.2677
X1.2795Y-3.9961
X1.3583Y-3.2185
X1.3878Y-2.6083
X1.4469Y-2.5197
X1.4862Y-4.0059
X1.5285Y-4.1378
X1.565Y-3.3563
X1.626Y-4.8425
X1.6511Y-3.2887
X1.6732Y-3.4154
X1.7224Y-5.0098
X1.7323Y-4.7244
X1.752Y-4.1043
X1.7658Y-3.9232
X1.9094Y-3.2087
X1.9193Y-2.4409
X1.939Y-4.8524
X1.9488Y-5.1772
X2.0374Y-2.1358
X2.0571Y-5.0984
X2.0768Y-5.1969
X2.0945Y-3.3563
X2.0965Y-5.3642
X2.1161Y-5.1378
X2.126Y-2.5984
X2.126Y-5.1969
X2.2146Y-2.5098
X2.2441Y-4.0945
X2.2762Y-3.3813
X2.2901Y-3.3051
X2.3031Y-3.2087
X2.3327Y-3.4843
X2.372Y-2.8051
X2.3898Y-4.8254
X2.4114Y-4.2224
X2.4311Y-2.8346
X2.4705Y-3.9567
X2.4803Y-5.5118
X2.4902Y-5.1772
X2.5Y-4.1634
X2.5098Y-3.4144
X2.5394Y-3.5827
X2.5689Y-3.2579
X2.5984Y-2.5689
X2.5984Y-5.1575
X2.6575Y-2.4415
X2.6969Y-4.1142
X2.7264Y-2.2146
X2.7559Y-4.0059
X2.8445Y-4.8917
X2.8543Y-3.9567
X2.8642Y-4.6949
X2.8644Y-3.3633
X2.874Y-2.6181
X2.9108Y-4.2028
X2.9626Y-3.3169
X3.0413Y-3.2087
X3.0413Y-4.1732
X3.0709Y-2.2638
X3.0709Y-4.8622
X3.0709Y-5.2953
X3.1004Y-2.8445
X3.1102Y-2.7854
X3.1201Y-2.687
X3.1201Y-4.7638
X3.1791Y-2.0914
X3.1791Y-4.065
X3.2283Y-2.2146
X3.2382Y-3.9764
X3.248Y-3.4055
X3.248Y-4.6949
X3.3169Y-3.5335
X3.3268Y-4.8917
X3.3957Y-2.4415
X3.4252Y-5.4626
X3.4449Y-4.1142
X3.4614Y-5.6321
X3.4744Y-5.2165
X3.4843Y-2.0965
X3.4941Y-2.0374
X3.5433Y-4.8228
X3.6024Y-4.6949
X3.6319Y-2.6083
X3.6909Y-5.502
X3.6953Y-4.153
X3.711Y-2.5764
X3.7584Y-3.3543
X3.7894Y-3.1988
X3.8189Y-2.6083
X3.8189Y-4.8622
X3.8484Y-2.8642
X3.8681Y-5.4724
X3.878Y-4.9045
X3.937Y-2.4415
X3.9961Y-3.9665
X3.9961Y-4.8622
X4.0059Y-3.4154
X4.0157Y-2.1736
X4.0453Y-5.4724
X4.0619Y-3.5796
X4.0748Y-3.2677
X4.1142Y-4.6949
X4.124Y-3.4744
X4.1437Y-2.4705
X4.1739Y-2.5748
X4.1929Y-3.4154
X4.1929Y-4.1142
X4.2618Y-2.1841
X4.2618Y-4.0059
X4.311Y-3.189
X4.3602Y-4.6949
X4.3799Y-2.6083
X4.4193Y-4.1142
X4.4193Y-4.2126
X4.5119Y-3.3175
X4.5306Y-3.3613
X4.5374Y-3.1988
X4.5374Y-3.9567
X4.5669Y-4.8622
X4.5965Y-2.8051
X4.5975Y-4.1427
X4.6063Y-4.6949
X4.6318Y-4.7678
X4.6457Y-5.4813
X4.6487Y-5.189
X4.685Y-4.065
X4.7343Y-3.9665
X4.7441Y-3.4055
X4.7822Y-4.2126
X4.8031Y-3.5531
X4.8071Y-5.1811
X4.8127Y-4.1719
X4.813Y-3.4646
X4.8652Y-2.4301
X4.9542Y-4.1059
X4.9902Y-2.0965
X5.0098Y-4.1634
X5.0394Y-4.8228
X5.1181Y-4.7047
X5.1181Y-5.4813
X5.128Y-2.6083
X5.1476Y-3.4941
X5.1673Y-4.2717
X5.1673Y-5.0787
X5.1969Y-2.5
X5.2461Y-5.0886
X5.2854Y-3.189
X5.315Y-3.6417
X5.315Y-4.8622
X5.3445Y-2.8346
X5.3543Y-5.4921
X5.378Y-5.1811
X5.4035Y-4.9606
X5.4429Y-2.6673
X5.4696Y-5.5183
X5.4921Y-3.9567
X5.5118Y-3.3957
X5.5512Y-3.5827
X5.5709Y-3.2579
X5.5807Y-5.3937
X5.5807Y-5.4429
X5.5906Y-2.5689
X5.6425Y-5.1238
X5.6496Y-2.4311
X5.6496Y-3.435
X5.6929Y-4.8622
X5.6988Y-4.1142
X5.7283Y-2.2047
X5.7579Y-3.9862
X5.7776Y-5.3445
X5.7874Y-5.4921
X5.7909Y-5.254
X5.8111Y-5.2915
X5.8366Y-4.8917
X5.8393Y-5.5226
X5.8563Y-4.7047
X5.876Y-2.6083
X5.9154Y-4.3012
X5.935Y-2.6673
X5.9941Y-3.3169
X6.0029Y-5.4833
X6.0286Y-5.5157
X6.0433Y-3.1988
X6.063Y-4.8622
X6.0728Y-3.9665
X6.0925Y-2.6083
X6.0976Y-2.8041
X6.1024Y-5.5226
X6.1417Y-4.7638
X6.1811Y-4.0748
X6.2205Y-2.4311
X6.2396Y-3.3805
X6.2402Y-3.9665
X6.2697Y-3.435
X6.2795Y-4.8622
X6.2992Y-3.563
X6.2992Y-5.6201
X6.3168Y-5.4427
X6.391Y-4.7015
X6.393Y-4.9104
X6.4094Y-2.433
X6.4469Y-4.1142
X6.4567Y-3.3858
X6.4567Y-4.6949
X6.4764Y-2.0669
X6.5265Y-4.8533
X6.5544Y-4.7895
X6.5748Y-3.1988
X6.603Y-4.2707
X6.6043Y-4.6949
X6.624Y-2.6181
X6.6339Y-3.3858
X6.6535Y-4.1142
X6.6831Y-2.5098
X6.7717Y-3.9665
X6.7815Y-2.6083
X6.8008Y-3.2181
X6.8252Y-4.8435
X6.8504Y-2.8346
X6.8602Y-3.435
X6.9587Y-4.2421
X6.992Y-3.4143
X7.0026Y-3.9612
X7.0079Y-3.376
X7.0571Y-3.2579
X7.0571Y-3.5955
X7.061Y-2.7569
X7.1161Y-2.5689
X7.1457Y-4.8435
X7.1471Y-4.1562
X7.1605Y-5.4639
X7.1949Y-4.1043
X7.1949Y-5.0295
X7.2017Y-2.44
X7.2198Y-5.1136
X7.2343Y-2.185
X7.2411Y-5.5444
X7.2468Y-2.677
X7.2539Y-5.3642
X7.2638Y-4.0157
X7.314Y-2.6624
X7.3306Y-4.1428
X7.3425Y-4.3012
X7.3622Y-4.7047
X7.3747Y-4.8804
X7.3768Y-2.6059
X7.4016Y-5.1378
X7.4204Y-2.7726
X7.4213Y-2.5098
X7.4342Y-5.1739
X7.4527Y-4.9947
X7.4567Y-5.0968
X7.459Y-5.3788
X7.4606Y-2.0864
X7.4606Y-5.4232
X7.4814Y-2.7665
X7.4902Y-3.3169
X7.4925Y-5.3425
X7.5492Y-3.2087
X7.5689Y-5.5536
X7.5712Y-2.9588
X7.5778Y-2.6073
X7.5787Y-4.8579
X7.5886Y-5.2953
X7.5952Y-2.6733
X7.6181Y-4.7539
X7.6181Y-5.2461
X7.628Y-4.5079
X7.6673Y-5.6496
X7.6746Y-2.7736
X7.6753Y-2.6397
X7.6772Y-4.065
X7.6778Y-2.8148
X7.7039Y-4.3317
X7.7165Y-2.6378
X7.7264Y-5.7185
X7.7356Y-5.2623
X7.7461Y-3.9665
X7.7559Y-3.3858
X7.7598Y-5.1394
X7.7657Y-2.628
X7.7756Y-5.5512
X7.7805Y-2.4415
X7.7953Y-3.4143
X7.7953Y-3.5778
X7.8137Y-5.3076
X7.8307Y-4.7047
X7.8626Y-5.1243
X7.8627Y-4.8917
X7.8659Y-2.6857
X7.8937Y-5.2165
X7.8979Y-2.9152
X7.9035Y-2.8543
X7.9071Y-5.3106
X7.9134Y-2.4213
X7.9405Y-2.1004
X7.9429Y-4.1142
X7.9575Y-4.8504
X7.9724Y-2.7756
X7.9724Y-5.0
X7.9724Y-5.6496
X8.0217Y-5.3051
X8.0413Y-3.4143
X8.0483Y-2.7157
X8.0512Y-4.7935
X8.0512Y-5.5512
X8.0578Y-4.949
X8.0679Y-3.2579
X8.0817Y-3.9961
X8.0832Y-5.0296
X8.093Y-2.6384
X8.1102Y-4.7047
X8.1132Y-3.5244
X8.1151Y-5.0858
X8.1375Y-2.5974
X8.1602Y-2.2313
X8.1634Y-4.253
X8.1646Y-5.1781
X8.1791Y-2.5098
X8.185Y-4.1933
X8.1986Y-5.0768
X8.2007Y-4.155
X8.2274Y-5.1332
X8.2382Y-5.5512
X8.2417Y-4.2709
X8.2495Y-5.0379
X8.2677Y-3.1988
X8.2734Y-2.7467
X8.3065Y-3.2402
X8.3071Y-5.2559
X8.3071Y-5.5512
X8.3169Y-4.8356
X8.3482Y-2.7096
X8.3525Y-2.861
X8.3789Y-2.8033
X8.3858Y-4.1476
X8.4111Y-2.8452
X8.4154Y-4.2028
X8.4744Y-3.9665
X8.4996Y-3.3815
X8.557Y-3.5935
X8.563Y-4.3012
X8.5728Y-3.2579
X8.5912Y-4.9783
X8.6094Y-5.1958
X8.6122Y-2.5689
X8.6122Y-4.7736
X8.622Y-3.5925
X8.6319Y-3.4055
X8.6713Y-2.4311
X8.6832Y-2.708
X8.689Y-4.11
X8.6909Y-5.3248
X8.7008Y-5.6398
X8.7215Y-4.0059
X8.7303Y-4.7736
X8.7313Y-4.1908
X8.75Y-2.6476
X8.7611Y-2.1566
X8.7912Y-3.5992
X8.8031Y-3.5433
X8.8091Y-4.2835
X8.8287Y-5.3543
X8.8337Y-3.1752
X8.8419Y-5.5681
X8.8583Y-4.3307
X8.8583Y-4.7047
X8.8648Y-2.7667
X8.878Y-2.5984
X8.878Y-4.1831
X8.878Y-5.3642
X8.8976Y-4.3012
X8.9185Y-2.6341
X8.9401Y-4.9058
X8.9489Y-4.2815
X8.9659Y-5.5904
X8.9775Y-4.9339
X8.9862Y-3.314
X9.0155Y-5.5815
X9.0274Y-3.6042
X9.0354Y-4.1831
X9.0453Y-3.2185
X9.065Y-4.8622
X9.1127Y-2.8323
X9.1142Y-4.7638
X9.1437Y-2.0768
X9.1437Y-5.4626
X9.1606Y-4.9516
X9.183Y-2.1583
X9.1863Y-4.0519
X9.2224Y-2.5984
X9.2224Y-4.9213
X9.2421Y-3.9567
X9.248Y-3.621
X9.3009Y-3.3667
X9.3012Y-4.8622
X9.3504Y-3.3957
X9.3957Y-5.5256
X9.4193Y-2.44
X9.4193Y-4.7047
X9.439Y-4.1634
X9.439Y-4.3975
X9.4488Y-4.1043
X9.4488Y-5.6791
X9.4541Y-5.5566
X9.4685Y-3.3858
X9.4929Y-2.0463
X9.5071Y-5.796
X9.5472Y-4.1043
X9.5571Y-4.8228
X9.5866Y-3.2185
X9.5951Y-4.2177
X9.5965Y-4.7047
X9.6133Y-5.7785
X9.626Y-2.6181
X9.6457Y-3.9665
X9.6654Y-4.1043
X9.7315Y-5.5748
X9.742Y-5.4783
X9.7736Y-5.5118
X9.7933Y-3.2185
X9.7933Y-3.9567
X9.8058Y-4.8506
X9.8327Y-2.6083
X9.8583Y-4.7578
X9.8622Y-4.9852
X9.872Y-3.4055
X9.872Y-5.4134
X9.8887Y-2.7972
X9.8919Y-4.6852
X9.9266Y-2.8137
X9.9481Y-3.5817
X9.9803Y-3.9469
X9.9949Y-5.4518
X9.9999Y-2.4372
X10.0151Y-3.3755
X10.0194Y-5.2724
X10.0295Y-4.6811
X10.0689Y-3.2579
X10.0689Y-5.3051
X10.0698Y-4.745
X10.0747Y-2.7972
X10.1129Y-2.5098
X10.1191Y-3.5476
X10.128Y-5.7382
X10.1368Y-3.5077
X10.1378Y-4.7441
X10.1476Y-4.3996
X10.1476Y-5.502
X10.1575Y-2.4705
X10.1584Y-5.106
X10.1939Y-5.1702
X10.1969Y-4.1142
X10.1969Y-5.6201
X10.2067Y-2.9536
X10.2264Y-2.0965
X10.2301Y-5.1502
X10.2362Y-4.0059
X10.2372Y-3.0169
X10.2461Y-5.0197
X10.2526Y-5.5505
X10.2651Y-2.6787
X10.2657Y-4.626
X10.2706Y-4.3591
X10.2763Y-5.1068
X10.2854Y-4.7956
X10.2964Y-2.7057
X10.2979Y-5.3793
X10.3065Y-5.4199
X10.315Y-5.748
X10.3264Y-2.6772
X10.3642Y-2.6575
X10.3839Y-2.6083
X10.4207Y-5.2744
X10.4232Y-2.7362
X10.4372Y-3.6113
X10.4429Y-2.5197
X10.4528Y-5.3346
X10.4789Y-3.4439
X10.4921Y-5.7185
X10.4971Y-4.7509
X10.503Y-4.9097
X10.5118Y-5.4331
X10.5126Y-4.7126
X10.5315Y-5.6988
X10.5323Y-3.907
X10.5373Y-5.5322
X10.5404Y-4.7918
X10.5413Y-2.0866
X10.548Y-3.2234
X10.5512Y-5.374
X10.5642Y-5.0006
X10.5649Y-5.4803
X10.5784Y-5.4413
X10.5912Y-4.6188
X10.6064Y-4.9289
X10.6102Y-3.4252
X10.6299Y-2.5197
X10.6329Y-4.4296
X10.6496Y-5.1181
X10.6496Y-5.3937
X10.6496Y-5.5709
X10.6643Y-4.6921
X10.6726Y-5.4265
X10.6791Y-5.6791
X10.689Y-2.8839
X10.689Y-3.5039
X10.6988Y-5.3937
X10.7185Y-4.2171
X10.7185Y-5.5512
X10.7396Y-4.6921
X10.748Y-3.376
X10.7506Y-5.3981
X10.7528Y-5.6683
X10.7571Y-5.2343
X10.7579Y-5.2756
X10.7677Y-5.3445
X10.7677Y-5.4341
X10.7972Y-4.3012
X10.8127Y-3.3359
X10.8169Y-5.2165
X10.8357Y-4.9746
X10.8957Y-5.0787
X10.9008Y-5.0207
X10.9154Y-2.4606
X10.9154Y-3.9415
X10.9166Y-5.185
X10.9198Y-5.3223
X10.9375Y-5.4944
X10.9442Y-4.8276
X10.9449Y-3.2579
X10.9449Y-3.3268
X10.9646Y-5.1181
X10.9744Y-2.2244
X10.9754Y-4.8878
X10.9843Y-3.5827
X10.9969Y-5.4185
X11.0138Y-4.9301
X11.0551Y-4.9301
X11.0856Y-4.8889
X11.0925Y-5.4528
X11.1018Y-4.3596
X11.122Y-5.6496
X11.1283Y-4.1106
X11.1329Y-4.4461
X11.1353Y-2.8632
X11.1366Y-3.5207
X11.1526Y-4.3241
X11.1553Y-4.8871
X11.1614Y-5.6988
X11.1633Y-5.0835
X11.1734Y-2.6387
X11.1989Y-5.0328
X11.2045Y-5.0902
X11.2114Y-5.4836
X11.2288Y-5.1227
X11.2376Y-5.3019
X11.2402Y-4.4488
X11.2614Y-3.3098
X11.2969Y-3.2179
X11.3189Y-2.2638
X11.3287Y-4.0551
X11.3473Y-5.4619
X11.3583Y-4.0846
X11.3681Y-3.7894
X11.3976Y-4.6752
X11.4075Y-5.3937
X11.4075Y-5.6791
X11.4331Y-4.7933
X11.439Y-4.3307
X11.4567Y-5.315
X11.466Y-3.5143
X11.4665Y-4.7047
X11.4724Y-3.9469
X11.4843Y-5.2165
X11.4921Y-5.5118
X11.5Y-5.1123
X11.5059Y-3.376
X11.5444Y-4.806
X11.5544Y-2.6324
X11.5638Y-3.3947
X11.565Y-2.4496
X11.6142Y-4.3209
X11.6259Y-3.9056
X11.6386Y-4.7451
X11.6565Y-4.8298
X11.6634Y-4.4193
X11.6634Y-5.6791
X11.7156Y-4.4556
X11.7323Y-2.7067
X11.7717Y-2.2539
X11.8406Y-3.7795
X11.8504Y-2.7362
X11.8583Y-3.3957
X11.8799Y-4.6752
X11.8898Y-3.5236
X11.8898Y-4.3209
X11.8957Y-3.1652
X11.9094Y-3.8386
X11.9291Y-3.1978
X11.939Y-2.7559
X11.9488Y-3.435
X11.9783Y-4.7047
X12.0079Y-4.4783
X12.0472Y-2.7165
X12.0571Y-4.8787
X12.0768Y-3.9567
X12.0768Y-5.6791
X12.1063Y-4.4783
X12.126Y-3.5335
X12.153Y-2.6289
X12.1555Y-3.3169
X12.1654Y-4.4882
X12.185Y-4.1142
X12.1877Y-3.4099
X12.2146Y-4.5571
X12.2177Y-3.9587
X12.2343Y-3.7205
X12.2441Y-3.3169
X12.2573Y-3.947
X12.2638Y-4.6358
X12.2738Y-3.5325
X12.2933Y-3.4144
X12.2936Y-3.9668
X12.3151Y-3.5335
X12.3228Y-3.9961
X12.3228Y-4.3209
X12.3293Y-3.4656
X12.372Y-2.5886
X12.3917Y-4.7047
X12.4114Y-4.8787
X12.4311Y-3.3563
X12.4892Y-3.4595
X12.5098Y-4.1142
X12.5433Y-4.7664
X12.5591Y-3.9469
X12.5679Y-3.4756
X12.5959Y-4.9199
X12.6047Y-3.354
X12.6378Y-5.4626
X12.6476Y-2.4508
X12.6575Y-2.7165
X12.6575Y-3.9469
X12.6575Y-4.7047
X12.6592Y-3.2202
X12.6812Y-5.0669
X12.7067Y-3.5935
X12.7165Y-2.0079
X12.7165Y-2.7756
X12.7165Y-4.311
X12.7762Y-5.0254
X12.8051Y-4.1831
X12.8467Y-4.8682
X12.8543Y-2.6083
X12.8543Y-4.1142
X12.8543Y-5.6201
X12.8642Y-3.376
X12.9093Y-2.5167
X12.9134Y-4.0059
X12.9232Y-4.7539
X12.9331Y-3.2579
X12.9429Y-5.5118
X12.9685Y-4.7129
X12.9921Y-3.9469
X13.002Y-3.2185
X13.0217Y-2.4508
X13.0217Y-4.872
X13.0512Y-5.6201
X13.061Y-3.3661
X13.0709Y-2.5984
X13.0709Y-4.1142
X13.1496Y-4.7047
X13.1693Y-5.4626
X13.189Y-3.2185
X13.1988Y-2.4409
X13.1988Y-3.9567
X13.3169Y-5.5709
X13.3366Y-2.5689
X13.3366Y-4.0748
X13.3366Y-4.813
X13.3465Y-3.3169
X13.3957Y-3.2185
X13.4055Y-2.4311
X13.4055Y-4.7047
X13.4055Y-5.4626
X13.4154Y-3.9469
X13.4416Y-5.0964
X13.4646Y-2.1063
X13.4646Y-3.5531
X13.4744Y-2.815
X13.4744Y-4.2815
X13.6122Y-2.6083
X13.6122Y-3.3661
X13.6122Y-4.1043
X13.6122Y-4.8622
X13.6122Y-5.6102
X13.6614Y-4.9213
X13.6713Y-4.1535
X13.6811Y-2.6476
X13.6909Y-3.4055
X13.7697Y-3.3661
X13.7795Y-4.1142
X13.7894Y-4.8622
X13.8484Y-3.5236
X14.0157Y-2.6969
X14.0157Y-3.4547
X14.0157Y-4.7047
X14.0194Y-5.4903
X14.0581Y-4.9932
X14.0748Y-4.1929
X14.1535Y-2.4606
X14.1535Y-3.2185
X14.1535Y-3.9567
X14.1535Y-4.7146
X14.1535Y-5.4626
X14.2028Y-2.7854
X14.2126Y-3.5827
X14.2126Y-4.311
X14.2224Y-2.0276
X14.2224Y-5.0492
X14.3602Y-2.6083
X14.3602Y-4.1142
X14.3701Y-3.3661
X14.3701Y-4.872
X14.3701Y-5.6102
X14.4094Y-4.0256
X14.4094Y-4.7539
X14.4112Y-5.5298
X14.4193Y-2.5
X14.439Y-3.2579
X14.4882Y-5.6102
X14.7146Y-2.4606
X14.7146Y-3.2185
X14.7146Y-3.9567
X14.7638Y-5.4626
X14.8228Y-4.065
X14.8228Y-5.5709
X14.8327Y-3.3169
X14.8425Y-2.5689
X14.8524Y-4.8228
X14.9016Y-2.4606
X14.9016Y-3.2283
X14.9016Y-3.9665
X14.9016Y-4.7146
X14.9016Y-5.4626
X14.9508Y-2.815
X14.9606Y-4.2815
X14.9606Y-5.0689
X14.9705Y-2.0768
X14.9705Y-3.5433
X15.1083Y-4.1043
X15.1083Y-4.872
X15.1181Y-2.6083
X15.1181Y-3.3563
X15.1181Y-5.6102
X15.1575Y-4.9213
X15.1772Y-3.435
X15.187Y-2.687
X15.187Y-4.1634
X15.187Y-5.0689
X15.2165Y-4.872
X15.2756Y-3.5138
X15.2854Y-5.1181
T2
X7.3165Y-1.914
X7.3165Y-2.014
X7.4165Y-1.914
X7.4165Y-2.014
X7.5165Y-1.914
X7.5165Y-2.014
X7.6165Y-1.914
X7.6165Y-2.014
X7.7165Y-1.914
X7.7165Y-2.014
X7.8165Y-1.914
X7.8165Y-2.014
X7.9165Y-1.914
X7.9165Y-2.014
X8.0165Y-1.914
X8.0165Y-2.014
X8.1165Y-1.914
X8.1165Y-2.014
X8.2165Y-1.914
X8.2165Y-2.014
X8.3165Y-1.914
X8.4165Y-1.914
X8.5165Y-1.914
X8.6165Y-1.914
X8.7165Y-1.914
X8.8165Y-1.914
X8.9165Y-1.914
X9.0165Y-1.914
X9.1165Y-1.914
X9.2165Y-1.914
X11.8598Y-2.4496
X11.8598Y-2.5496
X11.9598Y-2.4496
X11.9598Y-2.5496
X12.0598Y-2.4496
X12.0598Y-2.5496
X12.0704Y-3.0398
X12.0704Y-3.1398
X12.0704Y-3.2398
X12.1704Y-3.0398
X12.1704Y-3.1398
X12.1704Y-3.2398
T3
X11.6399Y-5.1385
X11.6399Y-5.2369
X11.6399Y-5.3354
X11.8852Y-5.5806
X11.9836Y-5.5806
X12.082Y-5.5806
T4
X1.13Y-2.2475
X1.3175Y-2.9975
X1.38Y-2.1475
X1.51Y-3.745
X1.5675Y-2.8975
X1.695Y-4.4975
X1.76Y-3.645
X1.88Y-2.2475
X1.945Y-4.3975
X2.13Y-2.1475
X2.255Y-2.9975
X2.45Y-3.7475
X2.505Y-2.8975
X2.63Y-2.2475
X2.7Y-3.6475
X2.82Y-4.4975
X2.88Y-2.1475
X3.005Y-2.9975
X3.07Y-4.3975
X3.2Y-3.7475
X3.255Y-2.8975
X3.38Y-2.2475
X3.3825Y-5.2475
X3.45Y-3.6475
X3.57Y-4.4975
X3.63Y-2.1475
X3.6325Y-5.1475
X3.755Y-2.9975
X3.82Y-4.3975
X3.95Y-3.7475
X4.005Y-2.8975
X4.13Y-2.2475
X4.2Y-3.6475
X4.32Y-4.4975
X4.38Y-2.1475
X4.505Y-2.9975
X4.57Y-4.3975
X4.7Y-3.7475
X4.755Y-2.8975
X4.88Y-2.2475
X4.95Y-3.6475
X5.07Y-4.4975
X5.13Y-2.1475
X5.255Y-2.9975
X5.32Y-4.3975
X5.45Y-3.7475
X5.505Y-2.8975
X5.63Y-2.2475
X5.7Y-3.6475
X5.82Y-4.4975
X5.88Y-2.1475
X6.005Y-2.9975
X6.07Y-4.3975
X6.2Y-3.7475
X6.255Y-2.8975
X6.2885Y-5.2475
X6.38Y-2.2475
X6.45Y-3.6475
X6.5385Y-5.1475
X6.57Y-4.4975
X6.63Y-2.1475
X6.755Y-2.9975
X6.82Y-4.3975
X6.95Y-3.7475
X7.005Y-2.8975
X7.13Y-2.2475
X7.2Y-3.6475
X7.32Y-4.4975
X7.38Y-2.1475
X7.505Y-2.9975
X7.57Y-4.3975
X7.7Y-3.7475
X7.755Y-2.8975
X7.88Y-2.2475
X7.95Y-3.6475
X8.07Y-4.4975
X8.13Y-2.1475
X8.255Y-2.9975
X8.32Y-4.3975
X8.45Y-3.7475
X8.505Y-2.8975
X8.63Y-2.2475
X8.7Y-3.6475
X8.82Y-4.4975
X8.88Y-2.1475
X9.005Y-2.9975
X9.07Y-4.3975
X9.1Y-5.2475
X9.2Y-3.7475
X9.255Y-2.8975
X9.35Y-5.1475
X9.38Y-2.2475
X9.45Y-3.6475
X9.57Y-4.4975
X9.63Y-2.1475
X9.755Y-2.9975
X9.82Y-4.3975
X9.95Y-3.7475
X10.005Y-2.8975
X10.13Y-2.2475
X10.2Y-3.6475
X10.38Y-2.1475
X10.505Y-2.9975
X10.6965Y-4.4981
X10.755Y-2.8975
X10.88Y-2.2475
X10.89Y-3.7475
X10.9465Y-4.3981
X11.13Y-2.1475
X11.14Y-3.6475
X11.255Y-2.9975
X11.505Y-2.8975
X12.615Y-2.248
X12.615Y-2.998
X12.615Y-3.748
X12.615Y-4.498
X12.615Y-5.248
X12.865Y-2.148
X12.865Y-2.898
X12.865Y-3.648
X12.865Y-4.398
X12.865Y-5.148
X13.365Y-2.248
X13.365Y-2.998
X13.365Y-3.748
X13.365Y-4.498
X13.365Y-5.248
X13.615Y-2.148
X13.615Y-2.898
X13.615Y-3.648
X13.615Y-4.398
X13.615Y-5.148
X14.115Y-2.248
X14.115Y-2.998
X14.115Y-3.748
X14.115Y-4.498
X14.115Y-5.248
X14.365Y-2.148
X14.365Y-2.898
X14.365Y-3.648
X14.365Y-4.398
X14.365Y-5.148
X14.865Y-2.248
X14.865Y-2.998
X14.865Y-3.748
X14.865Y-4.498
X14.865Y-5.248
X15.115Y-2.148
X15.115Y-2.898
X15.115Y-3.648
X15.115Y-4.398
X15.115Y-5.148
T5
X11.7346Y-5.0401
X11.7346Y-5.4338
X12.2326Y-5.0401
X12.2326Y-5.4338
T3
G00X11.8557Y-4.8334
M15
G01X11.836Y-4.8334
M16
G05
G00X11.8557Y-5.0106
M15
G01X11.836Y-5.0106
M16
G05
G00X12.1313Y-4.8334
M15
G01X12.1116Y-4.8334
M16
G05
G00X12.1313Y-5.0106
M15
G01X12.1116Y-5.0106
M16
G05
M30
