M48
; DRILL file {KiCad 9.0.4} date 2025-10-14T21:42:09+0200
; FORMAT={-:-/ absolute / inch / decimal}
; #@! TF.CreationDate,2025-10-14T21:42:09+02:00
; #@! TF.GenerationSoftware,Kicad,Pcbnew,9.0.4
; #@! TF.FileFunction,Plated,1,2,PTH
FMAT,2
INCH
; #@! TA.AperFunction,Plated,PTH,ViaDrill
T1C0.0157
; #@! TA.AperFunction,Plated,PTH,ComponentDrill
T2C0.0394
; #@! TA.AperFunction,Plated,PTH,ComponentDrill
T3C0.0433
; #@! TA.AperFunction,Plated,PTH,ComponentDrill
T4C0.0591
; #@! TA.AperFunction,Plated,PTH,ComponentDrill
T5C0.0630
%
G90
G05
T1
X1.06Y-2.58
X1.1Y-4.7
X1.12Y-3.6
X1.2Y-2.7
X1.28Y-3.32
X1.53Y-4.39
X1.66Y-2.56
X1.66Y-2.66
X1.72Y-3.26
X1.74Y-3.44
X1.74Y-5.24
X1.8098Y-4.431
X1.97Y-4.5
X1.98Y-5.06
X2.02Y-3.48
X2.02Y-4.02
X2.02Y-4.76
X2.074Y-2.944
X2.1Y-5.06
X2.14Y-3.3637
X2.14Y-4.1104
X2.16Y-4.8166
X2.18Y-3.9695
X2.1872Y-3.2618
X2.2Y-4.722
X2.22Y-3.32
X2.24Y-2.6104
X2.307Y-2.4708
X2.36Y-3.4
X2.3837Y-2.6665
X2.4Y-4.06
X2.46Y-5.37
X2.48Y-5.26
X2.53Y-4.29
X2.5535Y-4.4533
X2.64Y-5.08
X2.68Y-5.3
X2.76Y-4.22
X2.78Y-4.8
X2.88Y-2.8975
X2.96Y-2.52
X3.02Y-1.96
X3.0373Y-2.6665
X3.06Y-2.0
X3.06Y-2.4
X3.0669Y-2.2596
X3.2Y-4.8604
X3.23Y-5.508
X3.24Y-3.6475
X3.253Y-4.718
X3.34Y-3.26
X3.351Y-3.408
X3.44Y-4.3975
X3.52Y-4.02
X3.52Y-4.22
X3.62Y-2.76
X3.64Y-3.32
X3.724Y-3.218
X3.758Y-2.518
X3.76Y-2.6104
X3.794Y-3.969
X3.865Y-2.453
X3.8715Y-3.4085
X3.88Y-4.08
X3.88Y-4.96
X3.9Y-4.76
X3.95Y-5.444
X3.951Y-4.702
X4.02Y-2.6104
X4.02Y-3.54
X4.12Y-3.3604
X4.12Y-5.56
X4.1229Y-4.8555
X4.1269Y-5.4549
X4.133Y-3.279
X4.16Y-5.34
X4.18Y-5.58
X4.2467Y-4.7926
X4.26Y-2.7935
X4.2603Y-4.3235
X4.3Y-4.1104
X4.321Y-4.025
X4.38Y-2.8975
X4.46Y-2.52
X4.46Y-2.74
X4.7926Y-3.6401
X4.84Y-3.26
X4.84Y-3.4
X4.88Y-2.42
X4.88Y-2.68
X4.8816Y-5.4233
X4.8927Y-5.3645
X4.98Y-4.4287
X5.04Y-4.02
X5.04Y-4.22
X5.06Y-5.76
X5.1239Y-5.3854
X5.16Y-2.78
X5.16Y-5.32
X5.18Y-3.32
X5.18Y-5.42
X5.2473Y-4.155
X5.28Y-4.06
X5.3Y-3.5
X5.44Y-4.1078
X5.44Y-4.68
X5.44Y-4.78
X5.52Y-4.8637
X5.5428Y-5.1428
X5.56Y-4.2835
X5.6Y-2.6104
X5.6Y-3.3604
X5.6Y-4.97
X5.62Y-5.5
X5.633Y-4.718
X5.6335Y-5.2963
X5.66Y-5.06
X5.66Y-5.46
X5.66Y-5.68
X5.69Y-4.31
X5.7Y-4.82
X5.7233Y-4.2531
X5.844Y-3.217
X5.861Y-3.967
X5.88Y-2.8975
X5.94Y-5.06
X5.943Y-2.471
X6.0Y-2.52
X6.0Y-2.78
X6.1105Y-5.2904
X6.144Y-4.718
X6.164Y-5.501
X6.18Y-5.56
X6.223Y-4.869
X6.224Y-4.775
X6.26Y-2.76
X6.28Y-3.6475
X6.284Y-4.909
X6.32Y-3.5
X6.34Y-3.26
X6.44Y-3.4
X6.5022Y-4.3975
X6.52Y-4.02
X6.54Y-4.22
X6.64Y-2.68
X6.66Y-3.32
X6.66Y-4.3975
X6.78Y-5.28
X6.82Y-5.62
X6.84Y-3.5
X6.84Y-4.08
X6.84Y-5.28
X6.86Y-5.68
X6.94Y-4.1135
X7.0Y-2.6134
X7.0Y-5.48
X7.08Y-4.78
X7.09Y-5.35
X7.12Y-3.3604
X7.14Y-4.8634
X7.14Y-5.2
X7.14Y-5.24
X7.1465Y-4.2765
X7.18Y-4.82
X7.24Y-4.2371
X7.32Y-5.12
X7.36Y-5.14
X7.38Y-5.3
X7.3805Y-2.456
X7.3851Y-5.4469
X7.3913Y-2.8975
X7.4038Y-3.2563
X7.4127Y-5.0071
X7.433Y-5.0431
X7.4408Y-5.6041
X7.4429Y-2.597
X7.4454Y-5.5371
X7.4472Y-5.4156
X7.453Y-3.371
X7.4722Y-5.3422
X7.498Y-2.52
X7.5084Y-2.6722
X7.55Y-2.87
X7.5987Y-3.9701
X7.6Y-4.94
X7.6Y-5.26
X7.6165Y-4.2691
X7.64Y-4.124
X7.66Y-5.32
X7.6773Y-5.5665
X7.683Y-4.718
X7.74Y-5.28
X7.76Y-3.6475
X7.76Y-4.8604
X7.78Y-2.4804
X7.84Y-3.26
X7.84Y-3.5
X7.84Y-4.39
X7.84Y-5.22
X7.86Y-4.88
X7.88Y-5.3
X7.9251Y-4.9331
X8.02Y-4.24
X8.0237Y-5.0665
X8.0248Y-4.02
X8.04Y-5.26
X8.04Y-5.4
X8.0518Y-4.9516
X8.0664Y-4.989
X8.08Y-5.5
X8.0923Y-4.2362
X8.0957Y-3.6877
X8.1087Y-2.7913
X8.1135Y-5.18
X8.1189Y-5.3091
X8.12Y-5.62
X8.1235Y-5.0952
X8.1335Y-3.218
X8.1752Y-2.0535
X8.18Y-2.91
X8.1836Y-2.4193
X8.1987Y-4.2521
X8.2Y-3.32
X8.21Y-2.72
X8.2163Y-5.5963
X8.22Y-2.46
X8.22Y-5.02
X8.22Y-5.36
X8.2228Y-5.1945
X8.23Y-4.1765
X8.24Y-5.46
X8.26Y-4.98
X8.26Y-5.08
X8.267Y-4.0018
X8.3Y-4.96
X8.3101Y-3.5
X8.3254Y-4.1431
X8.3469Y-5.4789
X8.3533Y-5.0043
X8.4Y-4.08
X8.46Y-4.9705
X8.4798Y-4.1431
X8.481Y-4.712
X8.4949Y-4.9522
X8.5Y-5.48
X8.506Y-5.2587
X8.5328Y-2.615
X8.5333Y-4.8359
X8.58Y-2.9975
X8.6029Y-5.2355
X8.6269Y-5.3349
X8.66Y-5.4
X8.66Y-5.44
X8.6857Y-4.202
X8.713Y-4.1379
X8.7145Y-3.7455
X8.7275Y-4.8301
X8.7275Y-5.0325
X8.7601Y-3.027
X8.7757Y-3.084
X8.82Y-5.18
X8.8535Y-3.8191
X8.86Y-4.676
X8.88Y-3.7873
X8.88Y-5.2
X8.9Y-5.46
X8.9307Y-5.4999
X8.9436Y-3.7
X8.9563Y-2.9035
X8.9714Y-2.8007
X8.972Y-5.5017
X8.98Y-2.52
X9.0034Y-3.217
X9.013Y-2.6722
X9.0393Y-5.6469
X9.0505Y-5.5468
X9.081Y-5.594
X9.084Y-4.7162
X9.098Y-2.47
X9.1Y-2.2475
X9.1Y-2.42
X9.1Y-5.18
X9.113Y-3.967
X9.12Y-2.16
X9.16Y-4.48
X9.1926Y-4.8536
X9.2Y-2.6104
X9.2032Y-4.1168
X9.2395Y-5.1205
X9.26Y-3.6475
X9.2631Y-4.7831
X9.266Y-4.66
X9.28Y-3.74
X9.34Y-3.26
X9.34Y-3.5
X9.364Y-5.409
X9.44Y-3.3735
X9.46Y-4.3975
X9.46Y-5.5465
X9.54Y-4.02
X9.5458Y-4.147
X9.5821Y-5.5308
X9.591Y-5.587
X9.6079Y-5.4797
X9.63Y-2.9
X9.6731Y-4.9205
X9.72Y-2.52
X9.72Y-3.34
X9.72Y-3.54
X9.7374Y-2.7771
X9.7403Y-4.1874
X9.78Y-4.1868
X9.8137Y-2.8577
X9.8168Y-3.5213
X9.8384Y-5.4729
X9.8788Y-5.4729
X9.88Y-3.5
X9.9Y-4.76
X9.92Y-4.06
X9.9924Y-5.196
X9.9937Y-4.594
X10.0Y-5.6367
X10.0312Y-4.2947
X10.0313Y-5.2829
X10.0449Y-4.4214
X10.0449Y-4.75
X10.0465Y-4.6358
X10.0474Y-5.2134
X10.05Y-5.1685
X10.0538Y-3.6
X10.0698Y-5.2466
X10.073Y-4.1835
X10.08Y-2.54
X10.08Y-2.64
X10.1019Y-4.51
X10.1063Y-2.7737
X10.115Y-2.8129
X10.116Y-4.5618
X10.1165Y-5.1878
X10.1441Y-5.3083
X10.1589Y-4.5621
X10.1652Y-5.687
X10.1687Y-5.275
X10.192Y-4.6596
X10.2016Y-4.8536
X10.2111Y-5.2999
X10.2116Y-2.8365
X10.22Y-4.27
X10.2266Y-4.6846
X10.2274Y-4.1843
X10.2403Y-5.7388
X10.2535Y-5.4334
X10.2638Y-5.158
X10.2639Y-5.3946
X10.27Y-5.2
X10.28Y-5.12
X10.283Y-5.4616
X10.2836Y-5.503
X10.2885Y-3.0159
X10.2923Y-4.325
X10.2955Y-4.7503
X10.3Y-5.08
X10.32Y-3.26
X10.3329Y-4.06
X10.38Y-3.3604
X10.38Y-3.5865
X10.4019Y-4.1254
X10.4065Y-4.5243
X10.4249Y-5.3177
X10.4259Y-5.056
X10.4331Y-4.4309
X10.44Y-3.32
X10.44Y-4.2
X10.4474Y-4.3905
X10.45Y-4.76
X10.4505Y-2.6368
X10.4532Y-5.3568
X10.4571Y-3.459
X10.4584Y-5.1731
X10.46Y-2.575
X10.4657Y-5.0448
X10.48Y-4.24
X10.48Y-4.81
X10.5Y-3.56
X10.5Y-3.74
X10.5048Y-5.0313
X10.52Y-4.2065
X10.53Y-5.73
X10.5456Y-5.0379
X10.5512Y-5.4134
X10.56Y-3.76
X10.56Y-4.26
X10.56Y-5.18
X10.57Y-5.7065
X10.5828Y-5.6672
X10.6135Y-4.7932
X10.62Y-4.4363
X10.6267Y-4.706
X10.64Y-5.52
X10.6418Y-5.3784
X10.6475Y-5.0274
X10.65Y-5.27
X10.65Y-5.64
X10.66Y-2.54
X10.66Y-4.02
X10.6779Y-5.2147
X10.6798Y-4.8136
X10.68Y-4.9077
X10.68Y-5.0
X10.6898Y-5.3642
X10.6899Y-3.5335
X10.6918Y-5.4565
X10.7217Y-5.3904
X10.7229Y-5.4298
X10.7338Y-5.5135
X10.755Y-4.0075
X10.766Y-4.509
X10.7812Y-3.5629
X10.7969Y-4.9824
X10.797Y-5.0221
X10.8Y-2.58
X10.8041Y-2.6632
X10.86Y-4.0075
X10.86Y-5.24
X10.886Y-5.7062
X10.8881Y-5.0835
X10.8981Y-5.4248
X10.913Y-5.568
X10.913Y-5.0418
X10.9233Y-2.68
X10.9254Y-5.2946
X10.942Y-3.216
X10.9595Y-2.9856
X11.0Y-3.72
X11.0Y-4.4429
X11.02Y-3.2
X11.02Y-3.28
X11.1093Y-4.8287
X11.14Y-2.81
X11.1537Y-5.26
X11.1565Y-5.5226
X11.1566Y-4.8938
X11.16Y-4.534
X11.1642Y-5.4707
X11.1808Y-2.4753
X11.1963Y-3.3837
X11.2Y-5.45
X11.22Y-3.32
X11.22Y-4.0
X11.2342Y-5.4268
X11.2365Y-4.59
X11.24Y-2.76
X11.25Y-4.2164
X11.27Y-4.69
X11.3Y-2.52
X11.33Y-3.61
X11.38Y-2.26
X11.3871Y-2.4873
X11.3887Y-3.5229
X11.4115Y-4.58
X11.4525Y-3.9404
X11.48Y-2.42
X11.48Y-2.6139
X11.48Y-3.6968
X11.48Y-4.34
X11.492Y-4.1139
X11.5265Y-4.4338
X11.54Y-4.1928
X11.54Y-5.6965
X11.559Y-3.71
X11.56Y-4.64
X11.565Y-3.3853
X11.57Y-5.35
X11.58Y-3.98
X11.58Y-4.994
X11.6Y-3.28
X11.6Y-3.46
X11.605Y-3.783
X11.72Y-3.02
X11.74Y-3.24
X11.7849Y-3.6255
X11.8216Y-4.1539
X11.85Y-4.4646
X11.8598Y-2.81
X11.86Y-4.34
X11.88Y-5.6829
X11.8865Y-4.1597
X11.8865Y-4.2065
X11.8933Y-2.72
X11.92Y-4.24
X11.93Y-4.4003
X11.96Y-3.64
X11.99Y-5.7209
X12.0152Y-3.078
X12.04Y-3.84
X12.04Y-3.92
X12.0503Y-3.5535
X12.06Y-4.5095
X12.0915Y-4.71
X12.0923Y-3.5335
X12.1142Y-3.6987
X12.1336Y-3.5335
X12.14Y-2.6139
X12.14Y-3.88
X12.14Y-4.94
X12.15Y-4.34
X12.1736Y-3.5335
X12.19Y-4.73
X12.1984Y-3.9162
X12.2Y-3.68
X12.22Y-3.3853
X12.22Y-3.54
X12.23Y-4.75
X12.2356Y-3.9343
X12.2358Y-3.8029
X12.26Y-3.7
X12.2842Y-4.82
X12.3236Y-4.69
X12.3648Y-3.7425
X12.42Y-3.04
X12.42Y-3.26
X12.44Y-2.474
X12.45Y-4.92
X12.46Y-4.2
X12.475Y-5.567
X12.4845Y-3.4872
X12.4845Y-3.6233
X12.4996Y-5.5051
X12.5Y-3.72
X12.5138Y-4.543
X12.52Y-2.7
X12.52Y-3.8
X12.5367Y-4.74
X12.5432Y-3.3049
X12.5496Y-3.7623
X12.56Y-3.46
X12.5625Y-3.9795
X12.5804Y-3.3518
X12.595Y-4.733
X12.5975Y-4.07
X12.6173Y-3.5065
X12.7Y-3.45
X12.88Y-5.42
X12.969Y-4.763
X12.977Y-4.8639
X12.995Y-3.278
X12.995Y-3.3609
X13.002Y-2.631
X13.002Y-5.527
X13.006Y-2.513
X13.014Y-4.031
X13.0246Y-4.1685
X13.043Y-5.637
X13.08Y-3.748
X13.1Y-4.3
X13.18Y-2.629
X13.18Y-3.3679
X13.18Y-4.8639
X13.2135Y-4.646
X13.22Y-4.5
X13.227Y-4.1571
X13.3551Y-3.5265
X13.7Y-2.52
X13.7Y-2.68
X13.7Y-4.02
X13.7Y-4.2
X13.71Y-4.78
X13.71Y-4.91
X13.72Y-3.27
X13.73Y-3.45
X13.78Y-3.62
X13.78Y-5.52
X13.88Y-2.4809
X13.88Y-3.2309
X13.88Y-3.978
X13.88Y-4.741
X13.88Y-5.478
X13.97Y-4.2
X13.99Y-2.7
X13.99Y-4.08
X13.99Y-4.83
X14.0Y-3.47
X14.02Y-4.96
X14.03Y-3.31
X14.04Y-5.55
X14.8Y-2.46
X14.821Y-3.215
X14.823Y-3.963
X14.837Y-4.728
X14.86Y-5.449
X15.14Y-5.46
X15.19Y-4.02
X15.2Y-3.6
X15.2Y-4.21
X15.21Y-2.51
X15.21Y-2.7
X15.21Y-3.27
X15.21Y-3.47
X15.21Y-4.76
X15.21Y-4.95
T2
X7.3165Y-1.914
X7.3165Y-2.014
X7.4165Y-1.914
X7.4165Y-2.014
X7.5165Y-1.914
X7.5165Y-2.014
X7.6165Y-1.914
X7.6165Y-2.014
X7.7165Y-1.914
X7.7165Y-2.014
X7.8165Y-1.914
X7.8165Y-2.014
X7.9165Y-1.914
X7.9165Y-2.014
X8.0165Y-1.914
X8.0165Y-2.014
X8.1165Y-1.914
X8.1165Y-2.014
X8.2165Y-1.914
X8.2165Y-2.014
X8.3165Y-1.914
X8.4165Y-1.914
X8.5165Y-1.914
X8.6165Y-1.914
X8.7165Y-1.914
X8.8165Y-1.914
X8.9165Y-1.914
X9.0165Y-1.914
X9.1165Y-1.914
X9.2165Y-1.914
X11.8598Y-2.4496
X11.8598Y-2.5496
X11.9598Y-2.4496
X11.9598Y-2.5496
X12.0598Y-2.4496
X12.0598Y-2.5496
X12.0704Y-3.0398
X12.0704Y-3.1398
X12.0704Y-3.2398
X12.1704Y-3.0398
X12.1704Y-3.1398
X12.1704Y-3.2398
T3
X11.6399Y-5.1385
X11.6399Y-5.2369
X11.6399Y-5.3354
X11.8852Y-5.5806
X11.9836Y-5.5806
X12.082Y-5.5806
T4
X1.13Y-2.2475
X1.3175Y-2.9975
X1.38Y-2.1475
X1.51Y-3.745
X1.5675Y-2.8975
X1.695Y-4.4975
X1.76Y-3.645
X1.88Y-2.2475
X1.945Y-4.3975
X2.13Y-2.1475
X2.255Y-2.9975
X2.45Y-3.7475
X2.505Y-2.8975
X2.63Y-2.2475
X2.7Y-3.6475
X2.82Y-4.4975
X2.88Y-2.1475
X3.005Y-2.9975
X3.07Y-4.3975
X3.2Y-3.7475
X3.255Y-2.8975
X3.38Y-2.2475
X3.3825Y-5.2475
X3.45Y-3.6475
X3.57Y-4.4975
X3.63Y-2.1475
X3.6325Y-5.1475
X3.755Y-2.9975
X3.82Y-4.3975
X3.95Y-3.7475
X4.005Y-2.8975
X4.13Y-2.2475
X4.2Y-3.6475
X4.32Y-4.4975
X4.38Y-2.1475
X4.505Y-2.9975
X4.57Y-4.3975
X4.7Y-3.7475
X4.755Y-2.8975
X4.88Y-2.2475
X4.95Y-3.6475
X5.07Y-4.4975
X5.13Y-2.1475
X5.255Y-2.9975
X5.32Y-4.3975
X5.45Y-3.7475
X5.505Y-2.8975
X5.63Y-2.2475
X5.7Y-3.6475
X5.82Y-4.4975
X5.88Y-2.1475
X6.005Y-2.9975
X6.07Y-4.3975
X6.2Y-3.7475
X6.255Y-2.8975
X6.2885Y-5.2475
X6.38Y-2.2475
X6.45Y-3.6475
X6.5385Y-5.1475
X6.57Y-4.4975
X6.63Y-2.1475
X6.755Y-2.9975
X6.82Y-4.3975
X6.95Y-3.7475
X7.005Y-2.8975
X7.13Y-2.2475
X7.2Y-3.6475
X7.32Y-4.4975
X7.38Y-2.1475
X7.505Y-2.9975
X7.57Y-4.3975
X7.7Y-3.7475
X7.755Y-2.8975
X7.88Y-2.2475
X7.95Y-3.6475
X8.07Y-4.4975
X8.13Y-2.1475
X8.255Y-2.9975
X8.32Y-4.3975
X8.45Y-3.7475
X8.505Y-2.8975
X8.63Y-2.2475
X8.7Y-3.6475
X8.82Y-4.4975
X8.88Y-2.1475
X9.005Y-2.9975
X9.07Y-4.3975
X9.1Y-5.2475
X9.2Y-3.7475
X9.255Y-2.8975
X9.35Y-5.1475
X9.38Y-2.2475
X9.45Y-3.6475
X9.57Y-4.4975
X9.63Y-2.1475
X9.755Y-2.9975
X9.82Y-4.3975
X9.95Y-3.7475
X10.005Y-2.8975
X10.13Y-2.2475
X10.2Y-3.6475
X10.38Y-2.1475
X10.505Y-2.9975
X10.6965Y-4.4981
X10.755Y-2.8975
X10.88Y-2.2475
X10.89Y-3.7475
X10.9465Y-4.3981
X11.13Y-2.1475
X11.14Y-3.6475
X11.255Y-2.9975
X11.505Y-2.8975
X12.615Y-2.248
X12.615Y-2.998
X12.615Y-3.748
X12.615Y-4.498
X12.615Y-5.248
X12.865Y-2.148
X12.865Y-2.898
X12.865Y-3.648
X12.865Y-4.398
X12.865Y-5.148
X13.365Y-2.248
X13.365Y-2.998
X13.365Y-3.748
X13.365Y-4.498
X13.365Y-5.248
X13.615Y-2.148
X13.615Y-2.898
X13.615Y-3.648
X13.615Y-4.398
X13.615Y-5.148
X14.115Y-2.248
X14.115Y-2.998
X14.115Y-3.748
X14.115Y-4.498
X14.115Y-5.248
X14.365Y-2.148
X14.365Y-2.898
X14.365Y-3.648
X14.365Y-4.398
X14.365Y-5.148
X14.865Y-2.248
X14.865Y-2.998
X14.865Y-3.748
X14.865Y-4.498
X14.865Y-5.248
X15.115Y-2.148
X15.115Y-2.898
X15.115Y-3.648
X15.115Y-4.398
X15.115Y-5.148
T5
X11.7346Y-5.0401
X11.7346Y-5.4338
X12.2326Y-5.0401
X12.2326Y-5.4338
T3
G00X11.8557Y-4.8334
M15
G01X11.836Y-4.8334
M16
G05
G00X11.8557Y-5.0106
M15
G01X11.836Y-5.0106
M16
G05
G00X12.1313Y-4.8334
M15
G01X12.1116Y-4.8334
M16
G05
G00X12.1313Y-5.0106
M15
G01X12.1116Y-5.0106
M16
G05
M30
