M48
; DRILL file {KiCad 9.0.3} date 2025-08-12T15:40:08+0200
; FORMAT={-:-/ absolute / inch / decimal}
; #@! TF.CreationDate,2025-08-12T15:40:08+02:00
; #@! TF.GenerationSoftware,Kicad,Pcbnew,9.0.3
; #@! TF.FileFunction,Plated,1,2,PTH
FMAT,2
INCH
; #@! TA.AperFunction,Plated,PTH,ViaDrill
T1C0.0157
; #@! TA.AperFunction,Plated,PTH,ComponentDrill
T2C0.0315
; #@! TA.AperFunction,Plated,PTH,ComponentDrill
T3C0.0394
; #@! TA.AperFunction,Plated,PTH,ComponentDrill
T4C0.0433
; #@! TA.AperFunction,Plated,PTH,ComponentDrill
T5C0.0472
; #@! TA.AperFunction,Plated,PTH,ComponentDrill
T6C0.0591
; #@! TA.AperFunction,Plated,PTH,ComponentDrill
T7C0.0630
%
G90
G05
T1
X1.912Y-3.006
X1.916Y-5.26
X2.002Y-5.078
X2.102Y-5.136
X2.534Y-5.496
X2.554Y-5.374
X2.558Y-4.184
X2.796Y-5.082
X2.844Y-4.172
X2.91Y-2.8975
X3.032Y-5.416
X3.288Y-3.6475
X3.476Y-4.3975
X3.56Y-4.713
X3.628Y-2.422
X3.884Y-4.884
X3.996Y-4.868
X4.418Y-2.8975
X4.572Y-2.528
X4.572Y-2.682
X4.778Y-3.6475
X4.838Y-3.308
X4.8824Y-5.3976
X5.922Y-2.8975
X6.05Y-5.164
X6.286Y-3.6475
X6.504Y-4.3975
X7.034Y-2.678
X7.042Y-2.03
X7.132Y-2.638
X7.1376Y-2.5612
X7.18Y-2.138
X7.236Y-2.6523
X7.39Y-3.436
X7.4379Y-2.7085
X7.448Y-3.58
X7.454Y-3.334
X7.462Y-5.596
X7.4973Y-3.3976
X7.5066Y-2.7492
X7.5155Y-2.656
X7.5337Y-2.7165
X7.5561Y-2.7989
X7.562Y-4.216
X7.5637Y-2.404
X7.5726Y-4.1246
X7.584Y-3.386
X7.5955Y-2.178
X7.5955Y-2.734
X7.618Y-5.006
X7.626Y-2.778
X7.6326Y-3.9594
X7.688Y-4.12
X7.7277Y-2.1537
X7.783Y-2.1233
X7.784Y-2.796
X7.802Y-4.914
X7.81Y-4.136
X7.842Y-2.688
X7.862Y-2.18
X7.904Y-2.424
X7.914Y-4.462
X7.924Y-4.534
X8.0194Y-2.2018
X8.276Y-4.19
X8.2912Y-2.2235
X8.338Y-4.548
X8.376Y-2.9798
X8.5016Y-3.0556
X8.544Y-3.688
X8.59Y-5.634
X8.6Y-3.7432
X8.69Y-4.918
X8.71Y-3.206
X8.83Y-4.278
X8.8337Y-5.5364
X8.84Y-5.742
X8.8412Y-4.171
X8.862Y-4.408
X8.918Y-2.8975
X8.94Y-5.41
X9.098Y-3.622
X9.106Y-3.5355
X9.1226Y-4.2126
X9.184Y-4.4885
X9.198Y-4.058
X9.2314Y-4.1823
X9.2524Y-4.1467
X9.2917Y-3.6475
X9.292Y-3.954
X9.3304Y-2.7214
X9.3444Y-3.5438
X9.382Y-3.3
X9.392Y-4.6655
X9.406Y-3.44
X9.482Y-4.3975
X9.566Y-1.986
X9.6439Y-2.6312
X9.648Y-3.938
X9.65Y-3.5126
X9.6629Y-3.3343
X9.718Y-5.292
X9.726Y-2.4882
X9.814Y-4.254
X9.8198Y-5.4792
X9.822Y-5.388
X9.8772Y-2.7245
X9.9792Y-2.6797
X10.0288Y-2.5558
X10.1408Y-2.1041
X10.156Y-2.648
X10.192Y-3.358
X10.224Y-5.148
X10.2433Y-4.7303
X10.254Y-3.316
X10.2674Y-3.914
X10.2674Y-4.87
X10.32Y-5.58
X10.33Y-5.372
X10.336Y-5.108
X10.3388Y-2.7299
X10.4155Y-2.6109
X10.4455Y-3.5659
X10.468Y-3.93
X10.512Y-3.56
X10.526Y-3.884
X10.538Y-4.448
X10.5399Y-3.3227
X10.562Y-3.558
X10.564Y-4.2342
X10.58Y-5.572
X10.586Y-5.358
X10.6036Y-2.7905
X10.6262Y-5.1271
X10.644Y-4.152
X10.6538Y-2.9361
X10.668Y-4.04
X10.704Y-3.472
X10.704Y-3.572
X10.707Y-3.6623
X10.718Y-2.744
X10.7754Y-2.7582
X10.808Y-5.652
X10.816Y-3.268
X10.8266Y-3.3606
X10.89Y-5.55
X10.9085Y-4.5045
X10.93Y-3.958
X10.9466Y-2.0555
X10.962Y-5.58
X10.998Y-2.768
X11.006Y-3.748
X11.0113Y-4.7379
X11.0216Y-5.297
X11.028Y-3.002
X11.0365Y-3.5103
X11.0365Y-3.636
X11.044Y-2.632
X11.0466Y-2.8901
X11.0549Y-5.3797
X11.0702Y-4.7618
X11.0745Y-5.1456
X11.096Y-5.564
X11.102Y-5.348
X11.112Y-3.318
X11.13Y-5.652
X11.1301Y-3.7945
X11.14Y-2.404
X11.14Y-4.4435
X11.1433Y-3.3702
X11.154Y-2.784
X11.1909Y-4.45
X11.2128Y-3.647
X11.2549Y-2.7394
X11.296Y-2.744
X11.3051Y-3.6775
X11.3104Y-3.1478
X11.37Y-5.236
X11.37Y-5.422
X11.3831Y-3.7518
X11.386Y-2.444
X11.3928Y-5.0954
X11.4115Y-2.2943
X11.4169Y-5.6282
X11.442Y-2.172
X11.4509Y-3.4642
X11.456Y-2.736
X11.456Y-3.918
X11.4584Y-3.5049
X11.466Y-4.974
X11.4771Y-5.0711
X11.4786Y-3.7086
X11.496Y-3.442
X11.4972Y-2.966
X11.5255Y-3.3163
X11.5467Y-4.932
X11.5512Y-3.9431
X11.554Y-3.508
X11.572Y-2.632
X11.576Y-5.228
X11.588Y-5.314
X11.592Y-2.07
X11.592Y-3.7243
X11.6038Y-3.8702
X11.606Y-5.0768
X11.6135Y-2.1806
X11.6676Y-4.9318
X11.678Y-2.634
X11.69Y-2.786
X11.69Y-3.038
X11.72Y-5.04
X11.722Y-2.374
X11.738Y-2.968
X11.742Y-3.442
X11.746Y-3.216
X11.756Y-4.792
X11.762Y-3.604
X11.77Y-2.58
X11.77Y-4.226
X11.7925Y-3.6341
X11.794Y-2.69
X11.818Y-3.134
X11.818Y-5.502
X11.8286Y-3.6874
X11.8411Y-4.5402
X11.842Y-2.3022
X11.848Y-2.9633
X11.852Y-3.82
X11.852Y-5.188
X11.868Y-3.5971
X11.8715Y-3.6368
X11.872Y-4.568
X11.9Y-4.354
X11.902Y-3.534
X11.9084Y-3.6549
X11.912Y-2.22
X11.914Y-2.084
X11.9303Y-3.7285
X11.9335Y-3.852
X11.9551Y-2.9668
X11.962Y-2.33
X11.968Y-2.838
X11.9695Y-3.192
X11.986Y-4.856
X11.986Y-5.104
X11.998Y-4.58
X12.02Y-3.276
X12.0279Y-4.3529
X12.029Y-3.0032
X12.03Y-2.732
X12.04Y-3.4955
X12.0443Y-4.4246
X12.0515Y-4.3845
X12.07Y-2.824
X12.07Y-5.036
X12.0751Y-4.5579
X12.0778Y-3.6761
X12.0778Y-3.824
X12.0812Y-4.0783
X12.088Y-3.508
X12.101Y-4.1798
X12.1135Y-3.9406
X12.114Y-4.32
X12.1441Y-3.906
X12.1441Y-4.2915
X12.1565Y-2.9
X12.1709Y-4.5225
X12.199Y-3.4663
X12.2022Y-2.3955
X12.2111Y-2.3571
X12.212Y-2.202
X12.2387Y-3.4108
X12.2459Y-4.4142
X12.2543Y-4.1665
X12.2573Y-3.7006
X12.2601Y-3.4977
X12.2601Y-3.6248
X12.2761Y-3.8389
X12.2778Y-3.456
X12.2778Y-3.6659
X12.2778Y-3.7785
X12.28Y-4.2025
X12.2881Y-4.3676
X12.2885Y-4.4113
X12.3015Y-3.9795
X12.3083Y-2.4018
X12.3138Y-4.5404
X12.326Y-4.1374
X12.328Y-2.462
X12.34Y-4.058
X12.34Y-4.348
X12.3585Y-2.5295
X12.362Y-2.664
X12.364Y-2.082
X12.364Y-3.402
X12.3645Y-3.7845
X12.3648Y-4.6747
X12.3775Y-4.6374
X12.379Y-3.6422
X12.3936Y-3.5913
X12.4084Y-3.5507
X12.41Y-5.188
X12.428Y-3.034
X12.4456Y-4.5826
X12.458Y-3.47
X12.4724Y-3.5777
X12.474Y-2.356
X12.476Y-4.622
X12.482Y-2.722
X12.484Y-4.252
X12.49Y-5.0055
X12.57Y-3.396
X12.572Y-2.65
X12.616Y-2.454
X12.636Y-4.31
X12.64Y-3.398
X12.658Y-2.652
X12.662Y-4.154
X12.666Y-4.558
X12.726Y-4.902
X12.73Y-5.0919
X12.744Y-4.318
X13.044Y-4.932
X13.0702Y-4.4495
X13.25Y-3.17
X13.376Y-5.6041
X13.43Y-5.066
X13.58Y-4.966
X13.6244Y-4.7671
X14.3Y-2.052
T2
X11.9107Y-2.5328
X11.9107Y-2.6328
X11.9107Y-2.7328
X11.9107Y-2.8328
X11.9107Y-2.9328
X11.9107Y-3.0328
X11.9107Y-3.1328
X11.9107Y-3.2328
X12.2107Y-2.5328
X12.2107Y-2.6328
X12.2107Y-2.7328
X12.2107Y-2.8328
X12.2107Y-2.9328
X12.2107Y-3.0328
X12.2107Y-3.1328
X12.2107Y-3.2328
T3
X1.62Y-5.2075
X1.62Y-5.3075
X1.62Y-5.4075
X1.72Y-5.2075
X1.72Y-5.3075
X1.72Y-5.4075
X2.6775Y-5.2875
X2.6775Y-5.3875
X2.7775Y-5.2875
X2.7775Y-5.3875
X5.0325Y-5.28
X5.0325Y-5.38
X5.1325Y-5.28
X5.1325Y-5.38
X7.3165Y-1.914
X7.3165Y-2.014
X7.4165Y-1.914
X7.4165Y-2.014
X7.5165Y-1.914
X7.5165Y-2.014
X7.6165Y-1.914
X7.6165Y-2.014
X7.6575Y-5.3025
X7.6575Y-5.4025
X7.7165Y-1.914
X7.7165Y-2.014
X7.7575Y-5.3025
X7.7575Y-5.4025
X7.8165Y-1.914
X7.8165Y-2.014
X7.9165Y-1.914
X7.9165Y-2.014
X8.0165Y-1.914
X8.0165Y-2.014
X8.1165Y-1.914
X8.1165Y-2.014
X8.2165Y-1.914
X8.2165Y-2.014
X8.3165Y-1.914
X8.4165Y-1.914
X8.5165Y-1.914
X8.6165Y-1.914
X8.7165Y-1.914
X8.8165Y-1.914
X8.9165Y-1.914
X9.0165Y-1.914
X9.1165Y-1.914
X9.2165Y-1.914
X9.9715Y-5.2815
X9.9715Y-5.3815
X10.0715Y-5.2815
X10.0715Y-5.3815
X11.5378Y-2.3418
X11.5378Y-2.4418
X11.6378Y-2.3418
X11.6378Y-2.4418
T4
X11.6499Y-5.0285
X11.6499Y-5.1269
X11.6499Y-5.2254
X11.8952Y-5.4706
X11.9936Y-5.4706
X12.092Y-5.4706
T5
X1.23Y-2.5475
X1.33Y-2.5475
X1.4175Y-3.2975
X1.5175Y-3.2975
X1.61Y-4.045
X1.71Y-4.045
X1.795Y-4.7975
X1.895Y-4.7975
X1.98Y-2.5475
X2.08Y-2.5475
X2.355Y-3.2975
X2.455Y-3.2975
X2.55Y-4.0475
X2.65Y-4.0475
X2.73Y-2.5475
X2.83Y-2.5475
X2.92Y-4.7975
X3.02Y-4.7975
X3.105Y-3.2975
X3.205Y-3.2975
X3.3Y-4.0475
X3.4Y-4.0475
X3.48Y-2.5475
X3.4825Y-5.5475
X3.58Y-2.5475
X3.5825Y-5.5475
X3.67Y-4.7975
X3.77Y-4.7975
X3.855Y-3.2975
X3.955Y-3.2975
X4.05Y-4.0475
X4.15Y-4.0475
X4.23Y-2.5475
X4.33Y-2.5475
X4.42Y-4.7975
X4.52Y-4.7975
X4.605Y-3.2975
X4.705Y-3.2975
X4.8Y-4.0475
X4.9Y-4.0475
X4.98Y-2.5475
X5.08Y-2.5475
X5.17Y-4.7975
X5.27Y-4.7975
X5.355Y-3.2975
X5.455Y-3.2975
X5.55Y-4.0475
X5.65Y-4.0475
X5.73Y-2.5475
X5.83Y-2.5475
X5.92Y-4.7975
X6.02Y-4.7975
X6.105Y-3.2975
X6.205Y-3.2975
X6.3Y-4.0475
X6.3885Y-5.5475
X6.4Y-4.0475
X6.48Y-2.5475
X6.4885Y-5.5475
X6.58Y-2.5475
X6.67Y-4.7975
X6.77Y-4.7975
X6.855Y-3.2975
X6.955Y-3.2975
X7.05Y-4.0475
X7.15Y-4.0475
X7.23Y-2.5475
X7.33Y-2.5475
X7.42Y-4.7975
X7.52Y-4.7975
X7.605Y-3.2975
X7.705Y-3.2975
X7.8Y-4.0475
X7.9Y-4.0475
X7.98Y-2.5475
X8.08Y-2.5475
X8.17Y-4.7975
X8.27Y-4.7975
X8.355Y-3.2975
X8.455Y-3.2975
X8.55Y-4.0475
X8.65Y-4.0475
X8.73Y-2.5475
X8.83Y-2.5475
X8.92Y-4.7975
X9.02Y-4.7975
X9.105Y-3.2975
X9.2Y-5.5475
X9.205Y-3.2975
X9.3Y-4.0475
X9.3Y-5.5475
X9.4Y-4.0475
X9.48Y-2.5475
X9.58Y-2.5475
X9.67Y-4.7975
X9.77Y-4.7975
X9.855Y-3.2975
X9.955Y-3.2975
X10.05Y-4.0475
X10.15Y-4.0475
X10.23Y-2.5475
X10.33Y-2.5475
X10.605Y-3.2975
X10.705Y-3.2975
X10.7965Y-4.7981
X10.8965Y-4.7981
X10.98Y-2.5475
X10.99Y-4.0475
X11.08Y-2.5475
X11.09Y-4.0475
X11.355Y-3.2975
X11.455Y-3.2975
X12.715Y-2.548
X12.715Y-3.298
X12.715Y-4.048
X12.715Y-4.798
X12.715Y-5.548
X12.815Y-2.548
X12.815Y-3.298
X12.815Y-4.048
X12.815Y-4.798
X12.815Y-5.548
X13.465Y-2.548
X13.465Y-3.298
X13.465Y-4.048
X13.465Y-4.798
X13.465Y-5.548
X13.565Y-2.548
X13.565Y-3.298
X13.565Y-4.048
X13.565Y-4.798
X13.565Y-5.548
X14.215Y-2.548
X14.215Y-3.298
X14.215Y-4.048
X14.215Y-4.798
X14.215Y-5.548
X14.315Y-2.548
X14.315Y-3.298
X14.315Y-4.048
X14.315Y-4.798
X14.315Y-5.548
X14.965Y-2.548
X14.965Y-3.298
X14.965Y-4.048
X14.965Y-4.798
X14.965Y-5.548
X15.065Y-2.548
X15.065Y-3.298
X15.065Y-4.048
X15.065Y-4.798
X15.065Y-5.548
T6
X1.13Y-2.2475
X1.3175Y-2.9975
X1.38Y-2.1475
X1.51Y-3.745
X1.5675Y-2.8975
X1.695Y-4.4975
X1.76Y-3.645
X1.88Y-2.2475
X1.945Y-4.3975
X2.13Y-2.1475
X2.255Y-2.9975
X2.45Y-3.7475
X2.505Y-2.8975
X2.63Y-2.2475
X2.7Y-3.6475
X2.82Y-4.4975
X2.88Y-2.1475
X3.005Y-2.9975
X3.07Y-4.3975
X3.2Y-3.7475
X3.255Y-2.8975
X3.38Y-2.2475
X3.3825Y-5.2475
X3.45Y-3.6475
X3.57Y-4.4975
X3.63Y-2.1475
X3.6325Y-5.1475
X3.755Y-2.9975
X3.82Y-4.3975
X3.95Y-3.7475
X4.005Y-2.8975
X4.13Y-2.2475
X4.2Y-3.6475
X4.32Y-4.4975
X4.38Y-2.1475
X4.505Y-2.9975
X4.57Y-4.3975
X4.7Y-3.7475
X4.755Y-2.8975
X4.88Y-2.2475
X4.95Y-3.6475
X5.07Y-4.4975
X5.13Y-2.1475
X5.255Y-2.9975
X5.32Y-4.3975
X5.45Y-3.7475
X5.505Y-2.8975
X5.63Y-2.2475
X5.7Y-3.6475
X5.82Y-4.4975
X5.88Y-2.1475
X6.005Y-2.9975
X6.07Y-4.3975
X6.2Y-3.7475
X6.255Y-2.8975
X6.2885Y-5.2475
X6.38Y-2.2475
X6.45Y-3.6475
X6.5385Y-5.1475
X6.57Y-4.4975
X6.63Y-2.1475
X6.755Y-2.9975
X6.82Y-4.3975
X6.95Y-3.7475
X7.005Y-2.8975
X7.13Y-2.2475
X7.2Y-3.6475
X7.32Y-4.4975
X7.38Y-2.1475
X7.505Y-2.9975
X7.57Y-4.3975
X7.7Y-3.7475
X7.755Y-2.8975
X7.88Y-2.2475
X7.95Y-3.6475
X8.07Y-4.4975
X8.13Y-2.1475
X8.255Y-2.9975
X8.32Y-4.3975
X8.45Y-3.7475
X8.505Y-2.8975
X8.63Y-2.2475
X8.7Y-3.6475
X8.82Y-4.4975
X8.88Y-2.1475
X9.005Y-2.9975
X9.07Y-4.3975
X9.1Y-5.2475
X9.2Y-3.7475
X9.255Y-2.8975
X9.35Y-5.1475
X9.38Y-2.2475
X9.45Y-3.6475
X9.57Y-4.4975
X9.63Y-2.1475
X9.755Y-2.9975
X9.82Y-4.3975
X9.95Y-3.7475
X10.005Y-2.8975
X10.13Y-2.2475
X10.2Y-3.6475
X10.38Y-2.1475
X10.505Y-2.9975
X10.6965Y-4.4981
X10.755Y-2.8975
X10.88Y-2.2475
X10.89Y-3.7475
X10.9465Y-4.3981
X11.13Y-2.1475
X11.14Y-3.6475
X11.255Y-2.9975
X11.505Y-2.8975
X12.615Y-2.248
X12.615Y-2.998
X12.615Y-3.748
X12.615Y-4.498
X12.615Y-5.248
X12.865Y-2.148
X12.865Y-2.898
X12.865Y-3.648
X12.865Y-4.398
X12.865Y-5.148
X13.365Y-2.248
X13.365Y-2.998
X13.365Y-3.748
X13.365Y-4.498
X13.365Y-5.248
X13.615Y-2.148
X13.615Y-2.898
X13.615Y-3.648
X13.615Y-4.398
X13.615Y-5.148
X14.115Y-2.248
X14.115Y-2.998
X14.115Y-3.748
X14.115Y-4.498
X14.115Y-5.248
X14.365Y-2.148
X14.365Y-2.898
X14.365Y-3.648
X14.365Y-4.398
X14.365Y-5.148
X14.865Y-2.248
X14.865Y-2.998
X14.865Y-3.748
X14.865Y-4.498
X14.865Y-5.248
X15.115Y-2.148
X15.115Y-2.898
X15.115Y-3.648
X15.115Y-4.398
X15.115Y-5.148
T7
X11.7446Y-4.9301
X11.7446Y-5.3238
X12.2426Y-4.9301
X12.2426Y-5.3238
T4
G00X11.8657Y-4.7234
M15
G01X11.846Y-4.7234
M16
G05
G00X11.8657Y-4.9006
M15
G01X11.846Y-4.9006
M16
G05
G00X12.1413Y-4.7234
M15
G01X12.1216Y-4.7234
M16
G05
G00X12.1413Y-4.9006
M15
G01X12.1216Y-4.9006
M16
G05
M30
