%TF.GenerationSoftware,KiCad,Pcbnew,9.0.3*%
%TF.CreationDate,2025-08-12T15:40:08+02:00*%
%TF.ProjectId,petkn,7065746b-6e2e-46b6-9963-61645f706362,rev?*%
%TF.SameCoordinates,Original*%
%TF.FileFunction,Soldermask,Bot*%
%TF.FilePolarity,Negative*%
%FSLAX46Y46*%
G04 Gerber Fmt 4.6, Leading zero omitted, Abs format (unit mm)*
G04 Created by KiCad (PCBNEW 9.0.3) date 2025-08-12 15:40:08*
%MOMM*%
%LPD*%
G01*
G04 APERTURE LIST*
G04 Aperture macros list*
%AMRoundRect*
0 Rectangle with rounded corners*
0 $1 Rounding radius*
0 $2 $3 $4 $5 $6 $7 $8 $9 X,Y pos of 4 corners*
0 Add a 4 corners polygon primitive as box body*
4,1,4,$2,$3,$4,$5,$6,$7,$8,$9,$2,$3,0*
0 Add four circle primitives for the rounded corners*
1,1,$1+$1,$2,$3*
1,1,$1+$1,$4,$5*
1,1,$1+$1,$6,$7*
1,1,$1+$1,$8,$9*
0 Add four rect primitives between the rounded corners*
20,1,$1+$1,$2,$3,$4,$5,0*
20,1,$1+$1,$4,$5,$6,$7,0*
20,1,$1+$1,$6,$7,$8,$9,0*
20,1,$1+$1,$8,$9,$2,$3,0*%
G04 Aperture macros list end*
%ADD10C,1.700000*%
%ADD11C,4.000000*%
%ADD12C,2.200000*%
%ADD13C,3.050000*%
%ADD14R,1.700000X1.700000*%
%ADD15RoundRect,0.250000X-0.550000X-0.550000X0.550000X-0.550000X0.550000X0.550000X-0.550000X0.550000X0*%
%ADD16C,1.600000*%
%ADD17C,2.540000*%
%ADD18R,2.000000X1.500000*%
%ADD19C,1.800000*%
G04 APERTURE END LIST*
D10*
%TO.C,SW5*%
X265557000Y-78676500D03*
D11*
X270637000Y-78676500D03*
D10*
X275717000Y-78676500D03*
D12*
X273177000Y-73596500D03*
X266827000Y-76136500D03*
X269367000Y-83756500D03*
X271907000Y-83756500D03*
%TD*%
D13*
%TO.C,SW11*%
X263601000Y-109791500D03*
D11*
X263601000Y-125031500D03*
D10*
X270421000Y-116791500D03*
D11*
X275501000Y-116791500D03*
D10*
X280581000Y-116791500D03*
D13*
X287401000Y-109791500D03*
D11*
X287401000Y-125031500D03*
D12*
X278041000Y-111711500D03*
X271691000Y-114251500D03*
X274231000Y-121871500D03*
X276771000Y-121871500D03*
%TD*%
D10*
%TO.C,SW12*%
X284607000Y-78676500D03*
D11*
X289687000Y-78676500D03*
D10*
X294767000Y-78676500D03*
D12*
X292227000Y-73596500D03*
X285877000Y-76136500D03*
X288417000Y-83756500D03*
X290957000Y-83756500D03*
%TD*%
D10*
%TO.C,SW14*%
X275082000Y-59626500D03*
D11*
X280162000Y-59626500D03*
D10*
X285242000Y-59626500D03*
D12*
X282702000Y-54546500D03*
X276352000Y-57086500D03*
X278892000Y-64706500D03*
X281432000Y-64706500D03*
%TD*%
D10*
%TO.C,SW15*%
X27432000Y-59626500D03*
D11*
X32512000Y-59626500D03*
D10*
X37592000Y-59626500D03*
D12*
X35052000Y-54546500D03*
X28702000Y-57086500D03*
X31242000Y-64706500D03*
X33782000Y-64706500D03*
%TD*%
D10*
%TO.C,SW20*%
X241808000Y-116776500D03*
D11*
X246888000Y-116776500D03*
D10*
X251968000Y-116776500D03*
D12*
X249428000Y-111696500D03*
X243078000Y-114236500D03*
X245618000Y-121856500D03*
X248158000Y-121856500D03*
%TD*%
D10*
%TO.C,SW21*%
X203708000Y-116776500D03*
D11*
X208788000Y-116776500D03*
D10*
X213868000Y-116776500D03*
D12*
X211328000Y-111696500D03*
X204978000Y-114236500D03*
X207518000Y-121856500D03*
X210058000Y-121856500D03*
%TD*%
D10*
%TO.C,SW22*%
X165608000Y-116776500D03*
D11*
X170688000Y-116776500D03*
D10*
X175768000Y-116776500D03*
D12*
X173228000Y-111696500D03*
X166878000Y-114236500D03*
X169418000Y-121856500D03*
X171958000Y-121856500D03*
%TD*%
D10*
%TO.C,SW23*%
X127508000Y-116776500D03*
D11*
X132588000Y-116776500D03*
D10*
X137668000Y-116776500D03*
D12*
X135128000Y-111696500D03*
X128778000Y-114236500D03*
X131318000Y-121856500D03*
X133858000Y-121856500D03*
%TD*%
D10*
%TO.C,SW24*%
X89408000Y-116776500D03*
D11*
X94488000Y-116776500D03*
D10*
X99568000Y-116776500D03*
D12*
X97028000Y-111696500D03*
X90678000Y-114236500D03*
X93218000Y-121856500D03*
X95758000Y-121856500D03*
%TD*%
D10*
%TO.C,SW27*%
X275336000Y-97726500D03*
D11*
X280416000Y-97726500D03*
D10*
X285496000Y-97726500D03*
D12*
X282956000Y-92646500D03*
X276606000Y-95186500D03*
X279146000Y-102806500D03*
X281686000Y-102806500D03*
%TD*%
D10*
%TO.C,SW28*%
X222758000Y-116776500D03*
D11*
X227838000Y-116776500D03*
D10*
X232918000Y-116776500D03*
D12*
X230378000Y-111696500D03*
X224028000Y-114236500D03*
X226568000Y-121856500D03*
X229108000Y-121856500D03*
%TD*%
D10*
%TO.C,SW29*%
X184658000Y-116776500D03*
D11*
X189738000Y-116776500D03*
D10*
X194818000Y-116776500D03*
D12*
X192278000Y-111696500D03*
X185928000Y-114236500D03*
X188468000Y-121856500D03*
X191008000Y-121856500D03*
%TD*%
D10*
%TO.C,SW30*%
X146558000Y-116776500D03*
D11*
X151638000Y-116776500D03*
D10*
X156718000Y-116776500D03*
D12*
X154178000Y-111696500D03*
X147828000Y-114236500D03*
X150368000Y-121856500D03*
X152908000Y-121856500D03*
%TD*%
D10*
%TO.C,SW32*%
X70358000Y-116776500D03*
D11*
X75438000Y-116776500D03*
D10*
X80518000Y-116776500D03*
D12*
X77978000Y-111696500D03*
X71628000Y-114236500D03*
X74168000Y-121856500D03*
X76708000Y-121856500D03*
%TD*%
D10*
%TO.C,SW36*%
X232410000Y-97726500D03*
D11*
X237490000Y-97726500D03*
D10*
X242570000Y-97726500D03*
D12*
X240030000Y-92646500D03*
X233680000Y-95186500D03*
X236220000Y-102806500D03*
X238760000Y-102806500D03*
%TD*%
D10*
%TO.C,SW40*%
X80010000Y-97726500D03*
D11*
X85090000Y-97726500D03*
D10*
X90170000Y-97726500D03*
D12*
X87630000Y-92646500D03*
X81280000Y-95186500D03*
X83820000Y-102806500D03*
X86360000Y-102806500D03*
%TD*%
D10*
%TO.C,SW44*%
X213360000Y-97726500D03*
D11*
X218440000Y-97726500D03*
D10*
X223520000Y-97726500D03*
D12*
X220980000Y-92646500D03*
X214630000Y-95186500D03*
X217170000Y-102806500D03*
X219710000Y-102806500D03*
%TD*%
D10*
%TO.C,SW47*%
X99060000Y-97726500D03*
D11*
X104140000Y-97726500D03*
D10*
X109220000Y-97726500D03*
D12*
X106680000Y-92646500D03*
X100330000Y-95186500D03*
X102870000Y-102806500D03*
X105410000Y-102806500D03*
%TD*%
D10*
%TO.C,SW52*%
X227457000Y-78676500D03*
D11*
X232537000Y-78676500D03*
D10*
X237617000Y-78676500D03*
D12*
X235077000Y-73596500D03*
X228727000Y-76136500D03*
X231267000Y-83756500D03*
X233807000Y-83756500D03*
%TD*%
D10*
%TO.C,SW53*%
X189357000Y-78676500D03*
D11*
X194437000Y-78676500D03*
D10*
X199517000Y-78676500D03*
D12*
X196977000Y-73596500D03*
X190627000Y-76136500D03*
X193167000Y-83756500D03*
X195707000Y-83756500D03*
%TD*%
D10*
%TO.C,SW55*%
X113157000Y-78676500D03*
D11*
X118237000Y-78676500D03*
D10*
X123317000Y-78676500D03*
D12*
X120777000Y-73596500D03*
X114427000Y-76136500D03*
X116967000Y-83756500D03*
X119507000Y-83756500D03*
%TD*%
D10*
%TO.C,SW56*%
X75057000Y-78676500D03*
D11*
X80137000Y-78676500D03*
D10*
X85217000Y-78676500D03*
D12*
X82677000Y-73596500D03*
X76327000Y-76136500D03*
X78867000Y-83756500D03*
X81407000Y-83756500D03*
%TD*%
D10*
%TO.C,SW59*%
X246507000Y-78676500D03*
D11*
X251587000Y-78676500D03*
D10*
X256667000Y-78676500D03*
D12*
X254127000Y-73596500D03*
X247777000Y-76136500D03*
X250317000Y-83756500D03*
X252857000Y-83756500D03*
%TD*%
D10*
%TO.C,SW60*%
X208407000Y-78676500D03*
D11*
X213487000Y-78676500D03*
D10*
X218567000Y-78676500D03*
D12*
X216027000Y-73596500D03*
X209677000Y-76136500D03*
X212217000Y-83756500D03*
X214757000Y-83756500D03*
%TD*%
D10*
%TO.C,SW61*%
X170307000Y-78676500D03*
D11*
X175387000Y-78676500D03*
D10*
X180467000Y-78676500D03*
D12*
X177927000Y-73596500D03*
X171577000Y-76136500D03*
X174117000Y-83756500D03*
X176657000Y-83756500D03*
%TD*%
D10*
%TO.C,SW62*%
X132207000Y-78676500D03*
D11*
X137287000Y-78676500D03*
D10*
X142367000Y-78676500D03*
D12*
X139827000Y-73596500D03*
X133477000Y-76136500D03*
X136017000Y-83756500D03*
X138557000Y-83756500D03*
%TD*%
D10*
%TO.C,SW63*%
X94107000Y-78676500D03*
D11*
X99187000Y-78676500D03*
D10*
X104267000Y-78676500D03*
D12*
X101727000Y-73596500D03*
X95377000Y-76136500D03*
X97917000Y-83756500D03*
X100457000Y-83756500D03*
%TD*%
D10*
%TO.C,SW70*%
X141732000Y-59626500D03*
D11*
X146812000Y-59626500D03*
D10*
X151892000Y-59626500D03*
D12*
X149352000Y-54546500D03*
X143002000Y-57086500D03*
X145542000Y-64706500D03*
X148082000Y-64706500D03*
%TD*%
D10*
%TO.C,SW75*%
X236982000Y-59626500D03*
D11*
X242062000Y-59626500D03*
D10*
X247142000Y-59626500D03*
D12*
X244602000Y-54546500D03*
X238252000Y-57086500D03*
X240792000Y-64706500D03*
X243332000Y-64706500D03*
%TD*%
D10*
%TO.C,SW77*%
X160782000Y-59626500D03*
D11*
X165862000Y-59626500D03*
D10*
X170942000Y-59626500D03*
D12*
X168402000Y-54546500D03*
X162052000Y-57086500D03*
X164592000Y-64706500D03*
X167132000Y-64706500D03*
%TD*%
D10*
%TO.C,SW78*%
X122682000Y-59626500D03*
D11*
X127762000Y-59626500D03*
D10*
X132842000Y-59626500D03*
D12*
X130302000Y-54546500D03*
X123952000Y-57086500D03*
X126492000Y-64706500D03*
X129032000Y-64706500D03*
%TD*%
D10*
%TO.C,SW64*%
X56007000Y-78676500D03*
D11*
X61087000Y-78676500D03*
D10*
X66167000Y-78676500D03*
D12*
X63627000Y-73596500D03*
X57277000Y-76136500D03*
X59817000Y-83756500D03*
X62357000Y-83756500D03*
%TD*%
D13*
%TO.C,SW16*%
X34963000Y-109776500D03*
D11*
X34963000Y-125016500D03*
D10*
X41783000Y-116776500D03*
D11*
X46863000Y-116776500D03*
D10*
X51943000Y-116776500D03*
D13*
X58763000Y-109776500D03*
D11*
X58763000Y-125016500D03*
D12*
X49403000Y-111696500D03*
X43053000Y-114236500D03*
X45593000Y-121856500D03*
X48133000Y-121856500D03*
%TD*%
D10*
%TO.C,SW68*%
X217932000Y-59626500D03*
D11*
X223012000Y-59626500D03*
D10*
X228092000Y-59626500D03*
D12*
X225552000Y-54546500D03*
X219202000Y-57086500D03*
X221742000Y-64706500D03*
X224282000Y-64706500D03*
%TD*%
D10*
%TO.C,SW4*%
X251460000Y-97726500D03*
D11*
X256540000Y-97726500D03*
D10*
X261620000Y-97726500D03*
D12*
X259080000Y-92646500D03*
X252730000Y-95186500D03*
X255270000Y-102806500D03*
X257810000Y-102806500D03*
%TD*%
D10*
%TO.C,SW79*%
X84582000Y-59626500D03*
D11*
X89662000Y-59626500D03*
D10*
X94742000Y-59626500D03*
D12*
X92202000Y-54546500D03*
X85852000Y-57086500D03*
X88392000Y-64706500D03*
X90932000Y-64706500D03*
%TD*%
D10*
%TO.C,SW71*%
X103632000Y-59626500D03*
D11*
X108712000Y-59626500D03*
D10*
X113792000Y-59626500D03*
D12*
X111252000Y-54546500D03*
X104902000Y-57086500D03*
X107442000Y-64706500D03*
X109982000Y-64706500D03*
%TD*%
D10*
%TO.C,SW72*%
X65532000Y-59626500D03*
D11*
X70612000Y-59626500D03*
D10*
X75692000Y-59626500D03*
D12*
X73152000Y-54546500D03*
X66802000Y-57086500D03*
X69342000Y-64706500D03*
X71882000Y-64706500D03*
%TD*%
D10*
%TO.C,SW80*%
X46482000Y-59626500D03*
D11*
X51562000Y-59626500D03*
D10*
X56642000Y-59626500D03*
D12*
X54102000Y-54546500D03*
X47752000Y-57086500D03*
X50292000Y-64706500D03*
X52832000Y-64706500D03*
%TD*%
D10*
%TO.C,SW8*%
X32194500Y-78676500D03*
D11*
X37274500Y-78676500D03*
D10*
X42354500Y-78676500D03*
D12*
X39814500Y-73596500D03*
X33464500Y-76136500D03*
X36004500Y-83756500D03*
X38544500Y-83756500D03*
%TD*%
D10*
%TO.C,SW7*%
X256032000Y-59626500D03*
D11*
X261112000Y-59626500D03*
D10*
X266192000Y-59626500D03*
D12*
X263652000Y-54546500D03*
X257302000Y-57086500D03*
X259842000Y-64706500D03*
X262382000Y-64706500D03*
%TD*%
D10*
%TO.C,SW39*%
X118110000Y-97726500D03*
D11*
X123190000Y-97726500D03*
D10*
X128270000Y-97726500D03*
D12*
X125730000Y-92646500D03*
X119380000Y-95186500D03*
X121920000Y-102806500D03*
X124460000Y-102806500D03*
%TD*%
D10*
%TO.C,SW37*%
X194310000Y-97726500D03*
D11*
X199390000Y-97726500D03*
D10*
X204470000Y-97726500D03*
D12*
X201930000Y-92646500D03*
X195580000Y-95186500D03*
X198120000Y-102806500D03*
X200660000Y-102806500D03*
%TD*%
D10*
%TO.C,SW38*%
X156210000Y-97726500D03*
D11*
X161290000Y-97726500D03*
D10*
X166370000Y-97726500D03*
D12*
X163830000Y-92646500D03*
X157480000Y-95186500D03*
X160020000Y-102806500D03*
X162560000Y-102806500D03*
%TD*%
D10*
%TO.C,SW46*%
X137160000Y-97726500D03*
D11*
X142240000Y-97726500D03*
D10*
X147320000Y-97726500D03*
D12*
X144780000Y-92646500D03*
X138430000Y-95186500D03*
X140970000Y-102806500D03*
X143510000Y-102806500D03*
%TD*%
D10*
%TO.C,SW45*%
X175260000Y-97726500D03*
D11*
X180340000Y-97726500D03*
D10*
X185420000Y-97726500D03*
D12*
X182880000Y-92646500D03*
X176530000Y-95186500D03*
X179070000Y-102806500D03*
X181610000Y-102806500D03*
%TD*%
D10*
%TO.C,SW31*%
X108458000Y-116776500D03*
D11*
X113538000Y-116776500D03*
D10*
X118618000Y-116776500D03*
D12*
X116078000Y-111696500D03*
X109728000Y-114236500D03*
X112268000Y-121856500D03*
X114808000Y-121856500D03*
%TD*%
D10*
%TO.C,SW67*%
X84645500Y-135826500D03*
D11*
X89725500Y-135826500D03*
D10*
X94805500Y-135826500D03*
D12*
X92265500Y-130746500D03*
X85915500Y-133286500D03*
X88455500Y-140906500D03*
X90995500Y-140906500D03*
%TD*%
D10*
%TO.C,SW48*%
X60960000Y-97726500D03*
D11*
X66040000Y-97726500D03*
D10*
X71120000Y-97726500D03*
D12*
X68580000Y-92646500D03*
X62230000Y-95186500D03*
X64770000Y-102806500D03*
X67310000Y-102806500D03*
%TD*%
D10*
%TO.C,SW54*%
X151257000Y-78676500D03*
D11*
X156337000Y-78676500D03*
D10*
X161417000Y-78676500D03*
D12*
X158877000Y-73596500D03*
X152527000Y-76136500D03*
X155067000Y-83756500D03*
X157607000Y-83756500D03*
%TD*%
D10*
%TO.C,SW320*%
X37084000Y-97663000D03*
D11*
X42164000Y-97663000D03*
D10*
X47244000Y-97663000D03*
D12*
X44704000Y-92583000D03*
X38354000Y-95123000D03*
X40894000Y-102743000D03*
X43434000Y-102743000D03*
%TD*%
D10*
%TO.C,SW76*%
X198882000Y-59626500D03*
D11*
X203962000Y-59626500D03*
D10*
X209042000Y-59626500D03*
D12*
X206502000Y-54546500D03*
X200152000Y-57086500D03*
X202692000Y-64706500D03*
X205232000Y-64706500D03*
%TD*%
D10*
%TO.C,SW69*%
X179832000Y-59626500D03*
D11*
X184912000Y-59626500D03*
D10*
X189992000Y-59626500D03*
D12*
X187452000Y-54546500D03*
X181102000Y-57086500D03*
X183642000Y-64706500D03*
X186182000Y-64706500D03*
%TD*%
D14*
%TO.C,J2*%
X41148000Y-132270500D03*
D10*
X43688000Y-132270500D03*
X41148000Y-134810500D03*
X43688000Y-134810500D03*
X41148000Y-137350500D03*
X43688000Y-137350500D03*
%TD*%
%TO.C,SW3*%
X229870000Y-135826500D03*
D11*
X234950000Y-135826500D03*
D10*
X240030000Y-135826500D03*
D12*
X237490000Y-130746500D03*
X231140000Y-133286500D03*
X233680000Y-140906500D03*
X236220000Y-140906500D03*
%TD*%
D14*
%TO.C,J3*%
X253276100Y-134150100D03*
D10*
X255816100Y-134150100D03*
X253276100Y-136690100D03*
X255816100Y-136690100D03*
%TD*%
D14*
%TO.C,J5*%
X194500500Y-134683500D03*
D10*
X197040500Y-134683500D03*
X194500500Y-137223500D03*
X197040500Y-137223500D03*
%TD*%
D14*
%TO.C,J6*%
X127825500Y-134112000D03*
D10*
X130365500Y-134112000D03*
X127825500Y-136652000D03*
X130365500Y-136652000D03*
%TD*%
D14*
%TO.C,J67*%
X68008500Y-134302500D03*
D10*
X70548500Y-134302500D03*
X68008500Y-136842500D03*
X70548500Y-136842500D03*
%TD*%
D13*
%TO.C,SW6*%
X113538000Y-128826500D03*
D11*
X113538000Y-144066500D03*
D10*
X158458000Y-135826500D03*
D11*
X163538000Y-135826500D03*
D10*
X168618000Y-135826500D03*
D13*
X213538000Y-128826500D03*
D11*
X213538000Y-144066500D03*
D12*
X166078000Y-130746500D03*
X159728000Y-133286500D03*
X162268000Y-140906500D03*
X164808000Y-140906500D03*
%TD*%
D10*
%TO.C,SW66*%
X338201000Y-59639200D03*
D11*
X343281000Y-59639200D03*
D10*
X348361000Y-59639200D03*
D12*
X345821000Y-54559200D03*
X339471000Y-57099200D03*
X342011000Y-64719200D03*
X344551000Y-64719200D03*
%TD*%
D10*
%TO.C,SW74*%
X319151000Y-59639200D03*
D11*
X324231000Y-59639200D03*
D10*
X329311000Y-59639200D03*
D12*
X326771000Y-54559200D03*
X320421000Y-57099200D03*
X322961000Y-64719200D03*
X325501000Y-64719200D03*
%TD*%
D10*
%TO.C,SW58*%
X319151000Y-78689200D03*
D11*
X324231000Y-78689200D03*
D10*
X329311000Y-78689200D03*
D12*
X326771000Y-73609200D03*
X320421000Y-76149200D03*
X322961000Y-83769200D03*
X325501000Y-83769200D03*
%TD*%
D10*
%TO.C,SW65*%
X376301000Y-59639200D03*
D11*
X381381000Y-59639200D03*
D10*
X386461000Y-59639200D03*
D12*
X383921000Y-54559200D03*
X377571000Y-57099200D03*
X380111000Y-64719200D03*
X382651000Y-64719200D03*
%TD*%
D10*
%TO.C,SW73*%
X357251000Y-59639200D03*
D11*
X362331000Y-59639200D03*
D10*
X367411000Y-59639200D03*
D12*
X364871000Y-54559200D03*
X358521000Y-57099200D03*
X361061000Y-64719200D03*
X363601000Y-64719200D03*
%TD*%
D10*
%TO.C,SW50*%
X338201000Y-78689200D03*
D11*
X343281000Y-78689200D03*
D10*
X348361000Y-78689200D03*
D12*
X345821000Y-73609200D03*
X339471000Y-76149200D03*
X342011000Y-83769200D03*
X344551000Y-83769200D03*
%TD*%
D10*
%TO.C,SW10*%
X319151000Y-135839200D03*
D11*
X324231000Y-135839200D03*
D10*
X329311000Y-135839200D03*
D12*
X326771000Y-130759200D03*
X320421000Y-133299200D03*
X322961000Y-140919200D03*
X325501000Y-140919200D03*
%TD*%
D10*
%TO.C,SW41*%
X357251000Y-97739200D03*
D11*
X362331000Y-97739200D03*
D10*
X367411000Y-97739200D03*
D12*
X364871000Y-92659200D03*
X358521000Y-95199200D03*
X361061000Y-102819200D03*
X363601000Y-102819200D03*
%TD*%
D10*
%TO.C,SW33*%
X376301000Y-97739200D03*
D11*
X381381000Y-97739200D03*
D10*
X386461000Y-97739200D03*
D12*
X383921000Y-92659200D03*
X377571000Y-95199200D03*
X380111000Y-102819200D03*
X382651000Y-102819200D03*
%TD*%
D10*
%TO.C,SW25*%
X357251000Y-116789200D03*
D11*
X362331000Y-116789200D03*
D10*
X367411000Y-116789200D03*
D12*
X364871000Y-111709200D03*
X358521000Y-114249200D03*
X361061000Y-121869200D03*
X363601000Y-121869200D03*
%TD*%
D10*
%TO.C,SW17*%
X376301000Y-116789200D03*
D11*
X381381000Y-116789200D03*
D10*
X386461000Y-116789200D03*
D12*
X383921000Y-111709200D03*
X377571000Y-114249200D03*
X380111000Y-121869200D03*
X382651000Y-121869200D03*
%TD*%
D10*
%TO.C,SW26*%
X319151000Y-116789200D03*
D11*
X324231000Y-116789200D03*
D10*
X329311000Y-116789200D03*
D12*
X326771000Y-111709200D03*
X320421000Y-114249200D03*
X322961000Y-121869200D03*
X325501000Y-121869200D03*
%TD*%
D10*
%TO.C,SW57*%
X357251000Y-78689200D03*
D11*
X362331000Y-78689200D03*
D10*
X367411000Y-78689200D03*
D12*
X364871000Y-73609200D03*
X358521000Y-76149200D03*
X361061000Y-83769200D03*
X363601000Y-83769200D03*
%TD*%
D10*
%TO.C,SW42*%
X319151000Y-97739200D03*
D11*
X324231000Y-97739200D03*
D10*
X329311000Y-97739200D03*
D12*
X326771000Y-92659200D03*
X320421000Y-95199200D03*
X322961000Y-102819200D03*
X325501000Y-102819200D03*
%TD*%
D10*
%TO.C,SW34*%
X338201000Y-97739200D03*
D11*
X343281000Y-97739200D03*
D10*
X348361000Y-97739200D03*
D12*
X345821000Y-92659200D03*
X339471000Y-95199200D03*
X342011000Y-102819200D03*
X344551000Y-102819200D03*
%TD*%
D10*
%TO.C,SW9*%
X357251000Y-135839200D03*
D11*
X362331000Y-135839200D03*
D10*
X367411000Y-135839200D03*
D12*
X364871000Y-130759200D03*
X358521000Y-133299200D03*
X361061000Y-140919200D03*
X363601000Y-140919200D03*
%TD*%
D10*
%TO.C,SW18*%
X338201000Y-116789200D03*
D11*
X343281000Y-116789200D03*
D10*
X348361000Y-116789200D03*
D12*
X345821000Y-111709200D03*
X339471000Y-114249200D03*
X342011000Y-121869200D03*
X344551000Y-121869200D03*
%TD*%
D10*
%TO.C,SW49*%
X376301000Y-78689200D03*
D11*
X381381000Y-78689200D03*
D10*
X386461000Y-78689200D03*
D12*
X383921000Y-73609200D03*
X377571000Y-76149200D03*
X380111000Y-83769200D03*
X382651000Y-83769200D03*
%TD*%
D10*
%TO.C,SW1*%
X376301000Y-135839200D03*
D11*
X381381000Y-135839200D03*
D10*
X386461000Y-135839200D03*
D12*
X383921000Y-130759200D03*
X377571000Y-133299200D03*
X380111000Y-140919200D03*
X382651000Y-140919200D03*
%TD*%
D10*
%TO.C,SW2*%
X338201000Y-135839200D03*
D11*
X343281000Y-135839200D03*
D10*
X348361000Y-135839200D03*
D12*
X345821000Y-130759200D03*
X339471000Y-133299200D03*
X342011000Y-140919200D03*
X344551000Y-140919200D03*
%TD*%
D15*
%TO.C,U1*%
X302532200Y-64333800D03*
D16*
X302532200Y-66873800D03*
X302532200Y-69413800D03*
X302532200Y-71953800D03*
X302532200Y-74493800D03*
X302532200Y-77033800D03*
X302532200Y-79573800D03*
X302532200Y-82113800D03*
X310152200Y-82113800D03*
X310152200Y-79573800D03*
X310152200Y-77033800D03*
X310152200Y-74493800D03*
X310152200Y-71953800D03*
X310152200Y-69413800D03*
X310152200Y-66873800D03*
X310152200Y-64333800D03*
%TD*%
D14*
%TO.C,J4*%
X293060200Y-59481800D03*
D10*
X295600200Y-59481800D03*
X293060200Y-62021800D03*
X295600200Y-62021800D03*
%TD*%
D17*
%TO.C,U5*%
X310963000Y-125224000D03*
X310963000Y-135224000D03*
X298313000Y-135224000D03*
X298313000Y-125224000D03*
D18*
X301138000Y-124474000D03*
X308138000Y-124474000D03*
X308138000Y-119974000D03*
X301138000Y-119974000D03*
D19*
X307138000Y-138954000D03*
X304638000Y-138954000D03*
X302138000Y-138954000D03*
X295908000Y-132724000D03*
X295908000Y-130224000D03*
X295908000Y-127724000D03*
%TD*%
D14*
%TO.C,J1*%
X234099100Y-48615600D03*
D10*
X231559100Y-48615600D03*
X229019100Y-48615600D03*
X226479100Y-48615600D03*
X223939100Y-48615600D03*
X221399100Y-48615600D03*
X218859100Y-48615600D03*
X216319100Y-48615600D03*
X213779100Y-48615600D03*
X211239100Y-48615600D03*
X208699100Y-48615600D03*
X206159100Y-48615600D03*
X203619100Y-48615600D03*
X201079100Y-48615600D03*
X198539100Y-48615600D03*
X195999100Y-48615600D03*
X193459100Y-48615600D03*
X190919100Y-48615600D03*
X188379100Y-48615600D03*
X185839100Y-48615600D03*
X185839100Y-51155600D03*
X188379100Y-51155600D03*
X190919100Y-51155600D03*
X193459100Y-51155600D03*
X195999100Y-51155600D03*
X198539100Y-51155600D03*
X201079100Y-51155600D03*
X203619100Y-51155600D03*
X206159100Y-51155600D03*
X208699100Y-51155600D03*
%TD*%
M02*
