%TF.GenerationSoftware,KiCad,Pcbnew,9.0.4*%
%TF.CreationDate,2025-10-14T21:42:09+02:00*%
%TF.ProjectId,petkn,7065746b-6e2e-46b6-9963-61645f706362,rev?*%
%TF.SameCoordinates,Original*%
%TF.FileFunction,Copper,L1,Top*%
%TF.FilePolarity,Positive*%
%FSLAX46Y46*%
G04 Gerber Fmt 4.6, Leading zero omitted, Abs format (unit mm)*
G04 Created by KiCad (PCBNEW 9.0.4) date 2025-10-14 21:42:09*
%MOMM*%
%LPD*%
G01*
G04 APERTURE LIST*
G04 Aperture macros list*
%AMRoundRect*
0 Rectangle with rounded corners*
0 $1 Rounding radius*
0 $2 $3 $4 $5 $6 $7 $8 $9 X,Y pos of 4 corners*
0 Add a 4 corners polygon primitive as box body*
4,1,4,$2,$3,$4,$5,$6,$7,$8,$9,$2,$3,0*
0 Add four circle primitives for the rounded corners*
1,1,$1+$1,$2,$3*
1,1,$1+$1,$4,$5*
1,1,$1+$1,$6,$7*
1,1,$1+$1,$8,$9*
0 Add four rect primitives between the rounded corners*
20,1,$1+$1,$2,$3,$4,$5,0*
20,1,$1+$1,$4,$5,$6,$7,0*
20,1,$1+$1,$6,$7,$8,$9,0*
20,1,$1+$1,$8,$9,$2,$3,0*%
%AMFreePoly0*
4,1,23,0.500000,-0.750000,0.000000,-0.750000,0.000000,-0.745722,-0.065263,-0.745722,-0.191342,-0.711940,-0.304381,-0.646677,-0.396677,-0.554381,-0.461940,-0.441342,-0.495722,-0.315263,-0.495722,-0.250000,-0.500000,-0.250000,-0.500000,0.250000,-0.495722,0.250000,-0.495722,0.315263,-0.461940,0.441342,-0.396677,0.554381,-0.304381,0.646677,-0.191342,0.711940,-0.065263,0.745722,0.000000,0.745722,
0.000000,0.750000,0.500000,0.750000,0.500000,-0.750000,0.500000,-0.750000,$1*%
%AMFreePoly1*
4,1,23,0.000000,0.745722,0.065263,0.745722,0.191342,0.711940,0.304381,0.646677,0.396677,0.554381,0.461940,0.441342,0.495722,0.315263,0.495722,0.250000,0.500000,0.250000,0.500000,-0.250000,0.495722,-0.250000,0.495722,-0.315263,0.461940,-0.441342,0.396677,-0.554381,0.304381,-0.646677,0.191342,-0.711940,0.065263,-0.745722,0.000000,-0.745722,0.000000,-0.750000,-0.500000,-0.750000,
-0.500000,0.750000,0.000000,0.750000,0.000000,0.745722,0.000000,0.745722,$1*%
%AMFreePoly2*
4,1,23,0.550000,-0.750000,0.000000,-0.750000,0.000000,-0.745722,-0.065263,-0.745722,-0.191342,-0.711940,-0.304381,-0.646677,-0.396677,-0.554381,-0.461940,-0.441342,-0.495722,-0.315263,-0.495722,-0.250000,-0.500000,-0.250000,-0.500000,0.250000,-0.495722,0.250000,-0.495722,0.315263,-0.461940,0.441342,-0.396677,0.554381,-0.304381,0.646677,-0.191342,0.711940,-0.065263,0.745722,0.000000,0.745722,
0.000000,0.750000,0.550000,0.750000,0.550000,-0.750000,0.550000,-0.750000,$1*%
%AMFreePoly3*
4,1,23,0.000000,0.745722,0.065263,0.745722,0.191342,0.711940,0.304381,0.646677,0.396677,0.554381,0.461940,0.441342,0.495722,0.315263,0.495722,0.250000,0.500000,0.250000,0.500000,-0.250000,0.495722,-0.250000,0.495722,-0.315263,0.461940,-0.441342,0.396677,-0.554381,0.304381,-0.646677,0.191342,-0.711940,0.065263,-0.745722,0.000000,-0.745722,0.000000,-0.750000,-0.550000,-0.750000,
-0.550000,0.750000,0.000000,0.750000,0.000000,0.745722,0.000000,0.745722,$1*%
G04 Aperture macros list end*
%TA.AperFunction,EtchedComponent*%
%ADD10C,0.000000*%
%TD*%
%TA.AperFunction,ComponentPad*%
%ADD11C,2.200000*%
%TD*%
%TA.AperFunction,SMDPad,CuDef*%
%ADD12FreePoly0,0.000000*%
%TD*%
%TA.AperFunction,SMDPad,CuDef*%
%ADD13FreePoly1,0.000000*%
%TD*%
%TA.AperFunction,SMDPad,CuDef*%
%ADD14FreePoly2,90.000000*%
%TD*%
%TA.AperFunction,SMDPad,CuDef*%
%ADD15R,1.500000X1.000000*%
%TD*%
%TA.AperFunction,SMDPad,CuDef*%
%ADD16FreePoly3,90.000000*%
%TD*%
%TA.AperFunction,ComponentPad*%
%ADD17C,2.540000*%
%TD*%
%TA.AperFunction,ComponentPad*%
%ADD18R,2.000000X1.500000*%
%TD*%
%TA.AperFunction,ComponentPad*%
%ADD19C,1.800000*%
%TD*%
%TA.AperFunction,ComponentPad*%
%ADD20RoundRect,0.250000X-0.600000X-0.600000X0.600000X-0.600000X0.600000X0.600000X-0.600000X0.600000X0*%
%TD*%
%TA.AperFunction,ComponentPad*%
%ADD21C,1.700000*%
%TD*%
%TA.AperFunction,ComponentPad*%
%ADD22RoundRect,0.250000X0.600000X-0.600000X0.600000X0.600000X-0.600000X0.600000X-0.600000X-0.600000X0*%
%TD*%
%TA.AperFunction,ComponentPad*%
%ADD23R,1.700000X1.700000*%
%TD*%
%TA.AperFunction,ViaPad*%
%ADD24C,0.800000*%
%TD*%
%TA.AperFunction,Conductor*%
%ADD25C,0.400000*%
%TD*%
%TA.AperFunction,Conductor*%
%ADD26C,0.800000*%
%TD*%
G04 APERTURE END LIST*
D10*
%TA.AperFunction,EtchedComponent*%
%TO.C,JP4*%
G36*
X64308000Y-142632000D02*
G01*
X63708000Y-142632000D01*
X63708000Y-142132000D01*
X64308000Y-142132000D01*
X64308000Y-142632000D01*
G37*
%TD.AperFunction*%
%TA.AperFunction,EtchedComponent*%
%TO.C,JP10*%
G36*
X51182167Y-132214352D02*
G01*
X50682167Y-132214352D01*
X50682167Y-131614352D01*
X51182167Y-131614352D01*
X51182167Y-132214352D01*
G37*
%TD.AperFunction*%
%TA.AperFunction,EtchedComponent*%
%TO.C,JP9*%
G36*
X47041780Y-133700044D02*
G01*
X46541780Y-133700044D01*
X46541780Y-133100044D01*
X47041780Y-133100044D01*
X47041780Y-133700044D01*
G37*
%TD.AperFunction*%
%TA.AperFunction,EtchedComponent*%
%TO.C,JP6*%
G36*
X61972717Y-134614146D02*
G01*
X61372717Y-134614146D01*
X61372717Y-134114146D01*
X61972717Y-134114146D01*
X61972717Y-134614146D01*
G37*
%TD.AperFunction*%
%TA.AperFunction,EtchedComponent*%
%TO.C,JP7*%
G36*
X66140647Y-134614146D02*
G01*
X65540647Y-134614146D01*
X65540647Y-134114146D01*
X66140647Y-134114146D01*
X66140647Y-134614146D01*
G37*
%TD.AperFunction*%
%TD*%
D11*
%TO.P,SW5,1,1*%
%TO.N,C4*%
X273177000Y-73596500D03*
%TO.P,SW5,2,2*%
%TO.N,R10*%
X266827000Y-76136500D03*
%TD*%
%TO.P,SW11,1,1*%
%TO.N,C6*%
X278041000Y-111711500D03*
%TO.P,SW11,2,2*%
%TO.N,R9*%
X271691000Y-114251500D03*
%TD*%
%TO.P,SW12,1,1*%
%TO.N,C5*%
X292227000Y-73596500D03*
%TO.P,SW12,2,2*%
%TO.N,R9*%
X285877000Y-76136500D03*
%TD*%
%TO.P,SW14,1,1*%
%TO.N,C3*%
X282702000Y-54546500D03*
%TO.P,SW14,2,2*%
%TO.N,R9*%
X276352000Y-57086500D03*
%TD*%
%TO.P,SW15,1,1*%
%TO.N,C2*%
X35052000Y-54546500D03*
%TO.P,SW15,2,2*%
%TO.N,R9*%
X28702000Y-57086500D03*
%TD*%
%TO.P,SW20,1,1*%
%TO.N,C5*%
X249428000Y-111696500D03*
%TO.P,SW20,2,2*%
%TO.N,R8*%
X243078000Y-114236500D03*
%TD*%
%TO.P,SW21,1,1*%
%TO.N,C4*%
X211328000Y-111696500D03*
%TO.P,SW21,2,2*%
%TO.N,R8*%
X204978000Y-114236500D03*
%TD*%
%TO.P,SW22,1,1*%
%TO.N,C3*%
X173228000Y-111696500D03*
%TO.P,SW22,2,2*%
%TO.N,R8*%
X166878000Y-114236500D03*
%TD*%
%TO.P,SW23,1,1*%
%TO.N,C2*%
X135128000Y-111696500D03*
%TO.P,SW23,2,2*%
%TO.N,R8*%
X128778000Y-114236500D03*
%TD*%
%TO.P,SW24,1,1*%
%TO.N,C1*%
X97028000Y-111696500D03*
%TO.P,SW24,2,2*%
%TO.N,R8*%
X90678000Y-114236500D03*
%TD*%
%TO.P,SW27,1,1*%
%TO.N,C6*%
X282956000Y-92646500D03*
%TO.P,SW27,2,2*%
%TO.N,R7*%
X276606000Y-95186500D03*
%TD*%
%TO.P,SW28,1,1*%
%TO.N,C5*%
X230378000Y-111696500D03*
%TO.P,SW28,2,2*%
%TO.N,R7*%
X224028000Y-114236500D03*
%TD*%
%TO.P,SW29,1,1*%
%TO.N,C4*%
X192278000Y-111696500D03*
%TO.P,SW29,2,2*%
%TO.N,R7*%
X185928000Y-114236500D03*
%TD*%
%TO.P,SW30,1,1*%
%TO.N,C3*%
X154178000Y-111696500D03*
%TO.P,SW30,2,2*%
%TO.N,R7*%
X147828000Y-114236500D03*
%TD*%
%TO.P,SW32,1,1*%
%TO.N,C1*%
X77978000Y-111696500D03*
%TO.P,SW32,2,2*%
%TO.N,R7*%
X71628000Y-114236500D03*
%TD*%
%TO.P,SW36,1,1*%
%TO.N,C5*%
X240030000Y-92646500D03*
%TO.P,SW36,2,2*%
%TO.N,R6*%
X233680000Y-95186500D03*
%TD*%
%TO.P,SW40,1,1*%
%TO.N,C1*%
X87630000Y-92646500D03*
%TO.P,SW40,2,2*%
%TO.N,R6*%
X81280000Y-95186500D03*
%TD*%
%TO.P,SW44,1,1*%
%TO.N,C5*%
X220980000Y-92646500D03*
%TO.P,SW44,2,2*%
%TO.N,R5*%
X214630000Y-95186500D03*
%TD*%
%TO.P,SW47,1,1*%
%TO.N,C2*%
X106680000Y-92646500D03*
%TO.P,SW47,2,2*%
%TO.N,R5*%
X100330000Y-95186500D03*
%TD*%
%TO.P,SW52,1,1*%
%TO.N,C5*%
X235077000Y-73596500D03*
%TO.P,SW52,2,2*%
%TO.N,R4*%
X228727000Y-76136500D03*
%TD*%
%TO.P,SW53,1,1*%
%TO.N,C4*%
X196977000Y-73596500D03*
%TO.P,SW53,2,2*%
%TO.N,R4*%
X190627000Y-76136500D03*
%TD*%
%TO.P,SW55,1,1*%
%TO.N,C2*%
X120777000Y-73596500D03*
%TO.P,SW55,2,2*%
%TO.N,R4*%
X114427000Y-76136500D03*
%TD*%
%TO.P,SW56,1,1*%
%TO.N,C1*%
X82677000Y-73596500D03*
%TO.P,SW56,2,2*%
%TO.N,R4*%
X76327000Y-76136500D03*
%TD*%
%TO.P,SW59,1,1*%
%TO.N,C6*%
X254127000Y-73596500D03*
%TO.P,SW59,2,2*%
%TO.N,R3*%
X247777000Y-76136500D03*
%TD*%
%TO.P,SW60,1,1*%
%TO.N,C5*%
X216027000Y-73596500D03*
%TO.P,SW60,2,2*%
%TO.N,R3*%
X209677000Y-76136500D03*
%TD*%
%TO.P,SW61,1,1*%
%TO.N,C4*%
X177927000Y-73596500D03*
%TO.P,SW61,2,2*%
%TO.N,R3*%
X171577000Y-76136500D03*
%TD*%
%TO.P,SW62,1,1*%
%TO.N,C3*%
X139827000Y-73596500D03*
%TO.P,SW62,2,2*%
%TO.N,R3*%
X133477000Y-76136500D03*
%TD*%
%TO.P,SW63,1,1*%
%TO.N,C2*%
X101727000Y-73596500D03*
%TO.P,SW63,2,2*%
%TO.N,R3*%
X95377000Y-76136500D03*
%TD*%
%TO.P,SW70,1,1*%
%TO.N,C3*%
X149352000Y-54546500D03*
%TO.P,SW70,2,2*%
%TO.N,R2*%
X143002000Y-57086500D03*
%TD*%
%TO.P,SW75,1,1*%
%TO.N,C6*%
X244602000Y-54546500D03*
%TO.P,SW75,2,2*%
%TO.N,R1*%
X238252000Y-57086500D03*
%TD*%
%TO.P,SW77,1,1*%
%TO.N,C4*%
X168402000Y-54546500D03*
%TO.P,SW77,2,2*%
%TO.N,R1*%
X162052000Y-57086500D03*
%TD*%
%TO.P,SW78,1,1*%
%TO.N,C3*%
X130302000Y-54546500D03*
%TO.P,SW78,2,2*%
%TO.N,R1*%
X123952000Y-57086500D03*
%TD*%
%TO.P,SW64,1,1*%
%TO.N,C1*%
X63627000Y-73596500D03*
%TO.P,SW64,2,2*%
%TO.N,R3*%
X57277000Y-76136500D03*
%TD*%
%TO.P,SW16,1,1*%
%TO.N,C1*%
X49403000Y-111696500D03*
%TO.P,SW16,2,2*%
%TO.N,R9*%
X43053000Y-114236500D03*
%TD*%
%TO.P,SW68,1,1*%
%TO.N,C5*%
X225552000Y-54546500D03*
%TO.P,SW68,2,2*%
%TO.N,R2*%
X219202000Y-57086500D03*
%TD*%
%TO.P,SW4,1,1*%
%TO.N,C5*%
X259080000Y-92646500D03*
%TO.P,SW4,2,2*%
%TO.N,R10*%
X252730000Y-95186500D03*
%TD*%
%TO.P,SW79,1,1*%
%TO.N,C2*%
X92202000Y-54546500D03*
%TO.P,SW79,2,2*%
%TO.N,R1*%
X85852000Y-57086500D03*
%TD*%
%TO.P,SW71,1,1*%
%TO.N,C2*%
X111252000Y-54546500D03*
%TO.P,SW71,2,2*%
%TO.N,R2*%
X104902000Y-57086500D03*
%TD*%
%TO.P,SW72,1,1*%
%TO.N,C1*%
X73152000Y-54546500D03*
%TO.P,SW72,2,2*%
%TO.N,R2*%
X66802000Y-57086500D03*
%TD*%
%TO.P,SW80,1,1*%
%TO.N,C1*%
X54102000Y-54546500D03*
%TO.P,SW80,2,2*%
%TO.N,R1*%
X47752000Y-57086500D03*
%TD*%
%TO.P,SW8,1,1*%
%TO.N,C1*%
X39814500Y-73596500D03*
%TO.P,SW8,2,2*%
%TO.N,R10*%
X33464500Y-76136500D03*
%TD*%
%TO.P,SW7,1,1*%
%TO.N,C2*%
X263652000Y-54546500D03*
%TO.P,SW7,2,2*%
%TO.N,R10*%
X257302000Y-57086500D03*
%TD*%
%TO.P,SW39,1,1*%
%TO.N,C2*%
X125730000Y-92646500D03*
%TO.P,SW39,2,2*%
%TO.N,R6*%
X119380000Y-95186500D03*
%TD*%
%TO.P,SW37,1,1*%
%TO.N,C4*%
X201930000Y-92646500D03*
%TO.P,SW37,2,2*%
%TO.N,R6*%
X195580000Y-95186500D03*
%TD*%
%TO.P,SW38,1,1*%
%TO.N,C3*%
X163830000Y-92646500D03*
%TO.P,SW38,2,2*%
%TO.N,R6*%
X157480000Y-95186500D03*
%TD*%
%TO.P,SW46,1,1*%
%TO.N,C3*%
X144780000Y-92646500D03*
%TO.P,SW46,2,2*%
%TO.N,R5*%
X138430000Y-95186500D03*
%TD*%
%TO.P,SW45,1,1*%
%TO.N,C4*%
X182880000Y-92646500D03*
%TO.P,SW45,2,2*%
%TO.N,R5*%
X176530000Y-95186500D03*
%TD*%
%TO.P,SW31,1,1*%
%TO.N,C2*%
X116078000Y-111696500D03*
%TO.P,SW31,2,2*%
%TO.N,R7*%
X109728000Y-114236500D03*
%TD*%
%TO.P,SW67,1,1*%
%TO.N,XC67*%
X92265500Y-130746500D03*
%TO.P,SW67,2,2*%
%TO.N,XR67*%
X85915500Y-133286500D03*
%TD*%
%TO.P,SW48,1,1*%
%TO.N,C1*%
X68580000Y-92646500D03*
%TO.P,SW48,2,2*%
%TO.N,R5*%
X62230000Y-95186500D03*
%TD*%
%TO.P,SW54,1,1*%
%TO.N,C3*%
X158877000Y-73596500D03*
%TO.P,SW54,2,2*%
%TO.N,R4*%
X152527000Y-76136500D03*
%TD*%
%TO.P,SW320,1,1*%
%TO.N,XC1*%
X44704000Y-92583000D03*
%TO.P,SW320,2,2*%
%TO.N,xR9*%
X38354000Y-95123000D03*
%TD*%
%TO.P,SW76,1,1*%
%TO.N,C5*%
X206502000Y-54546500D03*
%TO.P,SW76,2,2*%
%TO.N,R1*%
X200152000Y-57086500D03*
%TD*%
%TO.P,SW69,1,1*%
%TO.N,C4*%
X187452000Y-54546500D03*
%TO.P,SW69,2,2*%
%TO.N,R2*%
X181102000Y-57086500D03*
%TD*%
%TO.P,SW3,1,1*%
%TO.N,XC3*%
X237490000Y-130746500D03*
%TO.P,SW3,2,2*%
%TO.N,R10*%
X231140000Y-133286500D03*
%TD*%
%TO.P,SW6,1,1*%
%TO.N,C3*%
X166078000Y-130746500D03*
%TO.P,SW6,2,2*%
%TO.N,R10*%
X159728000Y-133286500D03*
%TD*%
%TO.P,SW66,1,1*%
%TO.N,C7*%
X345821000Y-54559200D03*
%TO.P,SW66,2,2*%
%TO.N,R2*%
X339471000Y-57099200D03*
%TD*%
%TO.P,SW74,1,1*%
%TO.N,C7*%
X326771000Y-54559200D03*
%TO.P,SW74,2,2*%
%TO.N,R1*%
X320421000Y-57099200D03*
%TD*%
%TO.P,SW58,1,1*%
%TO.N,C7*%
X326771000Y-73609200D03*
%TO.P,SW58,2,2*%
%TO.N,R3*%
X320421000Y-76149200D03*
%TD*%
%TO.P,SW65,1,1*%
%TO.N,C8*%
X383921000Y-54559200D03*
%TO.P,SW65,2,2*%
%TO.N,R2*%
X377571000Y-57099200D03*
%TD*%
%TO.P,SW73,1,1*%
%TO.N,C8*%
X364871000Y-54559200D03*
%TO.P,SW73,2,2*%
%TO.N,R1*%
X358521000Y-57099200D03*
%TD*%
%TO.P,SW50,1,1*%
%TO.N,C7*%
X345821000Y-73609200D03*
%TO.P,SW50,2,2*%
%TO.N,R4*%
X339471000Y-76149200D03*
%TD*%
%TO.P,SW10,1,1*%
%TO.N,C7*%
X326771000Y-130759200D03*
%TO.P,SW10,2,2*%
%TO.N,R9*%
X320421000Y-133299200D03*
%TD*%
%TO.P,SW41,1,1*%
%TO.N,C8*%
X364871000Y-92659200D03*
%TO.P,SW41,2,2*%
%TO.N,R5*%
X358521000Y-95199200D03*
%TD*%
%TO.P,SW33,1,1*%
%TO.N,C8*%
X383921000Y-92659200D03*
%TO.P,SW33,2,2*%
%TO.N,R6*%
X377571000Y-95199200D03*
%TD*%
%TO.P,SW25,1,1*%
%TO.N,C8*%
X364871000Y-111709200D03*
%TO.P,SW25,2,2*%
%TO.N,R7*%
X358521000Y-114249200D03*
%TD*%
%TO.P,SW17,1,1*%
%TO.N,C8*%
X383921000Y-111709200D03*
%TO.P,SW17,2,2*%
%TO.N,R8*%
X377571000Y-114249200D03*
%TD*%
%TO.P,SW26,1,1*%
%TO.N,C7*%
X326771000Y-111709200D03*
%TO.P,SW26,2,2*%
%TO.N,R7*%
X320421000Y-114249200D03*
%TD*%
%TO.P,SW57,1,1*%
%TO.N,C8*%
X364871000Y-73609200D03*
%TO.P,SW57,2,2*%
%TO.N,R3*%
X358521000Y-76149200D03*
%TD*%
%TO.P,SW42,1,1*%
%TO.N,C7*%
X326771000Y-92659200D03*
%TO.P,SW42,2,2*%
%TO.N,R5*%
X320421000Y-95199200D03*
%TD*%
%TO.P,SW34,1,1*%
%TO.N,C7*%
X345821000Y-92659200D03*
%TO.P,SW34,2,2*%
%TO.N,R6*%
X339471000Y-95199200D03*
%TD*%
%TO.P,SW9,1,1*%
%TO.N,C8*%
X364871000Y-130759200D03*
%TO.P,SW9,2,2*%
%TO.N,R9*%
X358521000Y-133299200D03*
%TD*%
%TO.P,SW18,1,1*%
%TO.N,C7*%
X345821000Y-111709200D03*
%TO.P,SW18,2,2*%
%TO.N,R8*%
X339471000Y-114249200D03*
%TD*%
%TO.P,SW49,1,1*%
%TO.N,C8*%
X383921000Y-73609200D03*
%TO.P,SW49,2,2*%
%TO.N,R4*%
X377571000Y-76149200D03*
%TD*%
%TO.P,SW1,1,1*%
%TO.N,C8*%
X383921000Y-130759200D03*
%TO.P,SW1,2,2*%
%TO.N,R10*%
X377571000Y-133299200D03*
%TD*%
%TO.P,SW2,1,1*%
%TO.N,C7*%
X345821000Y-130759200D03*
%TO.P,SW2,2,2*%
%TO.N,R10*%
X339471000Y-133299200D03*
%TD*%
D12*
%TO.P,JP8,1,A*%
%TO.N,C6*%
X46141780Y-136190146D03*
D13*
%TO.P,JP8,2,B*%
%TO.N,XC1*%
X47441780Y-136190146D03*
%TD*%
D14*
%TO.P,JP4,1,A*%
%TO.N,C6*%
X64008000Y-143032000D03*
D15*
%TO.P,JP4,2,C*%
%TO.N,XC3*%
X64008000Y-141732000D03*
D16*
%TO.P,JP4,3,B*%
%TO.N,C3*%
X64008000Y-140432000D03*
%TD*%
D12*
%TO.P,JP3,1,A*%
%TO.N,C1*%
X46141780Y-130625782D03*
D13*
%TO.P,JP3,2,B*%
%TO.N,XC1*%
X47441780Y-130625782D03*
%TD*%
D12*
%TO.P,JP10,1,A*%
%TO.N,xR9*%
X50282167Y-131914352D03*
D13*
%TO.P,JP10,2,B*%
%TO.N,R9*%
X51582167Y-131914352D03*
%TD*%
D12*
%TO.P,JP11,1,A*%
%TO.N,xR9*%
X50282167Y-136258901D03*
D13*
%TO.P,JP11,2,B*%
%TO.N,R4*%
X51582167Y-136258901D03*
%TD*%
D17*
%TO.P,U5,1*%
%TO.N,N/C*%
X310709000Y-128018000D03*
%TO.P,U5,2*%
X310709000Y-138018000D03*
%TO.P,U5,3*%
X298059000Y-138018000D03*
%TO.P,U5,4*%
X298059000Y-128018000D03*
D18*
%TO.P,U5,5,SW2_A*%
%TO.N,C6*%
X300884000Y-127268000D03*
%TO.P,U5,6,SW1_B*%
%TO.N,unconnected-(U5C-SW1_B-Pad6)*%
X307884000Y-127268000D03*
%TO.P,U5,7,SW1_A*%
%TO.N,unconnected-(U5C-SW1_A-Pad7)*%
X307884000Y-122768000D03*
%TO.P,U5,8,SW2_B*%
%TO.N,R7*%
X300884000Y-122768000D03*
D19*
%TO.P,U5,9,Left*%
%TO.N,GND*%
X306884000Y-141748000D03*
%TO.P,U5,10,LRmid*%
%TO.N,JOYA*%
X304384000Y-141748000D03*
%TO.P,U5,11,Right*%
%TO.N,VCC*%
X301884000Y-141748000D03*
%TO.P,U5,12,Up*%
X295654000Y-135518000D03*
%TO.P,U5,13,UDmid*%
%TO.N,JOYB*%
X295654000Y-133018000D03*
%TO.P,U5,14,Down*%
%TO.N,GND*%
X295654000Y-130518000D03*
%TD*%
D12*
%TO.P,JP9,1,A*%
%TO.N,C4*%
X46141780Y-133400044D03*
D13*
%TO.P,JP9,2,B*%
%TO.N,XC1*%
X47441780Y-133400044D03*
%TD*%
D14*
%TO.P,JP6,1,A*%
%TO.N,C6*%
X61672717Y-135014146D03*
D15*
%TO.P,JP6,2,C*%
%TO.N,XC67*%
X61672717Y-133714146D03*
D16*
%TO.P,JP6,3,B*%
%TO.N,C3*%
X61672717Y-132414146D03*
%TD*%
D20*
%TO.P,J7,1,MISO*%
%TO.N,Net-(J7-MISO)*%
X306587500Y-77211000D03*
D21*
%TO.P,J7,2,VCC*%
%TO.N,VCC*%
X309127500Y-77211000D03*
%TO.P,J7,3,SCK*%
%TO.N,Net-(J7-SCK)*%
X306587500Y-79751000D03*
%TO.P,J7,4,MOSI*%
%TO.N,Net-(J7-MOSI)*%
X309127500Y-79751000D03*
%TO.P,J7,5,~{RST}*%
%TO.N,cR1*%
X306587500Y-82291000D03*
%TO.P,J7,6,GND*%
%TO.N,GND*%
X309127500Y-82291000D03*
%TD*%
D14*
%TO.P,JP7,1,A*%
%TO.N,R2*%
X65840647Y-135014146D03*
D15*
%TO.P,JP7,2,C*%
%TO.N,XR67*%
X65840647Y-133714146D03*
D16*
%TO.P,JP7,3,B*%
%TO.N,R10*%
X65840647Y-132414146D03*
%TD*%
D22*
%TO.P,J4,1,MISO*%
%TO.N,CC7*%
X301239000Y-64760500D03*
D21*
%TO.P,J4,2,VCC*%
%TO.N,VCC*%
X301239000Y-62220500D03*
%TO.P,J4,3,SCK*%
%TO.N,CC8*%
X303779000Y-64760500D03*
%TO.P,J4,4,MOSI*%
%TO.N,CC6*%
X303779000Y-62220500D03*
%TO.P,J4,5,~{RST}*%
%TO.N,Net-(J4-~{RST})*%
X306319000Y-64760500D03*
%TO.P,J4,6,GND*%
%TO.N,GND*%
X306319000Y-62220500D03*
%TD*%
D23*
%TO.P,J1,1,GND*%
%TO.N,GND*%
X234099100Y-48615600D03*
D21*
%TO.P,J1,2,key*%
%TO.N,unconnected-(J1-key-Pad2)*%
X231559100Y-48615600D03*
%TO.P,J1,3,R10*%
%TO.N,R10*%
X229019100Y-48615600D03*
%TO.P,J1,4,R9*%
%TO.N,R9*%
X226479100Y-48615600D03*
%TO.P,J1,5,R8*%
%TO.N,R8*%
X223939100Y-48615600D03*
%TO.P,J1,6,R7*%
%TO.N,R7*%
X221399100Y-48615600D03*
%TO.P,J1,7,R6*%
%TO.N,R6*%
X218859100Y-48615600D03*
%TO.P,J1,8,R5*%
%TO.N,R5*%
X216319100Y-48615600D03*
%TO.P,J1,9,R4*%
%TO.N,R4*%
X213779100Y-48615600D03*
%TO.P,J1,10,R3*%
%TO.N,R3*%
X211239100Y-48615600D03*
%TO.P,J1,11,R2*%
%TO.N,cR2*%
X208699100Y-48615600D03*
%TO.P,J1,12,R1*%
%TO.N,cR1*%
X206159100Y-48615600D03*
%TO.P,J1,13,C8*%
%TO.N,CC8*%
X203619100Y-48615600D03*
%TO.P,J1,14,C7*%
%TO.N,CC7*%
X201079100Y-48615600D03*
%TO.P,J1,15,C6*%
%TO.N,CC6*%
X198539100Y-48615600D03*
%TO.P,J1,16,C5*%
%TO.N,CC5*%
X195999100Y-48615600D03*
%TO.P,J1,17,C4*%
%TO.N,CC4*%
X193459100Y-48615600D03*
%TO.P,J1,18,C3*%
%TO.N,CC3*%
X190919100Y-48615600D03*
%TO.P,J1,19,C2*%
%TO.N,CC2*%
X188379100Y-48615600D03*
%TO.P,J1,20,C1*%
%TO.N,CC1*%
X185839100Y-48615600D03*
%TO.P,J1,21,GND*%
%TO.N,GND*%
X185839100Y-51155600D03*
%TO.P,J1,22,S0*%
%TO.N,S0*%
X188379100Y-51155600D03*
%TO.P,J1,23,S1*%
%TO.N,S1*%
X190919100Y-51155600D03*
%TO.P,J1,24,S2*%
%TO.N,S2*%
X193459100Y-51155600D03*
%TO.P,J1,25,S3*%
%TO.N,S3*%
X195999100Y-51155600D03*
%TO.P,J1,26,VCC5*%
%TO.N,VCC*%
X198539100Y-51155600D03*
%TO.P,J1,27,VCC33*%
%TO.N,VCC33*%
X201079100Y-51155600D03*
%TO.P,J1,28,SCL*%
%TO.N,LVSCL*%
X203619100Y-51155600D03*
%TO.P,J1,29,SCA*%
%TO.N,LVSDA*%
X206159100Y-51155600D03*
%TO.P,J1,30,RESTORE*%
%TO.N,RESTORE*%
X208699100Y-51155600D03*
%TD*%
D24*
%TO.N,C1*%
X258285531Y-133986213D03*
X256947573Y-115869598D03*
X82296000Y-92646500D03*
X38862000Y-111506000D03*
X73152000Y-73596500D03*
X259375128Y-72048000D03*
X87376000Y-111696500D03*
%TO.N,R1*%
X231140000Y-61468000D03*
X208788000Y-62484000D03*
X231140000Y-57086500D03*
X215900000Y-139192000D03*
%TO.N,C2*%
X259361322Y-134617202D03*
X258035014Y-115877231D03*
X121731709Y-92458209D03*
X126491000Y-112488858D03*
X111252000Y-73596500D03*
%TO.N,C3*%
X159004000Y-70104000D03*
X285496000Y-70104000D03*
X149352000Y-73596500D03*
X165157000Y-111696500D03*
X64262000Y-108966000D03*
X169164000Y-111696500D03*
X159512000Y-92646500D03*
X270510000Y-143256000D03*
X257661322Y-134830528D03*
X256588000Y-114554000D03*
X256700959Y-70451041D03*
X258195596Y-144450000D03*
%TO.N,C4*%
X141224000Y-108800000D03*
X265001801Y-112545969D03*
X199136000Y-111506000D03*
X187740000Y-73596500D03*
X270256000Y-140208000D03*
X197104000Y-92646500D03*
X264326000Y-114918000D03*
X269748000Y-112683000D03*
X142240000Y-126238000D03*
X279400000Y-112850000D03*
X44196000Y-133096000D03*
%TO.N,C5*%
X240284000Y-111696500D03*
X255140811Y-112304251D03*
X270510000Y-133858000D03*
X227490731Y-73748000D03*
X235204000Y-92646500D03*
X291592000Y-93897500D03*
X255140811Y-120650000D03*
%TO.N,C6*%
X265430000Y-120904000D03*
X62484000Y-136398000D03*
X244602000Y-73660000D03*
X282956000Y-71374000D03*
X144526000Y-109474000D03*
X265364276Y-111517681D03*
X303022000Y-111767500D03*
X275844000Y-133096000D03*
X143764000Y-128524000D03*
%TO.N,C7*%
X285408000Y-116586000D03*
X327152000Y-137668000D03*
X285348195Y-137839456D03*
%TO.N,C8*%
X289852000Y-116332000D03*
X256921000Y-71448000D03*
X287782000Y-91694000D03*
X284480000Y-138430000D03*
X255366000Y-91440000D03*
%TO.N,R2*%
X219964000Y-138176000D03*
%TO.N,R3*%
X222904000Y-78332564D03*
X219964000Y-137160000D03*
X247403343Y-106360748D03*
X220616911Y-106732000D03*
%TO.N,R4*%
X222507114Y-76885333D03*
X217932000Y-76136500D03*
X52679600Y-74777600D03*
X219124004Y-135505969D03*
%TO.N,R5*%
X224879723Y-97004644D03*
X332232000Y-95199200D03*
X332740000Y-109220000D03*
X291592000Y-110236000D03*
X290894519Y-100087144D03*
X216053391Y-133571309D03*
%TO.N,R6*%
X266700000Y-90424000D03*
X339218351Y-89574252D03*
X266700000Y-94996000D03*
X225551974Y-96198056D03*
X218514000Y-132980470D03*
X221347382Y-95136618D03*
%TO.N,R7*%
X292774000Y-112617500D03*
X227168000Y-93980000D03*
X294767000Y-96088200D03*
X300990000Y-113401500D03*
X224028000Y-131572000D03*
%TO.N,R8*%
X335622000Y-118008400D03*
X225044000Y-118770400D03*
X225552000Y-132080000D03*
X335788000Y-114300000D03*
%TO.N,R9*%
X231140000Y-131572000D03*
X277451999Y-68072000D03*
X50038000Y-114300000D03*
X278371708Y-75835267D03*
X232664000Y-113792000D03*
X306324000Y-114542200D03*
X228931156Y-67873175D03*
X308356000Y-125476000D03*
X30480000Y-68580000D03*
%TO.N,R10*%
X294132000Y-126847600D03*
X67056000Y-129032000D03*
X261328439Y-76604522D03*
X159613600Y-124688600D03*
X64858000Y-113112972D03*
X229597605Y-143431969D03*
X45968685Y-112546500D03*
X172212000Y-134112000D03*
X268224000Y-95504000D03*
X294132000Y-101092000D03*
X173228000Y-142748000D03*
X231648000Y-54864000D03*
X235712000Y-94996000D03*
%TO.N,XC3*%
X243386101Y-140482418D03*
X128524000Y-146304000D03*
%TO.N,XC1*%
X28448000Y-91440000D03*
%TO.N,XR67*%
X68072000Y-134620000D03*
%TO.N,XC67*%
X62992000Y-133604000D03*
%TO.N,S2*%
X255204315Y-132420119D03*
X261187749Y-138725244D03*
X214884000Y-126250500D03*
X209804000Y-126492000D03*
X186944000Y-130556000D03*
X209296000Y-138684000D03*
X187452000Y-134620000D03*
X209804000Y-129032000D03*
%TO.N,S1*%
X206082000Y-131572000D03*
X212173029Y-127110000D03*
X260438000Y-138009471D03*
X206248000Y-142748000D03*
X255773918Y-133264106D03*
X206220825Y-134851867D03*
X189157620Y-137557178D03*
X188996390Y-142343403D03*
%TO.N,GND*%
X180086000Y-135890000D03*
X233491000Y-123280300D03*
X260103867Y-145765463D03*
X309880000Y-93472000D03*
X140785985Y-130625985D03*
X177800000Y-139192000D03*
X243611400Y-141909800D03*
X233761207Y-104566793D03*
X194056000Y-104749600D03*
X189306200Y-85623400D03*
X293116000Y-144692000D03*
X277504305Y-134483695D03*
X142240000Y-85355300D03*
X235281650Y-121489650D03*
X104648000Y-141224000D03*
X177800000Y-66380300D03*
X310388000Y-89916000D03*
X181356000Y-133096000D03*
X95504000Y-66305300D03*
X291592000Y-66393000D03*
X303784000Y-92456000D03*
X261505534Y-120658698D03*
X181356000Y-123530300D03*
X268803425Y-143947700D03*
X263652000Y-85355300D03*
X330073000Y-83261200D03*
X329615800Y-123543000D03*
X265684000Y-65404300D03*
X104648000Y-85355300D03*
X81280000Y-123455300D03*
X102108000Y-66305300D03*
X334772000Y-66776600D03*
X239776000Y-85686000D03*
X330073000Y-85368000D03*
X334772000Y-123543000D03*
X233680000Y-66305300D03*
X56896000Y-66305300D03*
X335965149Y-105590157D03*
X330250800Y-140385800D03*
X189050000Y-65962908D03*
X105664000Y-135636000D03*
X54356000Y-104405300D03*
X330352400Y-63830200D03*
X95453200Y-63957200D03*
X265642523Y-131396000D03*
X305816000Y-99568000D03*
X329412600Y-120980200D03*
X158064200Y-123672600D03*
X308356000Y-66393000D03*
X293751000Y-85985829D03*
X138176000Y-104337000D03*
X291592000Y-61468000D03*
X109220000Y-104405300D03*
X283376000Y-140274000D03*
X140208000Y-123537000D03*
X271519907Y-136249570D03*
X180848000Y-85355300D03*
X109753400Y-102235000D03*
X268224000Y-131572000D03*
X310388000Y-85985829D03*
X308356000Y-98552000D03*
X304546000Y-145310000D03*
X305816000Y-97536000D03*
X330250800Y-66827400D03*
X276812506Y-137790637D03*
X54864000Y-122340500D03*
X142240000Y-66305300D03*
X104722000Y-123329667D03*
X264209041Y-104785041D03*
X240284000Y-140882000D03*
X158089600Y-121285000D03*
X334772000Y-85544111D03*
X282177000Y-122648568D03*
X54356000Y-85437000D03*
X293598600Y-94234000D03*
X176276000Y-104482000D03*
X104978200Y-83286600D03*
X330824770Y-105879000D03*
X181356000Y-132080000D03*
X291896800Y-104493000D03*
X196596000Y-134112000D03*
X331292200Y-143179800D03*
X276503964Y-144938000D03*
X234682382Y-130061618D03*
X197104000Y-123455300D03*
X330555600Y-102387400D03*
%TO.N,S0*%
X260702769Y-137024060D03*
X187582031Y-138352004D03*
X206337000Y-129417534D03*
X208858714Y-131939248D03*
X185928000Y-130048000D03*
X254794907Y-134185437D03*
%TO.N,SCL*%
X277191000Y-128061110D03*
X309626000Y-120142000D03*
X131572000Y-137668000D03*
X309838781Y-99471612D03*
X272332132Y-136914998D03*
%TO.N,S3*%
X261204312Y-139775116D03*
X208694959Y-142146959D03*
X253807326Y-131978632D03*
X195002679Y-141390000D03*
X215770122Y-125787042D03*
X194564000Y-135128000D03*
X210820000Y-125984000D03*
%TO.N,VCC33*%
X133282426Y-105537000D03*
X211464798Y-105234000D03*
X131064000Y-135128000D03*
%TO.N,SDA*%
X130146203Y-136789526D03*
X272361858Y-137916060D03*
X310642000Y-120650000D03*
X276558550Y-129121415D03*
X310783292Y-99930310D03*
%TO.N,VCC*%
X269919305Y-119532695D03*
X231470200Y-100761800D03*
X352552000Y-120421400D03*
X100330000Y-138277500D03*
X212011226Y-139164026D03*
X315468000Y-77216000D03*
X156057600Y-119837200D03*
X197612000Y-63003300D03*
X298196000Y-82296000D03*
X297688000Y-76708000D03*
X317850000Y-115392200D03*
X352552000Y-82066000D03*
X215417400Y-119684800D03*
X293878000Y-135890000D03*
X55880000Y-119939500D03*
X150952200Y-62763400D03*
X283992235Y-62871906D03*
X273177000Y-101790500D03*
X94589600Y-81737200D03*
X352552000Y-101041000D03*
X283464000Y-115163600D03*
X100355400Y-119430800D03*
X209982469Y-101645528D03*
X317490687Y-139829422D03*
X283571851Y-138957039D03*
X377444000Y-138404600D03*
X55556000Y-82849419D03*
X237845600Y-137388600D03*
X148869400Y-100761800D03*
X319913000Y-120218200D03*
X315976000Y-62839600D03*
X143078200Y-119837200D03*
X55372000Y-100826000D03*
X376453400Y-81661000D03*
X277190200Y-141427200D03*
X283303342Y-133604000D03*
X82042000Y-139903200D03*
X270302342Y-136611838D03*
X275844000Y-101790500D03*
X206590000Y-81737200D03*
X277926800Y-81686400D03*
X58597800Y-62759230D03*
X352552000Y-63016000D03*
X230733600Y-119790498D03*
X231089200Y-62738000D03*
X376859800Y-120091000D03*
X98171000Y-62306200D03*
X376504200Y-100660200D03*
X279400000Y-94488000D03*
X264792335Y-135070631D03*
X195148200Y-119837200D03*
X96367600Y-100812600D03*
X352552000Y-139141000D03*
X299336026Y-92086800D03*
X375920000Y-62484000D03*
X319087500Y-101079300D03*
X301752000Y-144346000D03*
X289233500Y-63178300D03*
X193006004Y-100840924D03*
X82626200Y-119837200D03*
X230657400Y-142087600D03*
X273456400Y-114528600D03*
X289052000Y-57404000D03*
X148437600Y-81711800D03*
X187463965Y-62383506D03*
X156565600Y-139725400D03*
X188056623Y-82709148D03*
X228685300Y-81711800D03*
X227888800Y-139742816D03*
X315468000Y-82804000D03*
%TO.N,Net-(J4-~{RST})*%
X302768000Y-107696000D03*
X267857088Y-127962896D03*
X268224000Y-108204000D03*
%TO.N,Net-(U2-PD1)*%
X226060000Y-138684000D03*
X268000000Y-137500000D03*
%TO.N,Net-(U2-PC3)*%
X272639752Y-140042331D03*
X250921124Y-139012906D03*
%TO.N,Net-(U2-PD0)*%
X265510771Y-136063025D03*
X226839801Y-139696929D03*
%TO.N,Net-(U2-PC2)*%
X271570872Y-138596000D03*
X249894486Y-139012906D03*
%TO.N,Net-(U2-PD2)*%
X200152000Y-134620000D03*
X201298031Y-125299996D03*
%TO.N,CLK16M*%
X270446582Y-127695641D03*
X269582000Y-121748160D03*
X150876000Y-128524000D03*
X274244860Y-127561159D03*
X312018000Y-122428000D03*
X199644000Y-123952000D03*
X199136000Y-132588000D03*
X155207600Y-134375169D03*
X311404000Y-93980000D03*
%TO.N,Net-(U3-A3)*%
X204516795Y-125770432D03*
X205232000Y-139700000D03*
%TO.N,Net-(U3-A2)*%
X204887000Y-126721110D03*
X204216000Y-137160000D03*
%TO.N,Net-(U3-A1)*%
X208788000Y-136144000D03*
X208788000Y-127508000D03*
%TO.N,Net-(U3-A0)*%
X204216000Y-133604000D03*
X203801041Y-128690000D03*
%TO.N,Net-(U4-D3)*%
X142748000Y-139700000D03*
X143090000Y-134526959D03*
%TO.N,Net-(U4-D4)*%
X188282061Y-127179258D03*
X189794240Y-135690861D03*
%TO.N,Net-(U4-D1)*%
X193040000Y-125476000D03*
X193040000Y-133604000D03*
%TO.N,Net-(U4-D5)*%
X188797766Y-128093891D03*
X189113042Y-140643403D03*
%TO.N,Net-(U4-D0)*%
X173736000Y-134112000D03*
X174244000Y-144272000D03*
X143764000Y-144272000D03*
X143764000Y-138684000D03*
%TO.N,Net-(J7-SCK)*%
X308194075Y-89750000D03*
%TO.N,Net-(J7-MISO)*%
X307144072Y-89750000D03*
%TO.N,Net-(J7-MOSI)*%
X305187042Y-78180194D03*
X306076968Y-90258000D03*
%TO.N,L0*%
X386080000Y-91440000D03*
X384556000Y-138684000D03*
%TO.N,Net-(SW17B-DIN)*%
X386334000Y-120904000D03*
X356108000Y-125984000D03*
X356616000Y-140970000D03*
X386334000Y-125730000D03*
%TO.N,Net-(SW25B-DOUT)*%
X385826000Y-102108000D03*
X386080000Y-106934000D03*
X354838000Y-106680000D03*
X355346000Y-122682000D03*
%TO.N,Net-(SW41B-DOUT)*%
X386334000Y-83058000D03*
X355346000Y-103632000D03*
X355600000Y-88138000D03*
X386334000Y-88138000D03*
%TO.N,Net-(SW57B-DOUT)*%
X355346000Y-68580000D03*
X356362000Y-84074000D03*
X386334000Y-63754000D03*
X386334000Y-68580000D03*
%TO.N,L1*%
X350012000Y-140208000D03*
X350012000Y-91948000D03*
%TO.N,L6*%
X270764000Y-64516000D03*
X271523479Y-89750000D03*
X320478679Y-89066000D03*
X318760071Y-95561585D03*
%TO.N,L4*%
X319542041Y-85135829D03*
X279908000Y-83312000D03*
X279908000Y-81280000D03*
X317500000Y-94488000D03*
%TO.N,L3*%
X317105400Y-92032182D03*
X317105400Y-88575487D03*
X270764000Y-102108000D03*
X273843124Y-90498000D03*
%TO.N,L7*%
X44196000Y-87376000D03*
X319024000Y-87884000D03*
X318008000Y-96520000D03*
X43688000Y-82804000D03*
%TO.N,L2*%
X301244000Y-110236000D03*
X253999217Y-143173312D03*
X310788082Y-96594000D03*
X308610000Y-110236000D03*
%TO.N,L5*%
X245695996Y-124980300D03*
X314065607Y-95060475D03*
X244041261Y-139184261D03*
X313020000Y-119126000D03*
%TO.N,Net-(D1-K)*%
X261620000Y-129032000D03*
X271219209Y-132454497D03*
%TO.N,cR1*%
X271272000Y-127000000D03*
X77900041Y-57393959D03*
X307700876Y-93946415D03*
X77724000Y-50800000D03*
X274241306Y-126552893D03*
X309208482Y-89750000D03*
X221677600Y-127826384D03*
X307125102Y-119634000D03*
X207650789Y-52159842D03*
%TO.N,cR2*%
X76708000Y-49784000D03*
X77724000Y-60960000D03*
%TO.N,JOYA*%
X267462000Y-145542000D03*
%TO.N,xR9*%
X50292000Y-128524000D03*
X53340000Y-128524000D03*
%TO.N,Net-(SW11B-DIN)*%
X235356400Y-118364000D03*
X229883600Y-140889654D03*
%TO.N,Net-(SW12B-DIN)*%
X294640000Y-87884000D03*
X250952000Y-88900000D03*
X251968000Y-103124000D03*
X294640000Y-83312000D03*
%TO.N,Net-(SW320B-DIN)*%
X51308000Y-88392000D03*
X265176000Y-84328000D03*
X51308000Y-102108000D03*
X265610000Y-87857672D03*
%TO.N,Net-(SW14B-DIN)*%
X287020000Y-64008000D03*
X156972000Y-141224000D03*
X284386959Y-85945041D03*
X163576000Y-86360000D03*
%TO.N,Net-(SW15B-DIN)*%
X256032000Y-67056000D03*
X256032000Y-64516000D03*
X42164000Y-65024000D03*
X42164000Y-67564000D03*
%TO.N,Net-(SW16B-DIN)*%
X51308000Y-120904000D03*
X32512000Y-84328000D03*
%TO.N,Net-(SW10B-DOUT)*%
X348234000Y-121412000D03*
X348234000Y-124714000D03*
X316230000Y-124968000D03*
X316865000Y-141401800D03*
%TO.N,Net-(SW11B-DOUT)*%
X271272000Y-124656500D03*
X284988000Y-101600000D03*
X283377000Y-124301717D03*
X271265789Y-122265461D03*
%TO.N,Net-(SW12B-DOUT)*%
X284988000Y-84328000D03*
X251460000Y-120904000D03*
X289271952Y-89482000D03*
X249347128Y-89441277D03*
%TO.N,Net-(SW14B-DOUT)*%
X274320000Y-65532000D03*
X265443592Y-66974490D03*
X179832000Y-121412000D03*
X261424517Y-109855565D03*
X274424077Y-67645088D03*
X181522000Y-108624000D03*
%TO.N,Net-(SW15B-DOUT)*%
X26924000Y-65532000D03*
X27940000Y-119380000D03*
X138176000Y-118872000D03*
X138176000Y-121412000D03*
%TO.N,Net-(SW16B-DOUT)*%
X99060000Y-120904000D03*
X98552000Y-125984000D03*
%TO.N,Net-(SW21B-DIN)*%
X216746540Y-122832389D03*
X215387614Y-105234000D03*
%TO.N,Net-(SW26B-DOUT)*%
X347980000Y-106680000D03*
X316484000Y-106680000D03*
X318432611Y-120394907D03*
X347980000Y-102108000D03*
%TO.N,Net-(SW27B-DOUT)*%
X262128000Y-82804000D03*
X262456000Y-103124000D03*
%TO.N,Net-(SW28B-DOUT)*%
X242316000Y-102108000D03*
X221677600Y-122685516D03*
X221310160Y-105103472D03*
X242462160Y-105334660D03*
%TO.N,Net-(SW29B-DOUT)*%
X203829999Y-102108000D03*
X203708000Y-107696000D03*
X183896000Y-107622000D03*
X182372000Y-122428000D03*
%TO.N,Net-(SW30B-DOUT)*%
X165608000Y-102108000D03*
X166116000Y-107188000D03*
X144780000Y-122428000D03*
X145372283Y-108029414D03*
%TO.N,Net-(SW31B-DOUT)*%
X128016000Y-107188000D03*
X108211187Y-109816000D03*
X107866569Y-121731431D03*
X128016000Y-102108000D03*
%TO.N,Net-(SW32B-DOUT)*%
X70612000Y-121920000D03*
X89408000Y-107188000D03*
X70104000Y-107188000D03*
X89408000Y-102108000D03*
%TO.N,Net-(SW42B-DOUT)*%
X348488000Y-83058000D03*
X319975600Y-103378000D03*
X348742000Y-87630000D03*
X322580000Y-87630000D03*
%TO.N,Net-(SW44B-DOUT)*%
X211076001Y-88900000D03*
X237236000Y-82804000D03*
X237236000Y-88900000D03*
X213360000Y-103632000D03*
%TO.N,Net-(SW45B-DOUT)*%
X199136000Y-88900000D03*
X173736000Y-88900000D03*
X199136000Y-82804000D03*
X173736000Y-103632000D03*
%TO.N,Net-(SW46B-DOUT)*%
X161036000Y-82804000D03*
X134112000Y-103124000D03*
X160528000Y-88900000D03*
X134620000Y-88900000D03*
%TO.N,Net-(SW47B-DOUT)*%
X122936000Y-82804000D03*
X98336100Y-86575900D03*
X98552000Y-103632000D03*
X122936000Y-86360000D03*
%TO.N,Net-(SW48B-DOUT)*%
X59944000Y-86360000D03*
X60960000Y-103124000D03*
X85115400Y-86563200D03*
X84836000Y-82804000D03*
%TO.N,Net-(SW58B-DOUT)*%
X318596461Y-83943787D03*
X347980000Y-68072000D03*
X347980000Y-64008000D03*
X318008000Y-68580000D03*
%TO.N,Net-(SW59B-DOUT)*%
X246888000Y-84836000D03*
X104824004Y-138553969D03*
X246888000Y-89916000D03*
X102108000Y-89916000D03*
%TO.N,Net-(SW60B-DOUT)*%
X205960041Y-70899959D03*
X208280000Y-84328000D03*
X227873827Y-71138000D03*
X228092000Y-64008000D03*
%TO.N,Net-(SW61B-DOUT)*%
X190712809Y-67874000D03*
X168656000Y-68072000D03*
X169164000Y-84328000D03*
X190449000Y-64008000D03*
%TO.N,Net-(SW62B-DOUT)*%
X131572000Y-84328000D03*
X131064000Y-70612000D03*
X152400000Y-64008000D03*
X152400000Y-70612000D03*
%TO.N,Net-(SW63B-DOUT)*%
X113284000Y-64008000D03*
X113284000Y-69596000D03*
X91948000Y-70104000D03*
X92456000Y-84328000D03*
%TO.N,Net-(SW64B-DOUT)*%
X60545041Y-67730000D03*
X75184000Y-64008000D03*
X56388000Y-84328000D03*
X77146679Y-67730000D03*
%TO.N,Net-(SW67B-DOUT)*%
X108204000Y-70954000D03*
X246888000Y-64008000D03*
X106172000Y-141732000D03*
X247330783Y-70538000D03*
%TO.N,LVSDA*%
X216733930Y-66420421D03*
X123952000Y-68072000D03*
X124275225Y-136258064D03*
%TO.N,LVSCL*%
X123993070Y-137750556D03*
X207864000Y-61449180D03*
X123952000Y-61468000D03*
%TO.N,JOYB*%
X268478000Y-144946000D03*
%TO.N,CC1*%
X254792000Y-109084181D03*
X193459894Y-108436340D03*
X255270136Y-131280155D03*
X253839428Y-116686955D03*
%TO.N,CC8*%
X301918000Y-105655282D03*
X267208000Y-106846000D03*
X293624000Y-117856000D03*
X208534000Y-69088000D03*
X293116000Y-106496000D03*
X302089000Y-69088000D03*
X266820652Y-127794650D03*
%TO.N,CC5*%
X208248232Y-108002233D03*
X261112000Y-130048000D03*
X259121522Y-123281731D03*
X259588000Y-108458000D03*
%TO.N,CC4*%
X259755557Y-118989231D03*
X205630000Y-93667874D03*
X260700341Y-131013941D03*
X263652000Y-91098000D03*
%TO.N,CC3*%
X260858000Y-132080000D03*
X205545299Y-107598486D03*
X259775036Y-106282168D03*
X258878063Y-118354062D03*
%TO.N,CC6*%
X266192000Y-122174000D03*
X300268000Y-105509955D03*
X209042000Y-106084000D03*
X264817490Y-128421807D03*
X265176000Y-106680000D03*
%TO.N,CC2*%
X256958822Y-131770461D03*
X255180548Y-117750000D03*
X191770000Y-72898000D03*
X248412000Y-106345500D03*
X249267041Y-72585500D03*
X255853098Y-106260000D03*
%TO.N,CC7*%
X286258000Y-119126000D03*
X301239000Y-71374000D03*
X266192000Y-107696000D03*
X301918000Y-106846000D03*
X265828564Y-128138549D03*
X285750000Y-107096000D03*
X207772000Y-73914000D03*
%TD*%
D25*
%TO.N,C1*%
X258462000Y-131145666D02*
X258650341Y-131334007D01*
X259080000Y-132292738D02*
X259080000Y-133191744D01*
X87630000Y-92646500D02*
X87630000Y-111442500D01*
X38862000Y-121158000D02*
X38862000Y-111506000D01*
X82677000Y-92265500D02*
X82296000Y-92646500D01*
X73152000Y-54546500D02*
X73152000Y-73596500D01*
X257188000Y-121467587D02*
X256471522Y-122184065D01*
X259591000Y-97915608D02*
X261081108Y-96425500D01*
X257420514Y-118844702D02*
X257188000Y-119077216D01*
X40386000Y-124870002D02*
X40386000Y-122682000D01*
X259518611Y-72048000D02*
X259375128Y-72048000D01*
X257188000Y-125095875D02*
X257188000Y-125454112D01*
X257188000Y-113951918D02*
X257188000Y-111230112D01*
X256947573Y-115869598D02*
X257188000Y-116110025D01*
X256471522Y-122184065D02*
X256471522Y-124379397D01*
X257188000Y-116110025D02*
X257188000Y-117410968D01*
X256947573Y-115610424D02*
X257438000Y-115119997D01*
X256947573Y-115869598D02*
X256947573Y-115610424D01*
X256471522Y-124379397D02*
X257188000Y-125095875D01*
X262178439Y-74707828D02*
X259518611Y-72048000D01*
X257420514Y-117643482D02*
X257420514Y-118844702D01*
X257188000Y-117410968D02*
X257420514Y-117643482D01*
X258462000Y-131046112D02*
X258462000Y-131145666D01*
X262178439Y-76956604D02*
X262178439Y-74707828D01*
X259080000Y-133191744D02*
X258285531Y-133986213D01*
X257188000Y-111230112D02*
X256934000Y-110976112D01*
X257188000Y-125454112D02*
X258150000Y-126416112D01*
X261081108Y-78053935D02*
X262178439Y-76956604D01*
X258650341Y-131334007D02*
X258650341Y-131863079D01*
X87630000Y-111442500D02*
X87376000Y-111696500D01*
X257604000Y-105801445D02*
X259080000Y-104325445D01*
X258150000Y-130734112D02*
X258462000Y-131046112D01*
X258650341Y-131863079D02*
X259080000Y-132292738D01*
X40386000Y-122682000D02*
X38862000Y-121158000D01*
X259591000Y-98990265D02*
X259591000Y-97915608D01*
X82677000Y-73596500D02*
X82677000Y-92265500D01*
X46141780Y-130625782D02*
X40386000Y-124870002D01*
X259080000Y-99501265D02*
X259591000Y-98990265D01*
X257188000Y-119077216D02*
X257188000Y-121467587D01*
X259080000Y-104325445D02*
X259080000Y-99501265D01*
X257438000Y-114201918D02*
X257188000Y-113951918D01*
X256934000Y-107278717D02*
X257604000Y-106608717D01*
X256934000Y-110976112D02*
X256934000Y-107278717D01*
X257604000Y-106608717D02*
X257604000Y-105801445D01*
X258150000Y-126416112D02*
X258150000Y-130734112D01*
X257438000Y-115119997D02*
X257438000Y-114201918D01*
X261081108Y-96425500D02*
X261081108Y-78053935D01*
%TO.N,R1*%
X211178000Y-76758235D02*
X211178000Y-64874000D01*
X216916000Y-113792000D02*
X216504800Y-113380800D01*
X216916000Y-121745842D02*
X216916000Y-113792000D01*
X231140000Y-61468000D02*
X231140000Y-57086500D01*
X215129999Y-103821639D02*
X215129999Y-101336391D01*
X216504800Y-105196440D02*
X215129999Y-103821639D01*
X211934000Y-94095675D02*
X211926001Y-94087676D01*
X216917171Y-130162199D02*
X217970000Y-129109370D01*
X211024118Y-87646035D02*
X211024118Y-76912117D01*
X216504800Y-113380800D02*
X216504800Y-105196440D01*
X211024118Y-76912117D02*
X211178000Y-76758235D01*
X217970000Y-122799842D02*
X216916000Y-121745842D01*
X211926001Y-88547918D02*
X211024118Y-87646035D01*
X217970000Y-129109370D02*
X217970000Y-122799842D01*
X215129999Y-101336391D02*
X211934000Y-98140392D01*
X214884000Y-133604000D02*
X216917171Y-131570829D01*
X215900000Y-139192000D02*
X215900000Y-134620000D01*
X211934000Y-98140392D02*
X211934000Y-94095675D01*
X216917171Y-131570829D02*
X216917171Y-130162199D01*
X215900000Y-134620000D02*
X214884000Y-133604000D01*
X211926001Y-94087676D02*
X211926001Y-88547918D01*
X211178000Y-64874000D02*
X208788000Y-62484000D01*
%TO.N,C2*%
X258038000Y-119075744D02*
X257788000Y-119325744D01*
X260770000Y-133208524D02*
X259361322Y-134617202D01*
X263652000Y-65699472D02*
X262978000Y-66373472D01*
X258035014Y-115877231D02*
X258038000Y-115880217D01*
X257534000Y-107527245D02*
X257534000Y-110727584D01*
X258038000Y-115874245D02*
X258035014Y-115877231D01*
X259250341Y-131614551D02*
X260770000Y-133134210D01*
X257788000Y-124847347D02*
X257788000Y-125205584D01*
X262978000Y-66373472D02*
X262978000Y-84827218D01*
X258750000Y-126167584D02*
X258750000Y-130485584D01*
X257788000Y-119325744D02*
X257788000Y-121716115D01*
X257071522Y-124130869D02*
X257788000Y-124847347D01*
X262978000Y-84827218D02*
X262802000Y-85003218D01*
X125730000Y-92646500D02*
X125730000Y-94202134D01*
X258204000Y-106049973D02*
X258204000Y-106857245D01*
X126491000Y-94963134D02*
X126491000Y-112488858D01*
X263652000Y-54546500D02*
X263652000Y-65699472D01*
X263521000Y-98513920D02*
X263306000Y-98728920D01*
X263521000Y-96939080D02*
X263521000Y-98513920D01*
X260770000Y-133134210D02*
X260770000Y-133208524D01*
X258038000Y-115880217D02*
X258038000Y-119075744D01*
X262802000Y-96220080D02*
X263521000Y-96939080D01*
X120777000Y-91503500D02*
X121731709Y-92458209D01*
X263306000Y-103589000D02*
X262011000Y-104884000D01*
X257788000Y-121716115D02*
X257071522Y-122432593D01*
X257788000Y-113703390D02*
X258038000Y-113953390D01*
X257534000Y-110727584D02*
X257788000Y-110981584D01*
X120777000Y-73596500D02*
X120777000Y-91503500D01*
X259062000Y-130897138D02*
X259250341Y-131085479D01*
X259369973Y-104884000D02*
X258204000Y-106049973D01*
X258750000Y-130485584D02*
X259062000Y-130797584D01*
X258038000Y-113953390D02*
X258038000Y-115874245D01*
X259062000Y-130797584D02*
X259062000Y-130897138D01*
X262802000Y-85003218D02*
X262802000Y-96220080D01*
X262011000Y-104884000D02*
X259369973Y-104884000D01*
X259250341Y-131085479D02*
X259250341Y-131614551D01*
X263306000Y-98728920D02*
X263306000Y-103589000D01*
X125730000Y-94202134D02*
X126491000Y-94963134D01*
X257788000Y-110981584D02*
X257788000Y-113703390D01*
X257071522Y-122432593D02*
X257071522Y-124130869D01*
X258204000Y-106857245D02*
X257534000Y-107527245D01*
X257788000Y-125205584D02*
X258750000Y-126167584D01*
X111252000Y-54546500D02*
X111252000Y-73596500D01*
%TO.N,C3*%
X256588000Y-114767915D02*
X256588000Y-111478640D01*
X258456800Y-99275937D02*
X258991000Y-98741737D01*
X258152000Y-132928906D02*
X256960925Y-134119981D01*
X270510000Y-143250111D02*
X270510000Y-143256000D01*
X263172678Y-144100000D02*
X266004862Y-144100000D01*
X284394200Y-69002200D02*
X284394200Y-63672023D01*
X267677502Y-142847360D02*
X267853155Y-142847360D01*
X258456800Y-104100117D02*
X258456800Y-99275937D01*
X258152000Y-132213266D02*
X258152000Y-132928906D01*
X61672717Y-132414146D02*
X63580146Y-132414146D01*
X158877000Y-73596500D02*
X158877000Y-92011500D01*
X256588000Y-111478640D02*
X256334000Y-111224640D01*
X167499735Y-129324765D02*
X167499735Y-115737500D01*
X167499735Y-115737500D02*
X169164000Y-114073235D01*
X64008000Y-132842000D02*
X64008000Y-123698000D01*
X282702000Y-60379589D02*
X282702000Y-54546500D01*
X256137997Y-115217918D02*
X256137997Y-116262104D01*
X255871522Y-124627925D02*
X256588000Y-125344403D01*
X256588000Y-114554000D02*
X256588000Y-111478640D01*
X256588000Y-125702640D02*
X257550000Y-126664640D01*
X258991000Y-96711263D02*
X257556000Y-95276263D01*
X64008000Y-132842000D02*
X64008000Y-140432000D01*
X257550000Y-131082194D02*
X258050341Y-131582535D01*
X166078000Y-130746500D02*
X167499735Y-129324765D01*
X64008000Y-109220000D02*
X64262000Y-108966000D01*
X164684000Y-111223500D02*
X165157000Y-111696500D01*
X256588000Y-121219059D02*
X255871522Y-121935537D01*
X269757589Y-142497700D02*
X270510000Y-143250111D01*
X258991000Y-98741737D02*
X258991000Y-96711263D01*
X257556000Y-95276263D02*
X257556000Y-79627392D01*
X256588000Y-114767915D02*
X256588000Y-114554000D01*
X284842235Y-62519824D02*
X282702000Y-60379589D01*
X257004000Y-106360189D02*
X257004000Y-105552917D01*
X258064000Y-79119392D02*
X258064000Y-73272360D01*
X257004000Y-105552917D02*
X258456800Y-104100117D01*
X164684000Y-94774707D02*
X164684000Y-111223500D01*
X163830000Y-92646500D02*
X163830000Y-93920707D01*
X258064000Y-73272360D02*
X257925128Y-73133488D01*
X256820514Y-118596174D02*
X256588000Y-118828688D01*
X285496000Y-70104000D02*
X284394200Y-69002200D01*
X257925128Y-73133488D02*
X257925128Y-70981128D01*
X257395041Y-70451041D02*
X256700959Y-70451041D01*
X284842235Y-63223988D02*
X284842235Y-62519824D01*
X64008000Y-123698000D02*
X64008000Y-109220000D01*
X256588000Y-116712107D02*
X256588000Y-117659496D01*
X256960925Y-134130131D02*
X257661322Y-134830528D01*
X258050341Y-132111607D02*
X258152000Y-132213266D01*
X159004000Y-70104000D02*
X159004000Y-73469500D01*
X256588000Y-125344403D02*
X256588000Y-125702640D01*
X267853155Y-142847360D02*
X268202815Y-142497700D01*
X169164000Y-114073235D02*
X169164000Y-111696500D01*
X258050341Y-131582535D02*
X258050341Y-132111607D01*
X256588000Y-114767915D02*
X256137997Y-115217918D01*
X262957215Y-144315463D02*
X263172678Y-144100000D01*
X149352000Y-54546500D02*
X149352000Y-73596500D01*
X256334000Y-111224640D02*
X256334000Y-107030189D01*
X258195596Y-144450000D02*
X258330133Y-144315463D01*
X256960925Y-134119981D02*
X256960925Y-134130131D01*
X256137997Y-116262104D02*
X256588000Y-116712107D01*
X258330133Y-144315463D02*
X262957215Y-144315463D01*
X284394200Y-63672023D02*
X284842235Y-63223988D01*
X257925128Y-70981128D02*
X257395041Y-70451041D01*
X158877000Y-92011500D02*
X159512000Y-92646500D01*
X266004862Y-144100000D02*
X266612862Y-143492000D01*
X255871522Y-121935537D02*
X255871522Y-124627925D01*
X256820514Y-117892010D02*
X256820514Y-118596174D01*
X256334000Y-107030189D02*
X257004000Y-106360189D01*
X257550000Y-126664640D02*
X257550000Y-131082194D01*
X63580146Y-132414146D02*
X64008000Y-132842000D01*
X256588000Y-118828688D02*
X256588000Y-121219059D01*
X267032862Y-143492000D02*
X267677502Y-142847360D01*
X163830000Y-93920707D02*
X164684000Y-94774707D01*
X268202815Y-142497700D02*
X269757589Y-142497700D01*
X256588000Y-117659496D02*
X256820514Y-117892010D01*
X257556000Y-79627392D02*
X258064000Y-79119392D01*
X266612862Y-143492000D02*
X267032862Y-143492000D01*
%TO.N,C4*%
X188560000Y-57203136D02*
X188560000Y-60264600D01*
X188468100Y-55562600D02*
X188468100Y-57111236D01*
X264329661Y-112545969D02*
X265001801Y-112545969D01*
X269748000Y-94488000D02*
X269748000Y-112683000D01*
X44500044Y-133400044D02*
X44196000Y-133096000D01*
X142240000Y-109728000D02*
X141312000Y-108800000D01*
X269240000Y-93980000D02*
X269748000Y-94488000D01*
X279400000Y-112850000D02*
X278984000Y-113266000D01*
X271272000Y-140208000D02*
X276656800Y-134823200D01*
X46141780Y-133400044D02*
X44500044Y-133400044D01*
X197104000Y-96546263D02*
X196939000Y-96711263D01*
X270256000Y-140208000D02*
X271272000Y-140208000D01*
X276656800Y-131707282D02*
X276755741Y-131608341D01*
X189900000Y-68126970D02*
X189850000Y-68176970D01*
X196977000Y-73596500D02*
X196977000Y-92519500D01*
X281203400Y-130546036D02*
X280202836Y-131546600D01*
X196939000Y-96711263D02*
X196939000Y-109309000D01*
X188468100Y-57111236D02*
X188560000Y-57203136D01*
X276817482Y-131546600D02*
X276755741Y-131608341D01*
X278984000Y-113266000D02*
X278984000Y-123205800D01*
X189865000Y-63389918D02*
X189599000Y-63655918D01*
X189865000Y-61569600D02*
X189865000Y-63389918D01*
X196977000Y-92519500D02*
X197104000Y-92646500D01*
X276656800Y-134823200D02*
X276656800Y-131707282D01*
X189599000Y-64360082D02*
X189900000Y-64661082D01*
X264326000Y-114918000D02*
X264326000Y-112549630D01*
X189850000Y-68227770D02*
X187740000Y-70337770D01*
X189599000Y-63655918D02*
X189599000Y-64360082D01*
X188560000Y-60264600D02*
X189865000Y-61569600D01*
X196939000Y-109309000D02*
X199136000Y-111506000D01*
X272993124Y-90226876D02*
X269240000Y-93980000D01*
X189900000Y-64661082D02*
X189900000Y-68126970D01*
X273688000Y-89451042D02*
X272993124Y-90145918D01*
X280202836Y-131546600D02*
X276817482Y-131546600D01*
X278984000Y-123205800D02*
X281203400Y-125425200D01*
X264326000Y-112549630D02*
X264329661Y-112545969D01*
X197104000Y-92646500D02*
X197104000Y-96546263D01*
X272993124Y-90145918D02*
X272993124Y-90226876D01*
X187452000Y-54546500D02*
X188468100Y-55562600D01*
X141312000Y-108800000D02*
X141224000Y-108800000D01*
X187740000Y-70337770D02*
X187740000Y-73596500D01*
X142240000Y-126238000D02*
X142240000Y-109728000D01*
X189850000Y-68176970D02*
X189850000Y-68227770D01*
X281203400Y-125425200D02*
X281203400Y-130546036D01*
X273688000Y-74107500D02*
X273688000Y-89451042D01*
%TO.N,C5*%
X240030000Y-100670528D02*
X240030000Y-111442500D01*
X256350000Y-132363721D02*
X256350000Y-132431741D01*
X293326999Y-79349852D02*
X292227000Y-80449851D01*
X235077000Y-92519500D02*
X235204000Y-92646500D01*
X256108822Y-131418379D02*
X256108822Y-132122543D01*
X226756000Y-73013269D02*
X227490731Y-73748000D01*
X256350000Y-132431741D02*
X256785486Y-132867227D01*
X255140811Y-120969192D02*
X254671522Y-121438481D01*
X254671522Y-125483218D02*
X256350000Y-127161696D01*
X240030000Y-92646500D02*
X241129999Y-93746499D01*
X255140811Y-120969192D02*
X255140811Y-120650000D01*
X293326999Y-74696499D02*
X293326999Y-79349852D01*
X255140811Y-120969192D02*
X255140811Y-118912345D01*
X241129999Y-93746499D02*
X241129999Y-99570529D01*
X292227000Y-93262500D02*
X291592000Y-93897500D01*
X256641232Y-135680528D02*
X258014797Y-135680528D01*
X258014797Y-135680528D02*
X258059325Y-135636000D01*
X254671522Y-121438481D02*
X254671522Y-125483218D01*
X260002269Y-135636000D02*
X261780269Y-133858000D01*
X226756000Y-55750500D02*
X226756000Y-73013269D01*
X256360925Y-133871453D02*
X256360925Y-135400221D01*
X256785486Y-132867227D02*
X256785486Y-133446892D01*
X254897573Y-116900000D02*
X254897573Y-112547489D01*
X256785486Y-133446892D02*
X256360925Y-133871453D01*
X292227000Y-80449851D02*
X292227000Y-93262500D01*
X254330548Y-117467025D02*
X254897573Y-116900000D01*
X254330548Y-118102082D02*
X254330548Y-117467025D01*
X256360925Y-135400221D02*
X256641232Y-135680528D01*
X240030000Y-111442500D02*
X240284000Y-111696500D01*
X254897573Y-112547489D02*
X255140811Y-112304251D01*
X225552000Y-54546500D02*
X226756000Y-55750500D01*
X258059325Y-135636000D02*
X260002269Y-135636000D01*
X241129999Y-99570529D02*
X240030000Y-100670528D01*
X256350000Y-127161696D02*
X256350000Y-131177201D01*
X255140811Y-120650000D02*
X255140811Y-119002196D01*
X261780269Y-133858000D02*
X270510000Y-133858000D01*
X292227000Y-73596500D02*
X293326999Y-74696499D01*
X235077000Y-73596500D02*
X235077000Y-92519500D01*
X256350000Y-131177201D02*
X256108822Y-131418379D01*
X256108822Y-132122543D02*
X256350000Y-132363721D01*
X255140811Y-118912345D02*
X254330548Y-118102082D01*
%TO.N,C6*%
X275844000Y-131318000D02*
X278041000Y-129121000D01*
X303022000Y-125130000D02*
X303022000Y-111767500D01*
X265176000Y-120650000D02*
X265176000Y-113573852D01*
X60452000Y-141224000D02*
X62260000Y-143032000D01*
X46141780Y-136190146D02*
X46141780Y-138343780D01*
X60452000Y-139446000D02*
X60452000Y-141224000D01*
X244602000Y-54546500D02*
X244602000Y-73660000D01*
X278041000Y-111711500D02*
X282956000Y-106796500D01*
X265829255Y-112142463D02*
X265364276Y-111677484D01*
X46141780Y-138343780D02*
X46228000Y-138430000D01*
X59436000Y-137250863D02*
X59436000Y-138430000D01*
X46228000Y-138430000D02*
X59436000Y-138430000D01*
X59436000Y-138430000D02*
X60452000Y-139446000D01*
X265430000Y-120904000D02*
X265176000Y-120650000D01*
X143764000Y-128524000D02*
X143979000Y-128309000D01*
X282956000Y-92646500D02*
X282956000Y-71374000D01*
X61672717Y-135586717D02*
X62484000Y-136398000D01*
X61672717Y-135014146D02*
X61672717Y-135586717D01*
X300884000Y-127268000D02*
X303022000Y-125130000D01*
X265829255Y-112920597D02*
X265829255Y-112142463D01*
X275844000Y-133096000D02*
X275844000Y-131318000D01*
X62260000Y-143032000D02*
X64008000Y-143032000D01*
X143979000Y-128309000D02*
X143979000Y-110021000D01*
X143979000Y-110021000D02*
X144526000Y-109474000D01*
X282956000Y-106796500D02*
X282956000Y-92646500D01*
X265176000Y-113573852D02*
X265829255Y-112920597D01*
X61672717Y-135014146D02*
X59436000Y-137250863D01*
X278041000Y-129121000D02*
X278041000Y-111711500D01*
X265364276Y-111677484D02*
X265364276Y-111517681D01*
%TO.N,C7*%
X345821000Y-130759200D02*
X345821000Y-111709200D01*
X326771000Y-137287000D02*
X326771000Y-130759200D01*
X285408000Y-116586000D02*
X285408000Y-117690000D01*
X284353000Y-136844261D02*
X285348195Y-137839456D01*
X327152000Y-137668000D02*
X326771000Y-137287000D01*
X284353000Y-118745000D02*
X284353000Y-136844261D01*
X326771000Y-111709200D02*
X326771000Y-130759200D01*
X285408000Y-117690000D02*
X284353000Y-118745000D01*
X345821000Y-92659200D02*
X345821000Y-73609200D01*
X326771000Y-54559200D02*
X326771000Y-73609200D01*
X345821000Y-73609200D02*
X345821000Y-54559200D01*
X326771000Y-92659200D02*
X326771000Y-111709200D01*
X345821000Y-111709200D02*
X345821000Y-92659200D01*
X326771000Y-73609200D02*
X326771000Y-92659200D01*
%TO.N,C8*%
X284480000Y-138430000D02*
X284690456Y-138640456D01*
X383921000Y-111709200D02*
X383921000Y-92659200D01*
X255366000Y-74480235D02*
X256921000Y-72925235D01*
X383921000Y-111709200D02*
X383921000Y-130759200D01*
X289852000Y-93764000D02*
X287782000Y-91694000D01*
X289852000Y-134468437D02*
X289852000Y-116332000D01*
X285679981Y-138640456D02*
X289852000Y-134468437D01*
X284690456Y-138640456D02*
X285679981Y-138640456D01*
X383921000Y-73609200D02*
X383921000Y-54559200D01*
X256921000Y-72925235D02*
X256921000Y-71448000D01*
X255366000Y-91440000D02*
X255366000Y-74480235D01*
X289852000Y-116332000D02*
X289852000Y-93764000D01*
X383921000Y-92659200D02*
X383921000Y-73609200D01*
%TO.N,R2*%
X221765000Y-114879941D02*
X221765000Y-115929608D01*
X226568000Y-96518392D02*
X222178000Y-100908392D01*
X68491000Y-132169000D02*
X68491000Y-130807528D01*
X222760160Y-108019446D02*
X222178000Y-108601606D01*
X219202000Y-57086500D02*
X219202000Y-58642134D01*
X68491000Y-119334418D02*
X68491000Y-117597920D01*
X67901999Y-78781393D02*
X67901999Y-58186499D01*
X223127600Y-118985992D02*
X223127600Y-127578466D01*
X220150082Y-138176000D02*
X219964000Y-138176000D01*
X222178000Y-114466941D02*
X221765000Y-114879941D01*
X67056000Y-93423235D02*
X67056000Y-79627392D01*
X221457000Y-136869082D02*
X220150082Y-138176000D01*
X223127600Y-127578466D02*
X221457000Y-129249066D01*
X68491000Y-117597920D02*
X68457000Y-117563920D01*
X221765000Y-115929608D02*
X221457000Y-116237608D01*
X219202000Y-58642134D02*
X219336248Y-58776382D01*
X67056000Y-79627392D02*
X67901999Y-78781393D01*
X222178000Y-103920702D02*
X222760160Y-104502862D01*
X221457000Y-116237608D02*
X221457000Y-117315392D01*
X67901999Y-58186499D02*
X66802000Y-57086500D01*
X224956000Y-94400000D02*
X226568000Y-96012000D01*
X224956000Y-72556000D02*
X224956000Y-94400000D01*
X219336248Y-63578017D02*
X220583930Y-64825699D01*
X68922000Y-134972082D02*
X68922000Y-134267918D01*
X68072000Y-133417918D02*
X68072000Y-132588000D01*
X68457000Y-110018472D02*
X68491000Y-109984472D01*
X68922000Y-134267918D02*
X68072000Y-133417918D01*
X222178000Y-100908392D02*
X222178000Y-103920702D01*
X68491000Y-109984472D02*
X68491000Y-94858235D01*
X68166082Y-135728000D02*
X68922000Y-134972082D01*
X221457000Y-117315392D02*
X223127600Y-118985992D01*
X66554501Y-135728000D02*
X68166082Y-135728000D01*
X219336248Y-58776382D02*
X219336248Y-63578017D01*
X65840647Y-135014146D02*
X66554501Y-135728000D01*
X68491000Y-130807528D02*
X68238000Y-130554528D01*
X68238000Y-119587418D02*
X68491000Y-119334418D01*
X221457000Y-129249066D02*
X221457000Y-136869082D01*
X222178000Y-108601606D02*
X222178000Y-114466941D01*
X222760160Y-104502862D02*
X222760160Y-108019446D01*
X68491000Y-94858235D02*
X67056000Y-93423235D01*
X68238000Y-130554528D02*
X68238000Y-119587418D01*
X68457000Y-117563920D02*
X68457000Y-110018472D01*
X220583930Y-64825699D02*
X220583930Y-68183930D01*
X226568000Y-96012000D02*
X226568000Y-96518392D01*
X220583930Y-68183930D02*
X224956000Y-72556000D01*
X68072000Y-132588000D02*
X68491000Y-132169000D01*
%TO.N,R3*%
X214608000Y-51984500D02*
X214608000Y-62243881D01*
X220058000Y-114041357D02*
X220058000Y-107290911D01*
X220827600Y-119231576D02*
X219657000Y-118060976D01*
X220827600Y-136296400D02*
X220827600Y-119231576D01*
X219964000Y-114808000D02*
X219964000Y-114135357D01*
X219657000Y-115115000D02*
X219964000Y-114808000D01*
X247808000Y-105692082D02*
X247403343Y-106096739D01*
X218183930Y-65819811D02*
X218183930Y-69686042D01*
X247403343Y-106096739D02*
X247403343Y-106360748D01*
X220058000Y-107290911D02*
X220616911Y-106732000D01*
X219180000Y-74426564D02*
X221657114Y-76903678D01*
X219964000Y-114135357D02*
X220058000Y-114041357D01*
X219657000Y-118060976D02*
X219657000Y-115115000D01*
X219964000Y-137160000D02*
X220827600Y-136296400D01*
X221657114Y-76903678D02*
X221657114Y-77237415D01*
X219180000Y-70682112D02*
X219180000Y-74426564D01*
X214608000Y-62243881D02*
X218183930Y-65819811D01*
X247808000Y-76167500D02*
X247808000Y-105692082D01*
X211239100Y-48615600D02*
X214608000Y-51984500D01*
X222752263Y-78332564D02*
X222904000Y-78332564D01*
X218183930Y-69686042D02*
X219180000Y-70682112D01*
X221657114Y-77237415D02*
X222752263Y-78332564D01*
%TO.N,R4*%
X54014000Y-105265382D02*
X52679600Y-103930982D01*
X220218000Y-134411973D02*
X220218000Y-122502258D01*
X215208000Y-50044500D02*
X215208000Y-61995353D01*
X220976000Y-100410508D02*
X221617000Y-99769508D01*
X219055000Y-121339258D02*
X219055000Y-114865644D01*
X222481000Y-96074252D02*
X222481000Y-80685500D01*
X221617000Y-99769508D02*
X221617000Y-96938252D01*
X218783930Y-65571283D02*
X218783930Y-69437514D01*
X218783930Y-69437514D02*
X222507114Y-73160698D01*
X219362000Y-114558643D02*
X219362000Y-105867472D01*
X51582167Y-136258901D02*
X54190000Y-133651068D01*
X222507114Y-73160698D02*
X222507114Y-76885333D01*
X220976000Y-104253472D02*
X220976000Y-100410508D01*
X219055000Y-114865644D02*
X219362000Y-114558643D01*
X219362000Y-105867472D02*
X220976000Y-104253472D01*
X219124004Y-135505969D02*
X220218000Y-134411973D01*
X54014000Y-122692582D02*
X54014000Y-105265382D01*
X213779100Y-48615600D02*
X215208000Y-50044500D01*
X215208000Y-61995353D02*
X218783930Y-65571283D01*
X220218000Y-122502258D02*
X219055000Y-121339258D01*
X222481000Y-80685500D02*
X217932000Y-76136500D01*
X52679600Y-103930982D02*
X52679600Y-74777600D01*
X221617000Y-96938252D02*
X222481000Y-96074252D01*
X54190000Y-133651068D02*
X54190000Y-122868582D01*
X54190000Y-122868582D02*
X54014000Y-122692582D01*
%TO.N,R5*%
X332740000Y-109220000D02*
X332232000Y-108712000D01*
X332232000Y-108712000D02*
X332232000Y-95199200D01*
X219383930Y-68680986D02*
X223756000Y-73053056D01*
X217656000Y-121637314D02*
X217656000Y-114068000D01*
X216053391Y-133571309D02*
X216440691Y-133571309D01*
X290894519Y-104645519D02*
X290894519Y-100087144D01*
X217656000Y-132356000D02*
X217656000Y-130271898D01*
X216440691Y-133571309D02*
X217656000Y-132356000D01*
X223756000Y-95880921D02*
X224879723Y-97004644D01*
X217656000Y-114068000D02*
X217932000Y-113792000D01*
X217406000Y-105249112D02*
X215729999Y-103573111D01*
X216319100Y-49817681D02*
X215808000Y-50328781D01*
X215808000Y-50328781D02*
X215808000Y-61746825D01*
X291592000Y-105343000D02*
X290894519Y-104645519D01*
X218570000Y-129357898D02*
X218570000Y-122551314D01*
X219383930Y-65322755D02*
X219383930Y-68680986D01*
X217932000Y-113792000D02*
X217932000Y-108055138D01*
X218570000Y-122551314D02*
X217656000Y-121637314D01*
X291592000Y-110236000D02*
X291592000Y-105343000D01*
X215729999Y-96286499D02*
X214630000Y-95186500D01*
X215808000Y-61746825D02*
X219383930Y-65322755D01*
X217406000Y-107529138D02*
X217406000Y-105249112D01*
X215729999Y-103573111D02*
X215729999Y-96286499D01*
X216319100Y-48615600D02*
X216319100Y-49817681D01*
X217656000Y-130271898D02*
X218570000Y-129357898D01*
X223756000Y-73053056D02*
X223756000Y-95880921D01*
X217932000Y-108055138D02*
X217406000Y-107529138D01*
%TO.N,R6*%
X220891000Y-98741737D02*
X220891000Y-96815724D01*
X216631000Y-50843700D02*
X216631000Y-61721297D01*
X220891000Y-96815724D02*
X221347382Y-96359342D01*
X219983930Y-68432458D02*
X224356000Y-72804528D01*
X219983930Y-65074227D02*
X219983930Y-68432458D01*
X220356800Y-99275937D02*
X220891000Y-98741737D01*
X221347382Y-96359342D02*
X221347382Y-95136618D01*
X224356000Y-72804528D02*
X224356000Y-95002082D01*
X218514000Y-132980470D02*
X218256000Y-132722470D01*
X219170000Y-129606426D02*
X219170000Y-122302786D01*
X339471000Y-95199200D02*
X339471000Y-89826901D01*
X224356000Y-95002082D02*
X225551974Y-96198056D01*
X218762000Y-105601022D02*
X220356800Y-104006222D01*
X339471000Y-89826901D02*
X339218351Y-89574252D01*
X218256000Y-130520426D02*
X219170000Y-129606426D01*
X218859100Y-48615600D02*
X216631000Y-50843700D01*
X220356800Y-104006222D02*
X220356800Y-99275937D01*
X218256000Y-114390000D02*
X218762000Y-113884000D01*
X266700000Y-94996000D02*
X266700000Y-90424000D01*
X219170000Y-122302786D02*
X218256000Y-121388786D01*
X218256000Y-132722470D02*
X218256000Y-130520426D01*
X218762000Y-113884000D02*
X218762000Y-105601022D01*
X216631000Y-61721297D02*
X219983930Y-65074227D01*
X218256000Y-121388786D02*
X218256000Y-114390000D01*
%TO.N,R7*%
X292746800Y-104845082D02*
X292608000Y-104983882D01*
X292608000Y-98247200D02*
X292608000Y-103750718D01*
X225556000Y-79463920D02*
X225556000Y-63199200D01*
X220472000Y-57939235D02*
X221399100Y-57012135D01*
X224028000Y-112608528D02*
X227168000Y-109468528D01*
X224059000Y-131541000D02*
X224059000Y-114267500D01*
X220764888Y-62484000D02*
X220472000Y-62191112D01*
X220472000Y-62191112D02*
X220472000Y-57939235D01*
X221399100Y-57012135D02*
X221399100Y-48615600D01*
X292608000Y-104983882D02*
X292608000Y-105801918D01*
X292608000Y-105801918D02*
X292266000Y-106143918D01*
X292746800Y-103889518D02*
X292746800Y-104845082D01*
X292266000Y-106848082D02*
X292774000Y-107356082D01*
X227168000Y-81075920D02*
X225556000Y-79463920D01*
X294767000Y-96088200D02*
X292608000Y-98247200D01*
X292266000Y-106143918D02*
X292266000Y-106848082D01*
X227168000Y-109468528D02*
X227168000Y-93980000D01*
X300884000Y-113507500D02*
X300990000Y-113401500D01*
X292608000Y-103750718D02*
X292746800Y-103889518D01*
X224028000Y-114236500D02*
X224028000Y-112608528D01*
X227168000Y-93980000D02*
X227168000Y-81075920D01*
X292774000Y-107356082D02*
X292774000Y-112617500D01*
X224840800Y-62484000D02*
X220764888Y-62484000D01*
X225556000Y-63199200D02*
X224840800Y-62484000D01*
X300884000Y-122768000D02*
X300884000Y-113507500D01*
X224028000Y-131572000D02*
X224059000Y-131541000D01*
%TO.N,R8*%
X223939100Y-57087363D02*
X226156000Y-59304263D01*
X226156000Y-59304263D02*
X226156000Y-79215392D01*
X335788000Y-114300000D02*
X335622000Y-114466000D01*
X335622000Y-114466000D02*
X335622000Y-118008400D01*
X225044000Y-131572000D02*
X225044000Y-118770400D01*
X228018000Y-82246582D02*
X228018000Y-113130263D01*
X227835300Y-80894692D02*
X227835300Y-82063882D01*
X226156000Y-79215392D02*
X227835300Y-80894692D01*
X225044000Y-116104263D02*
X225044000Y-118770400D01*
X223939100Y-48615600D02*
X223939100Y-57087363D01*
X225552000Y-132080000D02*
X225044000Y-131572000D01*
X227835300Y-82063882D02*
X228018000Y-82246582D01*
X228018000Y-113130263D02*
X225044000Y-116104263D01*
%TO.N,R9*%
X29801999Y-68580000D02*
X30480000Y-68580000D01*
X52158000Y-131338519D02*
X52158000Y-118327500D01*
X277451999Y-75438000D02*
X277451999Y-80688001D01*
X231140000Y-131572000D02*
X231140000Y-124597328D01*
X229393000Y-51529500D02*
X229393000Y-67411331D01*
X28702000Y-57086500D02*
X29801999Y-58186499D01*
X277451999Y-68072000D02*
X277451999Y-75438000D01*
X277451999Y-80688001D02*
X274693124Y-83446876D01*
X231583600Y-114872400D02*
X232664000Y-113792000D01*
X29801999Y-58186499D02*
X29801999Y-68580000D01*
X277451999Y-58186499D02*
X277451999Y-68072000D01*
X306148000Y-124145891D02*
X306148000Y-114718200D01*
X51582167Y-131914352D02*
X52158000Y-131338519D01*
X226479100Y-48615600D02*
X229393000Y-51529500D01*
X278034424Y-75438000D02*
X278371708Y-75775284D01*
X231333600Y-120392580D02*
X231583600Y-120142580D01*
X276352000Y-57086500D02*
X277451999Y-58186499D01*
X307478109Y-125476000D02*
X306148000Y-124145891D01*
X274693124Y-91302082D02*
X271691000Y-94304206D01*
X271691000Y-94304206D02*
X271691000Y-114251500D01*
X231333600Y-124403728D02*
X231333600Y-120392580D01*
X277451999Y-75438000D02*
X278034424Y-75438000D01*
X229393000Y-67411331D02*
X228931156Y-67873175D01*
X50642000Y-117315392D02*
X50642000Y-116240735D01*
X50642000Y-116240735D02*
X50038000Y-115636735D01*
X278371708Y-75775284D02*
X278371708Y-75835267D01*
X29801999Y-68580000D02*
X29801999Y-98549471D01*
X52158000Y-118327500D02*
X51908000Y-118077500D01*
X50038000Y-115636735D02*
X50038000Y-114300000D01*
X41586000Y-112769500D02*
X43053000Y-114236500D01*
X231583600Y-120142580D02*
X231583600Y-114872400D01*
X306148000Y-114718200D02*
X306324000Y-114542200D01*
X29801999Y-98549471D02*
X41082000Y-109829472D01*
X51404108Y-118077500D02*
X50642000Y-117315392D01*
X41586000Y-111516944D02*
X41586000Y-112769500D01*
X308356000Y-125476000D02*
X307478109Y-125476000D01*
X231140000Y-124597328D02*
X231333600Y-124403728D01*
X41082000Y-111012944D02*
X41586000Y-111516944D01*
X41082000Y-109829472D02*
X41082000Y-111012944D01*
X274693124Y-83446876D02*
X274693124Y-91302082D01*
X51908000Y-118077500D02*
X51404108Y-118077500D01*
%TO.N,R10*%
X228804392Y-139456326D02*
X228804392Y-141458401D01*
X65840647Y-130247353D02*
X67056000Y-129032000D01*
X229584366Y-133286500D02*
X228569000Y-134301866D01*
X294132000Y-101092000D02*
X294405470Y-101365470D01*
X231140000Y-133286500D02*
X229584366Y-133286500D01*
X231648000Y-51244500D02*
X231648000Y-54864000D01*
X294474000Y-117503918D02*
X294474000Y-118208082D01*
X232797877Y-99601595D02*
X234096000Y-98303472D01*
X294405470Y-126574130D02*
X294132000Y-126847600D01*
X172212000Y-134112000D02*
X172212000Y-141732000D01*
X45968685Y-110992685D02*
X45968685Y-112546500D01*
X65840647Y-132414146D02*
X65840647Y-130247353D01*
X235039000Y-116495392D02*
X235039000Y-107046668D01*
X229597605Y-142251614D02*
X229597605Y-143431969D01*
X232183600Y-119350792D02*
X235039000Y-116495392D01*
X294405470Y-118276612D02*
X294405470Y-126574130D01*
X234096000Y-98303472D02*
X234096000Y-96893235D01*
X257302000Y-57086500D02*
X257302000Y-58642134D01*
X231941000Y-132485500D02*
X231941000Y-120633708D01*
X294405470Y-111692942D02*
X294732000Y-112019472D01*
X258664000Y-73023832D02*
X258664000Y-73940083D01*
X267926999Y-77236499D02*
X267926999Y-95206999D01*
X229019100Y-48615600D02*
X231648000Y-51244500D01*
X228569000Y-134301866D02*
X228569000Y-139220934D01*
X172212000Y-141732000D02*
X173228000Y-142748000D01*
X232183600Y-120391108D02*
X232183600Y-119350792D01*
X294732000Y-114548528D02*
X294405470Y-114875058D01*
X34564499Y-99588499D02*
X45968685Y-110992685D01*
X257302000Y-58642134D02*
X257722000Y-59062134D01*
X266827000Y-76136500D02*
X267926999Y-77236499D01*
X235712000Y-95277235D02*
X235712000Y-94996000D01*
X33464500Y-76136500D02*
X34564499Y-77236499D01*
X34564499Y-77236499D02*
X34564499Y-99588499D01*
X294405470Y-114875058D02*
X294405470Y-117435388D01*
X294405470Y-117435388D02*
X294474000Y-117503918D01*
X294405470Y-101365470D02*
X294405470Y-111692942D01*
X232797877Y-104805545D02*
X232797877Y-99601595D01*
X267926999Y-95206999D02*
X268224000Y-95504000D01*
X228804392Y-141458401D02*
X229597605Y-142251614D01*
X258525128Y-72884960D02*
X258664000Y-73023832D01*
X231140000Y-133286500D02*
X231941000Y-132485500D01*
X258664000Y-73940083D02*
X261328439Y-76604522D01*
X257722000Y-59062134D02*
X257722000Y-69575918D01*
X257722000Y-69575918D02*
X258525128Y-70379046D01*
X231941000Y-120633708D02*
X232183600Y-120391108D01*
X159728000Y-133286500D02*
X159728000Y-124803000D01*
X294474000Y-118208082D02*
X294405470Y-118276612D01*
X228569000Y-139220934D02*
X228804392Y-139456326D01*
X234096000Y-96893235D02*
X235712000Y-95277235D01*
X65840647Y-132414146D02*
X64858000Y-131431499D01*
X258525128Y-70379046D02*
X258525128Y-72884960D01*
X159728000Y-124803000D02*
X159613600Y-124688600D01*
X235039000Y-107046668D02*
X232797877Y-104805545D01*
X294732000Y-112019472D02*
X294732000Y-114548528D01*
X64858000Y-131431499D02*
X64858000Y-113112972D01*
%TO.N,XC3*%
X128310500Y-146517500D02*
X128524000Y-146304000D01*
X243126223Y-136382723D02*
X243126223Y-140222540D01*
X75184000Y-145796000D02*
X75905500Y-146517500D01*
X237490000Y-130746500D02*
X243126223Y-136382723D01*
X75905500Y-146517500D02*
X128310500Y-146517500D01*
X71628000Y-141732000D02*
X75184000Y-145288000D01*
X75184000Y-145288000D02*
X75184000Y-145796000D01*
X243126223Y-140222540D02*
X243386101Y-140482418D01*
X64008000Y-141732000D02*
X71628000Y-141732000D01*
%TO.N,XC1*%
X40986000Y-115733608D02*
X40986000Y-111765472D01*
X40986000Y-111765472D02*
X40482000Y-111261472D01*
X40482000Y-116237608D02*
X40986000Y-115733608D01*
X40482000Y-117315392D02*
X40482000Y-116237608D01*
X40986000Y-123282000D02*
X40986000Y-117819392D01*
X47441780Y-129737780D02*
X40986000Y-123282000D01*
X40482000Y-111261472D02*
X40482000Y-110078000D01*
X40482000Y-110078000D02*
X28448000Y-98044000D01*
X28448000Y-98044000D02*
X28448000Y-91440000D01*
X47441780Y-130625782D02*
X47441780Y-129737780D01*
X40986000Y-117819392D02*
X40482000Y-117315392D01*
X47441780Y-133400044D02*
X47441780Y-136190146D01*
X47441780Y-130625782D02*
X47441780Y-133400044D01*
%TO.N,XR67*%
X67166146Y-133714146D02*
X68072000Y-134620000D01*
X65840647Y-133714146D02*
X67166146Y-133714146D01*
%TO.N,XC67*%
X62881854Y-133714146D02*
X62992000Y-133604000D01*
X61672717Y-133714146D02*
X62881854Y-133714146D01*
%TO.N,S2*%
X194779000Y-57926982D02*
X194779000Y-59418150D01*
X194786782Y-57919200D02*
X194779000Y-57926982D01*
X206971000Y-96690552D02*
X206971000Y-98762448D01*
X203106001Y-80872248D02*
X203363000Y-81129247D01*
X187452000Y-134620000D02*
X186944000Y-134112000D01*
X257318416Y-138706000D02*
X258508944Y-138706000D01*
X186944000Y-134112000D02*
X186944000Y-130556000D01*
X206971000Y-98762448D02*
X206480000Y-99253448D01*
X194781000Y-59420150D02*
X194781000Y-65754584D01*
X206480000Y-106409584D02*
X207173000Y-107102584D01*
X211839000Y-118097928D02*
X212568000Y-118826928D01*
X214017400Y-124441928D02*
X214017400Y-125383900D01*
X209804000Y-126492000D02*
X209804000Y-129032000D01*
X260975290Y-138937703D02*
X261187749Y-138725244D01*
X194781000Y-65754584D02*
X194787783Y-65761367D01*
X256719916Y-138518448D02*
X257130864Y-138518448D01*
X209804000Y-138176000D02*
X209296000Y-138684000D01*
X193459100Y-53418572D02*
X194786782Y-54746254D01*
X209804000Y-133044572D02*
X209804000Y-138176000D01*
X253344907Y-135143439D02*
X256719916Y-138518448D01*
X210308714Y-132539858D02*
X209804000Y-133044572D01*
X193459100Y-51155600D02*
X193459100Y-53418572D01*
X206480000Y-90488528D02*
X206480000Y-96199552D01*
X254509615Y-132420119D02*
X253344907Y-133584827D01*
X194787783Y-65761367D02*
X194787783Y-65890436D01*
X258740647Y-138937703D02*
X260975290Y-138937703D01*
X209804000Y-129032000D02*
X209804000Y-130833924D01*
X210308714Y-131338638D02*
X210308714Y-132539858D01*
X203363000Y-87371528D02*
X206480000Y-90488528D01*
X258508944Y-138706000D02*
X258740647Y-138937703D01*
X207173000Y-107102584D02*
X207173000Y-110845321D01*
X207173000Y-110845321D02*
X211839000Y-115511321D01*
X212568000Y-122992528D02*
X214017400Y-124441928D01*
X214017400Y-125383900D02*
X214884000Y-126250500D01*
X253344907Y-133584827D02*
X253344907Y-135143439D01*
X209804000Y-130833924D02*
X210308714Y-131338638D01*
X194786782Y-54746254D02*
X194786782Y-57919200D01*
X203106001Y-74208654D02*
X203106001Y-80872248D01*
X206480000Y-99253448D02*
X206480000Y-106409584D01*
X206480000Y-96199552D02*
X206971000Y-96690552D01*
X255204315Y-132420119D02*
X254509615Y-132420119D01*
X203363000Y-81129247D02*
X203363000Y-87371528D01*
X212568000Y-118826928D02*
X212568000Y-122992528D01*
X194779000Y-59418150D02*
X194781000Y-59420150D01*
X211839000Y-115511321D02*
X211839000Y-118097928D01*
X257130864Y-138518448D02*
X257318416Y-138706000D01*
X194787783Y-65890436D02*
X203106001Y-74208654D01*
%TO.N,S1*%
X193586782Y-57422144D02*
X193579000Y-57429926D01*
X193579000Y-57429926D02*
X193579000Y-59915206D01*
X189157620Y-137557178D02*
X189963042Y-138362600D01*
X201906001Y-81369304D02*
X202163000Y-81626303D01*
X189963042Y-141376751D02*
X188996390Y-142343403D01*
X205880000Y-99004920D02*
X205880000Y-106658112D01*
X206266000Y-131756000D02*
X206266000Y-134806692D01*
X206082000Y-131572000D02*
X206266000Y-131756000D01*
X211239000Y-118346456D02*
X211967000Y-119074456D01*
X202163000Y-88029058D02*
X204780000Y-90646058D01*
X257379392Y-137918448D02*
X257566944Y-138106000D01*
X253944907Y-134894911D02*
X256968444Y-137918448D01*
X205880000Y-106658112D02*
X206395299Y-107173411D01*
X211239000Y-115761263D02*
X211239000Y-118346456D01*
X190919100Y-53163158D02*
X193586782Y-55830840D01*
X193586782Y-55830840D02*
X193586782Y-57422144D01*
X206573000Y-111093849D02*
X208373000Y-112893849D01*
X208373000Y-112895263D02*
X211239000Y-115761263D01*
X206248000Y-142748000D02*
X206220825Y-142720825D01*
X253944907Y-133833355D02*
X253944907Y-134894911D01*
X201906001Y-74705710D02*
X201906001Y-81369304D01*
X206220825Y-142720825D02*
X206220825Y-134851867D01*
X206395299Y-107526965D02*
X206573000Y-107704666D01*
X204780000Y-90646058D02*
X204780000Y-95348080D01*
X204780000Y-95348080D02*
X206371000Y-96939080D01*
X260341471Y-138106000D02*
X260438000Y-138009471D01*
X211967000Y-126903971D02*
X212173029Y-127110000D01*
X206371000Y-96939080D02*
X206371000Y-98513920D01*
X256968444Y-137918448D02*
X257379392Y-137918448D01*
X257566944Y-138106000D02*
X260341471Y-138106000D01*
X208373000Y-112893849D02*
X208373000Y-112895263D01*
X206573000Y-107704666D02*
X206573000Y-111093849D01*
X193579000Y-59915206D02*
X193581000Y-59917206D01*
X193581000Y-59917206D02*
X193581000Y-66380709D01*
X202163000Y-81626303D02*
X202163000Y-88029058D01*
X190919100Y-51155600D02*
X190919100Y-53163158D01*
X211967000Y-119074456D02*
X211967000Y-126903971D01*
X193581000Y-66380709D02*
X201906001Y-74705710D01*
X189963042Y-138362600D02*
X189963042Y-141376751D01*
X206395299Y-107173411D02*
X206395299Y-107526965D01*
X206266000Y-134806692D02*
X206220825Y-134851867D01*
X206371000Y-98513920D02*
X205880000Y-99004920D01*
X255773918Y-133264106D02*
X254514156Y-133264106D01*
X254514156Y-133264106D02*
X253944907Y-133833355D01*
%TO.N,GND*%
X268803425Y-143947700D02*
X269151090Y-143947700D01*
X271515056Y-144596000D02*
X271607056Y-144688000D01*
X282448000Y-136652000D02*
X277368000Y-136652000D01*
X240284000Y-140882000D02*
X242583600Y-140882000D01*
X330250800Y-140385800D02*
X331939900Y-142074900D01*
D26*
X194056000Y-105105200D02*
X196139000Y-107188200D01*
D25*
X181356000Y-123530300D02*
X180817514Y-123530300D01*
X177151735Y-96687500D02*
X180848000Y-92991235D01*
X233491000Y-123280300D02*
X235281650Y-121489650D01*
X104978200Y-85025100D02*
X104648000Y-85355300D01*
X102616000Y-78487608D02*
X102616000Y-83323300D01*
X331939900Y-142074900D02*
X332397100Y-142074900D01*
X334772000Y-123543000D02*
X334772000Y-105391958D01*
X239942000Y-140882000D02*
X240284000Y-140882000D01*
X261204000Y-125989472D02*
X261150000Y-125935472D01*
X233264000Y-128643235D02*
X233264000Y-123507300D01*
X181356000Y-132080000D02*
X181356000Y-123530300D01*
D26*
X186639200Y-79806800D02*
X189306200Y-82473800D01*
D25*
X181768000Y-70348300D02*
X177800000Y-66380300D01*
X304546000Y-144086000D02*
X304546000Y-145310000D01*
X105664000Y-140208000D02*
X105664000Y-135636000D01*
X105156000Y-123763667D02*
X104722000Y-123329667D01*
X158089600Y-123647200D02*
X158064200Y-123672600D01*
X335504713Y-105258202D02*
X335571686Y-105258202D01*
X142240000Y-93499235D02*
X139700000Y-96039235D01*
X235610500Y-100177500D02*
X233761207Y-102026793D01*
X272338800Y-131749800D02*
X272338800Y-134396860D01*
X95453200Y-66254500D02*
X95504000Y-66305300D01*
X268427200Y-131368800D02*
X271957800Y-131368800D01*
X269151090Y-143947700D02*
X269909390Y-144706000D01*
X54706000Y-85087000D02*
X54356000Y-85437000D01*
X142240000Y-85355300D02*
X142240000Y-93499235D01*
X235281650Y-121489650D02*
X236728000Y-120043300D01*
X140208000Y-123537000D02*
X140208000Y-130048000D01*
X176276000Y-104482000D02*
X177151735Y-103606265D01*
X262910082Y-106084000D02*
X262023814Y-106084000D01*
X335741785Y-105315972D02*
X335930069Y-105504256D01*
X291846000Y-97510600D02*
X291846000Y-104442200D01*
X335571686Y-105258202D02*
X335629456Y-105315972D01*
X263204271Y-145765463D02*
X263669734Y-145300000D01*
D26*
X197840600Y-122718700D02*
X197104000Y-123455300D01*
D25*
X264760000Y-104134528D02*
X264209041Y-104685487D01*
D26*
X197840600Y-111341970D02*
X197840600Y-122718700D01*
D25*
X234099100Y-48615600D02*
X234099100Y-65886200D01*
X56896000Y-66305300D02*
X54706000Y-68495300D01*
X260539644Y-107568170D02*
X260539644Y-111528172D01*
X264209041Y-104685487D02*
X264209041Y-104785041D01*
X196596000Y-123963300D02*
X197104000Y-123455300D01*
X53695600Y-70916800D02*
X53695600Y-80803262D01*
X261505534Y-118082062D02*
X261505534Y-120658698D01*
D26*
X194056000Y-104749600D02*
X194056000Y-105105200D01*
D25*
X334772000Y-123543000D02*
X334772000Y-139700000D01*
X109753400Y-103871900D02*
X109220000Y-104405300D01*
X104648000Y-94488000D02*
X107919000Y-97759000D01*
D26*
X186639200Y-70307200D02*
X186639200Y-79806800D01*
D25*
X144272000Y-83323300D02*
X144272000Y-68337300D01*
X267081000Y-144720918D02*
X267501000Y-144720918D01*
X277368000Y-134620000D02*
X277504305Y-134483695D01*
X267501000Y-144720918D02*
X268125918Y-144096000D01*
X139700000Y-96039235D02*
X139700000Y-102881300D01*
D26*
X188485000Y-63215980D02*
X188485000Y-64984338D01*
D25*
X105156000Y-108469300D02*
X105156000Y-122895667D01*
X265642523Y-131396000D02*
X265642523Y-130539260D01*
X180848000Y-92991235D02*
X180848000Y-85355300D01*
X308052958Y-93096415D02*
X307348794Y-93096415D01*
X53695600Y-80803262D02*
X54706000Y-81813662D01*
X281927000Y-124902327D02*
X281927000Y-122898568D01*
X105156000Y-135128000D02*
X105156000Y-123763667D01*
X291846000Y-104442200D02*
X291896800Y-104493000D01*
X54706000Y-68495300D02*
X54706000Y-69906400D01*
X233680000Y-66305300D02*
X239776000Y-72401300D01*
X293116000Y-144692000D02*
X293370000Y-144692000D01*
X54356000Y-85437000D02*
X54356000Y-104405300D01*
X101600000Y-144272000D02*
X104648000Y-141224000D01*
X95453200Y-63957200D02*
X95453200Y-66254500D01*
X271110610Y-144706000D02*
X271220610Y-144596000D01*
D26*
X194056000Y-99745800D02*
X194056000Y-104749600D01*
D25*
X238729000Y-139669000D02*
X239942000Y-140882000D01*
X107919000Y-97759000D02*
X107919000Y-103104300D01*
D26*
X188485000Y-64984338D02*
X189050000Y-65549338D01*
D25*
X236728000Y-120043300D02*
X236728000Y-107533586D01*
X334772000Y-139700000D02*
X332397100Y-142074900D01*
X271607056Y-144688000D02*
X276253964Y-144688000D01*
X239941000Y-98741737D02*
X238505237Y-100177500D01*
X277368000Y-136652000D02*
X277368000Y-134620000D01*
X334772000Y-66776600D02*
X334772000Y-85544111D01*
X263652000Y-67564000D02*
X265684000Y-65532000D01*
X271693830Y-135041830D02*
X271693830Y-136075647D01*
X335357840Y-105191982D02*
X335438493Y-105191982D01*
X102616000Y-83323300D02*
X104648000Y-85355300D01*
X334772000Y-104698030D02*
X335118964Y-105044994D01*
X177069000Y-105275000D02*
X176276000Y-104482000D01*
X335629456Y-105315972D02*
X335741785Y-105315972D01*
D26*
X189050000Y-67896400D02*
X186639200Y-70307200D01*
D25*
X264502000Y-90745918D02*
X264502000Y-95251472D01*
X158089600Y-121285000D02*
X158089600Y-123647200D01*
X265642523Y-130539260D02*
X261204000Y-126100737D01*
X306884000Y-141748000D02*
X304546000Y-144086000D01*
D26*
X184989100Y-55563055D02*
X185619629Y-56193584D01*
D25*
X180817514Y-123530300D02*
X177069000Y-119781786D01*
X233761207Y-102026793D02*
X233761207Y-104566793D01*
X140208000Y-106369000D02*
X138176000Y-104337000D01*
X332397100Y-142074900D02*
X331292200Y-143179800D01*
X140208000Y-123537000D02*
X140208000Y-106369000D01*
X234682382Y-130061618D02*
X233264000Y-128643235D01*
D26*
X188708400Y-61581400D02*
X188708400Y-62992580D01*
D25*
X261150000Y-125935472D02*
X261150000Y-121014232D01*
X293430200Y-144631800D02*
X293430200Y-139581692D01*
X277368000Y-136652000D02*
X276812506Y-137207494D01*
D26*
X189050000Y-65962908D02*
X189050000Y-67896400D01*
X191693800Y-97383600D02*
X194056000Y-99745800D01*
D25*
X305816000Y-97536000D02*
X305816000Y-93472000D01*
X54706000Y-81813662D02*
X54706000Y-85087000D01*
X335629456Y-105315972D02*
X335741785Y-105315972D01*
X242583600Y-140882000D02*
X243611400Y-141909800D01*
X105664000Y-135636000D02*
X105156000Y-135128000D01*
X271220610Y-144596000D02*
X271515056Y-144596000D01*
X238252000Y-92991235D02*
X239941000Y-94680235D01*
D26*
X187758892Y-60631892D02*
X188708400Y-61581400D01*
D25*
X268224000Y-131572000D02*
X265818523Y-131572000D01*
X104978200Y-83286600D02*
X104978200Y-85025100D01*
X269909390Y-144706000D02*
X271110610Y-144706000D01*
X264502000Y-95251472D02*
X264760000Y-95509472D01*
X297180000Y-132044000D02*
X295654000Y-130518000D01*
X236728000Y-107533586D02*
X233761207Y-104566793D01*
X263652000Y-85355300D02*
X264160000Y-85863300D01*
X308864000Y-93472000D02*
X308428543Y-93472000D01*
D26*
X185758984Y-56193584D02*
X187758892Y-58193492D01*
D25*
X282448000Y-125423327D02*
X281927000Y-124902327D01*
X177800000Y-139192000D02*
X177800000Y-138176000D01*
X330555600Y-105609830D02*
X330824770Y-105879000D01*
X308356000Y-64257500D02*
X308356000Y-66393000D01*
X335357840Y-105191982D02*
X335438493Y-105191982D01*
X309127500Y-82291000D02*
X310388000Y-83551500D01*
X107919000Y-103104300D02*
X109220000Y-104405300D01*
X329412600Y-120980200D02*
X329412600Y-123339800D01*
X109220000Y-104405300D02*
X105156000Y-108469300D01*
X276812506Y-137207494D02*
X276812506Y-137790637D01*
X335293522Y-105127664D02*
X335357840Y-105191982D01*
X271957800Y-131368800D02*
X272338800Y-131749800D01*
X281927000Y-122898568D02*
X282177000Y-122648568D01*
X297180000Y-135831892D02*
X297180000Y-132044000D01*
D26*
X189050000Y-65549338D02*
X189050000Y-65962908D01*
D25*
X268224000Y-131572000D02*
X268427200Y-131368800D01*
D26*
X189306200Y-85826600D02*
X191693800Y-88214200D01*
D25*
X335152908Y-105044994D02*
X335235578Y-105127664D01*
X293370000Y-144692000D02*
X293430200Y-144631800D01*
X308864000Y-98044000D02*
X308864000Y-93472000D01*
X81788000Y-144272000D02*
X101600000Y-144272000D01*
X293598600Y-95758000D02*
X291846000Y-97510600D01*
X234099100Y-65886200D02*
X233680000Y-66305300D01*
X282448000Y-136652000D02*
X282448000Y-139258000D01*
X335152908Y-105044994D02*
X335235578Y-105127664D01*
X310388000Y-89916000D02*
X310388000Y-85985829D01*
X330555600Y-102387400D02*
X330555600Y-105609830D01*
X239941000Y-94680235D02*
X239941000Y-98741737D01*
X142240000Y-85355300D02*
X144272000Y-83323300D01*
X305816000Y-99568000D02*
X305816000Y-97536000D01*
X260539644Y-111528172D02*
X261204000Y-112192528D01*
X272338800Y-134396860D02*
X271693830Y-135041830D01*
X80264000Y-142748000D02*
X81788000Y-144272000D01*
X335741785Y-105315972D02*
X335930069Y-105504256D01*
X144272000Y-68337300D02*
X142240000Y-66305300D01*
X335504713Y-105258202D02*
X335571686Y-105258202D01*
X334772000Y-105391958D02*
X335118964Y-105044994D01*
X104648000Y-85355300D02*
X104648000Y-94488000D01*
X276253964Y-144688000D02*
X276503964Y-144938000D01*
X103228000Y-77875608D02*
X102616000Y-78487608D01*
X139700000Y-102881300D02*
X138244300Y-104337000D01*
X307348794Y-93096415D02*
X306973209Y-93472000D01*
X268125918Y-144096000D02*
X268655125Y-144096000D01*
X335930069Y-105504256D02*
X335930069Y-105555077D01*
X181768000Y-84435300D02*
X181768000Y-70348300D01*
X304800000Y-93472000D02*
X303784000Y-92456000D01*
X265818523Y-131572000D02*
X265642523Y-131396000D01*
X330377800Y-66700400D02*
X330250800Y-66827400D01*
X282448000Y-136652000D02*
X282448000Y-125423327D01*
X261204000Y-117780528D02*
X261505534Y-118082062D01*
X330073000Y-83261200D02*
X330073000Y-85368000D01*
X293430200Y-139581692D02*
X297180000Y-135831892D01*
D26*
X184989100Y-52005600D02*
X184989100Y-55563055D01*
D25*
X263669734Y-145300000D02*
X266501918Y-145300000D01*
X54706000Y-69906400D02*
X53695600Y-70916800D01*
D26*
X191693800Y-88214200D02*
X191693800Y-97383600D01*
D25*
X304660200Y-145195800D02*
X304546000Y-145310000D01*
X54864000Y-104913300D02*
X54864000Y-122340500D01*
X309880000Y-93472000D02*
X308864000Y-93472000D01*
X238252000Y-87210000D02*
X238252000Y-92991235D01*
X80264000Y-131572000D02*
X80264000Y-124471300D01*
X239776000Y-72401300D02*
X239776000Y-85686000D01*
X330377800Y-63855600D02*
X330377800Y-66700400D01*
D26*
X196139000Y-107188200D02*
X196139000Y-109640370D01*
D25*
X335293522Y-105127664D02*
X335357840Y-105191982D01*
X271693830Y-136075647D02*
X271519907Y-136249570D01*
X330352400Y-63830200D02*
X330377800Y-63855600D01*
X264760000Y-95509472D02*
X264760000Y-104134528D01*
X293598600Y-94234000D02*
X293598600Y-86138229D01*
X234682382Y-130061618D02*
X238729000Y-134108235D01*
X335118964Y-105044994D02*
X335152908Y-105044994D01*
X264160000Y-90403918D02*
X264502000Y-90745918D01*
D26*
X189306200Y-82473800D02*
X189306200Y-85623400D01*
D25*
X335930069Y-105555077D02*
X335965149Y-105590157D01*
X181356000Y-133096000D02*
X181356000Y-134620000D01*
X262023814Y-106084000D02*
X260539644Y-107568170D01*
X238505237Y-100177500D02*
X235610500Y-100177500D01*
X293598600Y-94234000D02*
X293598600Y-95758000D01*
X102108000Y-66305300D02*
X103228000Y-67425300D01*
D26*
X188708400Y-62992580D02*
X188485000Y-63215980D01*
D25*
X264209041Y-104785041D02*
X262910082Y-106084000D01*
X196596000Y-134112000D02*
X196596000Y-123963300D01*
X335118964Y-105044994D02*
X335152908Y-105044994D01*
X291592000Y-61468000D02*
X291592000Y-66393000D01*
X260103867Y-145765463D02*
X263204271Y-145765463D01*
X335235578Y-105127664D02*
X335293522Y-105127664D01*
X264160000Y-85863300D02*
X264160000Y-90403918D01*
X109753400Y-102235000D02*
X109753400Y-103871900D01*
X308428543Y-93472000D02*
X308052958Y-93096415D01*
X293598600Y-86138229D02*
X293751000Y-85985829D01*
X238729000Y-134108235D02*
X238729000Y-139669000D01*
X80264000Y-131572000D02*
X80264000Y-142748000D01*
D26*
X187758892Y-58193492D02*
X187758892Y-60631892D01*
D25*
X261204000Y-112192528D02*
X261204000Y-117780528D01*
X329412600Y-123339800D02*
X329615800Y-123543000D01*
X335235578Y-105127664D02*
X335293522Y-105127664D01*
X306973209Y-93472000D02*
X305816000Y-93472000D01*
X263652000Y-85355300D02*
X263652000Y-67564000D01*
X335930069Y-105504256D02*
X335930069Y-105555077D01*
X305816000Y-93472000D02*
X304800000Y-93472000D01*
D26*
X189306200Y-85623400D02*
X189306200Y-85826600D01*
D25*
X233264000Y-123507300D02*
X233491000Y-123280300D01*
X308356000Y-98552000D02*
X308864000Y-98044000D01*
X80264000Y-124471300D02*
X81280000Y-123455300D01*
X335571686Y-105258202D02*
X335629456Y-105315972D01*
X180848000Y-85355300D02*
X181768000Y-84435300D01*
X54356000Y-104405300D02*
X54864000Y-104913300D01*
X140208000Y-130048000D02*
X140785985Y-130625985D01*
X105156000Y-122895667D02*
X104722000Y-123329667D01*
X335438493Y-105191982D02*
X335504713Y-105258202D01*
X239776000Y-85686000D02*
X238252000Y-87210000D01*
X334772000Y-85544111D02*
X334772000Y-104698030D01*
X104648000Y-141224000D02*
X105664000Y-140208000D01*
X177151735Y-103606265D02*
X177151735Y-96687500D01*
X261150000Y-121014232D02*
X261505534Y-120658698D01*
X177800000Y-138176000D02*
X181356000Y-134620000D01*
X310388000Y-83551500D02*
X310388000Y-85985829D01*
X268655125Y-144096000D02*
X268803425Y-143947700D01*
X266501918Y-145300000D02*
X267081000Y-144720918D01*
X177069000Y-119781786D02*
X177069000Y-105275000D01*
D26*
X196139000Y-109640370D02*
X197840600Y-111341970D01*
D25*
X335930069Y-105555077D02*
X335965149Y-105590157D01*
X180086000Y-135890000D02*
X181356000Y-134620000D01*
X335438493Y-105191982D02*
X335504713Y-105258202D01*
X265684000Y-65532000D02*
X265684000Y-65404300D01*
X261204000Y-126100737D02*
X261204000Y-125989472D01*
D26*
X185839100Y-51155600D02*
X184989100Y-52005600D01*
D25*
X306319000Y-62220500D02*
X308356000Y-64257500D01*
X283376000Y-140186000D02*
X283376000Y-140274000D01*
X103228000Y-67425300D02*
X103228000Y-77875608D01*
D26*
X185619629Y-56193584D02*
X185758984Y-56193584D01*
D25*
X138244300Y-104337000D02*
X138176000Y-104337000D01*
X282448000Y-139258000D02*
X283376000Y-140186000D01*
%TO.N,S0*%
X198216000Y-79376359D02*
X200962000Y-82122359D01*
X187120004Y-138352004D02*
X187582031Y-138352004D01*
X257216972Y-137318448D02*
X257627920Y-137318448D01*
X198978108Y-73474873D02*
X198978108Y-77375500D01*
X203580000Y-96776608D02*
X203169000Y-97187608D01*
X185928000Y-137160000D02*
X187120004Y-138352004D01*
X260064468Y-137024060D02*
X260702769Y-137024060D01*
X198978108Y-77375500D02*
X198216000Y-78137608D01*
X206337000Y-115761263D02*
X206337000Y-129417534D01*
X259582528Y-137506000D02*
X260064468Y-137024060D01*
X257815472Y-137506000D02*
X259582528Y-137506000D01*
X254794907Y-134896383D02*
X257216972Y-137318448D01*
X207772000Y-113142791D02*
X207772000Y-114326263D01*
X203580000Y-91144528D02*
X203580000Y-96776608D01*
X192370000Y-68604082D02*
X195861418Y-72095500D01*
X185928000Y-130048000D02*
X185928000Y-137160000D01*
X203169000Y-97187608D02*
X203169000Y-99802168D01*
X204680000Y-101313168D02*
X204680000Y-107935269D01*
X207772000Y-114326263D02*
X206337000Y-115761263D01*
X188379100Y-51155600D02*
X188379100Y-52502337D01*
X192370000Y-56493237D02*
X192370000Y-68604082D01*
X257627920Y-137318448D02*
X257815472Y-137506000D01*
X195861418Y-72095500D02*
X197598735Y-72095500D01*
X188379100Y-52502337D02*
X192370000Y-56493237D01*
X205972000Y-111342791D02*
X207772000Y-113142791D01*
X204680000Y-107935269D02*
X205972000Y-109227269D01*
X203169000Y-99802168D02*
X204680000Y-101313168D01*
X206337000Y-129417534D02*
X208858714Y-131939248D01*
X205972000Y-109227269D02*
X205972000Y-111342791D01*
X200962000Y-82122359D02*
X200962000Y-88526528D01*
X198216000Y-78137608D02*
X198216000Y-79376359D01*
X254794907Y-134185437D02*
X254794907Y-134896383D01*
X200962000Y-88526528D02*
X203580000Y-91144528D01*
X197598735Y-72095500D02*
X198978108Y-73474873D01*
%TO.N,SCL*%
X271037412Y-137078850D02*
X272168280Y-137078850D01*
X251770262Y-136962906D02*
X252971124Y-138163768D01*
X131572000Y-145288000D02*
X132080000Y-145796000D01*
X262178566Y-141700000D02*
X265010750Y-141700000D01*
X212522763Y-146517500D02*
X214553237Y-146517500D01*
X131572000Y-137668000D02*
X131572000Y-145288000D01*
X252971124Y-138163768D02*
X252971124Y-138397553D01*
X257717065Y-141700000D02*
X259843563Y-141700000D01*
X257123065Y-141106000D02*
X257717065Y-141700000D01*
X243085400Y-144061400D02*
X244358938Y-144061400D01*
X256247256Y-141028952D02*
X256324304Y-141106000D01*
X245661400Y-141485400D02*
X248444486Y-138702314D01*
X275811020Y-128292362D02*
X276959748Y-128292362D01*
X309838781Y-99471612D02*
X309838781Y-119929219D01*
X245661400Y-142758938D02*
X245661400Y-141485400D01*
X272964200Y-134619988D02*
X272964200Y-131139182D01*
X265010750Y-141700000D02*
X265618750Y-141092000D01*
X260059026Y-141915463D02*
X261963103Y-141915463D01*
X256324304Y-141106000D02*
X257123065Y-141106000D01*
X270558262Y-137558000D02*
X271037412Y-137078850D01*
X215274737Y-145796000D02*
X241350800Y-145796000D01*
X272964200Y-131139182D02*
X275811020Y-128292362D01*
X211801263Y-145796000D02*
X212522763Y-146517500D01*
X132080000Y-145796000D02*
X211801263Y-145796000D01*
X259843563Y-141700000D02*
X260059026Y-141915463D01*
X248444486Y-138702314D02*
X248444486Y-138412296D01*
X261963103Y-141915463D02*
X262178566Y-141700000D01*
X255565556Y-140918448D02*
X255676060Y-141028952D01*
X276959748Y-128292362D02*
X277191000Y-128061110D01*
X265908000Y-141092000D02*
X269442000Y-137558000D01*
X309838781Y-119929219D02*
X309626000Y-120142000D01*
X214553237Y-146517500D02*
X215274737Y-145796000D01*
X255492019Y-140918448D02*
X255565556Y-140918448D01*
X272332132Y-136914998D02*
X272727955Y-136519175D01*
X244358938Y-144061400D02*
X245661400Y-142758938D01*
X272168280Y-137078850D02*
X272332132Y-136914998D01*
X241350800Y-145796000D02*
X243085400Y-144061400D01*
X272727955Y-136519175D02*
X272727955Y-134856233D01*
X248444486Y-138412296D02*
X249893876Y-136962906D01*
X252971124Y-138397553D02*
X255492019Y-140918448D01*
X272727955Y-134856233D02*
X272964200Y-134619988D01*
X249893876Y-136962906D02*
X251770262Y-136962906D01*
X255676060Y-141028952D02*
X256247256Y-141028952D01*
X269442000Y-137558000D02*
X270558262Y-137558000D01*
X265618750Y-141092000D02*
X265908000Y-141092000D01*
%TO.N,S3*%
X252744907Y-135391967D02*
X256471388Y-139118448D01*
X194564000Y-135128000D02*
X194564000Y-141073268D01*
X208881041Y-142146959D02*
X208694959Y-142146959D01*
X195986783Y-58416255D02*
X195986783Y-55894689D01*
X195981000Y-65257528D02*
X195981000Y-58923094D01*
X210820000Y-131001396D02*
X210908714Y-131090110D01*
X204306001Y-73711598D02*
X195987783Y-65393380D01*
X196504000Y-55377472D02*
X196504000Y-52862581D01*
X195979000Y-58921094D02*
X195979000Y-58424038D01*
X212439000Y-117849400D02*
X212439000Y-114930235D01*
X195987783Y-65264311D02*
X195981000Y-65257528D01*
X209134000Y-111625235D02*
X209134000Y-107366528D01*
X194880732Y-141390000D02*
X195002679Y-141390000D01*
X252744907Y-133041051D02*
X252744907Y-135391967D01*
X210908714Y-132788386D02*
X210820000Y-132877100D01*
X195986783Y-55894689D02*
X196504000Y-55377472D01*
X204306001Y-80375192D02*
X204306001Y-73711598D01*
X258260416Y-139306000D02*
X258729532Y-139775116D01*
X215770122Y-125787042D02*
X214617400Y-124634320D01*
X258729532Y-139775116D02*
X261204312Y-139775116D01*
X195999100Y-52357681D02*
X195999100Y-51155600D01*
X208171000Y-99259504D02*
X208171000Y-96193496D01*
X214617400Y-120027800D02*
X212439000Y-117849400D01*
X194564000Y-141073268D02*
X194880732Y-141390000D01*
X195981000Y-58923094D02*
X195979000Y-58921094D01*
X196504000Y-52862581D02*
X195999100Y-52357681D01*
X253807326Y-131978632D02*
X252744907Y-133041051D01*
X214617400Y-124634320D02*
X214617400Y-120027800D01*
X195987783Y-65393380D02*
X195987783Y-65264311D01*
X256471388Y-139118448D02*
X256882336Y-139118448D01*
X207680000Y-89656528D02*
X204563000Y-86539528D01*
X209134000Y-107366528D02*
X207680000Y-105912528D01*
X210820000Y-132877100D02*
X210820000Y-140208000D01*
X204563000Y-80632191D02*
X204306001Y-80375192D01*
X207680000Y-95702496D02*
X207680000Y-89656528D01*
X212439000Y-114930235D02*
X209134000Y-111625235D01*
X207680000Y-99750504D02*
X208171000Y-99259504D01*
X204563000Y-86539528D02*
X204563000Y-80632191D01*
X207680000Y-105912528D02*
X207680000Y-99750504D01*
X195979000Y-58424038D02*
X195986783Y-58416255D01*
X257069888Y-139306000D02*
X258260416Y-139306000D01*
X210908714Y-131090110D02*
X210908714Y-132788386D01*
X210820000Y-140208000D02*
X208881041Y-142146959D01*
X256882336Y-139118448D02*
X257069888Y-139306000D01*
X210820000Y-125984000D02*
X210820000Y-131001396D01*
X208171000Y-96193496D02*
X207680000Y-95702496D01*
%TO.N,VCC33*%
X201079100Y-51728514D02*
X201079100Y-53277363D01*
X210388000Y-93317260D02*
X210388000Y-94246732D01*
X130048000Y-134112000D02*
X130048000Y-115089235D01*
X206413000Y-58611263D02*
X206413000Y-69420472D01*
X206413000Y-69420472D02*
X209388000Y-72395472D01*
X209462000Y-81571392D02*
X209462000Y-86970731D01*
X131572000Y-113565235D02*
X131572000Y-107247426D01*
X210782469Y-101201252D02*
X210782469Y-104551671D01*
X209462000Y-86970731D02*
X210226001Y-87734732D01*
X130048000Y-115089235D02*
X131572000Y-113565235D01*
X210734000Y-101152782D02*
X210782469Y-101201252D01*
X210782469Y-104551671D02*
X211464798Y-105234000D01*
X210734000Y-94592732D02*
X210734000Y-101152782D01*
X207686000Y-76004765D02*
X207686000Y-77557608D01*
X210226000Y-93155259D02*
X210388000Y-93317260D01*
X210388000Y-94246732D02*
X210734000Y-94592732D01*
X210226001Y-87734732D02*
X210226000Y-93155259D01*
X201079100Y-53277363D02*
X206413000Y-58611263D01*
X131064000Y-135128000D02*
X130048000Y-134112000D01*
X207106000Y-79215392D02*
X209462000Y-81571392D01*
X209388000Y-72395472D02*
X209388000Y-74302765D01*
X209388000Y-74302765D02*
X207686000Y-76004765D01*
X207106000Y-78137608D02*
X207106000Y-79215392D01*
X131572000Y-107247426D02*
X133282426Y-105537000D01*
X207686000Y-77557608D02*
X207106000Y-78137608D01*
%TO.N,SDA*%
X130556000Y-137199323D02*
X130556000Y-145288000D01*
X275856185Y-129121415D02*
X273812000Y-131165600D01*
X272669220Y-137962252D02*
X272408050Y-137962252D01*
X215401765Y-146517500D02*
X241594500Y-146517500D01*
X255243491Y-141518448D02*
X255317028Y-141518448D01*
X249044486Y-139067514D02*
X249044486Y-138660824D01*
X251521734Y-137562906D02*
X252371124Y-138412296D01*
X212274235Y-147117500D02*
X214801765Y-147117500D01*
X257468537Y-142300000D02*
X259595035Y-142300000D01*
X241594500Y-146517500D02*
X243450600Y-144661400D01*
X244607466Y-144661400D02*
X246261400Y-143007466D01*
X272408050Y-137962252D02*
X272361858Y-137916060D01*
X265259278Y-142300000D02*
X265867278Y-141692000D01*
X250142404Y-137562906D02*
X251521734Y-137562906D01*
X310642000Y-100071602D02*
X310642000Y-120650000D01*
X276558550Y-129121415D02*
X275856185Y-129121415D01*
X130146203Y-136789526D02*
X130556000Y-137199323D01*
X259810498Y-142515463D02*
X262211631Y-142515463D01*
X255427532Y-141628952D02*
X255998728Y-141628952D01*
X256874537Y-141706000D02*
X257468537Y-142300000D01*
X214801765Y-147117500D02*
X215401765Y-146517500D01*
X259595035Y-142300000D02*
X259810498Y-142515463D01*
X252371124Y-138646081D02*
X255243491Y-141518448D01*
X265867278Y-141692000D02*
X266287278Y-141692000D01*
X273812000Y-136819472D02*
X272669220Y-137962252D01*
X273812000Y-131165600D02*
X273812000Y-136819472D01*
X246261400Y-143007466D02*
X246261400Y-141850600D01*
X266287278Y-141692000D02*
X266883278Y-141096000D01*
X271218790Y-137746000D02*
X272191798Y-137746000D01*
X272191798Y-137746000D02*
X272361858Y-137916060D01*
X262427094Y-142300000D02*
X265259278Y-142300000D01*
X256075776Y-141706000D02*
X256874537Y-141706000D01*
X269756082Y-138243918D02*
X270720872Y-138243918D01*
X266883278Y-141096000D02*
X266904000Y-141096000D01*
X249044486Y-138660824D02*
X250142404Y-137562906D01*
X211674235Y-146517500D02*
X212274235Y-147117500D01*
X310783292Y-99930310D02*
X310642000Y-100071602D01*
X246261400Y-141850600D02*
X249044486Y-139067514D01*
X255317028Y-141518448D02*
X255427532Y-141628952D01*
X270720872Y-138243918D02*
X271218790Y-137746000D01*
X131785500Y-146517500D02*
X211674235Y-146517500D01*
X130556000Y-145288000D02*
X131785500Y-146517500D01*
X252371124Y-138412296D02*
X252371124Y-138646081D01*
X266904000Y-141096000D02*
X269756082Y-138243918D01*
X255998728Y-141628952D02*
X256075776Y-141706000D01*
X243450600Y-144661400D02*
X244607466Y-144661400D01*
X262211631Y-142515463D02*
X262427094Y-142300000D01*
%TO.N,VCC*%
X150952200Y-74574400D02*
X148437600Y-77089000D01*
D26*
X197381000Y-60248235D02*
X197612000Y-60479235D01*
D25*
X193006004Y-105934804D02*
X193006004Y-100840924D01*
X277342600Y-141274800D02*
X284022800Y-141274800D01*
X264792335Y-135070631D02*
X264849739Y-135013227D01*
X376859800Y-124053600D02*
X376859800Y-120091000D01*
X229108000Y-79654400D02*
X229108000Y-78359000D01*
X317474600Y-127406400D02*
X317474600Y-139813335D01*
X58293000Y-67665600D02*
X58293000Y-63064030D01*
X228955600Y-98247200D02*
X228955600Y-81982100D01*
X188281600Y-82934125D02*
X188281600Y-86783200D01*
X195148200Y-119227600D02*
X196646800Y-117729000D01*
X230733600Y-138633200D02*
X230733600Y-142011400D01*
D26*
X198374000Y-58011765D02*
X197381000Y-59004765D01*
X214934800Y-112877600D02*
X210092000Y-108034800D01*
D25*
X282549600Y-64314541D02*
X283992235Y-62871906D01*
D26*
X210092000Y-105649075D02*
X209982469Y-105539544D01*
D25*
X378930000Y-96723963D02*
X379072000Y-96581963D01*
X277965000Y-95923000D02*
X279400000Y-94488000D01*
X352552000Y-139141000D02*
X352552000Y-120421400D01*
X283326788Y-118074156D02*
X283027000Y-118373944D01*
X352552000Y-82066000D02*
X352552000Y-63016000D01*
X315468000Y-77216000D02*
X315468000Y-82804000D01*
X319087500Y-99580700D02*
X319087500Y-101079300D01*
X228955600Y-81982100D02*
X228685300Y-81711800D01*
X277965000Y-99669500D02*
X277965000Y-95923000D01*
X282106000Y-71021918D02*
X282549600Y-70578318D01*
X55372000Y-104572772D02*
X55880000Y-105080772D01*
X375843800Y-67894200D02*
X375920000Y-67818000D01*
D26*
X217016892Y-128931108D02*
X212011226Y-133936774D01*
D25*
X189306200Y-96570800D02*
X193006004Y-100270604D01*
X55458426Y-82849419D02*
X55556000Y-82849419D01*
X277926800Y-90271600D02*
X277926800Y-81686400D01*
X376504200Y-100660200D02*
X378930000Y-98234400D01*
X270179505Y-119532695D02*
X269919305Y-119532695D01*
D26*
X206590000Y-80679292D02*
X206590000Y-81737200D01*
D25*
X100355400Y-138252100D02*
X100330000Y-138277500D01*
X352552000Y-120421400D02*
X352552000Y-101041000D01*
X298196000Y-82296000D02*
X298704000Y-82804000D01*
X230733600Y-119790498D02*
X230733600Y-114223800D01*
X277926800Y-81686400D02*
X282106000Y-77507200D01*
X283303342Y-125430141D02*
X283303342Y-133604000D01*
D26*
X205706001Y-77365370D02*
X205706001Y-79795293D01*
X205706001Y-79795293D02*
X206590000Y-80679292D01*
D25*
X298704000Y-91454774D02*
X299336026Y-92086800D01*
X317850000Y-118155200D02*
X317850000Y-115392200D01*
X189306200Y-87807800D02*
X189306200Y-96570800D01*
X315468000Y-63347600D02*
X315976000Y-62839600D01*
D26*
X198539100Y-51155600D02*
X198374000Y-51320700D01*
D25*
X318846200Y-121285000D02*
X319913000Y-120218200D01*
X273177000Y-101790500D02*
X273177000Y-95021400D01*
X377444000Y-138404600D02*
X378930000Y-136918600D01*
X188056623Y-82709148D02*
X188281600Y-82934125D01*
X273456400Y-102069900D02*
X273177000Y-101790500D01*
X193006004Y-100270604D02*
X193006004Y-100840924D01*
X101447600Y-109270800D02*
X96367600Y-104190800D01*
X270302342Y-136424705D02*
X270302342Y-136611838D01*
X185660200Y-69295696D02*
X185660200Y-80312725D01*
X188281600Y-86783200D02*
X189306200Y-87807800D01*
X379072000Y-114870935D02*
X379072000Y-107419000D01*
X283027000Y-118373944D02*
X283027000Y-123451717D01*
X82626200Y-139319000D02*
X82626200Y-119837200D01*
D26*
X209588000Y-93648630D02*
X209426000Y-93486630D01*
D25*
X100355400Y-119430800D02*
X100355400Y-138252100D01*
X229108000Y-78359000D02*
X231089200Y-76377800D01*
X156565600Y-139725400D02*
X156057600Y-139217400D01*
D26*
X209934000Y-94924102D02*
X209588000Y-94578102D01*
X209426000Y-93486630D02*
X209426000Y-88066102D01*
D25*
X298196000Y-77216000D02*
X298196000Y-82296000D01*
X264849739Y-135013227D02*
X268890864Y-135013227D01*
X55372000Y-100826000D02*
X55372000Y-104572772D01*
X94589600Y-81737200D02*
X96291400Y-80035400D01*
X228685300Y-80077100D02*
X229108000Y-79654400D01*
D26*
X200876000Y-68149370D02*
X206032000Y-73305370D01*
D25*
X231571800Y-100863400D02*
X231470200Y-100761800D01*
X379072000Y-90934400D02*
X376453400Y-88315800D01*
X352552000Y-101041000D02*
X352552000Y-82066000D01*
X284226000Y-141071600D02*
X284226000Y-139611188D01*
X273456400Y-115098069D02*
X271830800Y-116723669D01*
X315468000Y-82804000D02*
X316280800Y-83616800D01*
X148437600Y-77089000D02*
X148437600Y-81711800D01*
X58293000Y-63064030D02*
X58597800Y-62759230D01*
X196646800Y-117729000D02*
X196646800Y-111279540D01*
X297688000Y-64569419D02*
X297688000Y-76708000D01*
X283326788Y-115300812D02*
X283326788Y-118074156D01*
X227888800Y-127000000D02*
X227888800Y-139742816D01*
D26*
X206540000Y-85180101D02*
X206540000Y-81787200D01*
D25*
X294250000Y-135518000D02*
X293878000Y-135890000D01*
D26*
X209426000Y-88066102D02*
X206540000Y-85180101D01*
X209934000Y-101597059D02*
X209934000Y-94924102D01*
D25*
X375920000Y-67818000D02*
X375920000Y-62484000D01*
X54483000Y-79476600D02*
X54483000Y-71475600D01*
D26*
X217016892Y-125618184D02*
X217016892Y-128931108D01*
D25*
X277190200Y-141427200D02*
X277342600Y-141274800D01*
X316280800Y-83616800D02*
X316280800Y-96774000D01*
X289233500Y-57585500D02*
X289233500Y-63178300D01*
X379072000Y-107419000D02*
X376504200Y-104851200D01*
X231089200Y-76377800D02*
X231089200Y-62738000D01*
X283303342Y-133604000D02*
X283303342Y-138688530D01*
X282549600Y-70578318D02*
X282549600Y-64314541D01*
X378930000Y-134823963D02*
X379072000Y-134681963D01*
X283027000Y-123451717D02*
X282527000Y-123951717D01*
X55556000Y-82849419D02*
X55556000Y-80549600D01*
X148869400Y-101574600D02*
X143078200Y-107365800D01*
D26*
X215417400Y-116203165D02*
X214934800Y-115720565D01*
D25*
X289052000Y-57404000D02*
X289233500Y-57585500D01*
X378930000Y-79184400D02*
X378930000Y-76912935D01*
D26*
X197381000Y-59004765D02*
X197381000Y-60248235D01*
D25*
X101447600Y-118338600D02*
X101447600Y-109270800D01*
X301884000Y-141748000D02*
X301884000Y-144214000D01*
X227888800Y-139742816D02*
X227954392Y-139808408D01*
X54483000Y-71475600D02*
X58293000Y-67665600D01*
X283464000Y-115163600D02*
X283326788Y-115300812D01*
X316280800Y-96774000D02*
X319087500Y-99580700D01*
X94386400Y-87147400D02*
X94386400Y-81940400D01*
D26*
X206540000Y-81787200D02*
X206590000Y-81737200D01*
X206032000Y-77039371D02*
X205706001Y-77365370D01*
D25*
X232410000Y-112547400D02*
X232410000Y-108940600D01*
X273177000Y-95021400D02*
X277926800Y-90271600D01*
D26*
X200876000Y-66267300D02*
X200876000Y-68149370D01*
D25*
X236778800Y-138633200D02*
X230733600Y-138633200D01*
X148869400Y-82143600D02*
X148869400Y-100761800D01*
X55556000Y-80549600D02*
X54483000Y-79476600D01*
X195148200Y-119837200D02*
X195148200Y-119227600D01*
X295654000Y-135518000D02*
X294250000Y-135518000D01*
X301239000Y-62220500D02*
X300036919Y-62220500D01*
X82042000Y-139903200D02*
X82626200Y-139319000D01*
X230733600Y-119790498D02*
X230733600Y-124155200D01*
X273456400Y-114528600D02*
X273456400Y-115098069D01*
X187655200Y-62843698D02*
X187655200Y-67300696D01*
X318846200Y-126034800D02*
X317474600Y-127406400D01*
X156057600Y-139217400D02*
X156057600Y-119837200D01*
X376504200Y-104851200D02*
X376504200Y-100660200D01*
X301884000Y-144214000D02*
X301752000Y-144346000D01*
D26*
X212011226Y-133936774D02*
X212011226Y-139164026D01*
D25*
X379072000Y-134681963D02*
X379072000Y-126265800D01*
X378930000Y-136918600D02*
X378930000Y-134823963D01*
X379072000Y-76770935D02*
X379072000Y-71122400D01*
X195339000Y-109971741D02*
X195339000Y-108267800D01*
X268890864Y-135013227D02*
X270302342Y-136424705D01*
X187655200Y-67300696D02*
X185660200Y-69295696D01*
X232410000Y-108940600D02*
X231571800Y-108102400D01*
X187463965Y-62383506D02*
X187463965Y-62652463D01*
X231571800Y-108102400D02*
X231571800Y-100863400D01*
X273456400Y-114528600D02*
X273456400Y-102069900D01*
X230733600Y-114223800D02*
X232410000Y-112547400D01*
X148869400Y-100761800D02*
X148869400Y-101574600D01*
X143078200Y-107365800D02*
X143078200Y-119837200D01*
X230733600Y-124155200D02*
X227888800Y-127000000D01*
X271830800Y-116723669D02*
X271830800Y-117881400D01*
X150952200Y-62763400D02*
X150952200Y-74574400D01*
X315468000Y-77216000D02*
X315468000Y-63347600D01*
D26*
X209982469Y-101645528D02*
X209934000Y-101597059D01*
X209588000Y-94578102D02*
X209588000Y-93648630D01*
D25*
X300036919Y-62220500D02*
X297688000Y-64569419D01*
X187463965Y-62652463D02*
X187655200Y-62843698D01*
X378714000Y-115228935D02*
X379072000Y-114870935D01*
X318846200Y-126034800D02*
X318846200Y-121285000D01*
X376453400Y-81661000D02*
X378930000Y-79184400D01*
X319913000Y-120218200D02*
X317850000Y-118155200D01*
X55372000Y-100826000D02*
X55372000Y-82935845D01*
X55880000Y-105080772D02*
X55880000Y-119939500D01*
X100355400Y-119430800D02*
X101447600Y-118338600D01*
X271830800Y-117881400D02*
X270179505Y-119532695D01*
X378930000Y-76912935D02*
X379072000Y-76770935D01*
X284226000Y-139611188D02*
X283571851Y-138957039D01*
X317850000Y-115392200D02*
X317850000Y-102316800D01*
X231470200Y-100761800D02*
X228955600Y-98247200D01*
X185660200Y-80312725D02*
X188056623Y-82709148D01*
D26*
X214934800Y-115720565D02*
X214934800Y-112877600D01*
D25*
X376859800Y-120091000D02*
X378714000Y-118236800D01*
X228685300Y-81711800D02*
X228685300Y-80077100D01*
D26*
X209982469Y-105539544D02*
X209982469Y-101645528D01*
X197612000Y-63003300D02*
X200876000Y-66267300D01*
D25*
X148437600Y-81711800D02*
X148869400Y-82143600D01*
X96367600Y-89128600D02*
X94386400Y-87147400D01*
X317474600Y-139813335D02*
X317490687Y-139829422D01*
X379072000Y-71122400D02*
X375843800Y-67894200D01*
X195339000Y-108267800D02*
X193006004Y-105934804D01*
X94386400Y-81940400D02*
X94589600Y-81737200D01*
X96291400Y-77724000D02*
X98171000Y-75844400D01*
X378714000Y-118236800D02*
X378714000Y-115228935D01*
X275844000Y-101790500D02*
X277965000Y-99669500D01*
X96367600Y-100812600D02*
X96367600Y-89128600D01*
X98171000Y-75844400D02*
X98171000Y-62306200D01*
X230733600Y-142011400D02*
X230657400Y-142087600D01*
X284022800Y-141274800D02*
X284226000Y-141071600D01*
D26*
X210092000Y-108034800D02*
X210092000Y-105649075D01*
X215417400Y-119684800D02*
X215417400Y-124018692D01*
D25*
X379072000Y-126265800D02*
X376859800Y-124053600D01*
X317850000Y-102316800D02*
X319087500Y-101079300D01*
X55372000Y-82935845D02*
X55458426Y-82849419D01*
D26*
X197612000Y-60479235D02*
X197612000Y-63003300D01*
D25*
X283303342Y-138688530D02*
X283571851Y-138957039D01*
D26*
X198374000Y-51320700D02*
X198374000Y-58011765D01*
X206032000Y-73305370D02*
X206032000Y-77039371D01*
D25*
X298704000Y-82804000D02*
X298704000Y-91454774D01*
X379072000Y-96581963D02*
X379072000Y-90934400D01*
X282106000Y-77507200D02*
X282106000Y-71021918D01*
X376453400Y-88315800D02*
X376453400Y-81661000D01*
X378930000Y-98234400D02*
X378930000Y-96723963D01*
X237845600Y-137388600D02*
X237845600Y-137566400D01*
X96291400Y-80035400D02*
X96291400Y-77724000D01*
X282527000Y-123951717D02*
X282527000Y-124653799D01*
X96367600Y-104190800D02*
X96367600Y-100812600D01*
X196646800Y-111279540D02*
X195339000Y-109971741D01*
D26*
X215417400Y-119684800D02*
X215417400Y-116203165D01*
X215417400Y-124018692D02*
X217016892Y-125618184D01*
D25*
X282527000Y-124653799D02*
X283303342Y-125430141D01*
X237845600Y-137566400D02*
X236778800Y-138633200D01*
X297688000Y-76708000D02*
X298196000Y-77216000D01*
%TO.N,Net-(J4-~{RST})*%
X267992000Y-114151964D02*
X267992000Y-119718334D01*
X303044000Y-94875928D02*
X302256600Y-94088528D01*
X268224000Y-108204000D02*
X268251801Y-108231801D01*
X267992000Y-123273138D02*
X267992000Y-127827984D01*
X302768000Y-107696000D02*
X302768000Y-99819761D01*
X302447400Y-90177518D02*
X302447400Y-72216210D01*
X268251801Y-108231801D02*
X268251801Y-113892163D01*
X267992000Y-119718334D02*
X268242000Y-119968334D01*
X306319000Y-68344610D02*
X306319000Y-64760500D01*
X302447400Y-72216210D02*
X306319000Y-68344610D01*
X268242000Y-123023138D02*
X267992000Y-123273138D01*
X268251801Y-113892163D02*
X267992000Y-114151964D01*
X268242000Y-119968334D02*
X268242000Y-123023138D01*
X303044000Y-99543761D02*
X303044000Y-94875928D01*
X267992000Y-127827984D02*
X267857088Y-127962896D01*
X302256600Y-94088528D02*
X302256600Y-90368318D01*
X302768000Y-99819761D02*
X303044000Y-99543761D01*
X302256600Y-90368318D02*
X302447400Y-90177518D01*
%TO.N,Net-(U2-PD1)*%
X249645348Y-136362906D02*
X252018790Y-136362906D01*
X261714575Y-141315463D02*
X263640809Y-139389229D01*
X256495784Y-140428952D02*
X256572832Y-140506000D01*
X255814917Y-140318448D02*
X255925421Y-140428952D01*
X226060000Y-138684000D02*
X225989801Y-138754199D01*
X257965593Y-141100000D02*
X260092091Y-141100000D01*
X253571124Y-138149025D02*
X255740547Y-140318448D01*
X253571124Y-137915240D02*
X253571124Y-138149025D01*
X255740547Y-140318448D02*
X255814917Y-140318448D01*
X257371593Y-140506000D02*
X257965593Y-141100000D01*
X252018790Y-136362906D02*
X253571124Y-137915240D01*
X263640809Y-139389229D02*
X266110771Y-139389229D01*
X256572832Y-140506000D02*
X257371593Y-140506000D01*
X241056400Y-145049000D02*
X242644000Y-143461400D01*
X242644000Y-143461400D02*
X244110410Y-143461400D01*
X225989801Y-138754199D02*
X225989801Y-141890549D01*
X245061400Y-142510410D02*
X245061400Y-141044000D01*
X247844486Y-138163768D02*
X249645348Y-136362906D01*
X266110771Y-139389229D02*
X268000000Y-137500000D01*
X244110410Y-143461400D02*
X245061400Y-142510410D01*
X247844486Y-138260914D02*
X247844486Y-138163768D01*
X260092091Y-141100000D02*
X260307554Y-141315463D01*
X229148252Y-145049000D02*
X241056400Y-145049000D01*
X245061400Y-141044000D02*
X247844486Y-138260914D01*
X225989801Y-141890549D02*
X229148252Y-145049000D01*
X255925421Y-140428952D02*
X256495784Y-140428952D01*
X260307554Y-141315463D02*
X261714575Y-141315463D01*
%TO.N,Net-(U2-PC3)*%
X271624083Y-141058000D02*
X268639056Y-141058000D01*
X267380334Y-142296000D02*
X266784334Y-142892000D01*
X254930476Y-142828952D02*
X254819972Y-142718448D01*
X266364334Y-142892000D02*
X265756334Y-143500000D01*
X254746435Y-142718448D02*
X251040893Y-139012906D01*
X265756334Y-143500000D02*
X262924150Y-143500000D01*
X254819972Y-142718448D02*
X254746435Y-142718448D01*
X267401056Y-142296000D02*
X267380334Y-142296000D01*
X259313442Y-143715463D02*
X259097979Y-143500000D01*
X255501672Y-142828952D02*
X254930476Y-142828952D01*
X262708687Y-143715463D02*
X259313442Y-143715463D01*
X251040893Y-139012906D02*
X250921124Y-139012906D01*
X255578720Y-142906000D02*
X255501672Y-142828952D01*
X259097979Y-143500000D02*
X256971481Y-143500000D01*
X268639056Y-141058000D02*
X267401056Y-142296000D01*
X266784334Y-142892000D02*
X266364334Y-142892000D01*
X256971481Y-143500000D02*
X256377481Y-142906000D01*
X262924150Y-143500000D02*
X262708687Y-143715463D01*
X272639752Y-140042331D02*
X271624083Y-141058000D01*
X256377481Y-142906000D02*
X255578720Y-142906000D01*
%TO.N,Net-(U2-PD0)*%
X228747605Y-142259209D02*
X228747605Y-143784051D01*
X229949687Y-144281969D02*
X230409656Y-143822000D01*
X265510771Y-136670739D02*
X265510771Y-136063025D01*
X261556394Y-140625116D02*
X265510771Y-136670739D01*
X230409656Y-143822000D02*
X241340626Y-143822000D01*
X244461400Y-142211082D02*
X244461400Y-140701226D01*
X247244486Y-137915240D02*
X249396820Y-135762906D01*
X256744312Y-139828952D02*
X256821360Y-139906000D01*
X260465735Y-140625116D02*
X261556394Y-140625116D01*
X252267318Y-135762906D02*
X256333364Y-139828952D01*
X226839801Y-140351405D02*
X228747605Y-142259209D01*
X258214121Y-140500000D02*
X260340619Y-140500000D01*
X242301226Y-142861400D02*
X243811082Y-142861400D01*
X256821360Y-139906000D02*
X257620121Y-139906000D01*
X257620121Y-139906000D02*
X258214121Y-140500000D01*
X256333364Y-139828952D02*
X256744312Y-139828952D01*
X226839801Y-139696929D02*
X226839801Y-140351405D01*
X241340626Y-143822000D02*
X242301226Y-142861400D01*
X260340619Y-140500000D02*
X260465735Y-140625116D01*
X244461400Y-140701226D02*
X247244486Y-137918140D01*
X247244486Y-137918140D02*
X247244486Y-137915240D01*
X243811082Y-142861400D02*
X244461400Y-142211082D01*
X228747605Y-143784051D02*
X229245523Y-144281969D01*
X249396820Y-135762906D02*
X252267318Y-135762906D01*
X229245523Y-144281969D02*
X229949687Y-144281969D01*
%TO.N,Net-(U2-PC2)*%
X271570872Y-138596000D02*
X271320872Y-138846000D01*
X271320872Y-138846000D02*
X270002528Y-138846000D01*
X270002528Y-138846000D02*
X267152528Y-141696000D01*
X255068500Y-142118448D02*
X254994963Y-142118448D01*
X255827248Y-142306000D02*
X255750200Y-142228952D01*
X265507806Y-142900000D02*
X262675622Y-142900000D01*
X249894486Y-138837462D02*
X249894486Y-139012906D01*
X254994963Y-142118448D02*
X251771124Y-138894609D01*
X251771124Y-138660824D02*
X251273206Y-138162906D01*
X259561970Y-143115463D02*
X259346507Y-142900000D01*
X255179004Y-142228952D02*
X255068500Y-142118448D01*
X257220009Y-142900000D02*
X256626009Y-142306000D01*
X259346507Y-142900000D02*
X257220009Y-142900000D01*
X250569042Y-138162906D02*
X249894486Y-138837462D01*
X256626009Y-142306000D02*
X255827248Y-142306000D01*
X251771124Y-138894609D02*
X251771124Y-138660824D01*
X251273206Y-138162906D02*
X250569042Y-138162906D01*
X266115806Y-142292000D02*
X265507806Y-142900000D01*
X266535806Y-142292000D02*
X266115806Y-142292000D01*
X262460159Y-143115463D02*
X259561970Y-143115463D01*
X267152528Y-141696000D02*
X267131806Y-141696000D01*
X255750200Y-142228952D02*
X255179004Y-142228952D01*
X262675622Y-142900000D02*
X262460159Y-143115463D01*
X267131806Y-141696000D02*
X266535806Y-142292000D01*
%TO.N,Net-(U2-PD2)*%
X200152000Y-134620000D02*
X200660000Y-134112000D01*
X200660000Y-134112000D02*
X200660000Y-125938027D01*
X200660000Y-125938027D02*
X201298031Y-125299996D01*
%TO.N,CLK16M*%
X269582000Y-121748160D02*
X269332000Y-121998160D01*
X312175862Y-94751862D02*
X312175862Y-122270138D01*
X273948971Y-127857048D02*
X274244860Y-127561159D01*
X269332000Y-121998160D02*
X269332000Y-126581059D01*
X150876000Y-128524000D02*
X155457600Y-133105600D01*
X269332000Y-126581059D02*
X270446582Y-127695641D01*
X155457600Y-134125169D02*
X155207600Y-134375169D01*
X199644000Y-132080000D02*
X199644000Y-123952000D01*
X155457600Y-133105600D02*
X155457600Y-134125169D01*
X199136000Y-132588000D02*
X199644000Y-132080000D01*
X270446582Y-127695641D02*
X270607989Y-127857048D01*
X312175862Y-122270138D02*
X312018000Y-122428000D01*
X311404000Y-93980000D02*
X312175862Y-94751862D01*
X270607989Y-127857048D02*
X273948971Y-127857048D01*
%TO.N,Net-(U3-A3)*%
X205666000Y-133003390D02*
X205232000Y-132569390D01*
X205666000Y-134204610D02*
X205666000Y-133003390D01*
X205232000Y-134638610D02*
X205666000Y-134204610D01*
X205232000Y-129558610D02*
X205487000Y-129303610D01*
X205232000Y-139700000D02*
X205232000Y-134638610D01*
X205232000Y-132569390D02*
X205232000Y-129558610D01*
X205737000Y-125813528D02*
X205693904Y-125770432D01*
X205693904Y-125770432D02*
X204516795Y-125770432D01*
X205487000Y-129303610D02*
X205487000Y-129065452D01*
X205737000Y-128815452D02*
X205737000Y-125813528D01*
X205487000Y-129065452D02*
X205737000Y-128815452D01*
%TO.N,Net-(U3-A2)*%
X204558000Y-129384082D02*
X204887000Y-129055082D01*
X204216000Y-137160000D02*
X204216000Y-134806082D01*
X205066000Y-133956082D02*
X205066000Y-133262000D01*
X204558000Y-132754000D02*
X204558000Y-129384082D01*
X205066000Y-133262000D02*
X204558000Y-132754000D01*
X204216000Y-134806082D02*
X205066000Y-133956082D01*
X204887000Y-129055082D02*
X204887000Y-126721110D01*
%TO.N,Net-(U3-A1)*%
X208788000Y-127508000D02*
X208788000Y-130666452D01*
X208788000Y-133212044D02*
X208788000Y-136144000D01*
X209708714Y-132291330D02*
X208788000Y-133212044D01*
X208788000Y-130666452D02*
X209708714Y-131587166D01*
X209708714Y-131587166D02*
X209708714Y-132291330D01*
%TO.N,Net-(U3-A0)*%
X203708000Y-128783041D02*
X203801041Y-128690000D01*
X204216000Y-133604000D02*
X203708000Y-133096000D01*
X203708000Y-133096000D02*
X203708000Y-128783041D01*
%TO.N,Net-(U4-D3)*%
X142748000Y-134620000D02*
X142841041Y-134526959D01*
X142748000Y-139700000D02*
X142748000Y-134620000D01*
X142841041Y-134526959D02*
X143090000Y-134526959D01*
%TO.N,Net-(U4-D4)*%
X189647766Y-127741809D02*
X189085215Y-127179258D01*
X189647766Y-128445973D02*
X189647766Y-127741809D01*
X189794240Y-135690861D02*
X188976000Y-134872621D01*
X188976000Y-129117739D02*
X189647766Y-128445973D01*
X188976000Y-134872621D02*
X188976000Y-129117739D01*
X189085215Y-127179258D02*
X188282061Y-127179258D01*
%TO.N,Net-(U4-D1)*%
X193040000Y-125476000D02*
X193040000Y-133604000D01*
%TO.N,Net-(U4-D5)*%
X187960000Y-128931657D02*
X187960000Y-133925918D01*
X188302000Y-134972082D02*
X187960000Y-135314082D01*
X187960000Y-135314082D02*
X187960000Y-137527891D01*
X188797766Y-128093891D02*
X187960000Y-128931657D01*
X188302000Y-134267918D02*
X188302000Y-134972082D01*
X187960000Y-133925918D02*
X188302000Y-134267918D01*
X189113042Y-138680933D02*
X189113042Y-140643403D01*
X187960000Y-137527891D02*
X189113042Y-138680933D01*
%TO.N,Net-(U4-D0)*%
X174244000Y-144272000D02*
X174244000Y-134620000D01*
X143764000Y-138684000D02*
X143764000Y-144272000D01*
X174244000Y-134620000D02*
X173736000Y-134112000D01*
%TO.N,Net-(J7-SCK)*%
X308194075Y-89242000D02*
X308194075Y-89750000D01*
X305336500Y-81759500D02*
X305336500Y-86384425D01*
X305336500Y-86384425D02*
X308194075Y-89242000D01*
X306587500Y-80508500D02*
X305336500Y-81759500D01*
X306587500Y-79751000D02*
X306587500Y-80508500D01*
%TO.N,Net-(J7-MISO)*%
X304708000Y-81539472D02*
X304708000Y-87313928D01*
X305336500Y-80910972D02*
X304708000Y-81539472D01*
X306587500Y-77981818D02*
X305336500Y-79232818D01*
X304708000Y-87313928D02*
X307144072Y-89750000D01*
X305336500Y-79232818D02*
X305336500Y-80910972D01*
X306587500Y-77211000D02*
X306587500Y-77981818D01*
%TO.N,Net-(J7-MOSI)*%
X304736500Y-78630736D02*
X304736500Y-80662444D01*
X305187042Y-78180194D02*
X304736500Y-78630736D01*
X304736500Y-80662444D02*
X304108000Y-81290944D01*
X306076968Y-90176968D02*
X306076968Y-90258000D01*
X304108000Y-81290944D02*
X304108000Y-88208000D01*
X304108000Y-88208000D02*
X306076968Y-90176968D01*
%TO.N,L0*%
X384542735Y-97817573D02*
X384542735Y-110208200D01*
X385064000Y-116346308D02*
X385064000Y-129779465D01*
X385422000Y-130137465D02*
X385422000Y-135038308D01*
X385422000Y-135038308D02*
X384556000Y-135904308D01*
X385579154Y-111244619D02*
X385579154Y-115831154D01*
X386080000Y-96280308D02*
X384542735Y-97817573D01*
X385064000Y-129779465D02*
X385422000Y-130137465D01*
X386080000Y-91440000D02*
X386080000Y-96280308D01*
X385579154Y-115831154D02*
X385064000Y-116346308D01*
X384556000Y-135904308D02*
X384556000Y-138684000D01*
X384542735Y-110208200D02*
X385579154Y-111244619D01*
%TO.N,Net-(SW17B-DIN)*%
X355950000Y-126142000D02*
X356108000Y-125984000D01*
X355950000Y-140304000D02*
X355950000Y-126142000D01*
X386334000Y-125730000D02*
X386334000Y-120904000D01*
X356616000Y-140970000D02*
X355950000Y-140304000D01*
%TO.N,Net-(SW25B-DOUT)*%
X355346000Y-107188000D02*
X354838000Y-106680000D01*
X386080000Y-106934000D02*
X385826000Y-106680000D01*
X385826000Y-106680000D02*
X385826000Y-102108000D01*
X355346000Y-122682000D02*
X355346000Y-107188000D01*
%TO.N,Net-(SW41B-DOUT)*%
X386334000Y-88138000D02*
X386334000Y-83058000D01*
X355600000Y-103378000D02*
X355600000Y-88138000D01*
X355346000Y-103632000D02*
X355600000Y-103378000D01*
%TO.N,Net-(SW57B-DOUT)*%
X356362000Y-84074000D02*
X355346000Y-83058000D01*
X386334000Y-68580000D02*
X386334000Y-63754000D01*
X355346000Y-83058000D02*
X355346000Y-68580000D01*
%TO.N,L1*%
X350012000Y-140208000D02*
X350012000Y-91948000D01*
%TO.N,L6*%
X318920000Y-93116720D02*
X319155400Y-92881320D01*
X318760071Y-95561585D02*
X318920000Y-95401656D01*
X319155400Y-90494565D02*
X320478679Y-89171286D01*
X272704000Y-88569479D02*
X271523479Y-89750000D01*
X273088000Y-82679472D02*
X272704000Y-83063472D01*
X270764000Y-75184000D02*
X273088000Y-77508000D01*
X319155400Y-92881320D02*
X319155400Y-90494565D01*
X273088000Y-77508000D02*
X273088000Y-82679472D01*
X320478679Y-89171286D02*
X320478679Y-89066000D01*
X318920000Y-95401656D02*
X318920000Y-93116720D01*
X270764000Y-64516000D02*
X270764000Y-75184000D01*
X272704000Y-83063472D02*
X272704000Y-88569479D01*
%TO.N,L4*%
X317801921Y-86875949D02*
X319542041Y-85135829D01*
X317500000Y-92839664D02*
X317955400Y-92384264D01*
X279908000Y-83312000D02*
X279908000Y-81280000D01*
X317955400Y-88223405D02*
X317801921Y-88069926D01*
X317801921Y-88069926D02*
X317801921Y-86875949D01*
X317955400Y-92384264D02*
X317955400Y-88223405D01*
X317500000Y-94488000D02*
X317500000Y-92839664D01*
%TO.N,L3*%
X270764000Y-102108000D02*
X270764000Y-93304528D01*
X270764000Y-93304528D02*
X273570528Y-90498000D01*
X273570528Y-90498000D02*
X273843124Y-90498000D01*
X316880800Y-91807582D02*
X317105400Y-92032182D01*
X316880800Y-88800087D02*
X316880800Y-91807582D01*
X317105400Y-88575487D02*
X316880800Y-88800087D01*
%TO.N,L7*%
X319024000Y-87884000D02*
X318555400Y-88352600D01*
X318555400Y-88352600D02*
X318555400Y-92632792D01*
X43688000Y-86868000D02*
X44196000Y-87376000D01*
X317910071Y-95280011D02*
X317910071Y-96422071D01*
X318320000Y-94870082D02*
X317910071Y-95280011D01*
X318555400Y-92632792D02*
X318320000Y-92868192D01*
X317910071Y-96422071D02*
X318008000Y-96520000D01*
X318320000Y-92868192D02*
X318320000Y-94870082D01*
X43688000Y-82804000D02*
X43688000Y-86868000D01*
%TO.N,L2*%
X271855584Y-144088000D02*
X271763584Y-143996000D01*
X297180000Y-125476000D02*
X297180000Y-113538000D01*
X288704959Y-141130959D02*
X288704959Y-136999041D01*
X254681948Y-143428952D02*
X254571444Y-143318448D01*
X269155507Y-143097700D02*
X268451343Y-143097700D01*
X255330192Y-143506000D02*
X255253144Y-143428952D01*
X254073788Y-143136544D02*
X254035985Y-143136544D01*
X254211660Y-143041948D02*
X254168384Y-143041948D01*
X267877390Y-143496000D02*
X267281390Y-144092000D01*
X254497907Y-143318448D02*
X254379459Y-143200000D01*
X286258000Y-143764000D02*
X285496000Y-143764000D01*
X300482000Y-110236000D02*
X301244000Y-110236000D01*
X293878000Y-128778000D02*
X297180000Y-125476000D01*
X266253390Y-144700000D02*
X263421206Y-144700000D01*
X266861390Y-144092000D02*
X266253390Y-144700000D01*
X268053043Y-143496000D02*
X267877390Y-143496000D01*
X293878000Y-131826000D02*
X293878000Y-128778000D01*
X263421206Y-144700000D02*
X263205743Y-144915463D01*
X268451343Y-143097700D02*
X268053043Y-143496000D01*
X285172000Y-144088000D02*
X271855584Y-144088000D01*
X270862082Y-144106000D02*
X270163807Y-144106000D01*
X288704959Y-141317041D02*
X286258000Y-143764000D01*
X310788082Y-97322000D02*
X310788082Y-96594000D01*
X271763584Y-143996000D02*
X270972082Y-143996000D01*
X255253144Y-143428952D02*
X254681948Y-143428952D01*
X308610000Y-99500082D02*
X310788082Y-97322000D01*
X258932215Y-144915463D02*
X258547678Y-145300000D01*
X263205743Y-144915463D02*
X258932215Y-144915463D01*
X297180000Y-113538000D02*
X300482000Y-110236000D01*
X254379459Y-143200000D02*
X254369712Y-143200000D01*
X254571444Y-143318448D02*
X254497907Y-143318448D01*
X270163807Y-144106000D02*
X269155507Y-143097700D01*
X308610000Y-110236000D02*
X308610000Y-99500082D01*
X288704959Y-136999041D02*
X293878000Y-131826000D01*
X257843514Y-145300000D02*
X256049514Y-143506000D01*
X285496000Y-143764000D02*
X285172000Y-144088000D01*
X270972082Y-143996000D02*
X270862082Y-144106000D01*
X254369712Y-143200000D02*
X254211660Y-143041948D01*
X267281390Y-144092000D02*
X266861390Y-144092000D01*
X258547678Y-145300000D02*
X257843514Y-145300000D01*
X254035985Y-143136544D02*
X253999217Y-143173312D01*
X288704959Y-141130959D02*
X288704959Y-141317041D01*
X254168384Y-143041948D02*
X254073788Y-143136544D01*
X256049514Y-143506000D02*
X255330192Y-143506000D01*
%TO.N,L5*%
X313020000Y-99319472D02*
X313020000Y-119126000D01*
X312928000Y-95244959D02*
X312928000Y-99227472D01*
X314065607Y-95060475D02*
X313112484Y-95060475D01*
X313112484Y-95060475D02*
X312928000Y-95244959D01*
X244348000Y-138877522D02*
X244041261Y-139184261D01*
X244843700Y-124980300D02*
X244348000Y-125476000D01*
X244348000Y-125476000D02*
X244348000Y-138877522D01*
X312928000Y-99227472D02*
X313020000Y-99319472D01*
X245695996Y-124980300D02*
X244843700Y-124980300D01*
%TO.N,Net-(D1-K)*%
X266195009Y-132404927D02*
X268593155Y-132404927D01*
X261620000Y-129032000D02*
X264834000Y-132246000D01*
X270844712Y-132080000D02*
X271219209Y-132454497D01*
X264834000Y-132246000D02*
X266036082Y-132246000D01*
X266036082Y-132246000D02*
X266195009Y-132404927D01*
X268918082Y-132080000D02*
X270844712Y-132080000D01*
X268593155Y-132404927D02*
X268918082Y-132080000D01*
%TO.N,cR1*%
X273603937Y-127000000D02*
X274051044Y-126552893D01*
X307125102Y-114171630D02*
X306998000Y-114044528D01*
X306998000Y-114044528D02*
X306998000Y-111661918D01*
X221165000Y-115681080D02*
X220857000Y-115989080D01*
X207650789Y-52159842D02*
X207650789Y-52228471D01*
X271272000Y-127000000D02*
X273603937Y-127000000D01*
X207650789Y-52228471D02*
X207712444Y-52290126D01*
X222054000Y-78684646D02*
X223104000Y-79734646D01*
X207806266Y-52378545D02*
X207830530Y-52378545D01*
X207410100Y-51899422D02*
X207650789Y-52140111D01*
X77724000Y-57217918D02*
X77900041Y-57393959D01*
X306587500Y-82291000D02*
X309208482Y-84911982D01*
X222527600Y-119234520D02*
X222527600Y-126976384D01*
X214008000Y-58727682D02*
X214008000Y-62492409D01*
X307125102Y-119634000D02*
X307125102Y-114171630D01*
X223104000Y-79734646D02*
X223104000Y-96302608D01*
X307340000Y-94307291D02*
X307700876Y-93946415D01*
X222219000Y-100018864D02*
X221578000Y-100659864D01*
X222527600Y-126976384D02*
X221677600Y-127826384D01*
X207650789Y-52140111D02*
X207650789Y-52159842D01*
X309208482Y-84911982D02*
X309208482Y-89750000D01*
X274051044Y-126552893D02*
X274241306Y-126552893D01*
X217583930Y-66068339D02*
X217583930Y-69934570D01*
X221165000Y-114631413D02*
X221165000Y-115681080D01*
X218580000Y-70930640D02*
X218580000Y-75028646D01*
X221578000Y-114218413D02*
X221165000Y-114631413D01*
X222054000Y-78502646D02*
X222054000Y-78684646D01*
X220857000Y-117563920D02*
X222527600Y-119234520D01*
X222219000Y-97187608D02*
X222219000Y-100018864D01*
X206159100Y-48615600D02*
X207410100Y-49866600D01*
X220857000Y-115989080D02*
X220857000Y-117563920D01*
X223104000Y-96302608D02*
X222219000Y-97187608D01*
X207985859Y-52705541D02*
X214008000Y-58727682D01*
X221578000Y-104169230D02*
X222160160Y-104751390D01*
X207985859Y-52533874D02*
X207985859Y-52705541D01*
X217583930Y-69934570D02*
X218580000Y-70930640D01*
X207712444Y-52290126D02*
X207717847Y-52290126D01*
X77724000Y-50800000D02*
X77724000Y-57217918D01*
X207830530Y-52378545D02*
X207985859Y-52533874D01*
X222160160Y-104751390D02*
X222160160Y-107770918D01*
X214008000Y-62492409D02*
X217583930Y-66068339D01*
X207410100Y-49866600D02*
X207410100Y-51899422D01*
X218580000Y-75028646D02*
X222054000Y-78502646D01*
X207717847Y-52290126D02*
X207806266Y-52378545D01*
X222160160Y-107770918D02*
X221578000Y-108353078D01*
X307340000Y-111319918D02*
X307340000Y-94307291D01*
X221578000Y-108353078D02*
X221578000Y-114218413D01*
X221578000Y-100659864D02*
X221578000Y-104169230D01*
X306998000Y-111661918D02*
X307340000Y-111319918D01*
%TO.N,cR2*%
X77724000Y-60960000D02*
X77724000Y-58420000D01*
X76708000Y-57404000D02*
X76708000Y-49784000D01*
X77724000Y-58420000D02*
X76708000Y-57404000D01*
%TO.N,JOYA*%
X269412334Y-145906000D02*
X271607666Y-145906000D01*
X304384000Y-143020792D02*
X304384000Y-141748000D01*
X275404354Y-145889000D02*
X275903354Y-146388000D01*
X282792082Y-145542000D02*
X301862792Y-145542000D01*
X267462000Y-145542000D02*
X267809000Y-145889000D01*
X267809000Y-145889000D02*
X269395334Y-145889000D01*
X281946082Y-146388000D02*
X282792082Y-145542000D01*
X271624666Y-145889000D02*
X275404354Y-145889000D01*
X301862792Y-145542000D02*
X304384000Y-143020792D01*
X269395334Y-145889000D02*
X269412334Y-145906000D01*
X275903354Y-146388000D02*
X281946082Y-146388000D01*
X271607666Y-145906000D02*
X271624666Y-145889000D01*
%TO.N,xR9*%
X50282167Y-131914352D02*
X50282167Y-136258901D01*
X50292000Y-128524000D02*
X50292000Y-131904519D01*
X53156000Y-122417056D02*
X53340000Y-122601056D01*
X53156000Y-117403392D02*
X53156000Y-122417056D01*
X50505392Y-113499000D02*
X53244000Y-116237608D01*
X38354000Y-95123000D02*
X39453999Y-96222999D01*
X39453999Y-103429811D02*
X46219688Y-110195500D01*
X47022735Y-110195500D02*
X47902000Y-111074765D01*
X53340000Y-122601056D02*
X53340000Y-128524000D01*
X39453999Y-96222999D02*
X39453999Y-103429811D01*
X53244000Y-116237608D02*
X53244000Y-117315392D01*
X49082765Y-113499000D02*
X50505392Y-113499000D01*
X47902000Y-111074765D02*
X47902000Y-112318235D01*
X47902000Y-112318235D02*
X49082765Y-113499000D01*
X46219688Y-110195500D02*
X47022735Y-110195500D01*
X53244000Y-117315392D02*
X53156000Y-117403392D01*
%TO.N,Net-(SW11B-DIN)*%
X229883600Y-138634672D02*
X229883600Y-140889654D01*
X231224600Y-135324635D02*
X231224600Y-137293672D01*
X235356400Y-118364000D02*
X235204000Y-118364000D01*
X231224600Y-137293672D02*
X229883600Y-138634672D01*
X232641000Y-133908235D02*
X231224600Y-135324635D01*
X235204000Y-118364000D02*
X232641000Y-120927000D01*
X232641000Y-120927000D02*
X232641000Y-133908235D01*
%TO.N,Net-(SW12B-DIN)*%
X294640000Y-87884000D02*
X294640000Y-83312000D01*
X251968000Y-103124000D02*
X251968000Y-100074392D01*
X250159000Y-98265392D02*
X250159000Y-89693000D01*
X250159000Y-89693000D02*
X250952000Y-88900000D01*
X251968000Y-100074392D02*
X250159000Y-98265392D01*
%TO.N,Net-(SW320B-DIN)*%
X51308000Y-102108000D02*
X51308000Y-88392000D01*
X265610000Y-84762000D02*
X265610000Y-87857672D01*
X265176000Y-84328000D02*
X265610000Y-84762000D01*
%TO.N,Net-(SW14B-DIN)*%
X284635918Y-83478000D02*
X284138000Y-83975918D01*
X161087000Y-134050235D02*
X163741000Y-131396235D01*
X286970118Y-81651800D02*
X285143918Y-83478000D01*
X163741000Y-94680235D02*
X162329000Y-93268235D01*
X161087000Y-137109000D02*
X161087000Y-134050235D01*
X287378000Y-64366000D02*
X287378000Y-76758235D01*
X162329000Y-87607000D02*
X163576000Y-86360000D01*
X286970118Y-77166117D02*
X286970118Y-81651800D01*
X285143918Y-83478000D02*
X284635918Y-83478000D01*
X163741000Y-131396235D02*
X163741000Y-94680235D01*
X284138000Y-85696082D02*
X284386959Y-85945041D01*
X156972000Y-141224000D02*
X161087000Y-137109000D01*
X162329000Y-93268235D02*
X162329000Y-87607000D01*
X287020000Y-64008000D02*
X287378000Y-64366000D01*
X287378000Y-76758235D02*
X286970118Y-77166117D01*
X284138000Y-83975918D02*
X284138000Y-85696082D01*
%TO.N,Net-(SW15B-DIN)*%
X42164000Y-65024000D02*
X42164000Y-67564000D01*
X256032000Y-67056000D02*
X256032000Y-64516000D01*
%TO.N,Net-(SW16B-DIN)*%
X42186000Y-111274000D02*
X43688000Y-112776000D01*
X46949237Y-113396500D02*
X49314000Y-115761263D01*
X42186000Y-111268416D02*
X42186000Y-111274000D01*
X49314000Y-115761263D02*
X49314000Y-118910000D01*
X41682000Y-110764416D02*
X42186000Y-111268416D01*
X32512000Y-100410944D02*
X41682000Y-109580944D01*
X41682000Y-109580944D02*
X41682000Y-110764416D01*
X49314000Y-118910000D02*
X51308000Y-120904000D01*
X44996103Y-112776000D02*
X45616603Y-113396500D01*
X43688000Y-112776000D02*
X44996103Y-112776000D01*
X32512000Y-84328000D02*
X32512000Y-100410944D01*
X45616603Y-113396500D02*
X46949237Y-113396500D01*
%TO.N,Net-(SW10B-DOUT)*%
X316865000Y-141401800D02*
X316865000Y-140355359D01*
X316865000Y-140355359D02*
X316230000Y-139720359D01*
X348234000Y-124714000D02*
X348234000Y-121412000D01*
X316230000Y-139720359D02*
X316230000Y-124968000D01*
%TO.N,Net-(SW11B-DOUT)*%
X271265789Y-124650289D02*
X271265789Y-122265461D01*
X284558000Y-107085918D02*
X284558000Y-117691472D01*
X283627000Y-124051717D02*
X283377000Y-124301717D01*
X284558000Y-117691472D02*
X283627000Y-118622472D01*
X284988000Y-101600000D02*
X284988000Y-106655918D01*
X271272000Y-124656500D02*
X271265789Y-124650289D01*
X283627000Y-118622472D02*
X283627000Y-124051717D01*
X284988000Y-106655918D02*
X284558000Y-107085918D01*
%TO.N,Net-(SW12B-DOUT)*%
X289126000Y-89482000D02*
X289271952Y-89482000D01*
X250952000Y-99906920D02*
X249347128Y-98302048D01*
X251460000Y-120904000D02*
X250667000Y-120111000D01*
X249347128Y-98302048D02*
X249347128Y-89441277D01*
X284988000Y-85344000D02*
X289126000Y-89482000D01*
X250952000Y-112295235D02*
X250952000Y-99906920D01*
X250667000Y-112580235D02*
X250952000Y-112295235D01*
X284988000Y-84328000D02*
X284988000Y-85344000D01*
X250667000Y-120111000D02*
X250667000Y-112580235D01*
%TO.N,Net-(SW14B-DOUT)*%
X181522000Y-109054000D02*
X181522000Y-108624000D01*
X265010000Y-104733056D02*
X265010000Y-105586600D01*
X266122000Y-103621056D02*
X265010000Y-104733056D01*
X265102000Y-90497390D02*
X265102000Y-95002944D01*
X262040614Y-108555986D02*
X262040614Y-108557400D01*
X265443592Y-66974490D02*
X264256000Y-68162082D01*
X264256000Y-84757218D02*
X264760000Y-85261218D01*
X274328129Y-67645088D02*
X274424077Y-67645088D01*
X274320000Y-65532000D02*
X274320000Y-67636959D01*
X179832000Y-110744000D02*
X181522000Y-109054000D01*
X264760000Y-90155390D02*
X265102000Y-90497390D01*
X265010000Y-105586600D02*
X262040614Y-108555986D01*
X264256000Y-68162082D02*
X264256000Y-84757218D01*
X274320000Y-67636959D02*
X274328129Y-67645088D01*
X266122000Y-96022944D02*
X266122000Y-103621056D01*
X261625000Y-108973014D02*
X261625000Y-109655082D01*
X262040614Y-108557400D02*
X261625000Y-108973014D01*
X179832000Y-121412000D02*
X179832000Y-110744000D01*
X264760000Y-85261218D02*
X264760000Y-90155390D01*
X265102000Y-95002944D02*
X266122000Y-96022944D01*
X261625000Y-109655082D02*
X261424517Y-109855565D01*
%TO.N,Net-(SW15B-DOUT)*%
X26924000Y-118364000D02*
X27940000Y-119380000D01*
X26924000Y-65532000D02*
X26924000Y-118364000D01*
X138176000Y-118872000D02*
X138176000Y-121412000D01*
%TO.N,Net-(SW16B-DOUT)*%
X98552000Y-121412000D02*
X99060000Y-120904000D01*
X98552000Y-125984000D02*
X98552000Y-121412000D01*
%TO.N,Net-(SW21B-DIN)*%
X216267400Y-114831430D02*
X215734800Y-114298830D01*
X214957680Y-105663934D02*
X215387614Y-105234000D01*
X215169000Y-107981000D02*
X214957680Y-107769680D01*
X215169000Y-111980429D02*
X215169000Y-107981000D01*
X215734800Y-114298830D02*
X215734800Y-112546230D01*
X214957680Y-107769680D02*
X214957680Y-105663934D01*
X216746540Y-122832389D02*
X216746540Y-122424910D01*
X216746540Y-122424910D02*
X216267400Y-121945770D01*
X216267400Y-121945770D02*
X216267400Y-114831430D01*
X215734800Y-112546230D02*
X215169000Y-111980429D01*
%TO.N,Net-(SW26B-DOUT)*%
X316484000Y-106680000D02*
X316484000Y-119894614D01*
X316484000Y-119894614D02*
X317158111Y-120568725D01*
X318258793Y-120568725D02*
X318432611Y-120394907D01*
X347980000Y-106680000D02*
X347980000Y-102108000D01*
X317158111Y-120568725D02*
X318258793Y-120568725D01*
%TO.N,Net-(SW27B-DOUT)*%
X262921000Y-98265392D02*
X262456000Y-98730392D01*
X262456000Y-98730392D02*
X262456000Y-103124000D01*
X262921000Y-97187608D02*
X262921000Y-98265392D01*
X262128000Y-82804000D02*
X262128000Y-96394608D01*
X262128000Y-96394608D02*
X262921000Y-97187608D01*
%TO.N,Net-(SW28B-DOUT)*%
X221677600Y-119233048D02*
X220257000Y-117812448D01*
X220658000Y-108424550D02*
X221466911Y-107615639D01*
X220257000Y-115740552D02*
X220565000Y-115432552D01*
X221466911Y-105260223D02*
X221310160Y-105103472D01*
X220658000Y-114289885D02*
X220658000Y-108424550D01*
X221466911Y-107615639D02*
X221466911Y-105260223D01*
X220565000Y-115432552D02*
X220565000Y-114382885D01*
X220565000Y-114382885D02*
X220658000Y-114289885D01*
X242316000Y-102108000D02*
X242316000Y-105188500D01*
X221677600Y-122685516D02*
X221677600Y-119233048D01*
X242316000Y-105188500D02*
X242462160Y-105334660D01*
X220257000Y-117812448D02*
X220257000Y-115740552D01*
%TO.N,Net-(SW29B-DOUT)*%
X182372000Y-108712000D02*
X183462000Y-107622000D01*
X203708000Y-107696000D02*
X203829999Y-107574001D01*
X183462000Y-107622000D02*
X183896000Y-107622000D01*
X182372000Y-122428000D02*
X182372000Y-108712000D01*
X203829999Y-107574001D02*
X203829999Y-102108000D01*
%TO.N,Net-(SW30B-DOUT)*%
X144780000Y-110422082D02*
X145372283Y-109829799D01*
X166116000Y-107188000D02*
X166116000Y-102616000D01*
X166116000Y-102616000D02*
X165608000Y-102108000D01*
X145372283Y-109829799D02*
X145372283Y-108029414D01*
X144780000Y-122428000D02*
X144780000Y-110422082D01*
%TO.N,Net-(SW31B-DOUT)*%
X107696000Y-110331187D02*
X108211187Y-109816000D01*
X107157000Y-116237608D02*
X107696000Y-115698608D01*
X107866569Y-121731431D02*
X107157000Y-121021862D01*
X107157000Y-121021862D02*
X107157000Y-116237608D01*
X107696000Y-115698608D02*
X107696000Y-110331187D01*
X128016000Y-107188000D02*
X128016000Y-102108000D01*
%TO.N,Net-(SW32B-DOUT)*%
X69057000Y-117315392D02*
X69057000Y-110267000D01*
X89408000Y-107188000D02*
X89408000Y-102108000D01*
X70612000Y-118870392D02*
X69057000Y-117315392D01*
X70104000Y-109220000D02*
X70104000Y-107188000D01*
X70612000Y-121920000D02*
X70612000Y-118870392D01*
X69057000Y-110267000D02*
X70104000Y-109220000D01*
%TO.N,Net-(SW42B-DOUT)*%
X321564000Y-96178935D02*
X321564000Y-101600000D01*
X348742000Y-83312000D02*
X348488000Y-83058000D01*
X322580000Y-95162935D02*
X321564000Y-96178935D01*
X348742000Y-87630000D02*
X348742000Y-83312000D01*
X319975600Y-103188400D02*
X319975600Y-103378000D01*
X322580000Y-87630000D02*
X322580000Y-95162935D01*
X321564000Y-101600000D02*
X319975600Y-103188400D01*
%TO.N,Net-(SW44B-DOUT)*%
X211076001Y-94086204D02*
X211076001Y-88900000D01*
X211334000Y-94344203D02*
X211076001Y-94086204D01*
X237236000Y-88900000D02*
X237236000Y-82804000D01*
X211382469Y-100952724D02*
X211334000Y-100904255D01*
X211334000Y-100904255D02*
X211334000Y-94344203D01*
X211382469Y-101654469D02*
X211382469Y-100952724D01*
X213360000Y-103632000D02*
X211382469Y-101654469D01*
%TO.N,Net-(SW45B-DOUT)*%
X199136000Y-88900000D02*
X199136000Y-82804000D01*
X173736000Y-103632000D02*
X173736000Y-88900000D01*
%TO.N,Net-(SW46B-DOUT)*%
X134112000Y-89408000D02*
X134620000Y-88900000D01*
X134112000Y-103124000D02*
X134112000Y-89408000D01*
X160528000Y-83312000D02*
X161036000Y-82804000D01*
X160528000Y-88900000D02*
X160528000Y-83312000D01*
%TO.N,Net-(SW47B-DOUT)*%
X122936000Y-86360000D02*
X122936000Y-82804000D01*
X98336100Y-86575900D02*
X97332800Y-87579200D01*
X97332800Y-87579200D02*
X97332800Y-102412800D01*
X97332800Y-102412800D02*
X98552000Y-103632000D01*
%TO.N,Net-(SW48B-DOUT)*%
X59659000Y-86645000D02*
X59944000Y-86360000D01*
X60960000Y-103124000D02*
X59659000Y-101823000D01*
X84836000Y-86283800D02*
X84836000Y-82804000D01*
X59659000Y-101823000D02*
X59659000Y-86645000D01*
X85115400Y-86563200D02*
X84836000Y-86283800D01*
%TO.N,Net-(SW58B-DOUT)*%
X318008000Y-68580000D02*
X317500000Y-69088000D01*
X317500000Y-69088000D02*
X317500000Y-82847326D01*
X317500000Y-82847326D02*
X318596461Y-83943787D01*
X347980000Y-68072000D02*
X347980000Y-64008000D01*
%TO.N,Net-(SW59B-DOUT)*%
X102463600Y-104526912D02*
X102463600Y-135991600D01*
X104824004Y-138352004D02*
X104824004Y-138553969D01*
X102108000Y-96292263D02*
X101689000Y-96711263D01*
X102108000Y-89916000D02*
X102108000Y-96292263D01*
X101689000Y-103752312D02*
X102463600Y-104526912D01*
X101689000Y-96711263D02*
X101689000Y-103752312D01*
X246888000Y-84836000D02*
X246888000Y-89916000D01*
X102463600Y-135991600D02*
X104824004Y-138352004D01*
%TO.N,Net-(SW60B-DOUT)*%
X228092000Y-70919827D02*
X227873827Y-71138000D01*
X208622000Y-73561918D02*
X205960041Y-70899959D01*
X208280000Y-84328000D02*
X208280000Y-81237920D01*
X206506000Y-79463920D02*
X206506000Y-77696741D01*
X228092000Y-64008000D02*
X228092000Y-70919827D01*
X207086000Y-75756237D02*
X208622000Y-74220237D01*
X206506000Y-77696741D02*
X207086000Y-77116741D01*
X208280000Y-81237920D02*
X206506000Y-79463920D01*
X208622000Y-74220237D02*
X208622000Y-73561918D01*
X207086000Y-77116741D02*
X207086000Y-75756237D01*
%TO.N,Net-(SW61B-DOUT)*%
X168656000Y-83820000D02*
X168656000Y-68072000D01*
X190449000Y-64008000D02*
X190712809Y-64271809D01*
X169164000Y-84328000D02*
X168656000Y-83820000D01*
X190712809Y-64271809D02*
X190712809Y-67874000D01*
%TO.N,Net-(SW62B-DOUT)*%
X130906000Y-83662000D02*
X130906000Y-70770000D01*
X131572000Y-84328000D02*
X130906000Y-83662000D01*
X130906000Y-70770000D02*
X131064000Y-70612000D01*
X152400000Y-70612000D02*
X152400000Y-64008000D01*
%TO.N,Net-(SW63B-DOUT)*%
X113284000Y-69596000D02*
X113284000Y-64008000D01*
X92456000Y-70612000D02*
X91948000Y-70104000D01*
X92456000Y-84328000D02*
X92456000Y-70612000D01*
%TO.N,Net-(SW64B-DOUT)*%
X56388000Y-84328000D02*
X58636000Y-82080000D01*
X58636000Y-76900235D02*
X59436000Y-76100235D01*
X75184000Y-64008000D02*
X75692000Y-64516000D01*
X59436000Y-76100235D02*
X59436000Y-68839041D01*
X59436000Y-68839041D02*
X60545041Y-67730000D01*
X77024732Y-67730000D02*
X77146679Y-67730000D01*
X75692000Y-64516000D02*
X75692000Y-66397268D01*
X75692000Y-66397268D02*
X77024732Y-67730000D01*
X58636000Y-82080000D02*
X58636000Y-76900235D01*
%TO.N,Net-(SW67B-DOUT)*%
X106680000Y-107793828D02*
X109218528Y-105255300D01*
X246888000Y-64008000D02*
X246888000Y-70095217D01*
X106172000Y-134941918D02*
X106172000Y-116374080D01*
X109218528Y-105255300D02*
X109572082Y-105255300D01*
X246888000Y-70095217D02*
X247330783Y-70538000D01*
X111023400Y-97690008D02*
X110515400Y-97182008D01*
X108204000Y-93472000D02*
X108204000Y-70954000D01*
X106680000Y-115866080D02*
X106680000Y-107793828D01*
X106172000Y-140548528D02*
X106514000Y-140206528D01*
X106172000Y-116374080D02*
X106680000Y-115866080D01*
X111023400Y-103803982D02*
X111023400Y-97690008D01*
X106514000Y-140206528D02*
X106514000Y-135283918D01*
X110515400Y-97182008D02*
X110515400Y-95783400D01*
X106514000Y-135283918D02*
X106172000Y-134941918D01*
X106172000Y-141732000D02*
X106172000Y-140548528D01*
X110515400Y-95783400D02*
X108204000Y-93472000D01*
X109572082Y-105255300D02*
X111023400Y-103803982D01*
%TO.N,LVSDA*%
X120739000Y-96177000D02*
X120881000Y-96035000D01*
X124618000Y-68738000D02*
X123952000Y-68072000D01*
X120739000Y-132721839D02*
X120739000Y-96177000D01*
X120881000Y-96035000D02*
X120881000Y-94511000D01*
X213408000Y-63094491D02*
X216733930Y-66420421D01*
X120881000Y-94511000D02*
X124618000Y-90774000D01*
X124275225Y-136258064D02*
X120739000Y-132721839D01*
X206159100Y-51155600D02*
X206159100Y-52080865D01*
X213408000Y-59329765D02*
X213408000Y-63094491D01*
X206159100Y-52080865D02*
X213408000Y-59329765D01*
X124618000Y-90774000D02*
X124618000Y-68738000D01*
%TO.N,LVSCL*%
X125108265Y-62624265D02*
X125108265Y-68379737D01*
X125641000Y-96711263D02*
X125641000Y-136102626D01*
X125108265Y-68379737D02*
X126076000Y-69347472D01*
X126076000Y-69347472D02*
X126076000Y-90164528D01*
X207615000Y-61200180D02*
X207864000Y-61449180D01*
X124229000Y-95299263D02*
X125641000Y-96711263D01*
X125108265Y-91145500D02*
X124229000Y-92024765D01*
X203619100Y-51155600D02*
X203619100Y-54117479D01*
X125641000Y-136102626D02*
X123993070Y-137750556D01*
X123952000Y-61468000D02*
X125108265Y-62624265D01*
X203619100Y-54117479D02*
X207615000Y-58113379D01*
X207615000Y-58113379D02*
X207615000Y-61200180D01*
X125108265Y-91132263D02*
X125108265Y-91145500D01*
X126076000Y-90164528D02*
X125108265Y-91132263D01*
X124229000Y-92024765D02*
X124229000Y-95299263D01*
%TO.N,JOYB*%
X289505959Y-141462745D02*
X289505959Y-139166041D01*
X281186000Y-145788000D02*
X276153964Y-145788000D01*
X289505959Y-139166041D02*
X291338000Y-137334000D01*
X291338000Y-137334000D02*
X291338000Y-136061208D01*
X294381208Y-133018000D02*
X295654000Y-133018000D01*
X271359138Y-145306000D02*
X269660862Y-145306000D01*
X275653964Y-145288000D02*
X271377138Y-145288000D01*
X282194000Y-144938000D02*
X286030704Y-144938000D01*
X269660862Y-145306000D02*
X269642862Y-145288000D01*
X271377138Y-145288000D02*
X271359138Y-145306000D01*
X268820000Y-145288000D02*
X268478000Y-144946000D01*
X286030704Y-144938000D02*
X289505959Y-141462745D01*
X291338000Y-136061208D02*
X294381208Y-133018000D01*
X269642862Y-145288000D02*
X268820000Y-145288000D01*
X276153964Y-145788000D02*
X275653964Y-145288000D01*
X282194000Y-144780000D02*
X281186000Y-145788000D01*
%TO.N,CC1*%
X254290811Y-119000724D02*
X254290811Y-120970664D01*
X193018340Y-108436340D02*
X193459894Y-108436340D01*
X255270000Y-126930224D02*
X255270000Y-131064000D01*
X185839100Y-48615600D02*
X182603000Y-51851700D01*
X254071522Y-125731746D02*
X255270000Y-126930224D01*
X254290811Y-120970664D02*
X254071522Y-121189953D01*
X253839428Y-116686955D02*
X253730548Y-116795835D01*
X254071522Y-121189953D02*
X254071522Y-125731746D01*
X255270136Y-131064136D02*
X255270136Y-131280155D01*
X182067200Y-59005063D02*
X182067200Y-68503800D01*
X253730548Y-118440461D02*
X254290811Y-119000724D01*
X253730548Y-116795835D02*
X253730548Y-118440461D01*
X254290811Y-116235572D02*
X253839428Y-116686955D01*
X183896000Y-70332600D02*
X183896000Y-83312000D01*
X254290811Y-109585370D02*
X254290811Y-116235572D01*
X182603000Y-51851700D02*
X182603000Y-58469263D01*
X182067200Y-68503800D02*
X183896000Y-70332600D01*
X188214000Y-87630000D02*
X188214000Y-103632000D01*
X255270000Y-131064000D02*
X255270136Y-131064136D01*
X188214000Y-103632000D02*
X193018340Y-108436340D01*
X182603000Y-58469263D02*
X182067200Y-59005063D01*
X183896000Y-83312000D02*
X188214000Y-87630000D01*
X254792000Y-109084181D02*
X254290811Y-109585370D01*
%TO.N,CC8*%
X302089000Y-69088000D02*
X302089000Y-71726082D01*
X293624000Y-117856000D02*
X293624000Y-107004000D01*
X207014000Y-67568000D02*
X208534000Y-69088000D01*
X302089000Y-66450500D02*
X302089000Y-69088000D01*
X267642000Y-120216862D02*
X267642000Y-122774610D01*
X302444000Y-99295233D02*
X301918000Y-99821233D01*
X202368100Y-53716421D02*
X207014000Y-58362321D01*
X207014000Y-58362321D02*
X207014000Y-67568000D01*
X267642000Y-122774610D02*
X267392000Y-123024610D01*
X202368100Y-49866600D02*
X202368100Y-53716421D01*
X301656600Y-95454656D02*
X302444000Y-96242056D01*
X267208000Y-106846000D02*
X267414276Y-107052276D01*
X267392000Y-123024610D02*
X267392000Y-127223302D01*
X293624000Y-107004000D02*
X293116000Y-106496000D01*
X267392000Y-127223302D02*
X266820652Y-127794650D01*
X267392000Y-119966862D02*
X267642000Y-120216862D01*
X303779000Y-64760500D02*
X302089000Y-66450500D01*
X302089000Y-71726082D02*
X301847400Y-71967682D01*
X301656600Y-90119790D02*
X301656600Y-95454656D01*
X301918000Y-99821233D02*
X301918000Y-105655282D01*
X267414276Y-107052276D02*
X267414276Y-111181900D01*
X267392000Y-113903436D02*
X267392000Y-119966862D01*
X302444000Y-96242056D02*
X302444000Y-99295233D01*
X267651801Y-113643635D02*
X267392000Y-113903436D01*
X267651801Y-111419425D02*
X267651801Y-113643635D01*
X203619100Y-48615600D02*
X202368100Y-49866600D01*
X267414276Y-111181900D02*
X267651801Y-111419425D01*
X301847400Y-71967682D02*
X301847400Y-89928990D01*
X301847400Y-89928990D02*
X301656600Y-90119790D01*
%TO.N,CC5*%
X259496269Y-123281731D02*
X259588000Y-123190000D01*
X194748100Y-49866600D02*
X194748100Y-53778100D01*
X203706001Y-73960126D02*
X203706001Y-80623720D01*
X207080000Y-89905056D02*
X207080000Y-95951024D01*
X207571000Y-99010976D02*
X207080000Y-99501976D01*
X195381000Y-65506056D02*
X195387783Y-65512839D01*
X207080000Y-95951024D02*
X207571000Y-96442024D01*
X259588000Y-120358870D02*
X259588000Y-123190000D01*
X259588000Y-108458000D02*
X259588000Y-112957806D01*
X195381000Y-59171622D02*
X195381000Y-65506056D01*
X203963000Y-86788056D02*
X207080000Y-89905056D01*
X207571000Y-96442024D02*
X207571000Y-99010976D01*
X203963000Y-80880719D02*
X203963000Y-86788056D01*
X195386782Y-58167728D02*
X195379000Y-58175510D01*
X195999100Y-48615600D02*
X194748100Y-49866600D01*
X260605557Y-118030947D02*
X260605557Y-119341313D01*
X260550000Y-129486000D02*
X261112000Y-130048000D01*
X260088000Y-113457806D02*
X260088000Y-117513390D01*
X259588000Y-124460000D02*
X260550000Y-125422000D01*
X203706001Y-80623720D02*
X203963000Y-80880719D01*
X208248232Y-107329288D02*
X208248232Y-108002233D01*
X207080000Y-106161056D02*
X208248232Y-107329288D01*
X259588000Y-123190000D02*
X259588000Y-124460000D01*
X259588000Y-112957806D02*
X260088000Y-113457806D01*
X195379000Y-58175510D02*
X195379000Y-59169622D01*
X260088000Y-117513390D02*
X260605557Y-118030947D01*
X195379000Y-59169622D02*
X195381000Y-59171622D01*
X259121522Y-123281731D02*
X259496269Y-123281731D01*
X194748100Y-53778100D02*
X195386782Y-54416782D01*
X195387783Y-65512839D02*
X195387783Y-65641908D01*
X195386782Y-54416782D02*
X195386782Y-58167728D01*
X260605557Y-119341313D02*
X259588000Y-120358870D01*
X207080000Y-99501976D02*
X207080000Y-106161056D01*
X195387783Y-65641908D02*
X203706001Y-73960126D01*
X260550000Y-125422000D02*
X260550000Y-129486000D01*
%TO.N,CC4*%
X202506001Y-81120776D02*
X202763000Y-81377775D01*
X193459100Y-48615600D02*
X192208100Y-49866600D01*
X259738000Y-118011918D02*
X259488000Y-117761918D01*
X258988000Y-110484528D02*
X258734000Y-110230528D01*
X260262000Y-130400082D02*
X260262000Y-130048000D01*
X258271522Y-123633813D02*
X258271522Y-122929649D01*
X262308000Y-105484000D02*
X264121000Y-103671000D01*
X202506001Y-74457182D02*
X202506001Y-81120776D01*
X258988000Y-122213171D02*
X258988000Y-119822800D01*
X259738000Y-119072800D02*
X259738000Y-118011918D01*
X259488000Y-117761918D02*
X259488000Y-113706334D01*
X258988000Y-124350291D02*
X258271522Y-123633813D01*
X260700341Y-130838423D02*
X260262000Y-130400082D01*
X260262000Y-130048000D02*
X259950000Y-129736000D01*
X258988000Y-113206334D02*
X258988000Y-110484528D01*
X260127118Y-107132168D02*
X261775286Y-105484000D01*
X264121000Y-96687724D02*
X263652000Y-96218724D01*
X264121000Y-103671000D02*
X264121000Y-96687724D01*
X194187783Y-66009895D02*
X194187783Y-66138964D01*
X258988000Y-124708528D02*
X258988000Y-124350291D01*
X258734000Y-108109918D02*
X259711750Y-107132168D01*
X194179000Y-59666678D02*
X194181000Y-59668678D01*
X192208100Y-49866600D02*
X192208100Y-53016100D01*
X258988000Y-119822800D02*
X259738000Y-119072800D01*
X258734000Y-110230528D02*
X258734000Y-108109918D01*
X194186782Y-54994782D02*
X194186782Y-57670672D01*
X258271522Y-122929649D02*
X258988000Y-122213171D01*
X259711750Y-107132168D02*
X260127118Y-107132168D01*
X263652000Y-96218724D02*
X263652000Y-91098000D01*
X202763000Y-81377775D02*
X202763000Y-87620056D01*
X259488000Y-113706334D02*
X258988000Y-113206334D01*
X194179000Y-57678454D02*
X194179000Y-59666678D01*
X194186782Y-57670672D02*
X194179000Y-57678454D01*
X260700341Y-131013941D02*
X260700341Y-130838423D01*
X192208100Y-53016100D02*
X194186782Y-54994782D01*
X205630000Y-90487056D02*
X205630000Y-93667874D01*
X194187783Y-66138964D02*
X202506001Y-74457182D01*
X194181000Y-66003112D02*
X194187783Y-66009895D01*
X259950000Y-129736000D02*
X259950000Y-125670528D01*
X259950000Y-125670528D02*
X258988000Y-124708528D01*
X261775286Y-105484000D02*
X262308000Y-105484000D01*
X194181000Y-59668678D02*
X194181000Y-66003112D01*
X202763000Y-87620056D02*
X205630000Y-90487056D01*
%TO.N,CC3*%
X258388000Y-119574272D02*
X258878063Y-119084209D01*
X189668100Y-52762100D02*
X192986782Y-56080782D01*
X257671522Y-122681121D02*
X258388000Y-121964643D01*
X259350000Y-130237056D02*
X259350000Y-125919056D01*
X192986782Y-56080782D02*
X192986782Y-57173616D01*
X204180000Y-95596608D02*
X205771000Y-97187608D01*
X192979000Y-57181398D02*
X192979000Y-60163734D01*
X260564318Y-132080000D02*
X259850341Y-131366023D01*
X258388000Y-113454862D02*
X258888000Y-113954862D01*
X259662000Y-130648610D02*
X259662000Y-130549056D01*
X258388000Y-124598819D02*
X257671522Y-123882341D01*
X192981000Y-60165734D02*
X192981000Y-66629237D01*
X258878063Y-119084209D02*
X258878063Y-118354062D01*
X190919100Y-48615600D02*
X189668100Y-49866600D01*
X189668100Y-49866600D02*
X189668100Y-52762100D01*
X205280000Y-107333187D02*
X205545299Y-107598486D01*
X259850341Y-130836951D02*
X259662000Y-130648610D01*
X258388000Y-110733056D02*
X258388000Y-113454862D01*
X192979000Y-60163734D02*
X192981000Y-60165734D01*
X192986782Y-57173616D02*
X192979000Y-57181398D01*
X259350000Y-125919056D02*
X258388000Y-124957056D01*
X201563000Y-88277586D02*
X204180000Y-90894586D01*
X201306001Y-81617832D02*
X201563000Y-81874831D01*
X201306001Y-74954238D02*
X201306001Y-81617832D01*
X258134000Y-110479056D02*
X258388000Y-110733056D01*
X259850341Y-131366023D02*
X259850341Y-130836951D01*
X259629496Y-106282168D02*
X258134000Y-107777664D01*
X257671522Y-123882341D02*
X257671522Y-122681121D01*
X192981000Y-66629237D02*
X201306001Y-74954238D01*
X205280000Y-98756392D02*
X205280000Y-107333187D01*
X258388000Y-121964643D02*
X258388000Y-119574272D01*
X201563000Y-81874831D02*
X201563000Y-88277586D01*
X205771000Y-97187608D02*
X205771000Y-98265392D01*
X258134000Y-107777664D02*
X258134000Y-110479056D01*
X259662000Y-130549056D02*
X259350000Y-130237056D01*
X259775036Y-106282168D02*
X259629496Y-106282168D01*
X258388000Y-124957056D02*
X258388000Y-124598819D01*
X260858000Y-132080000D02*
X260564318Y-132080000D01*
X258888000Y-113954862D02*
X258888000Y-118344125D01*
X205771000Y-98265392D02*
X205280000Y-98756392D01*
X204180000Y-90894586D02*
X204180000Y-95596608D01*
X258888000Y-118344125D02*
X258878063Y-118354062D01*
%TO.N,CC6*%
X197288100Y-57963465D02*
X196581000Y-58670566D01*
X208280000Y-89408000D02*
X208280000Y-95453968D01*
X266192000Y-120463918D02*
X266280000Y-120551918D01*
X196581000Y-64755000D02*
X200076000Y-68250000D01*
X300456600Y-91648518D02*
X299720000Y-90911918D01*
X266192000Y-125906737D02*
X264817490Y-127281247D01*
X204906001Y-73310741D02*
X204906001Y-80126664D01*
X200076000Y-68250000D02*
X200076000Y-68480740D01*
X300456600Y-95951712D02*
X300456600Y-91648518D01*
X300268000Y-99774177D02*
X301244000Y-98798177D01*
X196581000Y-58670566D02*
X196581000Y-64755000D01*
X205740000Y-80960663D02*
X205740000Y-86868000D01*
X266214276Y-111678956D02*
X266451801Y-111916481D01*
X302499500Y-63500000D02*
X303779000Y-62220500D01*
X266192000Y-113406380D02*
X266192000Y-120463918D01*
X208280000Y-95453968D02*
X209042000Y-96215968D01*
X301244000Y-98798177D02*
X301244000Y-96739112D01*
X209042000Y-96215968D02*
X209042000Y-106084000D01*
X264817490Y-127281247D02*
X264817490Y-128421807D01*
X266451801Y-111916481D02*
X266451801Y-113146579D01*
X299720000Y-90911918D02*
X299720000Y-64151920D01*
X265176000Y-107882082D02*
X266214276Y-108920358D01*
X266214276Y-108920358D02*
X266214276Y-111678956D01*
X205740000Y-86868000D02*
X208280000Y-89408000D01*
X266280000Y-122086000D02*
X266192000Y-122174000D01*
X200076000Y-68480740D02*
X204906001Y-73310741D01*
X266192000Y-122174000D02*
X266192000Y-125906737D01*
X204906001Y-80126664D02*
X205740000Y-80960663D01*
X299720000Y-64151920D02*
X300371920Y-63500000D01*
X265176000Y-106680000D02*
X265176000Y-107882082D01*
X301244000Y-96739112D02*
X300456600Y-95951712D01*
X266451801Y-113146579D02*
X266192000Y-113406380D01*
X300371920Y-63500000D02*
X302499500Y-63500000D01*
X198539100Y-48615600D02*
X197288100Y-49866600D01*
X197288100Y-49866600D02*
X197288100Y-57963465D01*
X266280000Y-120551918D02*
X266280000Y-122086000D01*
X300268000Y-105509955D02*
X300268000Y-99774177D01*
%TO.N,CC2*%
X255988000Y-113951918D02*
X255497573Y-114442345D01*
X249278000Y-76758235D02*
X248412000Y-77624235D01*
X255840000Y-117750000D02*
X255988000Y-117602000D01*
X187128100Y-52099865D02*
X191770000Y-56741765D01*
X255853098Y-106260000D02*
X255734000Y-106379098D01*
X255271522Y-121687009D02*
X255271522Y-124876453D01*
X255497573Y-116470208D02*
X255988000Y-116960635D01*
X255988000Y-125951168D02*
X256950000Y-126913168D01*
X191770000Y-71374000D02*
X191770000Y-72898000D01*
X256950000Y-126913168D02*
X256950000Y-131761639D01*
X249267041Y-72585500D02*
X249278000Y-72596459D01*
X191770000Y-56741765D02*
X191770000Y-71374000D01*
X255734000Y-106379098D02*
X255734000Y-111473168D01*
X256950000Y-131761639D02*
X256958822Y-131770461D01*
X255988000Y-120970531D02*
X255271522Y-121687009D01*
X249278000Y-72596459D02*
X249278000Y-76758235D01*
X188379100Y-48615600D02*
X187128100Y-49866600D01*
X255180548Y-117750000D02*
X255840000Y-117750000D01*
X255271522Y-124876453D02*
X255988000Y-125592931D01*
X255988000Y-117602000D02*
X255988000Y-120970531D01*
X187128100Y-49866600D02*
X187128100Y-52099865D01*
X255734000Y-111473168D02*
X255988000Y-111727168D01*
X255988000Y-125592931D02*
X255988000Y-125951168D01*
X255988000Y-116960635D02*
X255988000Y-117602000D01*
X255988000Y-111727168D02*
X255988000Y-113951918D01*
X255497573Y-114442345D02*
X255497573Y-116470208D01*
X248412000Y-77624235D02*
X248412000Y-106345500D01*
%TO.N,CC7*%
X286258000Y-112268000D02*
X285425000Y-111435000D01*
X201511000Y-58077000D02*
X201511000Y-62827000D01*
X266792000Y-113654908D02*
X266792000Y-120215390D01*
X266192000Y-107696000D02*
X266814276Y-108318276D01*
X199828100Y-54639865D02*
X201676000Y-56487765D01*
X301565918Y-106505282D02*
X301577282Y-106505282D01*
X266792000Y-120215390D02*
X267042000Y-120465390D01*
X265828564Y-127118701D02*
X265828564Y-128138549D01*
X201676000Y-56487765D02*
X201676000Y-57912000D01*
X267042000Y-122526082D02*
X266792000Y-122776082D01*
X267051801Y-113395107D02*
X266792000Y-113654908D01*
X301239000Y-105132200D02*
X301068000Y-105303200D01*
X301239000Y-64760500D02*
X301239000Y-71374000D01*
X266792000Y-122776082D02*
X266792000Y-126155265D01*
X266792000Y-126155265D02*
X265828564Y-127118701D01*
X301577282Y-106505282D02*
X301918000Y-106846000D01*
X285425000Y-107421000D02*
X285750000Y-107096000D01*
X301056600Y-91399990D02*
X301056600Y-95703184D01*
X267051801Y-111667953D02*
X267051801Y-113395107D01*
X201676000Y-57912000D02*
X201511000Y-58077000D01*
X301068000Y-106007364D02*
X301565918Y-106505282D01*
X301239000Y-71882000D02*
X301239000Y-89688862D01*
X199828100Y-49866600D02*
X199828100Y-54639865D01*
X201079100Y-48615600D02*
X199828100Y-49866600D01*
X201676000Y-62992000D02*
X201676000Y-67818000D01*
X286258000Y-119126000D02*
X286258000Y-112268000D01*
X285425000Y-111435000D02*
X285425000Y-107421000D01*
X301056600Y-95703184D02*
X301844000Y-96490584D01*
X301844000Y-99046705D02*
X301239000Y-99651705D01*
X267042000Y-120465390D02*
X267042000Y-122526082D01*
X266814276Y-108318276D02*
X266814276Y-111430428D01*
X301844000Y-96490584D02*
X301844000Y-99046705D01*
X301239000Y-99651705D02*
X301239000Y-105132200D01*
X300845000Y-90082862D02*
X300845000Y-91188390D01*
X301239000Y-89688862D02*
X300845000Y-90082862D01*
X301068000Y-105303200D02*
X301068000Y-106007364D01*
X201676000Y-67818000D02*
X207772000Y-73914000D01*
X201511000Y-62827000D02*
X201676000Y-62992000D01*
X300845000Y-91188390D02*
X301056600Y-91399990D01*
X266814276Y-111430428D02*
X267051801Y-111667953D01*
X301239000Y-71374000D02*
X301239000Y-71882000D01*
%TD*%
M02*
