%TF.GenerationSoftware,KiCad,Pcbnew,9.0.3*%
%TF.CreationDate,2025-08-12T15:40:08+02:00*%
%TF.ProjectId,petkn,7065746b-6e2e-46b6-9963-61645f706362,rev?*%
%TF.SameCoordinates,Original*%
%TF.FileFunction,Legend,Bot*%
%TF.FilePolarity,Positive*%
%FSLAX46Y46*%
G04 Gerber Fmt 4.6, Leading zero omitted, Abs format (unit mm)*
G04 Created by KiCad (PCBNEW 9.0.3) date 2025-08-12 15:40:08*
%MOMM*%
%LPD*%
G01*
G04 APERTURE LIST*
G04 Aperture macros list*
%AMRoundRect*
0 Rectangle with rounded corners*
0 $1 Rounding radius*
0 $2 $3 $4 $5 $6 $7 $8 $9 X,Y pos of 4 corners*
0 Add a 4 corners polygon primitive as box body*
4,1,4,$2,$3,$4,$5,$6,$7,$8,$9,$2,$3,0*
0 Add four circle primitives for the rounded corners*
1,1,$1+$1,$2,$3*
1,1,$1+$1,$4,$5*
1,1,$1+$1,$6,$7*
1,1,$1+$1,$8,$9*
0 Add four rect primitives between the rounded corners*
20,1,$1+$1,$2,$3,$4,$5,0*
20,1,$1+$1,$4,$5,$6,$7,0*
20,1,$1+$1,$6,$7,$8,$9,0*
20,1,$1+$1,$8,$9,$2,$3,0*%
G04 Aperture macros list end*
%ADD10C,0.150000*%
%ADD11C,0.100000*%
%ADD12C,0.120000*%
%ADD13C,1.700000*%
%ADD14C,4.000000*%
%ADD15C,2.200000*%
%ADD16C,3.050000*%
%ADD17R,1.700000X1.700000*%
%ADD18RoundRect,0.250000X-0.550000X-0.550000X0.550000X-0.550000X0.550000X0.550000X-0.550000X0.550000X0*%
%ADD19C,1.600000*%
%ADD20C,2.540000*%
%ADD21R,2.000000X1.500000*%
%ADD22C,1.800000*%
G04 APERTURE END LIST*
D10*
X235933919Y-48282266D02*
X236648204Y-48282266D01*
X236648204Y-48282266D02*
X236791061Y-48234647D01*
X236791061Y-48234647D02*
X236886300Y-48139409D01*
X236886300Y-48139409D02*
X236933919Y-47996552D01*
X236933919Y-47996552D02*
X236933919Y-47901314D01*
X236933919Y-49282266D02*
X236933919Y-48710838D01*
X236933919Y-48996552D02*
X235933919Y-48996552D01*
X235933919Y-48996552D02*
X236076776Y-48901314D01*
X236076776Y-48901314D02*
X236172014Y-48806076D01*
X236172014Y-48806076D02*
X236219633Y-48710838D01*
D11*
X192796100Y-56341867D02*
X192748480Y-56199010D01*
X192748480Y-56199010D02*
X192748480Y-55960915D01*
X192748480Y-55960915D02*
X192796100Y-55865677D01*
X192796100Y-55865677D02*
X192843719Y-55818058D01*
X192843719Y-55818058D02*
X192938957Y-55770439D01*
X192938957Y-55770439D02*
X193034195Y-55770439D01*
X193034195Y-55770439D02*
X193129433Y-55818058D01*
X193129433Y-55818058D02*
X193177052Y-55865677D01*
X193177052Y-55865677D02*
X193224671Y-55960915D01*
X193224671Y-55960915D02*
X193272290Y-56151391D01*
X193272290Y-56151391D02*
X193319909Y-56246629D01*
X193319909Y-56246629D02*
X193367528Y-56294248D01*
X193367528Y-56294248D02*
X193462766Y-56341867D01*
X193462766Y-56341867D02*
X193558004Y-56341867D01*
X193558004Y-56341867D02*
X193653242Y-56294248D01*
X193653242Y-56294248D02*
X193700861Y-56246629D01*
X193700861Y-56246629D02*
X193748480Y-56151391D01*
X193748480Y-56151391D02*
X193748480Y-55913296D01*
X193748480Y-55913296D02*
X193700861Y-55770439D01*
X193653242Y-55389486D02*
X193700861Y-55341867D01*
X193700861Y-55341867D02*
X193748480Y-55246629D01*
X193748480Y-55246629D02*
X193748480Y-55008534D01*
X193748480Y-55008534D02*
X193700861Y-54913296D01*
X193700861Y-54913296D02*
X193653242Y-54865677D01*
X193653242Y-54865677D02*
X193558004Y-54818058D01*
X193558004Y-54818058D02*
X193462766Y-54818058D01*
X193462766Y-54818058D02*
X193319909Y-54865677D01*
X193319909Y-54865677D02*
X192748480Y-55437105D01*
X192748480Y-55437105D02*
X192748480Y-54818058D01*
X201368480Y-59294248D02*
X200368480Y-58960915D01*
X200368480Y-58960915D02*
X201368480Y-58627582D01*
X200463719Y-57722820D02*
X200416100Y-57770439D01*
X200416100Y-57770439D02*
X200368480Y-57913296D01*
X200368480Y-57913296D02*
X200368480Y-58008534D01*
X200368480Y-58008534D02*
X200416100Y-58151391D01*
X200416100Y-58151391D02*
X200511338Y-58246629D01*
X200511338Y-58246629D02*
X200606576Y-58294248D01*
X200606576Y-58294248D02*
X200797052Y-58341867D01*
X200797052Y-58341867D02*
X200939909Y-58341867D01*
X200939909Y-58341867D02*
X201130385Y-58294248D01*
X201130385Y-58294248D02*
X201225623Y-58246629D01*
X201225623Y-58246629D02*
X201320861Y-58151391D01*
X201320861Y-58151391D02*
X201368480Y-58008534D01*
X201368480Y-58008534D02*
X201368480Y-57913296D01*
X201368480Y-57913296D02*
X201320861Y-57770439D01*
X201320861Y-57770439D02*
X201273242Y-57722820D01*
X200463719Y-56722820D02*
X200416100Y-56770439D01*
X200416100Y-56770439D02*
X200368480Y-56913296D01*
X200368480Y-56913296D02*
X200368480Y-57008534D01*
X200368480Y-57008534D02*
X200416100Y-57151391D01*
X200416100Y-57151391D02*
X200511338Y-57246629D01*
X200511338Y-57246629D02*
X200606576Y-57294248D01*
X200606576Y-57294248D02*
X200797052Y-57341867D01*
X200797052Y-57341867D02*
X200939909Y-57341867D01*
X200939909Y-57341867D02*
X201130385Y-57294248D01*
X201130385Y-57294248D02*
X201225623Y-57246629D01*
X201225623Y-57246629D02*
X201320861Y-57151391D01*
X201320861Y-57151391D02*
X201368480Y-57008534D01*
X201368480Y-57008534D02*
X201368480Y-56913296D01*
X201368480Y-56913296D02*
X201320861Y-56770439D01*
X201320861Y-56770439D02*
X201273242Y-56722820D01*
X201368480Y-56389486D02*
X201368480Y-55770439D01*
X201368480Y-55770439D02*
X200987528Y-56103772D01*
X200987528Y-56103772D02*
X200987528Y-55960915D01*
X200987528Y-55960915D02*
X200939909Y-55865677D01*
X200939909Y-55865677D02*
X200892290Y-55818058D01*
X200892290Y-55818058D02*
X200797052Y-55770439D01*
X200797052Y-55770439D02*
X200558957Y-55770439D01*
X200558957Y-55770439D02*
X200463719Y-55818058D01*
X200463719Y-55818058D02*
X200416100Y-55865677D01*
X200416100Y-55865677D02*
X200368480Y-55960915D01*
X200368480Y-55960915D02*
X200368480Y-56246629D01*
X200368480Y-56246629D02*
X200416100Y-56341867D01*
X200416100Y-56341867D02*
X200463719Y-56389486D01*
X201368480Y-55437105D02*
X201368480Y-54818058D01*
X201368480Y-54818058D02*
X200987528Y-55151391D01*
X200987528Y-55151391D02*
X200987528Y-55008534D01*
X200987528Y-55008534D02*
X200939909Y-54913296D01*
X200939909Y-54913296D02*
X200892290Y-54865677D01*
X200892290Y-54865677D02*
X200797052Y-54818058D01*
X200797052Y-54818058D02*
X200558957Y-54818058D01*
X200558957Y-54818058D02*
X200463719Y-54865677D01*
X200463719Y-54865677D02*
X200416100Y-54913296D01*
X200416100Y-54913296D02*
X200368480Y-55008534D01*
X200368480Y-55008534D02*
X200368480Y-55294248D01*
X200368480Y-55294248D02*
X200416100Y-55389486D01*
X200416100Y-55389486D02*
X200463719Y-55437105D01*
X205496100Y-57246629D02*
X205448480Y-57103772D01*
X205448480Y-57103772D02*
X205448480Y-56865677D01*
X205448480Y-56865677D02*
X205496100Y-56770439D01*
X205496100Y-56770439D02*
X205543719Y-56722820D01*
X205543719Y-56722820D02*
X205638957Y-56675201D01*
X205638957Y-56675201D02*
X205734195Y-56675201D01*
X205734195Y-56675201D02*
X205829433Y-56722820D01*
X205829433Y-56722820D02*
X205877052Y-56770439D01*
X205877052Y-56770439D02*
X205924671Y-56865677D01*
X205924671Y-56865677D02*
X205972290Y-57056153D01*
X205972290Y-57056153D02*
X206019909Y-57151391D01*
X206019909Y-57151391D02*
X206067528Y-57199010D01*
X206067528Y-57199010D02*
X206162766Y-57246629D01*
X206162766Y-57246629D02*
X206258004Y-57246629D01*
X206258004Y-57246629D02*
X206353242Y-57199010D01*
X206353242Y-57199010D02*
X206400861Y-57151391D01*
X206400861Y-57151391D02*
X206448480Y-57056153D01*
X206448480Y-57056153D02*
X206448480Y-56818058D01*
X206448480Y-56818058D02*
X206400861Y-56675201D01*
X205543719Y-55675201D02*
X205496100Y-55722820D01*
X205496100Y-55722820D02*
X205448480Y-55865677D01*
X205448480Y-55865677D02*
X205448480Y-55960915D01*
X205448480Y-55960915D02*
X205496100Y-56103772D01*
X205496100Y-56103772D02*
X205591338Y-56199010D01*
X205591338Y-56199010D02*
X205686576Y-56246629D01*
X205686576Y-56246629D02*
X205877052Y-56294248D01*
X205877052Y-56294248D02*
X206019909Y-56294248D01*
X206019909Y-56294248D02*
X206210385Y-56246629D01*
X206210385Y-56246629D02*
X206305623Y-56199010D01*
X206305623Y-56199010D02*
X206400861Y-56103772D01*
X206400861Y-56103772D02*
X206448480Y-55960915D01*
X206448480Y-55960915D02*
X206448480Y-55865677D01*
X206448480Y-55865677D02*
X206400861Y-55722820D01*
X206400861Y-55722820D02*
X206353242Y-55675201D01*
X205734195Y-55294248D02*
X205734195Y-54818058D01*
X205448480Y-55389486D02*
X206448480Y-55056153D01*
X206448480Y-55056153D02*
X205448480Y-54722820D01*
X185426919Y-53455287D02*
X185379300Y-53502906D01*
X185379300Y-53502906D02*
X185331680Y-53645763D01*
X185331680Y-53645763D02*
X185331680Y-53741001D01*
X185331680Y-53741001D02*
X185379300Y-53883858D01*
X185379300Y-53883858D02*
X185474538Y-53979096D01*
X185474538Y-53979096D02*
X185569776Y-54026715D01*
X185569776Y-54026715D02*
X185760252Y-54074334D01*
X185760252Y-54074334D02*
X185903109Y-54074334D01*
X185903109Y-54074334D02*
X186093585Y-54026715D01*
X186093585Y-54026715D02*
X186188823Y-53979096D01*
X186188823Y-53979096D02*
X186284061Y-53883858D01*
X186284061Y-53883858D02*
X186331680Y-53741001D01*
X186331680Y-53741001D02*
X186331680Y-53645763D01*
X186331680Y-53645763D02*
X186284061Y-53502906D01*
X186284061Y-53502906D02*
X186236442Y-53455287D01*
X185331680Y-52502906D02*
X185331680Y-53074334D01*
X185331680Y-52788620D02*
X186331680Y-52788620D01*
X186331680Y-52788620D02*
X186188823Y-52883858D01*
X186188823Y-52883858D02*
X186093585Y-52979096D01*
X186093585Y-52979096D02*
X186045966Y-53074334D01*
X207988480Y-60389487D02*
X208464671Y-60722820D01*
X207988480Y-60960915D02*
X208988480Y-60960915D01*
X208988480Y-60960915D02*
X208988480Y-60579963D01*
X208988480Y-60579963D02*
X208940861Y-60484725D01*
X208940861Y-60484725D02*
X208893242Y-60437106D01*
X208893242Y-60437106D02*
X208798004Y-60389487D01*
X208798004Y-60389487D02*
X208655147Y-60389487D01*
X208655147Y-60389487D02*
X208559909Y-60437106D01*
X208559909Y-60437106D02*
X208512290Y-60484725D01*
X208512290Y-60484725D02*
X208464671Y-60579963D01*
X208464671Y-60579963D02*
X208464671Y-60960915D01*
X208512290Y-59960915D02*
X208512290Y-59627582D01*
X207988480Y-59484725D02*
X207988480Y-59960915D01*
X207988480Y-59960915D02*
X208988480Y-59960915D01*
X208988480Y-59960915D02*
X208988480Y-59484725D01*
X208036100Y-59103772D02*
X207988480Y-58960915D01*
X207988480Y-58960915D02*
X207988480Y-58722820D01*
X207988480Y-58722820D02*
X208036100Y-58627582D01*
X208036100Y-58627582D02*
X208083719Y-58579963D01*
X208083719Y-58579963D02*
X208178957Y-58532344D01*
X208178957Y-58532344D02*
X208274195Y-58532344D01*
X208274195Y-58532344D02*
X208369433Y-58579963D01*
X208369433Y-58579963D02*
X208417052Y-58627582D01*
X208417052Y-58627582D02*
X208464671Y-58722820D01*
X208464671Y-58722820D02*
X208512290Y-58913296D01*
X208512290Y-58913296D02*
X208559909Y-59008534D01*
X208559909Y-59008534D02*
X208607528Y-59056153D01*
X208607528Y-59056153D02*
X208702766Y-59103772D01*
X208702766Y-59103772D02*
X208798004Y-59103772D01*
X208798004Y-59103772D02*
X208893242Y-59056153D01*
X208893242Y-59056153D02*
X208940861Y-59008534D01*
X208940861Y-59008534D02*
X208988480Y-58913296D01*
X208988480Y-58913296D02*
X208988480Y-58675201D01*
X208988480Y-58675201D02*
X208940861Y-58532344D01*
X208988480Y-58246629D02*
X208988480Y-57675201D01*
X207988480Y-57960915D02*
X208988480Y-57960915D01*
X208988480Y-57151391D02*
X208988480Y-56960915D01*
X208988480Y-56960915D02*
X208940861Y-56865677D01*
X208940861Y-56865677D02*
X208845623Y-56770439D01*
X208845623Y-56770439D02*
X208655147Y-56722820D01*
X208655147Y-56722820D02*
X208321814Y-56722820D01*
X208321814Y-56722820D02*
X208131338Y-56770439D01*
X208131338Y-56770439D02*
X208036100Y-56865677D01*
X208036100Y-56865677D02*
X207988480Y-56960915D01*
X207988480Y-56960915D02*
X207988480Y-57151391D01*
X207988480Y-57151391D02*
X208036100Y-57246629D01*
X208036100Y-57246629D02*
X208131338Y-57341867D01*
X208131338Y-57341867D02*
X208321814Y-57389486D01*
X208321814Y-57389486D02*
X208655147Y-57389486D01*
X208655147Y-57389486D02*
X208845623Y-57341867D01*
X208845623Y-57341867D02*
X208940861Y-57246629D01*
X208940861Y-57246629D02*
X208988480Y-57151391D01*
X207988480Y-55722820D02*
X208464671Y-56056153D01*
X207988480Y-56294248D02*
X208988480Y-56294248D01*
X208988480Y-56294248D02*
X208988480Y-55913296D01*
X208988480Y-55913296D02*
X208940861Y-55818058D01*
X208940861Y-55818058D02*
X208893242Y-55770439D01*
X208893242Y-55770439D02*
X208798004Y-55722820D01*
X208798004Y-55722820D02*
X208655147Y-55722820D01*
X208655147Y-55722820D02*
X208559909Y-55770439D01*
X208559909Y-55770439D02*
X208512290Y-55818058D01*
X208512290Y-55818058D02*
X208464671Y-55913296D01*
X208464671Y-55913296D02*
X208464671Y-56294248D01*
X208512290Y-55294248D02*
X208512290Y-54960915D01*
X207988480Y-54818058D02*
X207988480Y-55294248D01*
X207988480Y-55294248D02*
X208988480Y-55294248D01*
X208988480Y-55294248D02*
X208988480Y-54818058D01*
X205651680Y-53455287D02*
X206127871Y-53788620D01*
X205651680Y-54026715D02*
X206651680Y-54026715D01*
X206651680Y-54026715D02*
X206651680Y-53645763D01*
X206651680Y-53645763D02*
X206604061Y-53550525D01*
X206604061Y-53550525D02*
X206556442Y-53502906D01*
X206556442Y-53502906D02*
X206461204Y-53455287D01*
X206461204Y-53455287D02*
X206318347Y-53455287D01*
X206318347Y-53455287D02*
X206223109Y-53502906D01*
X206223109Y-53502906D02*
X206175490Y-53550525D01*
X206175490Y-53550525D02*
X206127871Y-53645763D01*
X206127871Y-53645763D02*
X206127871Y-54026715D01*
X205651680Y-52502906D02*
X205651680Y-53074334D01*
X205651680Y-52788620D02*
X206651680Y-52788620D01*
X206651680Y-52788620D02*
X206508823Y-52883858D01*
X206508823Y-52883858D02*
X206413585Y-52979096D01*
X206413585Y-52979096D02*
X206365966Y-53074334D01*
X208191680Y-53455287D02*
X208667871Y-53788620D01*
X208191680Y-54026715D02*
X209191680Y-54026715D01*
X209191680Y-54026715D02*
X209191680Y-53645763D01*
X209191680Y-53645763D02*
X209144061Y-53550525D01*
X209144061Y-53550525D02*
X209096442Y-53502906D01*
X209096442Y-53502906D02*
X209001204Y-53455287D01*
X209001204Y-53455287D02*
X208858347Y-53455287D01*
X208858347Y-53455287D02*
X208763109Y-53502906D01*
X208763109Y-53502906D02*
X208715490Y-53550525D01*
X208715490Y-53550525D02*
X208667871Y-53645763D01*
X208667871Y-53645763D02*
X208667871Y-54026715D01*
X209096442Y-53074334D02*
X209144061Y-53026715D01*
X209144061Y-53026715D02*
X209191680Y-52931477D01*
X209191680Y-52931477D02*
X209191680Y-52693382D01*
X209191680Y-52693382D02*
X209144061Y-52598144D01*
X209144061Y-52598144D02*
X209096442Y-52550525D01*
X209096442Y-52550525D02*
X209001204Y-52502906D01*
X209001204Y-52502906D02*
X208905966Y-52502906D01*
X208905966Y-52502906D02*
X208763109Y-52550525D01*
X208763109Y-52550525D02*
X208191680Y-53121953D01*
X208191680Y-53121953D02*
X208191680Y-52502906D01*
X203206919Y-53455287D02*
X203159300Y-53502906D01*
X203159300Y-53502906D02*
X203111680Y-53645763D01*
X203111680Y-53645763D02*
X203111680Y-53741001D01*
X203111680Y-53741001D02*
X203159300Y-53883858D01*
X203159300Y-53883858D02*
X203254538Y-53979096D01*
X203254538Y-53979096D02*
X203349776Y-54026715D01*
X203349776Y-54026715D02*
X203540252Y-54074334D01*
X203540252Y-54074334D02*
X203683109Y-54074334D01*
X203683109Y-54074334D02*
X203873585Y-54026715D01*
X203873585Y-54026715D02*
X203968823Y-53979096D01*
X203968823Y-53979096D02*
X204064061Y-53883858D01*
X204064061Y-53883858D02*
X204111680Y-53741001D01*
X204111680Y-53741001D02*
X204111680Y-53645763D01*
X204111680Y-53645763D02*
X204064061Y-53502906D01*
X204064061Y-53502906D02*
X204016442Y-53455287D01*
X203683109Y-52883858D02*
X203730728Y-52979096D01*
X203730728Y-52979096D02*
X203778347Y-53026715D01*
X203778347Y-53026715D02*
X203873585Y-53074334D01*
X203873585Y-53074334D02*
X203921204Y-53074334D01*
X203921204Y-53074334D02*
X204016442Y-53026715D01*
X204016442Y-53026715D02*
X204064061Y-52979096D01*
X204064061Y-52979096D02*
X204111680Y-52883858D01*
X204111680Y-52883858D02*
X204111680Y-52693382D01*
X204111680Y-52693382D02*
X204064061Y-52598144D01*
X204064061Y-52598144D02*
X204016442Y-52550525D01*
X204016442Y-52550525D02*
X203921204Y-52502906D01*
X203921204Y-52502906D02*
X203873585Y-52502906D01*
X203873585Y-52502906D02*
X203778347Y-52550525D01*
X203778347Y-52550525D02*
X203730728Y-52598144D01*
X203730728Y-52598144D02*
X203683109Y-52693382D01*
X203683109Y-52693382D02*
X203683109Y-52883858D01*
X203683109Y-52883858D02*
X203635490Y-52979096D01*
X203635490Y-52979096D02*
X203587871Y-53026715D01*
X203587871Y-53026715D02*
X203492633Y-53074334D01*
X203492633Y-53074334D02*
X203302157Y-53074334D01*
X203302157Y-53074334D02*
X203206919Y-53026715D01*
X203206919Y-53026715D02*
X203159300Y-52979096D01*
X203159300Y-52979096D02*
X203111680Y-52883858D01*
X203111680Y-52883858D02*
X203111680Y-52693382D01*
X203111680Y-52693382D02*
X203159300Y-52598144D01*
X203159300Y-52598144D02*
X203206919Y-52550525D01*
X203206919Y-52550525D02*
X203302157Y-52502906D01*
X203302157Y-52502906D02*
X203492633Y-52502906D01*
X203492633Y-52502906D02*
X203587871Y-52550525D01*
X203587871Y-52550525D02*
X203635490Y-52598144D01*
X203635490Y-52598144D02*
X203683109Y-52693382D01*
X187716100Y-56341867D02*
X187668480Y-56199010D01*
X187668480Y-56199010D02*
X187668480Y-55960915D01*
X187668480Y-55960915D02*
X187716100Y-55865677D01*
X187716100Y-55865677D02*
X187763719Y-55818058D01*
X187763719Y-55818058D02*
X187858957Y-55770439D01*
X187858957Y-55770439D02*
X187954195Y-55770439D01*
X187954195Y-55770439D02*
X188049433Y-55818058D01*
X188049433Y-55818058D02*
X188097052Y-55865677D01*
X188097052Y-55865677D02*
X188144671Y-55960915D01*
X188144671Y-55960915D02*
X188192290Y-56151391D01*
X188192290Y-56151391D02*
X188239909Y-56246629D01*
X188239909Y-56246629D02*
X188287528Y-56294248D01*
X188287528Y-56294248D02*
X188382766Y-56341867D01*
X188382766Y-56341867D02*
X188478004Y-56341867D01*
X188478004Y-56341867D02*
X188573242Y-56294248D01*
X188573242Y-56294248D02*
X188620861Y-56246629D01*
X188620861Y-56246629D02*
X188668480Y-56151391D01*
X188668480Y-56151391D02*
X188668480Y-55913296D01*
X188668480Y-55913296D02*
X188620861Y-55770439D01*
X188668480Y-55151391D02*
X188668480Y-55056153D01*
X188668480Y-55056153D02*
X188620861Y-54960915D01*
X188620861Y-54960915D02*
X188573242Y-54913296D01*
X188573242Y-54913296D02*
X188478004Y-54865677D01*
X188478004Y-54865677D02*
X188287528Y-54818058D01*
X188287528Y-54818058D02*
X188049433Y-54818058D01*
X188049433Y-54818058D02*
X187858957Y-54865677D01*
X187858957Y-54865677D02*
X187763719Y-54913296D01*
X187763719Y-54913296D02*
X187716100Y-54960915D01*
X187716100Y-54960915D02*
X187668480Y-55056153D01*
X187668480Y-55056153D02*
X187668480Y-55151391D01*
X187668480Y-55151391D02*
X187716100Y-55246629D01*
X187716100Y-55246629D02*
X187763719Y-55294248D01*
X187763719Y-55294248D02*
X187858957Y-55341867D01*
X187858957Y-55341867D02*
X188049433Y-55389486D01*
X188049433Y-55389486D02*
X188287528Y-55389486D01*
X188287528Y-55389486D02*
X188478004Y-55341867D01*
X188478004Y-55341867D02*
X188573242Y-55294248D01*
X188573242Y-55294248D02*
X188620861Y-55246629D01*
X188620861Y-55246629D02*
X188668480Y-55151391D01*
X187966919Y-53455287D02*
X187919300Y-53502906D01*
X187919300Y-53502906D02*
X187871680Y-53645763D01*
X187871680Y-53645763D02*
X187871680Y-53741001D01*
X187871680Y-53741001D02*
X187919300Y-53883858D01*
X187919300Y-53883858D02*
X188014538Y-53979096D01*
X188014538Y-53979096D02*
X188109776Y-54026715D01*
X188109776Y-54026715D02*
X188300252Y-54074334D01*
X188300252Y-54074334D02*
X188443109Y-54074334D01*
X188443109Y-54074334D02*
X188633585Y-54026715D01*
X188633585Y-54026715D02*
X188728823Y-53979096D01*
X188728823Y-53979096D02*
X188824061Y-53883858D01*
X188824061Y-53883858D02*
X188871680Y-53741001D01*
X188871680Y-53741001D02*
X188871680Y-53645763D01*
X188871680Y-53645763D02*
X188824061Y-53502906D01*
X188824061Y-53502906D02*
X188776442Y-53455287D01*
X188776442Y-53074334D02*
X188824061Y-53026715D01*
X188824061Y-53026715D02*
X188871680Y-52931477D01*
X188871680Y-52931477D02*
X188871680Y-52693382D01*
X188871680Y-52693382D02*
X188824061Y-52598144D01*
X188824061Y-52598144D02*
X188776442Y-52550525D01*
X188776442Y-52550525D02*
X188681204Y-52502906D01*
X188681204Y-52502906D02*
X188585966Y-52502906D01*
X188585966Y-52502906D02*
X188443109Y-52550525D01*
X188443109Y-52550525D02*
X187871680Y-53121953D01*
X187871680Y-53121953D02*
X187871680Y-52502906D01*
X228511680Y-52820287D02*
X228987871Y-53153620D01*
X228511680Y-53391715D02*
X229511680Y-53391715D01*
X229511680Y-53391715D02*
X229511680Y-53010763D01*
X229511680Y-53010763D02*
X229464061Y-52915525D01*
X229464061Y-52915525D02*
X229416442Y-52867906D01*
X229416442Y-52867906D02*
X229321204Y-52820287D01*
X229321204Y-52820287D02*
X229178347Y-52820287D01*
X229178347Y-52820287D02*
X229083109Y-52867906D01*
X229083109Y-52867906D02*
X229035490Y-52915525D01*
X229035490Y-52915525D02*
X228987871Y-53010763D01*
X228987871Y-53010763D02*
X228987871Y-53391715D01*
X228511680Y-51867906D02*
X228511680Y-52439334D01*
X228511680Y-52153620D02*
X229511680Y-52153620D01*
X229511680Y-52153620D02*
X229368823Y-52248858D01*
X229368823Y-52248858D02*
X229273585Y-52344096D01*
X229273585Y-52344096D02*
X229225966Y-52439334D01*
X229511680Y-51248858D02*
X229511680Y-51153620D01*
X229511680Y-51153620D02*
X229464061Y-51058382D01*
X229464061Y-51058382D02*
X229416442Y-51010763D01*
X229416442Y-51010763D02*
X229321204Y-50963144D01*
X229321204Y-50963144D02*
X229130728Y-50915525D01*
X229130728Y-50915525D02*
X228892633Y-50915525D01*
X228892633Y-50915525D02*
X228702157Y-50963144D01*
X228702157Y-50963144D02*
X228606919Y-51010763D01*
X228606919Y-51010763D02*
X228559300Y-51058382D01*
X228559300Y-51058382D02*
X228511680Y-51153620D01*
X228511680Y-51153620D02*
X228511680Y-51248858D01*
X228511680Y-51248858D02*
X228559300Y-51344096D01*
X228559300Y-51344096D02*
X228606919Y-51391715D01*
X228606919Y-51391715D02*
X228702157Y-51439334D01*
X228702157Y-51439334D02*
X228892633Y-51486953D01*
X228892633Y-51486953D02*
X229130728Y-51486953D01*
X229130728Y-51486953D02*
X229321204Y-51439334D01*
X229321204Y-51439334D02*
X229416442Y-51391715D01*
X229416442Y-51391715D02*
X229464061Y-51344096D01*
X229464061Y-51344096D02*
X229511680Y-51248858D01*
X213271680Y-53455287D02*
X213747871Y-53788620D01*
X213271680Y-54026715D02*
X214271680Y-54026715D01*
X214271680Y-54026715D02*
X214271680Y-53645763D01*
X214271680Y-53645763D02*
X214224061Y-53550525D01*
X214224061Y-53550525D02*
X214176442Y-53502906D01*
X214176442Y-53502906D02*
X214081204Y-53455287D01*
X214081204Y-53455287D02*
X213938347Y-53455287D01*
X213938347Y-53455287D02*
X213843109Y-53502906D01*
X213843109Y-53502906D02*
X213795490Y-53550525D01*
X213795490Y-53550525D02*
X213747871Y-53645763D01*
X213747871Y-53645763D02*
X213747871Y-54026715D01*
X213938347Y-52598144D02*
X213271680Y-52598144D01*
X214319300Y-52836239D02*
X213605014Y-53074334D01*
X213605014Y-53074334D02*
X213605014Y-52455287D01*
X215811680Y-52185287D02*
X216287871Y-52518620D01*
X215811680Y-52756715D02*
X216811680Y-52756715D01*
X216811680Y-52756715D02*
X216811680Y-52375763D01*
X216811680Y-52375763D02*
X216764061Y-52280525D01*
X216764061Y-52280525D02*
X216716442Y-52232906D01*
X216716442Y-52232906D02*
X216621204Y-52185287D01*
X216621204Y-52185287D02*
X216478347Y-52185287D01*
X216478347Y-52185287D02*
X216383109Y-52232906D01*
X216383109Y-52232906D02*
X216335490Y-52280525D01*
X216335490Y-52280525D02*
X216287871Y-52375763D01*
X216287871Y-52375763D02*
X216287871Y-52756715D01*
X216811680Y-51280525D02*
X216811680Y-51756715D01*
X216811680Y-51756715D02*
X216335490Y-51804334D01*
X216335490Y-51804334D02*
X216383109Y-51756715D01*
X216383109Y-51756715D02*
X216430728Y-51661477D01*
X216430728Y-51661477D02*
X216430728Y-51423382D01*
X216430728Y-51423382D02*
X216383109Y-51328144D01*
X216383109Y-51328144D02*
X216335490Y-51280525D01*
X216335490Y-51280525D02*
X216240252Y-51232906D01*
X216240252Y-51232906D02*
X216002157Y-51232906D01*
X216002157Y-51232906D02*
X215906919Y-51280525D01*
X215906919Y-51280525D02*
X215859300Y-51328144D01*
X215859300Y-51328144D02*
X215811680Y-51423382D01*
X215811680Y-51423382D02*
X215811680Y-51661477D01*
X215811680Y-51661477D02*
X215859300Y-51756715D01*
X215859300Y-51756715D02*
X215906919Y-51804334D01*
X193046919Y-53455287D02*
X192999300Y-53502906D01*
X192999300Y-53502906D02*
X192951680Y-53645763D01*
X192951680Y-53645763D02*
X192951680Y-53741001D01*
X192951680Y-53741001D02*
X192999300Y-53883858D01*
X192999300Y-53883858D02*
X193094538Y-53979096D01*
X193094538Y-53979096D02*
X193189776Y-54026715D01*
X193189776Y-54026715D02*
X193380252Y-54074334D01*
X193380252Y-54074334D02*
X193523109Y-54074334D01*
X193523109Y-54074334D02*
X193713585Y-54026715D01*
X193713585Y-54026715D02*
X193808823Y-53979096D01*
X193808823Y-53979096D02*
X193904061Y-53883858D01*
X193904061Y-53883858D02*
X193951680Y-53741001D01*
X193951680Y-53741001D02*
X193951680Y-53645763D01*
X193951680Y-53645763D02*
X193904061Y-53502906D01*
X193904061Y-53502906D02*
X193856442Y-53455287D01*
X193618347Y-52598144D02*
X192951680Y-52598144D01*
X193999300Y-52836239D02*
X193285014Y-53074334D01*
X193285014Y-53074334D02*
X193285014Y-52455287D01*
X202956100Y-57199010D02*
X202908480Y-57056153D01*
X202908480Y-57056153D02*
X202908480Y-56818058D01*
X202908480Y-56818058D02*
X202956100Y-56722820D01*
X202956100Y-56722820D02*
X203003719Y-56675201D01*
X203003719Y-56675201D02*
X203098957Y-56627582D01*
X203098957Y-56627582D02*
X203194195Y-56627582D01*
X203194195Y-56627582D02*
X203289433Y-56675201D01*
X203289433Y-56675201D02*
X203337052Y-56722820D01*
X203337052Y-56722820D02*
X203384671Y-56818058D01*
X203384671Y-56818058D02*
X203432290Y-57008534D01*
X203432290Y-57008534D02*
X203479909Y-57103772D01*
X203479909Y-57103772D02*
X203527528Y-57151391D01*
X203527528Y-57151391D02*
X203622766Y-57199010D01*
X203622766Y-57199010D02*
X203718004Y-57199010D01*
X203718004Y-57199010D02*
X203813242Y-57151391D01*
X203813242Y-57151391D02*
X203860861Y-57103772D01*
X203860861Y-57103772D02*
X203908480Y-57008534D01*
X203908480Y-57008534D02*
X203908480Y-56770439D01*
X203908480Y-56770439D02*
X203860861Y-56627582D01*
X203003719Y-55627582D02*
X202956100Y-55675201D01*
X202956100Y-55675201D02*
X202908480Y-55818058D01*
X202908480Y-55818058D02*
X202908480Y-55913296D01*
X202908480Y-55913296D02*
X202956100Y-56056153D01*
X202956100Y-56056153D02*
X203051338Y-56151391D01*
X203051338Y-56151391D02*
X203146576Y-56199010D01*
X203146576Y-56199010D02*
X203337052Y-56246629D01*
X203337052Y-56246629D02*
X203479909Y-56246629D01*
X203479909Y-56246629D02*
X203670385Y-56199010D01*
X203670385Y-56199010D02*
X203765623Y-56151391D01*
X203765623Y-56151391D02*
X203860861Y-56056153D01*
X203860861Y-56056153D02*
X203908480Y-55913296D01*
X203908480Y-55913296D02*
X203908480Y-55818058D01*
X203908480Y-55818058D02*
X203860861Y-55675201D01*
X203860861Y-55675201D02*
X203813242Y-55627582D01*
X202908480Y-54722820D02*
X202908480Y-55199010D01*
X202908480Y-55199010D02*
X203908480Y-55199010D01*
X220891680Y-52185287D02*
X221367871Y-52518620D01*
X220891680Y-52756715D02*
X221891680Y-52756715D01*
X221891680Y-52756715D02*
X221891680Y-52375763D01*
X221891680Y-52375763D02*
X221844061Y-52280525D01*
X221844061Y-52280525D02*
X221796442Y-52232906D01*
X221796442Y-52232906D02*
X221701204Y-52185287D01*
X221701204Y-52185287D02*
X221558347Y-52185287D01*
X221558347Y-52185287D02*
X221463109Y-52232906D01*
X221463109Y-52232906D02*
X221415490Y-52280525D01*
X221415490Y-52280525D02*
X221367871Y-52375763D01*
X221367871Y-52375763D02*
X221367871Y-52756715D01*
X221891680Y-51851953D02*
X221891680Y-51185287D01*
X221891680Y-51185287D02*
X220891680Y-51613858D01*
X225971680Y-52185287D02*
X226447871Y-52518620D01*
X225971680Y-52756715D02*
X226971680Y-52756715D01*
X226971680Y-52756715D02*
X226971680Y-52375763D01*
X226971680Y-52375763D02*
X226924061Y-52280525D01*
X226924061Y-52280525D02*
X226876442Y-52232906D01*
X226876442Y-52232906D02*
X226781204Y-52185287D01*
X226781204Y-52185287D02*
X226638347Y-52185287D01*
X226638347Y-52185287D02*
X226543109Y-52232906D01*
X226543109Y-52232906D02*
X226495490Y-52280525D01*
X226495490Y-52280525D02*
X226447871Y-52375763D01*
X226447871Y-52375763D02*
X226447871Y-52756715D01*
X225971680Y-51709096D02*
X225971680Y-51518620D01*
X225971680Y-51518620D02*
X226019300Y-51423382D01*
X226019300Y-51423382D02*
X226066919Y-51375763D01*
X226066919Y-51375763D02*
X226209776Y-51280525D01*
X226209776Y-51280525D02*
X226400252Y-51232906D01*
X226400252Y-51232906D02*
X226781204Y-51232906D01*
X226781204Y-51232906D02*
X226876442Y-51280525D01*
X226876442Y-51280525D02*
X226924061Y-51328144D01*
X226924061Y-51328144D02*
X226971680Y-51423382D01*
X226971680Y-51423382D02*
X226971680Y-51613858D01*
X226971680Y-51613858D02*
X226924061Y-51709096D01*
X226924061Y-51709096D02*
X226876442Y-51756715D01*
X226876442Y-51756715D02*
X226781204Y-51804334D01*
X226781204Y-51804334D02*
X226543109Y-51804334D01*
X226543109Y-51804334D02*
X226447871Y-51756715D01*
X226447871Y-51756715D02*
X226400252Y-51709096D01*
X226400252Y-51709096D02*
X226352633Y-51613858D01*
X226352633Y-51613858D02*
X226352633Y-51423382D01*
X226352633Y-51423382D02*
X226400252Y-51328144D01*
X226400252Y-51328144D02*
X226447871Y-51280525D01*
X226447871Y-51280525D02*
X226543109Y-51232906D01*
X195336100Y-56341867D02*
X195288480Y-56199010D01*
X195288480Y-56199010D02*
X195288480Y-55960915D01*
X195288480Y-55960915D02*
X195336100Y-55865677D01*
X195336100Y-55865677D02*
X195383719Y-55818058D01*
X195383719Y-55818058D02*
X195478957Y-55770439D01*
X195478957Y-55770439D02*
X195574195Y-55770439D01*
X195574195Y-55770439D02*
X195669433Y-55818058D01*
X195669433Y-55818058D02*
X195717052Y-55865677D01*
X195717052Y-55865677D02*
X195764671Y-55960915D01*
X195764671Y-55960915D02*
X195812290Y-56151391D01*
X195812290Y-56151391D02*
X195859909Y-56246629D01*
X195859909Y-56246629D02*
X195907528Y-56294248D01*
X195907528Y-56294248D02*
X196002766Y-56341867D01*
X196002766Y-56341867D02*
X196098004Y-56341867D01*
X196098004Y-56341867D02*
X196193242Y-56294248D01*
X196193242Y-56294248D02*
X196240861Y-56246629D01*
X196240861Y-56246629D02*
X196288480Y-56151391D01*
X196288480Y-56151391D02*
X196288480Y-55913296D01*
X196288480Y-55913296D02*
X196240861Y-55770439D01*
X196288480Y-55437105D02*
X196288480Y-54818058D01*
X196288480Y-54818058D02*
X195907528Y-55151391D01*
X195907528Y-55151391D02*
X195907528Y-55008534D01*
X195907528Y-55008534D02*
X195859909Y-54913296D01*
X195859909Y-54913296D02*
X195812290Y-54865677D01*
X195812290Y-54865677D02*
X195717052Y-54818058D01*
X195717052Y-54818058D02*
X195478957Y-54818058D01*
X195478957Y-54818058D02*
X195383719Y-54865677D01*
X195383719Y-54865677D02*
X195336100Y-54913296D01*
X195336100Y-54913296D02*
X195288480Y-55008534D01*
X195288480Y-55008534D02*
X195288480Y-55294248D01*
X195288480Y-55294248D02*
X195336100Y-55389486D01*
X195336100Y-55389486D02*
X195383719Y-55437105D01*
X195586919Y-53455287D02*
X195539300Y-53502906D01*
X195539300Y-53502906D02*
X195491680Y-53645763D01*
X195491680Y-53645763D02*
X195491680Y-53741001D01*
X195491680Y-53741001D02*
X195539300Y-53883858D01*
X195539300Y-53883858D02*
X195634538Y-53979096D01*
X195634538Y-53979096D02*
X195729776Y-54026715D01*
X195729776Y-54026715D02*
X195920252Y-54074334D01*
X195920252Y-54074334D02*
X196063109Y-54074334D01*
X196063109Y-54074334D02*
X196253585Y-54026715D01*
X196253585Y-54026715D02*
X196348823Y-53979096D01*
X196348823Y-53979096D02*
X196444061Y-53883858D01*
X196444061Y-53883858D02*
X196491680Y-53741001D01*
X196491680Y-53741001D02*
X196491680Y-53645763D01*
X196491680Y-53645763D02*
X196444061Y-53502906D01*
X196444061Y-53502906D02*
X196396442Y-53455287D01*
X196491680Y-52550525D02*
X196491680Y-53026715D01*
X196491680Y-53026715D02*
X196015490Y-53074334D01*
X196015490Y-53074334D02*
X196063109Y-53026715D01*
X196063109Y-53026715D02*
X196110728Y-52931477D01*
X196110728Y-52931477D02*
X196110728Y-52693382D01*
X196110728Y-52693382D02*
X196063109Y-52598144D01*
X196063109Y-52598144D02*
X196015490Y-52550525D01*
X196015490Y-52550525D02*
X195920252Y-52502906D01*
X195920252Y-52502906D02*
X195682157Y-52502906D01*
X195682157Y-52502906D02*
X195586919Y-52550525D01*
X195586919Y-52550525D02*
X195539300Y-52598144D01*
X195539300Y-52598144D02*
X195491680Y-52693382D01*
X195491680Y-52693382D02*
X195491680Y-52931477D01*
X195491680Y-52931477D02*
X195539300Y-53026715D01*
X195539300Y-53026715D02*
X195586919Y-53074334D01*
X218351680Y-52185287D02*
X218827871Y-52518620D01*
X218351680Y-52756715D02*
X219351680Y-52756715D01*
X219351680Y-52756715D02*
X219351680Y-52375763D01*
X219351680Y-52375763D02*
X219304061Y-52280525D01*
X219304061Y-52280525D02*
X219256442Y-52232906D01*
X219256442Y-52232906D02*
X219161204Y-52185287D01*
X219161204Y-52185287D02*
X219018347Y-52185287D01*
X219018347Y-52185287D02*
X218923109Y-52232906D01*
X218923109Y-52232906D02*
X218875490Y-52280525D01*
X218875490Y-52280525D02*
X218827871Y-52375763D01*
X218827871Y-52375763D02*
X218827871Y-52756715D01*
X219351680Y-51328144D02*
X219351680Y-51518620D01*
X219351680Y-51518620D02*
X219304061Y-51613858D01*
X219304061Y-51613858D02*
X219256442Y-51661477D01*
X219256442Y-51661477D02*
X219113585Y-51756715D01*
X219113585Y-51756715D02*
X218923109Y-51804334D01*
X218923109Y-51804334D02*
X218542157Y-51804334D01*
X218542157Y-51804334D02*
X218446919Y-51756715D01*
X218446919Y-51756715D02*
X218399300Y-51709096D01*
X218399300Y-51709096D02*
X218351680Y-51613858D01*
X218351680Y-51613858D02*
X218351680Y-51423382D01*
X218351680Y-51423382D02*
X218399300Y-51328144D01*
X218399300Y-51328144D02*
X218446919Y-51280525D01*
X218446919Y-51280525D02*
X218542157Y-51232906D01*
X218542157Y-51232906D02*
X218780252Y-51232906D01*
X218780252Y-51232906D02*
X218875490Y-51280525D01*
X218875490Y-51280525D02*
X218923109Y-51328144D01*
X218923109Y-51328144D02*
X218970728Y-51423382D01*
X218970728Y-51423382D02*
X218970728Y-51613858D01*
X218970728Y-51613858D02*
X218923109Y-51709096D01*
X218923109Y-51709096D02*
X218875490Y-51756715D01*
X218875490Y-51756715D02*
X218780252Y-51804334D01*
X231051680Y-53391715D02*
X232051680Y-53391715D01*
X231051680Y-52820287D02*
X231623109Y-53248858D01*
X232051680Y-52820287D02*
X231480252Y-53391715D01*
X231099300Y-52010763D02*
X231051680Y-52106001D01*
X231051680Y-52106001D02*
X231051680Y-52296477D01*
X231051680Y-52296477D02*
X231099300Y-52391715D01*
X231099300Y-52391715D02*
X231194538Y-52439334D01*
X231194538Y-52439334D02*
X231575490Y-52439334D01*
X231575490Y-52439334D02*
X231670728Y-52391715D01*
X231670728Y-52391715D02*
X231718347Y-52296477D01*
X231718347Y-52296477D02*
X231718347Y-52106001D01*
X231718347Y-52106001D02*
X231670728Y-52010763D01*
X231670728Y-52010763D02*
X231575490Y-51963144D01*
X231575490Y-51963144D02*
X231480252Y-51963144D01*
X231480252Y-51963144D02*
X231385014Y-52439334D01*
X231718347Y-51629810D02*
X231051680Y-51391715D01*
X231718347Y-51153620D02*
X231051680Y-51391715D01*
X231051680Y-51391715D02*
X230813585Y-51486953D01*
X230813585Y-51486953D02*
X230765966Y-51534572D01*
X230765966Y-51534572D02*
X230718347Y-51629810D01*
X198126919Y-53455287D02*
X198079300Y-53502906D01*
X198079300Y-53502906D02*
X198031680Y-53645763D01*
X198031680Y-53645763D02*
X198031680Y-53741001D01*
X198031680Y-53741001D02*
X198079300Y-53883858D01*
X198079300Y-53883858D02*
X198174538Y-53979096D01*
X198174538Y-53979096D02*
X198269776Y-54026715D01*
X198269776Y-54026715D02*
X198460252Y-54074334D01*
X198460252Y-54074334D02*
X198603109Y-54074334D01*
X198603109Y-54074334D02*
X198793585Y-54026715D01*
X198793585Y-54026715D02*
X198888823Y-53979096D01*
X198888823Y-53979096D02*
X198984061Y-53883858D01*
X198984061Y-53883858D02*
X199031680Y-53741001D01*
X199031680Y-53741001D02*
X199031680Y-53645763D01*
X199031680Y-53645763D02*
X198984061Y-53502906D01*
X198984061Y-53502906D02*
X198936442Y-53455287D01*
X199031680Y-52598144D02*
X199031680Y-52788620D01*
X199031680Y-52788620D02*
X198984061Y-52883858D01*
X198984061Y-52883858D02*
X198936442Y-52931477D01*
X198936442Y-52931477D02*
X198793585Y-53026715D01*
X198793585Y-53026715D02*
X198603109Y-53074334D01*
X198603109Y-53074334D02*
X198222157Y-53074334D01*
X198222157Y-53074334D02*
X198126919Y-53026715D01*
X198126919Y-53026715D02*
X198079300Y-52979096D01*
X198079300Y-52979096D02*
X198031680Y-52883858D01*
X198031680Y-52883858D02*
X198031680Y-52693382D01*
X198031680Y-52693382D02*
X198079300Y-52598144D01*
X198079300Y-52598144D02*
X198126919Y-52550525D01*
X198126919Y-52550525D02*
X198222157Y-52502906D01*
X198222157Y-52502906D02*
X198460252Y-52502906D01*
X198460252Y-52502906D02*
X198555490Y-52550525D01*
X198555490Y-52550525D02*
X198603109Y-52598144D01*
X198603109Y-52598144D02*
X198650728Y-52693382D01*
X198650728Y-52693382D02*
X198650728Y-52883858D01*
X198650728Y-52883858D02*
X198603109Y-52979096D01*
X198603109Y-52979096D02*
X198555490Y-53026715D01*
X198555490Y-53026715D02*
X198460252Y-53074334D01*
X223431680Y-52185287D02*
X223907871Y-52518620D01*
X223431680Y-52756715D02*
X224431680Y-52756715D01*
X224431680Y-52756715D02*
X224431680Y-52375763D01*
X224431680Y-52375763D02*
X224384061Y-52280525D01*
X224384061Y-52280525D02*
X224336442Y-52232906D01*
X224336442Y-52232906D02*
X224241204Y-52185287D01*
X224241204Y-52185287D02*
X224098347Y-52185287D01*
X224098347Y-52185287D02*
X224003109Y-52232906D01*
X224003109Y-52232906D02*
X223955490Y-52280525D01*
X223955490Y-52280525D02*
X223907871Y-52375763D01*
X223907871Y-52375763D02*
X223907871Y-52756715D01*
X224003109Y-51613858D02*
X224050728Y-51709096D01*
X224050728Y-51709096D02*
X224098347Y-51756715D01*
X224098347Y-51756715D02*
X224193585Y-51804334D01*
X224193585Y-51804334D02*
X224241204Y-51804334D01*
X224241204Y-51804334D02*
X224336442Y-51756715D01*
X224336442Y-51756715D02*
X224384061Y-51709096D01*
X224384061Y-51709096D02*
X224431680Y-51613858D01*
X224431680Y-51613858D02*
X224431680Y-51423382D01*
X224431680Y-51423382D02*
X224384061Y-51328144D01*
X224384061Y-51328144D02*
X224336442Y-51280525D01*
X224336442Y-51280525D02*
X224241204Y-51232906D01*
X224241204Y-51232906D02*
X224193585Y-51232906D01*
X224193585Y-51232906D02*
X224098347Y-51280525D01*
X224098347Y-51280525D02*
X224050728Y-51328144D01*
X224050728Y-51328144D02*
X224003109Y-51423382D01*
X224003109Y-51423382D02*
X224003109Y-51613858D01*
X224003109Y-51613858D02*
X223955490Y-51709096D01*
X223955490Y-51709096D02*
X223907871Y-51756715D01*
X223907871Y-51756715D02*
X223812633Y-51804334D01*
X223812633Y-51804334D02*
X223622157Y-51804334D01*
X223622157Y-51804334D02*
X223526919Y-51756715D01*
X223526919Y-51756715D02*
X223479300Y-51709096D01*
X223479300Y-51709096D02*
X223431680Y-51613858D01*
X223431680Y-51613858D02*
X223431680Y-51423382D01*
X223431680Y-51423382D02*
X223479300Y-51328144D01*
X223479300Y-51328144D02*
X223526919Y-51280525D01*
X223526919Y-51280525D02*
X223622157Y-51232906D01*
X223622157Y-51232906D02*
X223812633Y-51232906D01*
X223812633Y-51232906D02*
X223907871Y-51280525D01*
X223907871Y-51280525D02*
X223955490Y-51328144D01*
X223955490Y-51328144D02*
X224003109Y-51423382D01*
X190256100Y-56341867D02*
X190208480Y-56199010D01*
X190208480Y-56199010D02*
X190208480Y-55960915D01*
X190208480Y-55960915D02*
X190256100Y-55865677D01*
X190256100Y-55865677D02*
X190303719Y-55818058D01*
X190303719Y-55818058D02*
X190398957Y-55770439D01*
X190398957Y-55770439D02*
X190494195Y-55770439D01*
X190494195Y-55770439D02*
X190589433Y-55818058D01*
X190589433Y-55818058D02*
X190637052Y-55865677D01*
X190637052Y-55865677D02*
X190684671Y-55960915D01*
X190684671Y-55960915D02*
X190732290Y-56151391D01*
X190732290Y-56151391D02*
X190779909Y-56246629D01*
X190779909Y-56246629D02*
X190827528Y-56294248D01*
X190827528Y-56294248D02*
X190922766Y-56341867D01*
X190922766Y-56341867D02*
X191018004Y-56341867D01*
X191018004Y-56341867D02*
X191113242Y-56294248D01*
X191113242Y-56294248D02*
X191160861Y-56246629D01*
X191160861Y-56246629D02*
X191208480Y-56151391D01*
X191208480Y-56151391D02*
X191208480Y-55913296D01*
X191208480Y-55913296D02*
X191160861Y-55770439D01*
X190208480Y-54818058D02*
X190208480Y-55389486D01*
X190208480Y-55103772D02*
X191208480Y-55103772D01*
X191208480Y-55103772D02*
X191065623Y-55199010D01*
X191065623Y-55199010D02*
X190970385Y-55294248D01*
X190970385Y-55294248D02*
X190922766Y-55389486D01*
X186257061Y-56913296D02*
X186304680Y-57008534D01*
X186304680Y-57008534D02*
X186304680Y-57151391D01*
X186304680Y-57151391D02*
X186257061Y-57294248D01*
X186257061Y-57294248D02*
X186161823Y-57389486D01*
X186161823Y-57389486D02*
X186066585Y-57437105D01*
X186066585Y-57437105D02*
X185876109Y-57484724D01*
X185876109Y-57484724D02*
X185733252Y-57484724D01*
X185733252Y-57484724D02*
X185542776Y-57437105D01*
X185542776Y-57437105D02*
X185447538Y-57389486D01*
X185447538Y-57389486D02*
X185352300Y-57294248D01*
X185352300Y-57294248D02*
X185304680Y-57151391D01*
X185304680Y-57151391D02*
X185304680Y-57056153D01*
X185304680Y-57056153D02*
X185352300Y-56913296D01*
X185352300Y-56913296D02*
X185399919Y-56865677D01*
X185399919Y-56865677D02*
X185733252Y-56865677D01*
X185733252Y-56865677D02*
X185733252Y-57056153D01*
X185304680Y-56437105D02*
X186304680Y-56437105D01*
X186304680Y-56437105D02*
X185304680Y-55865677D01*
X185304680Y-55865677D02*
X186304680Y-55865677D01*
X185304680Y-55389486D02*
X186304680Y-55389486D01*
X186304680Y-55389486D02*
X186304680Y-55151391D01*
X186304680Y-55151391D02*
X186257061Y-55008534D01*
X186257061Y-55008534D02*
X186161823Y-54913296D01*
X186161823Y-54913296D02*
X186066585Y-54865677D01*
X186066585Y-54865677D02*
X185876109Y-54818058D01*
X185876109Y-54818058D02*
X185733252Y-54818058D01*
X185733252Y-54818058D02*
X185542776Y-54865677D01*
X185542776Y-54865677D02*
X185447538Y-54913296D01*
X185447538Y-54913296D02*
X185352300Y-55008534D01*
X185352300Y-55008534D02*
X185304680Y-55151391D01*
X185304680Y-55151391D02*
X185304680Y-55389486D01*
X198828480Y-58341867D02*
X197828480Y-58008534D01*
X197828480Y-58008534D02*
X198828480Y-57675201D01*
X197923719Y-56770439D02*
X197876100Y-56818058D01*
X197876100Y-56818058D02*
X197828480Y-56960915D01*
X197828480Y-56960915D02*
X197828480Y-57056153D01*
X197828480Y-57056153D02*
X197876100Y-57199010D01*
X197876100Y-57199010D02*
X197971338Y-57294248D01*
X197971338Y-57294248D02*
X198066576Y-57341867D01*
X198066576Y-57341867D02*
X198257052Y-57389486D01*
X198257052Y-57389486D02*
X198399909Y-57389486D01*
X198399909Y-57389486D02*
X198590385Y-57341867D01*
X198590385Y-57341867D02*
X198685623Y-57294248D01*
X198685623Y-57294248D02*
X198780861Y-57199010D01*
X198780861Y-57199010D02*
X198828480Y-57056153D01*
X198828480Y-57056153D02*
X198828480Y-56960915D01*
X198828480Y-56960915D02*
X198780861Y-56818058D01*
X198780861Y-56818058D02*
X198733242Y-56770439D01*
X197923719Y-55770439D02*
X197876100Y-55818058D01*
X197876100Y-55818058D02*
X197828480Y-55960915D01*
X197828480Y-55960915D02*
X197828480Y-56056153D01*
X197828480Y-56056153D02*
X197876100Y-56199010D01*
X197876100Y-56199010D02*
X197971338Y-56294248D01*
X197971338Y-56294248D02*
X198066576Y-56341867D01*
X198066576Y-56341867D02*
X198257052Y-56389486D01*
X198257052Y-56389486D02*
X198399909Y-56389486D01*
X198399909Y-56389486D02*
X198590385Y-56341867D01*
X198590385Y-56341867D02*
X198685623Y-56294248D01*
X198685623Y-56294248D02*
X198780861Y-56199010D01*
X198780861Y-56199010D02*
X198828480Y-56056153D01*
X198828480Y-56056153D02*
X198828480Y-55960915D01*
X198828480Y-55960915D02*
X198780861Y-55818058D01*
X198780861Y-55818058D02*
X198733242Y-55770439D01*
X198828480Y-54865677D02*
X198828480Y-55341867D01*
X198828480Y-55341867D02*
X198352290Y-55389486D01*
X198352290Y-55389486D02*
X198399909Y-55341867D01*
X198399909Y-55341867D02*
X198447528Y-55246629D01*
X198447528Y-55246629D02*
X198447528Y-55008534D01*
X198447528Y-55008534D02*
X198399909Y-54913296D01*
X198399909Y-54913296D02*
X198352290Y-54865677D01*
X198352290Y-54865677D02*
X198257052Y-54818058D01*
X198257052Y-54818058D02*
X198018957Y-54818058D01*
X198018957Y-54818058D02*
X197923719Y-54865677D01*
X197923719Y-54865677D02*
X197876100Y-54913296D01*
X197876100Y-54913296D02*
X197828480Y-55008534D01*
X197828480Y-55008534D02*
X197828480Y-55246629D01*
X197828480Y-55246629D02*
X197876100Y-55341867D01*
X197876100Y-55341867D02*
X197923719Y-55389486D01*
X200666919Y-53455287D02*
X200619300Y-53502906D01*
X200619300Y-53502906D02*
X200571680Y-53645763D01*
X200571680Y-53645763D02*
X200571680Y-53741001D01*
X200571680Y-53741001D02*
X200619300Y-53883858D01*
X200619300Y-53883858D02*
X200714538Y-53979096D01*
X200714538Y-53979096D02*
X200809776Y-54026715D01*
X200809776Y-54026715D02*
X201000252Y-54074334D01*
X201000252Y-54074334D02*
X201143109Y-54074334D01*
X201143109Y-54074334D02*
X201333585Y-54026715D01*
X201333585Y-54026715D02*
X201428823Y-53979096D01*
X201428823Y-53979096D02*
X201524061Y-53883858D01*
X201524061Y-53883858D02*
X201571680Y-53741001D01*
X201571680Y-53741001D02*
X201571680Y-53645763D01*
X201571680Y-53645763D02*
X201524061Y-53502906D01*
X201524061Y-53502906D02*
X201476442Y-53455287D01*
X201571680Y-53121953D02*
X201571680Y-52455287D01*
X201571680Y-52455287D02*
X200571680Y-52883858D01*
X210731680Y-53455287D02*
X211207871Y-53788620D01*
X210731680Y-54026715D02*
X211731680Y-54026715D01*
X211731680Y-54026715D02*
X211731680Y-53645763D01*
X211731680Y-53645763D02*
X211684061Y-53550525D01*
X211684061Y-53550525D02*
X211636442Y-53502906D01*
X211636442Y-53502906D02*
X211541204Y-53455287D01*
X211541204Y-53455287D02*
X211398347Y-53455287D01*
X211398347Y-53455287D02*
X211303109Y-53502906D01*
X211303109Y-53502906D02*
X211255490Y-53550525D01*
X211255490Y-53550525D02*
X211207871Y-53645763D01*
X211207871Y-53645763D02*
X211207871Y-54026715D01*
X211731680Y-53121953D02*
X211731680Y-52502906D01*
X211731680Y-52502906D02*
X211350728Y-52836239D01*
X211350728Y-52836239D02*
X211350728Y-52693382D01*
X211350728Y-52693382D02*
X211303109Y-52598144D01*
X211303109Y-52598144D02*
X211255490Y-52550525D01*
X211255490Y-52550525D02*
X211160252Y-52502906D01*
X211160252Y-52502906D02*
X210922157Y-52502906D01*
X210922157Y-52502906D02*
X210826919Y-52550525D01*
X210826919Y-52550525D02*
X210779300Y-52598144D01*
X210779300Y-52598144D02*
X210731680Y-52693382D01*
X210731680Y-52693382D02*
X210731680Y-52979096D01*
X210731680Y-52979096D02*
X210779300Y-53074334D01*
X210779300Y-53074334D02*
X210826919Y-53121953D01*
X190506919Y-53455287D02*
X190459300Y-53502906D01*
X190459300Y-53502906D02*
X190411680Y-53645763D01*
X190411680Y-53645763D02*
X190411680Y-53741001D01*
X190411680Y-53741001D02*
X190459300Y-53883858D01*
X190459300Y-53883858D02*
X190554538Y-53979096D01*
X190554538Y-53979096D02*
X190649776Y-54026715D01*
X190649776Y-54026715D02*
X190840252Y-54074334D01*
X190840252Y-54074334D02*
X190983109Y-54074334D01*
X190983109Y-54074334D02*
X191173585Y-54026715D01*
X191173585Y-54026715D02*
X191268823Y-53979096D01*
X191268823Y-53979096D02*
X191364061Y-53883858D01*
X191364061Y-53883858D02*
X191411680Y-53741001D01*
X191411680Y-53741001D02*
X191411680Y-53645763D01*
X191411680Y-53645763D02*
X191364061Y-53502906D01*
X191364061Y-53502906D02*
X191316442Y-53455287D01*
X191411680Y-53121953D02*
X191411680Y-52502906D01*
X191411680Y-52502906D02*
X191030728Y-52836239D01*
X191030728Y-52836239D02*
X191030728Y-52693382D01*
X191030728Y-52693382D02*
X190983109Y-52598144D01*
X190983109Y-52598144D02*
X190935490Y-52550525D01*
X190935490Y-52550525D02*
X190840252Y-52502906D01*
X190840252Y-52502906D02*
X190602157Y-52502906D01*
X190602157Y-52502906D02*
X190506919Y-52550525D01*
X190506919Y-52550525D02*
X190459300Y-52598144D01*
X190459300Y-52598144D02*
X190411680Y-52693382D01*
X190411680Y-52693382D02*
X190411680Y-52979096D01*
X190411680Y-52979096D02*
X190459300Y-53074334D01*
X190459300Y-53074334D02*
X190506919Y-53121953D01*
%TO.C,J1*%
X180697100Y-45283600D02*
X213717100Y-45283600D01*
X180697100Y-49728600D02*
X180697100Y-45283600D01*
X180697100Y-54173600D02*
X180697100Y-49728600D01*
X181967100Y-46553600D02*
X212447100Y-46553600D01*
X181967100Y-52903600D02*
X181967100Y-46553600D01*
D12*
X184459100Y-49995600D02*
X184459100Y-47235600D01*
D11*
X194667100Y-54173600D02*
X194667100Y-52903600D01*
X199747100Y-54173600D02*
X199747100Y-52903600D01*
X212447100Y-46553600D02*
X212447100Y-52903600D01*
X212447100Y-52903600D02*
X181967100Y-52903600D01*
X213717100Y-45283600D02*
X213717100Y-54173600D01*
X213717100Y-54173600D02*
X180697100Y-54173600D01*
D12*
X232829100Y-47235600D02*
X184459100Y-47235600D01*
X232829100Y-49995600D02*
X184459100Y-49995600D01*
X232829100Y-49995600D02*
X232829100Y-47235600D01*
X234099100Y-49995600D02*
X235479100Y-49995600D01*
X235479100Y-49995600D02*
X235479100Y-48615600D01*
%TD*%
%LPC*%
D13*
%TO.C,SW5*%
X265557000Y-78676500D03*
D14*
X270637000Y-78676500D03*
D13*
X275717000Y-78676500D03*
D15*
X273177000Y-73596500D03*
X266827000Y-76136500D03*
X269367000Y-83756500D03*
X271907000Y-83756500D03*
%TD*%
D16*
%TO.C,SW11*%
X263601000Y-109791500D03*
D14*
X263601000Y-125031500D03*
D13*
X270421000Y-116791500D03*
D14*
X275501000Y-116791500D03*
D13*
X280581000Y-116791500D03*
D16*
X287401000Y-109791500D03*
D14*
X287401000Y-125031500D03*
D15*
X278041000Y-111711500D03*
X271691000Y-114251500D03*
X274231000Y-121871500D03*
X276771000Y-121871500D03*
%TD*%
D13*
%TO.C,SW12*%
X284607000Y-78676500D03*
D14*
X289687000Y-78676500D03*
D13*
X294767000Y-78676500D03*
D15*
X292227000Y-73596500D03*
X285877000Y-76136500D03*
X288417000Y-83756500D03*
X290957000Y-83756500D03*
%TD*%
D13*
%TO.C,SW14*%
X275082000Y-59626500D03*
D14*
X280162000Y-59626500D03*
D13*
X285242000Y-59626500D03*
D15*
X282702000Y-54546500D03*
X276352000Y-57086500D03*
X278892000Y-64706500D03*
X281432000Y-64706500D03*
%TD*%
D13*
%TO.C,SW15*%
X27432000Y-59626500D03*
D14*
X32512000Y-59626500D03*
D13*
X37592000Y-59626500D03*
D15*
X35052000Y-54546500D03*
X28702000Y-57086500D03*
X31242000Y-64706500D03*
X33782000Y-64706500D03*
%TD*%
D13*
%TO.C,SW20*%
X241808000Y-116776500D03*
D14*
X246888000Y-116776500D03*
D13*
X251968000Y-116776500D03*
D15*
X249428000Y-111696500D03*
X243078000Y-114236500D03*
X245618000Y-121856500D03*
X248158000Y-121856500D03*
%TD*%
D13*
%TO.C,SW21*%
X203708000Y-116776500D03*
D14*
X208788000Y-116776500D03*
D13*
X213868000Y-116776500D03*
D15*
X211328000Y-111696500D03*
X204978000Y-114236500D03*
X207518000Y-121856500D03*
X210058000Y-121856500D03*
%TD*%
D13*
%TO.C,SW22*%
X165608000Y-116776500D03*
D14*
X170688000Y-116776500D03*
D13*
X175768000Y-116776500D03*
D15*
X173228000Y-111696500D03*
X166878000Y-114236500D03*
X169418000Y-121856500D03*
X171958000Y-121856500D03*
%TD*%
D13*
%TO.C,SW23*%
X127508000Y-116776500D03*
D14*
X132588000Y-116776500D03*
D13*
X137668000Y-116776500D03*
D15*
X135128000Y-111696500D03*
X128778000Y-114236500D03*
X131318000Y-121856500D03*
X133858000Y-121856500D03*
%TD*%
D13*
%TO.C,SW24*%
X89408000Y-116776500D03*
D14*
X94488000Y-116776500D03*
D13*
X99568000Y-116776500D03*
D15*
X97028000Y-111696500D03*
X90678000Y-114236500D03*
X93218000Y-121856500D03*
X95758000Y-121856500D03*
%TD*%
D13*
%TO.C,SW27*%
X275336000Y-97726500D03*
D14*
X280416000Y-97726500D03*
D13*
X285496000Y-97726500D03*
D15*
X282956000Y-92646500D03*
X276606000Y-95186500D03*
X279146000Y-102806500D03*
X281686000Y-102806500D03*
%TD*%
D13*
%TO.C,SW28*%
X222758000Y-116776500D03*
D14*
X227838000Y-116776500D03*
D13*
X232918000Y-116776500D03*
D15*
X230378000Y-111696500D03*
X224028000Y-114236500D03*
X226568000Y-121856500D03*
X229108000Y-121856500D03*
%TD*%
D13*
%TO.C,SW29*%
X184658000Y-116776500D03*
D14*
X189738000Y-116776500D03*
D13*
X194818000Y-116776500D03*
D15*
X192278000Y-111696500D03*
X185928000Y-114236500D03*
X188468000Y-121856500D03*
X191008000Y-121856500D03*
%TD*%
D13*
%TO.C,SW30*%
X146558000Y-116776500D03*
D14*
X151638000Y-116776500D03*
D13*
X156718000Y-116776500D03*
D15*
X154178000Y-111696500D03*
X147828000Y-114236500D03*
X150368000Y-121856500D03*
X152908000Y-121856500D03*
%TD*%
D13*
%TO.C,SW32*%
X70358000Y-116776500D03*
D14*
X75438000Y-116776500D03*
D13*
X80518000Y-116776500D03*
D15*
X77978000Y-111696500D03*
X71628000Y-114236500D03*
X74168000Y-121856500D03*
X76708000Y-121856500D03*
%TD*%
D13*
%TO.C,SW36*%
X232410000Y-97726500D03*
D14*
X237490000Y-97726500D03*
D13*
X242570000Y-97726500D03*
D15*
X240030000Y-92646500D03*
X233680000Y-95186500D03*
X236220000Y-102806500D03*
X238760000Y-102806500D03*
%TD*%
D13*
%TO.C,SW40*%
X80010000Y-97726500D03*
D14*
X85090000Y-97726500D03*
D13*
X90170000Y-97726500D03*
D15*
X87630000Y-92646500D03*
X81280000Y-95186500D03*
X83820000Y-102806500D03*
X86360000Y-102806500D03*
%TD*%
D13*
%TO.C,SW44*%
X213360000Y-97726500D03*
D14*
X218440000Y-97726500D03*
D13*
X223520000Y-97726500D03*
D15*
X220980000Y-92646500D03*
X214630000Y-95186500D03*
X217170000Y-102806500D03*
X219710000Y-102806500D03*
%TD*%
D13*
%TO.C,SW47*%
X99060000Y-97726500D03*
D14*
X104140000Y-97726500D03*
D13*
X109220000Y-97726500D03*
D15*
X106680000Y-92646500D03*
X100330000Y-95186500D03*
X102870000Y-102806500D03*
X105410000Y-102806500D03*
%TD*%
D13*
%TO.C,SW52*%
X227457000Y-78676500D03*
D14*
X232537000Y-78676500D03*
D13*
X237617000Y-78676500D03*
D15*
X235077000Y-73596500D03*
X228727000Y-76136500D03*
X231267000Y-83756500D03*
X233807000Y-83756500D03*
%TD*%
D13*
%TO.C,SW53*%
X189357000Y-78676500D03*
D14*
X194437000Y-78676500D03*
D13*
X199517000Y-78676500D03*
D15*
X196977000Y-73596500D03*
X190627000Y-76136500D03*
X193167000Y-83756500D03*
X195707000Y-83756500D03*
%TD*%
D13*
%TO.C,SW55*%
X113157000Y-78676500D03*
D14*
X118237000Y-78676500D03*
D13*
X123317000Y-78676500D03*
D15*
X120777000Y-73596500D03*
X114427000Y-76136500D03*
X116967000Y-83756500D03*
X119507000Y-83756500D03*
%TD*%
D13*
%TO.C,SW56*%
X75057000Y-78676500D03*
D14*
X80137000Y-78676500D03*
D13*
X85217000Y-78676500D03*
D15*
X82677000Y-73596500D03*
X76327000Y-76136500D03*
X78867000Y-83756500D03*
X81407000Y-83756500D03*
%TD*%
D13*
%TO.C,SW59*%
X246507000Y-78676500D03*
D14*
X251587000Y-78676500D03*
D13*
X256667000Y-78676500D03*
D15*
X254127000Y-73596500D03*
X247777000Y-76136500D03*
X250317000Y-83756500D03*
X252857000Y-83756500D03*
%TD*%
D13*
%TO.C,SW60*%
X208407000Y-78676500D03*
D14*
X213487000Y-78676500D03*
D13*
X218567000Y-78676500D03*
D15*
X216027000Y-73596500D03*
X209677000Y-76136500D03*
X212217000Y-83756500D03*
X214757000Y-83756500D03*
%TD*%
D13*
%TO.C,SW61*%
X170307000Y-78676500D03*
D14*
X175387000Y-78676500D03*
D13*
X180467000Y-78676500D03*
D15*
X177927000Y-73596500D03*
X171577000Y-76136500D03*
X174117000Y-83756500D03*
X176657000Y-83756500D03*
%TD*%
D13*
%TO.C,SW62*%
X132207000Y-78676500D03*
D14*
X137287000Y-78676500D03*
D13*
X142367000Y-78676500D03*
D15*
X139827000Y-73596500D03*
X133477000Y-76136500D03*
X136017000Y-83756500D03*
X138557000Y-83756500D03*
%TD*%
D13*
%TO.C,SW63*%
X94107000Y-78676500D03*
D14*
X99187000Y-78676500D03*
D13*
X104267000Y-78676500D03*
D15*
X101727000Y-73596500D03*
X95377000Y-76136500D03*
X97917000Y-83756500D03*
X100457000Y-83756500D03*
%TD*%
D13*
%TO.C,SW70*%
X141732000Y-59626500D03*
D14*
X146812000Y-59626500D03*
D13*
X151892000Y-59626500D03*
D15*
X149352000Y-54546500D03*
X143002000Y-57086500D03*
X145542000Y-64706500D03*
X148082000Y-64706500D03*
%TD*%
D13*
%TO.C,SW75*%
X236982000Y-59626500D03*
D14*
X242062000Y-59626500D03*
D13*
X247142000Y-59626500D03*
D15*
X244602000Y-54546500D03*
X238252000Y-57086500D03*
X240792000Y-64706500D03*
X243332000Y-64706500D03*
%TD*%
D13*
%TO.C,SW77*%
X160782000Y-59626500D03*
D14*
X165862000Y-59626500D03*
D13*
X170942000Y-59626500D03*
D15*
X168402000Y-54546500D03*
X162052000Y-57086500D03*
X164592000Y-64706500D03*
X167132000Y-64706500D03*
%TD*%
D13*
%TO.C,SW78*%
X122682000Y-59626500D03*
D14*
X127762000Y-59626500D03*
D13*
X132842000Y-59626500D03*
D15*
X130302000Y-54546500D03*
X123952000Y-57086500D03*
X126492000Y-64706500D03*
X129032000Y-64706500D03*
%TD*%
D13*
%TO.C,SW64*%
X56007000Y-78676500D03*
D14*
X61087000Y-78676500D03*
D13*
X66167000Y-78676500D03*
D15*
X63627000Y-73596500D03*
X57277000Y-76136500D03*
X59817000Y-83756500D03*
X62357000Y-83756500D03*
%TD*%
D16*
%TO.C,SW16*%
X34963000Y-109776500D03*
D14*
X34963000Y-125016500D03*
D13*
X41783000Y-116776500D03*
D14*
X46863000Y-116776500D03*
D13*
X51943000Y-116776500D03*
D16*
X58763000Y-109776500D03*
D14*
X58763000Y-125016500D03*
D15*
X49403000Y-111696500D03*
X43053000Y-114236500D03*
X45593000Y-121856500D03*
X48133000Y-121856500D03*
%TD*%
D13*
%TO.C,SW68*%
X217932000Y-59626500D03*
D14*
X223012000Y-59626500D03*
D13*
X228092000Y-59626500D03*
D15*
X225552000Y-54546500D03*
X219202000Y-57086500D03*
X221742000Y-64706500D03*
X224282000Y-64706500D03*
%TD*%
D13*
%TO.C,SW4*%
X251460000Y-97726500D03*
D14*
X256540000Y-97726500D03*
D13*
X261620000Y-97726500D03*
D15*
X259080000Y-92646500D03*
X252730000Y-95186500D03*
X255270000Y-102806500D03*
X257810000Y-102806500D03*
%TD*%
D13*
%TO.C,SW79*%
X84582000Y-59626500D03*
D14*
X89662000Y-59626500D03*
D13*
X94742000Y-59626500D03*
D15*
X92202000Y-54546500D03*
X85852000Y-57086500D03*
X88392000Y-64706500D03*
X90932000Y-64706500D03*
%TD*%
D13*
%TO.C,SW71*%
X103632000Y-59626500D03*
D14*
X108712000Y-59626500D03*
D13*
X113792000Y-59626500D03*
D15*
X111252000Y-54546500D03*
X104902000Y-57086500D03*
X107442000Y-64706500D03*
X109982000Y-64706500D03*
%TD*%
D13*
%TO.C,SW72*%
X65532000Y-59626500D03*
D14*
X70612000Y-59626500D03*
D13*
X75692000Y-59626500D03*
D15*
X73152000Y-54546500D03*
X66802000Y-57086500D03*
X69342000Y-64706500D03*
X71882000Y-64706500D03*
%TD*%
D13*
%TO.C,SW80*%
X46482000Y-59626500D03*
D14*
X51562000Y-59626500D03*
D13*
X56642000Y-59626500D03*
D15*
X54102000Y-54546500D03*
X47752000Y-57086500D03*
X50292000Y-64706500D03*
X52832000Y-64706500D03*
%TD*%
D13*
%TO.C,SW8*%
X32194500Y-78676500D03*
D14*
X37274500Y-78676500D03*
D13*
X42354500Y-78676500D03*
D15*
X39814500Y-73596500D03*
X33464500Y-76136500D03*
X36004500Y-83756500D03*
X38544500Y-83756500D03*
%TD*%
D13*
%TO.C,SW7*%
X256032000Y-59626500D03*
D14*
X261112000Y-59626500D03*
D13*
X266192000Y-59626500D03*
D15*
X263652000Y-54546500D03*
X257302000Y-57086500D03*
X259842000Y-64706500D03*
X262382000Y-64706500D03*
%TD*%
D13*
%TO.C,SW39*%
X118110000Y-97726500D03*
D14*
X123190000Y-97726500D03*
D13*
X128270000Y-97726500D03*
D15*
X125730000Y-92646500D03*
X119380000Y-95186500D03*
X121920000Y-102806500D03*
X124460000Y-102806500D03*
%TD*%
D13*
%TO.C,SW37*%
X194310000Y-97726500D03*
D14*
X199390000Y-97726500D03*
D13*
X204470000Y-97726500D03*
D15*
X201930000Y-92646500D03*
X195580000Y-95186500D03*
X198120000Y-102806500D03*
X200660000Y-102806500D03*
%TD*%
D13*
%TO.C,SW38*%
X156210000Y-97726500D03*
D14*
X161290000Y-97726500D03*
D13*
X166370000Y-97726500D03*
D15*
X163830000Y-92646500D03*
X157480000Y-95186500D03*
X160020000Y-102806500D03*
X162560000Y-102806500D03*
%TD*%
D13*
%TO.C,SW46*%
X137160000Y-97726500D03*
D14*
X142240000Y-97726500D03*
D13*
X147320000Y-97726500D03*
D15*
X144780000Y-92646500D03*
X138430000Y-95186500D03*
X140970000Y-102806500D03*
X143510000Y-102806500D03*
%TD*%
D13*
%TO.C,SW45*%
X175260000Y-97726500D03*
D14*
X180340000Y-97726500D03*
D13*
X185420000Y-97726500D03*
D15*
X182880000Y-92646500D03*
X176530000Y-95186500D03*
X179070000Y-102806500D03*
X181610000Y-102806500D03*
%TD*%
D13*
%TO.C,SW31*%
X108458000Y-116776500D03*
D14*
X113538000Y-116776500D03*
D13*
X118618000Y-116776500D03*
D15*
X116078000Y-111696500D03*
X109728000Y-114236500D03*
X112268000Y-121856500D03*
X114808000Y-121856500D03*
%TD*%
D13*
%TO.C,SW67*%
X84645500Y-135826500D03*
D14*
X89725500Y-135826500D03*
D13*
X94805500Y-135826500D03*
D15*
X92265500Y-130746500D03*
X85915500Y-133286500D03*
X88455500Y-140906500D03*
X90995500Y-140906500D03*
%TD*%
D13*
%TO.C,SW48*%
X60960000Y-97726500D03*
D14*
X66040000Y-97726500D03*
D13*
X71120000Y-97726500D03*
D15*
X68580000Y-92646500D03*
X62230000Y-95186500D03*
X64770000Y-102806500D03*
X67310000Y-102806500D03*
%TD*%
D13*
%TO.C,SW54*%
X151257000Y-78676500D03*
D14*
X156337000Y-78676500D03*
D13*
X161417000Y-78676500D03*
D15*
X158877000Y-73596500D03*
X152527000Y-76136500D03*
X155067000Y-83756500D03*
X157607000Y-83756500D03*
%TD*%
D13*
%TO.C,SW320*%
X37084000Y-97663000D03*
D14*
X42164000Y-97663000D03*
D13*
X47244000Y-97663000D03*
D15*
X44704000Y-92583000D03*
X38354000Y-95123000D03*
X40894000Y-102743000D03*
X43434000Y-102743000D03*
%TD*%
D13*
%TO.C,SW76*%
X198882000Y-59626500D03*
D14*
X203962000Y-59626500D03*
D13*
X209042000Y-59626500D03*
D15*
X206502000Y-54546500D03*
X200152000Y-57086500D03*
X202692000Y-64706500D03*
X205232000Y-64706500D03*
%TD*%
D13*
%TO.C,SW69*%
X179832000Y-59626500D03*
D14*
X184912000Y-59626500D03*
D13*
X189992000Y-59626500D03*
D15*
X187452000Y-54546500D03*
X181102000Y-57086500D03*
X183642000Y-64706500D03*
X186182000Y-64706500D03*
%TD*%
D17*
%TO.C,J2*%
X41148000Y-132270500D03*
D13*
X43688000Y-132270500D03*
X41148000Y-134810500D03*
X43688000Y-134810500D03*
X41148000Y-137350500D03*
X43688000Y-137350500D03*
%TD*%
%TO.C,SW3*%
X229870000Y-135826500D03*
D14*
X234950000Y-135826500D03*
D13*
X240030000Y-135826500D03*
D15*
X237490000Y-130746500D03*
X231140000Y-133286500D03*
X233680000Y-140906500D03*
X236220000Y-140906500D03*
%TD*%
D17*
%TO.C,J3*%
X253276100Y-134150100D03*
D13*
X255816100Y-134150100D03*
X253276100Y-136690100D03*
X255816100Y-136690100D03*
%TD*%
D17*
%TO.C,J5*%
X194500500Y-134683500D03*
D13*
X197040500Y-134683500D03*
X194500500Y-137223500D03*
X197040500Y-137223500D03*
%TD*%
D17*
%TO.C,J6*%
X127825500Y-134112000D03*
D13*
X130365500Y-134112000D03*
X127825500Y-136652000D03*
X130365500Y-136652000D03*
%TD*%
D17*
%TO.C,J67*%
X68008500Y-134302500D03*
D13*
X70548500Y-134302500D03*
X68008500Y-136842500D03*
X70548500Y-136842500D03*
%TD*%
D16*
%TO.C,SW6*%
X113538000Y-128826500D03*
D14*
X113538000Y-144066500D03*
D13*
X158458000Y-135826500D03*
D14*
X163538000Y-135826500D03*
D13*
X168618000Y-135826500D03*
D16*
X213538000Y-128826500D03*
D14*
X213538000Y-144066500D03*
D15*
X166078000Y-130746500D03*
X159728000Y-133286500D03*
X162268000Y-140906500D03*
X164808000Y-140906500D03*
%TD*%
D13*
%TO.C,SW66*%
X338201000Y-59639200D03*
D14*
X343281000Y-59639200D03*
D13*
X348361000Y-59639200D03*
D15*
X345821000Y-54559200D03*
X339471000Y-57099200D03*
X342011000Y-64719200D03*
X344551000Y-64719200D03*
%TD*%
D13*
%TO.C,SW74*%
X319151000Y-59639200D03*
D14*
X324231000Y-59639200D03*
D13*
X329311000Y-59639200D03*
D15*
X326771000Y-54559200D03*
X320421000Y-57099200D03*
X322961000Y-64719200D03*
X325501000Y-64719200D03*
%TD*%
D13*
%TO.C,SW58*%
X319151000Y-78689200D03*
D14*
X324231000Y-78689200D03*
D13*
X329311000Y-78689200D03*
D15*
X326771000Y-73609200D03*
X320421000Y-76149200D03*
X322961000Y-83769200D03*
X325501000Y-83769200D03*
%TD*%
D13*
%TO.C,SW65*%
X376301000Y-59639200D03*
D14*
X381381000Y-59639200D03*
D13*
X386461000Y-59639200D03*
D15*
X383921000Y-54559200D03*
X377571000Y-57099200D03*
X380111000Y-64719200D03*
X382651000Y-64719200D03*
%TD*%
D13*
%TO.C,SW73*%
X357251000Y-59639200D03*
D14*
X362331000Y-59639200D03*
D13*
X367411000Y-59639200D03*
D15*
X364871000Y-54559200D03*
X358521000Y-57099200D03*
X361061000Y-64719200D03*
X363601000Y-64719200D03*
%TD*%
D13*
%TO.C,SW50*%
X338201000Y-78689200D03*
D14*
X343281000Y-78689200D03*
D13*
X348361000Y-78689200D03*
D15*
X345821000Y-73609200D03*
X339471000Y-76149200D03*
X342011000Y-83769200D03*
X344551000Y-83769200D03*
%TD*%
D13*
%TO.C,SW10*%
X319151000Y-135839200D03*
D14*
X324231000Y-135839200D03*
D13*
X329311000Y-135839200D03*
D15*
X326771000Y-130759200D03*
X320421000Y-133299200D03*
X322961000Y-140919200D03*
X325501000Y-140919200D03*
%TD*%
D13*
%TO.C,SW41*%
X357251000Y-97739200D03*
D14*
X362331000Y-97739200D03*
D13*
X367411000Y-97739200D03*
D15*
X364871000Y-92659200D03*
X358521000Y-95199200D03*
X361061000Y-102819200D03*
X363601000Y-102819200D03*
%TD*%
D13*
%TO.C,SW33*%
X376301000Y-97739200D03*
D14*
X381381000Y-97739200D03*
D13*
X386461000Y-97739200D03*
D15*
X383921000Y-92659200D03*
X377571000Y-95199200D03*
X380111000Y-102819200D03*
X382651000Y-102819200D03*
%TD*%
D13*
%TO.C,SW25*%
X357251000Y-116789200D03*
D14*
X362331000Y-116789200D03*
D13*
X367411000Y-116789200D03*
D15*
X364871000Y-111709200D03*
X358521000Y-114249200D03*
X361061000Y-121869200D03*
X363601000Y-121869200D03*
%TD*%
D13*
%TO.C,SW17*%
X376301000Y-116789200D03*
D14*
X381381000Y-116789200D03*
D13*
X386461000Y-116789200D03*
D15*
X383921000Y-111709200D03*
X377571000Y-114249200D03*
X380111000Y-121869200D03*
X382651000Y-121869200D03*
%TD*%
D13*
%TO.C,SW26*%
X319151000Y-116789200D03*
D14*
X324231000Y-116789200D03*
D13*
X329311000Y-116789200D03*
D15*
X326771000Y-111709200D03*
X320421000Y-114249200D03*
X322961000Y-121869200D03*
X325501000Y-121869200D03*
%TD*%
D13*
%TO.C,SW57*%
X357251000Y-78689200D03*
D14*
X362331000Y-78689200D03*
D13*
X367411000Y-78689200D03*
D15*
X364871000Y-73609200D03*
X358521000Y-76149200D03*
X361061000Y-83769200D03*
X363601000Y-83769200D03*
%TD*%
D13*
%TO.C,SW42*%
X319151000Y-97739200D03*
D14*
X324231000Y-97739200D03*
D13*
X329311000Y-97739200D03*
D15*
X326771000Y-92659200D03*
X320421000Y-95199200D03*
X322961000Y-102819200D03*
X325501000Y-102819200D03*
%TD*%
D13*
%TO.C,SW34*%
X338201000Y-97739200D03*
D14*
X343281000Y-97739200D03*
D13*
X348361000Y-97739200D03*
D15*
X345821000Y-92659200D03*
X339471000Y-95199200D03*
X342011000Y-102819200D03*
X344551000Y-102819200D03*
%TD*%
D13*
%TO.C,SW9*%
X357251000Y-135839200D03*
D14*
X362331000Y-135839200D03*
D13*
X367411000Y-135839200D03*
D15*
X364871000Y-130759200D03*
X358521000Y-133299200D03*
X361061000Y-140919200D03*
X363601000Y-140919200D03*
%TD*%
D13*
%TO.C,SW18*%
X338201000Y-116789200D03*
D14*
X343281000Y-116789200D03*
D13*
X348361000Y-116789200D03*
D15*
X345821000Y-111709200D03*
X339471000Y-114249200D03*
X342011000Y-121869200D03*
X344551000Y-121869200D03*
%TD*%
D13*
%TO.C,SW49*%
X376301000Y-78689200D03*
D14*
X381381000Y-78689200D03*
D13*
X386461000Y-78689200D03*
D15*
X383921000Y-73609200D03*
X377571000Y-76149200D03*
X380111000Y-83769200D03*
X382651000Y-83769200D03*
%TD*%
D13*
%TO.C,SW1*%
X376301000Y-135839200D03*
D14*
X381381000Y-135839200D03*
D13*
X386461000Y-135839200D03*
D15*
X383921000Y-130759200D03*
X377571000Y-133299200D03*
X380111000Y-140919200D03*
X382651000Y-140919200D03*
%TD*%
D13*
%TO.C,SW2*%
X338201000Y-135839200D03*
D14*
X343281000Y-135839200D03*
D13*
X348361000Y-135839200D03*
D15*
X345821000Y-130759200D03*
X339471000Y-133299200D03*
X342011000Y-140919200D03*
X344551000Y-140919200D03*
%TD*%
D18*
%TO.C,U1*%
X302532200Y-64333800D03*
D19*
X302532200Y-66873800D03*
X302532200Y-69413800D03*
X302532200Y-71953800D03*
X302532200Y-74493800D03*
X302532200Y-77033800D03*
X302532200Y-79573800D03*
X302532200Y-82113800D03*
X310152200Y-82113800D03*
X310152200Y-79573800D03*
X310152200Y-77033800D03*
X310152200Y-74493800D03*
X310152200Y-71953800D03*
X310152200Y-69413800D03*
X310152200Y-66873800D03*
X310152200Y-64333800D03*
%TD*%
D17*
%TO.C,J4*%
X293060200Y-59481800D03*
D13*
X295600200Y-59481800D03*
X293060200Y-62021800D03*
X295600200Y-62021800D03*
%TD*%
D20*
%TO.C,U5*%
X310963000Y-125224000D03*
X310963000Y-135224000D03*
X298313000Y-135224000D03*
X298313000Y-125224000D03*
D21*
X301138000Y-124474000D03*
X308138000Y-124474000D03*
X308138000Y-119974000D03*
X301138000Y-119974000D03*
D22*
X307138000Y-138954000D03*
X304638000Y-138954000D03*
X302138000Y-138954000D03*
X295908000Y-132724000D03*
X295908000Y-130224000D03*
X295908000Y-127724000D03*
%TD*%
D17*
%TO.C,J1*%
X234099100Y-48615600D03*
D13*
X231559100Y-48615600D03*
X229019100Y-48615600D03*
X226479100Y-48615600D03*
X223939100Y-48615600D03*
X221399100Y-48615600D03*
X218859100Y-48615600D03*
X216319100Y-48615600D03*
X213779100Y-48615600D03*
X211239100Y-48615600D03*
X208699100Y-48615600D03*
X206159100Y-48615600D03*
X203619100Y-48615600D03*
X201079100Y-48615600D03*
X198539100Y-48615600D03*
X195999100Y-48615600D03*
X193459100Y-48615600D03*
X190919100Y-48615600D03*
X188379100Y-48615600D03*
X185839100Y-48615600D03*
X185839100Y-51155600D03*
X188379100Y-51155600D03*
X190919100Y-51155600D03*
X193459100Y-51155600D03*
X195999100Y-51155600D03*
X198539100Y-51155600D03*
X201079100Y-51155600D03*
X203619100Y-51155600D03*
X206159100Y-51155600D03*
X208699100Y-51155600D03*
%TD*%
%LPD*%
M02*
